G04 (created by PCBNEW-RS274X (2010-12-18 BZR 2669)-stable) date 2011-01-01T22:16:00 CET*
G01*
G70*
G90*
%MOIN*%
G04 Gerber Fmt 3.4, Leading zero omitted, Abs format*
%FSLAX34Y34*%
G04 APERTURE LIST*
%ADD10C,0.006000*%
%ADD11C,0.015000*%
%ADD12R,0.078700X0.216500*%
%ADD13R,0.035000X0.055000*%
%ADD14R,0.020000X0.045000*%
%ADD15R,0.036000X0.036000*%
%ADD16R,0.070900X0.086600*%
%ADD17R,0.055000X0.035000*%
%ADD18R,0.047200X0.047200*%
%ADD19R,0.016000X0.050000*%
%ADD20R,0.141700X0.063000*%
%ADD21R,0.216500X0.078700*%
%ADD22R,0.045000X0.020000*%
%ADD23R,0.100000X0.050000*%
%ADD24R,0.055100X0.070800*%
G04 APERTURE END LIST*
G54D10*
G54D11*
X00850Y-39900D02*
X00850Y-02550D01*
X39000Y-41150D02*
X02300Y-41150D01*
X40200Y-02550D02*
X40200Y-39650D01*
X01600Y-01800D02*
X39450Y-01800D01*
X01600Y-01800D02*
X01535Y-01803D01*
X01470Y-01812D01*
X01406Y-01826D01*
X01344Y-01846D01*
X01284Y-01871D01*
X01226Y-01901D01*
X01170Y-01936D01*
X01118Y-01976D01*
X01070Y-02020D01*
X01026Y-02068D01*
X00986Y-02120D01*
X00951Y-02176D01*
X00921Y-02234D01*
X00896Y-02294D01*
X00876Y-02356D01*
X00862Y-02420D01*
X00853Y-02485D01*
X00850Y-02550D01*
X40200Y-02550D02*
X40197Y-02485D01*
X40188Y-02420D01*
X40174Y-02356D01*
X40154Y-02294D01*
X40129Y-02234D01*
X40099Y-02176D01*
X40064Y-02120D01*
X40024Y-02068D01*
X39980Y-02020D01*
X39932Y-01976D01*
X39880Y-01936D01*
X39825Y-01901D01*
X39766Y-01871D01*
X39706Y-01846D01*
X39644Y-01826D01*
X39580Y-01812D01*
X39515Y-01803D01*
X39450Y-01800D01*
X38999Y-41149D02*
X39116Y-41131D01*
X39231Y-41103D01*
X39343Y-41065D01*
X39451Y-41017D01*
X39555Y-40960D01*
X39653Y-40894D01*
X39746Y-40820D01*
X39831Y-40738D01*
X39909Y-40649D01*
X39979Y-40553D01*
X40041Y-40452D01*
X40093Y-40345D01*
X40136Y-40235D01*
X40169Y-40121D01*
X40192Y-40005D01*
X40205Y-39887D01*
X40207Y-39770D01*
X40199Y-39651D01*
X00851Y-39899D02*
X00865Y-40016D01*
X00889Y-40131D01*
X00923Y-40244D01*
X00966Y-40354D01*
X01019Y-40460D01*
X01081Y-40560D01*
X01152Y-40655D01*
X01231Y-40743D01*
X01316Y-40824D01*
X01409Y-40897D01*
X01508Y-40962D01*
X01612Y-41018D01*
X01720Y-41064D01*
X01832Y-41101D01*
X01947Y-41129D01*
X02064Y-41146D01*
X02182Y-41152D01*
X02299Y-41149D01*
G54D10*
G36*
X22165Y-12328D02*
X21740Y-11903D01*
X21853Y-11790D01*
X22278Y-12215D01*
X22165Y-12328D01*
X22165Y-12328D01*
G37*
G36*
X21942Y-12551D02*
X21517Y-12126D01*
X21630Y-12013D01*
X22055Y-12438D01*
X21942Y-12551D01*
X21942Y-12551D01*
G37*
G36*
X21720Y-12773D02*
X21295Y-12348D01*
X21408Y-12235D01*
X21833Y-12660D01*
X21720Y-12773D01*
X21720Y-12773D01*
G37*
G36*
X21497Y-12996D02*
X21072Y-12571D01*
X21185Y-12458D01*
X21610Y-12883D01*
X21497Y-12996D01*
X21497Y-12996D01*
G37*
G36*
X21274Y-13219D02*
X20849Y-12794D01*
X20962Y-12681D01*
X21387Y-13106D01*
X21274Y-13219D01*
X21274Y-13219D01*
G37*
G36*
X21051Y-13442D02*
X20626Y-13017D01*
X20739Y-12904D01*
X21164Y-13329D01*
X21051Y-13442D01*
X21051Y-13442D01*
G37*
G36*
X22388Y-12105D02*
X21963Y-11680D01*
X22076Y-11567D01*
X22501Y-11992D01*
X22388Y-12105D01*
X22388Y-12105D01*
G37*
G36*
X22610Y-11883D02*
X22185Y-11458D01*
X22298Y-11345D01*
X22723Y-11770D01*
X22610Y-11883D01*
X22610Y-11883D01*
G37*
G36*
X22833Y-11660D02*
X22408Y-11235D01*
X22521Y-11122D01*
X22946Y-11547D01*
X22833Y-11660D01*
X22833Y-11660D01*
G37*
G36*
X23056Y-11437D02*
X22631Y-11012D01*
X22744Y-10899D01*
X23169Y-11324D01*
X23056Y-11437D01*
X23056Y-11437D01*
G37*
G36*
X23279Y-11214D02*
X22854Y-10789D01*
X22967Y-10676D01*
X23392Y-11101D01*
X23279Y-11214D01*
X23279Y-11214D01*
G37*
G36*
X25347Y-15510D02*
X24922Y-15085D01*
X25035Y-14972D01*
X25460Y-15397D01*
X25347Y-15510D01*
X25347Y-15510D01*
G37*
G36*
X25124Y-15733D02*
X24699Y-15308D01*
X24812Y-15195D01*
X25237Y-15620D01*
X25124Y-15733D01*
X25124Y-15733D01*
G37*
G36*
X24902Y-15955D02*
X24477Y-15530D01*
X24590Y-15417D01*
X25015Y-15842D01*
X24902Y-15955D01*
X24902Y-15955D01*
G37*
G36*
X24679Y-16178D02*
X24254Y-15753D01*
X24367Y-15640D01*
X24792Y-16065D01*
X24679Y-16178D01*
X24679Y-16178D01*
G37*
G36*
X24456Y-16401D02*
X24031Y-15976D01*
X24144Y-15863D01*
X24569Y-16288D01*
X24456Y-16401D01*
X24456Y-16401D01*
G37*
G36*
X24233Y-16624D02*
X23808Y-16199D01*
X23921Y-16086D01*
X24346Y-16511D01*
X24233Y-16624D01*
X24233Y-16624D01*
G37*
G36*
X25570Y-15287D02*
X25145Y-14862D01*
X25258Y-14749D01*
X25683Y-15174D01*
X25570Y-15287D01*
X25570Y-15287D01*
G37*
G36*
X25792Y-15065D02*
X25367Y-14640D01*
X25480Y-14527D01*
X25905Y-14952D01*
X25792Y-15065D01*
X25792Y-15065D01*
G37*
G36*
X26015Y-14842D02*
X25590Y-14417D01*
X25703Y-14304D01*
X26128Y-14729D01*
X26015Y-14842D01*
X26015Y-14842D01*
G37*
G36*
X26238Y-14619D02*
X25813Y-14194D01*
X25926Y-14081D01*
X26351Y-14506D01*
X26238Y-14619D01*
X26238Y-14619D01*
G37*
G36*
X26461Y-14396D02*
X26036Y-13971D01*
X26149Y-13858D01*
X26574Y-14283D01*
X26461Y-14396D01*
X26461Y-14396D01*
G37*
G36*
X21853Y-15510D02*
X21740Y-15397D01*
X22165Y-14972D01*
X22278Y-15085D01*
X21853Y-15510D01*
X21853Y-15510D01*
G37*
G36*
X25035Y-12328D02*
X24922Y-12215D01*
X25347Y-11790D01*
X25460Y-11903D01*
X25035Y-12328D01*
X25035Y-12328D01*
G37*
G36*
X22076Y-15733D02*
X21963Y-15620D01*
X22388Y-15195D01*
X22501Y-15308D01*
X22076Y-15733D01*
X22076Y-15733D01*
G37*
G36*
X25258Y-12551D02*
X25145Y-12438D01*
X25570Y-12013D01*
X25683Y-12126D01*
X25258Y-12551D01*
X25258Y-12551D01*
G37*
G36*
X25480Y-12773D02*
X25367Y-12660D01*
X25792Y-12235D01*
X25905Y-12348D01*
X25480Y-12773D01*
X25480Y-12773D01*
G37*
G36*
X22298Y-15955D02*
X22185Y-15842D01*
X22610Y-15417D01*
X22723Y-15530D01*
X22298Y-15955D01*
X22298Y-15955D01*
G37*
G36*
X22521Y-16178D02*
X22408Y-16065D01*
X22833Y-15640D01*
X22946Y-15753D01*
X22521Y-16178D01*
X22521Y-16178D01*
G37*
G36*
X25703Y-12996D02*
X25590Y-12883D01*
X26015Y-12458D01*
X26128Y-12571D01*
X25703Y-12996D01*
X25703Y-12996D01*
G37*
G36*
X25926Y-13219D02*
X25813Y-13106D01*
X26238Y-12681D01*
X26351Y-12794D01*
X25926Y-13219D01*
X25926Y-13219D01*
G37*
G36*
X22744Y-16401D02*
X22631Y-16288D01*
X23056Y-15863D01*
X23169Y-15976D01*
X22744Y-16401D01*
X22744Y-16401D01*
G37*
G36*
X22967Y-16624D02*
X22854Y-16511D01*
X23279Y-16086D01*
X23392Y-16199D01*
X22967Y-16624D01*
X22967Y-16624D01*
G37*
G36*
X26149Y-13442D02*
X26036Y-13329D01*
X26461Y-12904D01*
X26574Y-13017D01*
X26149Y-13442D01*
X26149Y-13442D01*
G37*
G36*
X24812Y-12105D02*
X24699Y-11992D01*
X25124Y-11567D01*
X25237Y-11680D01*
X24812Y-12105D01*
X24812Y-12105D01*
G37*
G36*
X21630Y-15287D02*
X21517Y-15174D01*
X21942Y-14749D01*
X22055Y-14862D01*
X21630Y-15287D01*
X21630Y-15287D01*
G37*
G36*
X21408Y-15065D02*
X21295Y-14952D01*
X21720Y-14527D01*
X21833Y-14640D01*
X21408Y-15065D01*
X21408Y-15065D01*
G37*
G36*
X24590Y-11883D02*
X24477Y-11770D01*
X24902Y-11345D01*
X25015Y-11458D01*
X24590Y-11883D01*
X24590Y-11883D01*
G37*
G36*
X24367Y-11660D02*
X24254Y-11547D01*
X24679Y-11122D01*
X24792Y-11235D01*
X24367Y-11660D01*
X24367Y-11660D01*
G37*
G36*
X21185Y-14842D02*
X21072Y-14729D01*
X21497Y-14304D01*
X21610Y-14417D01*
X21185Y-14842D01*
X21185Y-14842D01*
G37*
G36*
X20962Y-14619D02*
X20849Y-14506D01*
X21274Y-14081D01*
X21387Y-14194D01*
X20962Y-14619D01*
X20962Y-14619D01*
G37*
G36*
X24144Y-11437D02*
X24031Y-11324D01*
X24456Y-10899D01*
X24569Y-11012D01*
X24144Y-11437D01*
X24144Y-11437D01*
G37*
G36*
X23921Y-11214D02*
X23808Y-11101D01*
X24233Y-10676D01*
X24346Y-10789D01*
X23921Y-11214D01*
X23921Y-11214D01*
G37*
G36*
X20739Y-14396D02*
X20626Y-14283D01*
X21051Y-13858D01*
X21164Y-13971D01*
X20739Y-14396D01*
X20739Y-14396D01*
G37*
G54D12*
X20950Y-22650D03*
X20950Y-18950D03*
G54D13*
X19225Y-22650D03*
X18475Y-22650D03*
X19225Y-18950D03*
X18475Y-18950D03*
X35725Y-20400D03*
X34975Y-20400D03*
X38425Y-16800D03*
X37675Y-16800D03*
X34975Y-21400D03*
X35725Y-21400D03*
X36725Y-15550D03*
X35975Y-15550D03*
X37675Y-17850D03*
X38425Y-17850D03*
X37675Y-14550D03*
X38425Y-14550D03*
X34225Y-13500D03*
X34975Y-13500D03*
X37675Y-13500D03*
X38425Y-13500D03*
X35225Y-11400D03*
X35975Y-11400D03*
X37675Y-19950D03*
X38425Y-19950D03*
X36725Y-14550D03*
X35975Y-14550D03*
X37675Y-15550D03*
X38425Y-15550D03*
X35975Y-13500D03*
X36725Y-13500D03*
X37675Y-12450D03*
X38425Y-12450D03*
X37675Y-11400D03*
X38425Y-11400D03*
G54D14*
X36450Y-18900D03*
X36450Y-16800D03*
X35950Y-18900D03*
X35450Y-18900D03*
X34950Y-18900D03*
X35950Y-16800D03*
X35450Y-16800D03*
X34950Y-16800D03*
G54D15*
X34300Y-12300D03*
X33600Y-12300D03*
X33950Y-11500D03*
X34300Y-10450D03*
X33600Y-10450D03*
X33950Y-09650D03*
G54D16*
X05990Y-30350D03*
X04410Y-30350D03*
G54D17*
X32700Y-07275D03*
X32700Y-08025D03*
X27400Y-07275D03*
X27400Y-08025D03*
X26450Y-07275D03*
X26450Y-08025D03*
G54D13*
X10925Y-34500D03*
X10175Y-34500D03*
X09325Y-34500D03*
X08575Y-34500D03*
G54D17*
X06950Y-28775D03*
X06950Y-28025D03*
X06950Y-30275D03*
X06950Y-29525D03*
X04950Y-28025D03*
X04950Y-28775D03*
X05950Y-26025D03*
X05950Y-26775D03*
X36350Y-07275D03*
X36350Y-08025D03*
X35500Y-07275D03*
X35500Y-08025D03*
X34550Y-07275D03*
X34550Y-08025D03*
X33600Y-07275D03*
X33600Y-08025D03*
X31700Y-07275D03*
X31700Y-08025D03*
X30700Y-07275D03*
X30700Y-08025D03*
X29700Y-07275D03*
X29700Y-08025D03*
X28700Y-07275D03*
X28700Y-08025D03*
X24350Y-07275D03*
X24350Y-08025D03*
X23400Y-07275D03*
X23400Y-08025D03*
X22400Y-07275D03*
X22400Y-08025D03*
X21350Y-07275D03*
X21350Y-08025D03*
X06950Y-26025D03*
X06950Y-26775D03*
X05950Y-28775D03*
X05950Y-28025D03*
X04950Y-26025D03*
X04950Y-26775D03*
X11950Y-37925D03*
X11950Y-37175D03*
G54D13*
X09025Y-40000D03*
X08275Y-40000D03*
X12475Y-34500D03*
X11725Y-34500D03*
X37675Y-18900D03*
X38425Y-18900D03*
X36425Y-26550D03*
X37175Y-26550D03*
X36425Y-27550D03*
X37175Y-27550D03*
X29925Y-26550D03*
X30675Y-26550D03*
X29925Y-27550D03*
X30675Y-27550D03*
G54D15*
X38650Y-27550D03*
X37950Y-27550D03*
X38300Y-26750D03*
X32150Y-27550D03*
X31450Y-27550D03*
X31800Y-26750D03*
G54D18*
X37887Y-25950D03*
X38713Y-25950D03*
X31387Y-25950D03*
X32213Y-25950D03*
G54D19*
X13100Y-20650D03*
X12850Y-20650D03*
X12590Y-20650D03*
X12330Y-20650D03*
X12080Y-20650D03*
X11820Y-20650D03*
X11560Y-20650D03*
X11310Y-20650D03*
X11050Y-20650D03*
X10800Y-20650D03*
X10540Y-20650D03*
X10280Y-20650D03*
X10030Y-20650D03*
X09770Y-20650D03*
X09770Y-23450D03*
X10030Y-23450D03*
X10270Y-23450D03*
X10540Y-23450D03*
X10800Y-23450D03*
X11050Y-23450D03*
X11310Y-23450D03*
X11560Y-23450D03*
X11820Y-23450D03*
X12080Y-23450D03*
X12330Y-23450D03*
X12590Y-23450D03*
X12850Y-23450D03*
X13100Y-23450D03*
G54D20*
X16133Y-29500D03*
X13967Y-29500D03*
G54D16*
X10810Y-29900D03*
X12390Y-29900D03*
G54D21*
X13300Y-26400D03*
X09600Y-26400D03*
G54D13*
X16325Y-10400D03*
X15575Y-10400D03*
X16325Y-09400D03*
X15575Y-09400D03*
G54D17*
X20000Y-08025D03*
X20000Y-07275D03*
X14750Y-08025D03*
X14750Y-07275D03*
X08700Y-08025D03*
X08700Y-07275D03*
X13600Y-08025D03*
X13600Y-07275D03*
G54D13*
X10925Y-28400D03*
X10175Y-28400D03*
X09275Y-28400D03*
X08525Y-28400D03*
G54D17*
X06700Y-07275D03*
X06700Y-08025D03*
X07700Y-07275D03*
X07700Y-08025D03*
X10800Y-18025D03*
X10800Y-18775D03*
X08750Y-20625D03*
X08750Y-21375D03*
X07800Y-20625D03*
X07800Y-21375D03*
X14100Y-23425D03*
X14100Y-22675D03*
G54D13*
X12525Y-28400D03*
X11775Y-28400D03*
G54D17*
X11900Y-31875D03*
X11900Y-31125D03*
X14100Y-20675D03*
X14100Y-21425D03*
G54D10*
G36*
X26415Y-16618D02*
X26097Y-16300D01*
X26239Y-16158D01*
X26557Y-16476D01*
X26415Y-16618D01*
X26415Y-16618D01*
G37*
G36*
X27900Y-18103D02*
X27582Y-17785D01*
X27724Y-17643D01*
X28042Y-17961D01*
X27900Y-18103D01*
X27900Y-18103D01*
G37*
G36*
X26769Y-16264D02*
X26451Y-15946D01*
X26593Y-15804D01*
X26911Y-16122D01*
X26769Y-16264D01*
X26769Y-16264D01*
G37*
G36*
X27122Y-15911D02*
X26804Y-15593D01*
X26946Y-15451D01*
X27264Y-15769D01*
X27122Y-15911D01*
X27122Y-15911D01*
G37*
G36*
X27476Y-15557D02*
X27158Y-15239D01*
X27300Y-15097D01*
X27618Y-15415D01*
X27476Y-15557D01*
X27476Y-15557D01*
G37*
G36*
X28254Y-17749D02*
X27936Y-17431D01*
X28078Y-17289D01*
X28396Y-17607D01*
X28254Y-17749D01*
X28254Y-17749D01*
G37*
G36*
X28607Y-17396D02*
X28289Y-17078D01*
X28431Y-16936D01*
X28749Y-17254D01*
X28607Y-17396D01*
X28607Y-17396D01*
G37*
G36*
X28961Y-17042D02*
X28643Y-16724D01*
X28785Y-16582D01*
X29103Y-16900D01*
X28961Y-17042D01*
X28961Y-17042D01*
G37*
G54D14*
X10200Y-08600D03*
X10200Y-10700D03*
X10700Y-08600D03*
X11200Y-08600D03*
X11700Y-08600D03*
X10700Y-10700D03*
X11200Y-10700D03*
X11700Y-10700D03*
G54D22*
X08650Y-32900D03*
X10750Y-32900D03*
X08650Y-32400D03*
X08650Y-31900D03*
X08650Y-31400D03*
X10750Y-32400D03*
X10750Y-31900D03*
X10750Y-31400D03*
G54D20*
X16133Y-35600D03*
X13967Y-35600D03*
G54D23*
X07100Y-18050D03*
X07100Y-17050D03*
X07100Y-16050D03*
X07100Y-15050D03*
X07100Y-13050D03*
X07100Y-12050D03*
X07100Y-11050D03*
X02100Y-11050D03*
X02100Y-12050D03*
X02100Y-13050D03*
X02100Y-15050D03*
X02100Y-16050D03*
X02100Y-17050D03*
X02100Y-18050D03*
G54D24*
X38269Y-28650D03*
X36931Y-28650D03*
X31769Y-28550D03*
X30431Y-28550D03*
X35331Y-12450D03*
X36669Y-12450D03*
G54D22*
X08650Y-38950D03*
X10750Y-38950D03*
X08650Y-38450D03*
X08650Y-37950D03*
X08650Y-37450D03*
X10750Y-38450D03*
X10750Y-37950D03*
X10750Y-37450D03*
G54D16*
X10860Y-35950D03*
X12440Y-35950D03*
G54D13*
X35225Y-10300D03*
X35975Y-10300D03*
G54D17*
X09250Y-09225D03*
X09250Y-09975D03*
G54D10*
G36*
X18844Y-13867D02*
X19233Y-14256D01*
X18986Y-14503D01*
X18597Y-14114D01*
X18844Y-13867D01*
X18844Y-13867D01*
G37*
G36*
X18314Y-14397D02*
X18703Y-14786D01*
X18456Y-15033D01*
X18067Y-14644D01*
X18314Y-14397D01*
X18314Y-14397D01*
G37*
G36*
X18144Y-13167D02*
X18533Y-13556D01*
X18286Y-13803D01*
X17897Y-13414D01*
X18144Y-13167D01*
X18144Y-13167D01*
G37*
G36*
X17614Y-13697D02*
X18003Y-14086D01*
X17756Y-14333D01*
X17367Y-13944D01*
X17614Y-13697D01*
X17614Y-13697D01*
G37*
M02*
