G04 (created by PCBNEW-RS274X (2010-12-18 BZR 2669)-stable) date 2011-01-01T22:16:00 CET*
G01*
G70*
G90*
%MOIN*%
G04 Gerber Fmt 3.4, Leading zero omitted, Abs format*
%FSLAX34Y34*%
G04 APERTURE LIST*
%ADD10C,0.006000*%
%ADD11C,0.015000*%
%ADD12R,0.077800X0.077800*%
%ADD13C,0.077800*%
%ADD14C,0.067800*%
%ADD15R,0.067800X0.067800*%
%ADD16R,0.082800X0.082800*%
%ADD17C,0.082800*%
%ADD18C,0.062800*%
%ADD19R,0.042800X0.062800*%
%ADD20R,0.062800X0.042800*%
%ADD21C,0.244000*%
%ADD22C,0.086500*%
%ADD23C,0.057800*%
%ADD24C,0.125900*%
%ADD25C,0.083800*%
%ADD26C,0.093700*%
%ADD27C,0.059800*%
%ADD28O,0.078300X0.148800*%
%ADD29R,0.107800X0.107800*%
%ADD30C,0.107800*%
G04 APERTURE END LIST*
G54D10*
G54D11*
X00850Y-39900D02*
X00850Y-02550D01*
X39000Y-41150D02*
X02300Y-41150D01*
X40200Y-02550D02*
X40200Y-39650D01*
X01600Y-01800D02*
X39450Y-01800D01*
X01600Y-01800D02*
X01535Y-01803D01*
X01470Y-01812D01*
X01406Y-01826D01*
X01344Y-01846D01*
X01284Y-01871D01*
X01226Y-01901D01*
X01170Y-01936D01*
X01118Y-01976D01*
X01070Y-02020D01*
X01026Y-02068D01*
X00986Y-02120D01*
X00951Y-02176D01*
X00921Y-02234D01*
X00896Y-02294D01*
X00876Y-02356D01*
X00862Y-02420D01*
X00853Y-02485D01*
X00850Y-02550D01*
X40200Y-02550D02*
X40197Y-02485D01*
X40188Y-02420D01*
X40174Y-02356D01*
X40154Y-02294D01*
X40129Y-02234D01*
X40099Y-02176D01*
X40064Y-02120D01*
X40024Y-02068D01*
X39980Y-02020D01*
X39932Y-01976D01*
X39880Y-01936D01*
X39825Y-01901D01*
X39766Y-01871D01*
X39706Y-01846D01*
X39644Y-01826D01*
X39580Y-01812D01*
X39515Y-01803D01*
X39450Y-01800D01*
X38999Y-41149D02*
X39116Y-41131D01*
X39231Y-41103D01*
X39343Y-41065D01*
X39451Y-41017D01*
X39555Y-40960D01*
X39653Y-40894D01*
X39746Y-40820D01*
X39831Y-40738D01*
X39909Y-40649D01*
X39979Y-40553D01*
X40041Y-40452D01*
X40093Y-40345D01*
X40136Y-40235D01*
X40169Y-40121D01*
X40192Y-40005D01*
X40205Y-39887D01*
X40207Y-39770D01*
X40199Y-39651D01*
X00851Y-39899D02*
X00865Y-40016D01*
X00889Y-40131D01*
X00923Y-40244D01*
X00966Y-40354D01*
X01019Y-40460D01*
X01081Y-40560D01*
X01152Y-40655D01*
X01231Y-40743D01*
X01316Y-40824D01*
X01409Y-40897D01*
X01508Y-40962D01*
X01612Y-41018D01*
X01720Y-41064D01*
X01832Y-41101D01*
X01947Y-41129D01*
X02064Y-41146D01*
X02182Y-41152D01*
X02299Y-41149D01*
G54D12*
X04700Y-38150D03*
G54D13*
X06700Y-38150D03*
G54D12*
X02950Y-22400D03*
G54D13*
X04950Y-22400D03*
G54D10*
G36*
X15440Y-17854D02*
X14961Y-18333D01*
X14482Y-17854D01*
X14961Y-17375D01*
X15440Y-17854D01*
X15440Y-17854D01*
G37*
G54D14*
X14254Y-18561D03*
X14254Y-17146D03*
X13546Y-17854D03*
X13546Y-16439D03*
X12839Y-17146D03*
G54D15*
X26550Y-23250D03*
G54D14*
X25550Y-23250D03*
X26550Y-22250D03*
X25550Y-22250D03*
X26550Y-21250D03*
X25550Y-21250D03*
X26550Y-20250D03*
X25550Y-20250D03*
X26550Y-19250D03*
X25550Y-19250D03*
G54D16*
X13100Y-38550D03*
G54D17*
X15100Y-38550D03*
G54D18*
X08850Y-36250D03*
X09850Y-36250D03*
G54D10*
G36*
X23562Y-14356D02*
X24006Y-13912D01*
X24308Y-14214D01*
X23864Y-14658D01*
X23562Y-14356D01*
X23562Y-14356D01*
G37*
G36*
X24092Y-14886D02*
X24536Y-14442D01*
X24838Y-14744D01*
X24394Y-15188D01*
X24092Y-14886D01*
X24092Y-14886D01*
G37*
G36*
X23788Y-12844D02*
X23344Y-13288D01*
X23042Y-12986D01*
X23486Y-12542D01*
X23788Y-12844D01*
X23788Y-12844D01*
G37*
G36*
X23258Y-12314D02*
X22814Y-12758D01*
X22512Y-12456D01*
X22956Y-12012D01*
X23258Y-12314D01*
X23258Y-12314D01*
G37*
G54D19*
X27625Y-17400D03*
X28375Y-17400D03*
G54D10*
G36*
X22694Y-13362D02*
X23138Y-13806D01*
X22836Y-14108D01*
X22392Y-13664D01*
X22694Y-13362D01*
X22694Y-13362D01*
G37*
G36*
X22164Y-13892D02*
X22608Y-14336D01*
X22306Y-14638D01*
X21862Y-14194D01*
X22164Y-13892D01*
X22164Y-13892D01*
G37*
G36*
X24106Y-13788D02*
X23662Y-13344D01*
X23964Y-13042D01*
X24408Y-13486D01*
X24106Y-13788D01*
X24106Y-13788D01*
G37*
G36*
X24636Y-13258D02*
X24192Y-12814D01*
X24494Y-12512D01*
X24938Y-12956D01*
X24636Y-13258D01*
X24636Y-13258D01*
G37*
G54D16*
X13050Y-32450D03*
G54D17*
X15050Y-32450D03*
G54D15*
X23150Y-23250D03*
G54D14*
X23150Y-22250D03*
X23150Y-21250D03*
X23150Y-20250D03*
X23150Y-19250D03*
X23150Y-18250D03*
G54D15*
X13450Y-10400D03*
G54D14*
X14450Y-10400D03*
G54D15*
X13450Y-09400D03*
G54D14*
X14450Y-09400D03*
G54D18*
X08650Y-23000D03*
X07650Y-23000D03*
G54D19*
X05925Y-13050D03*
X05175Y-13050D03*
X03275Y-13050D03*
X04025Y-13050D03*
G54D20*
X03800Y-17825D03*
X03800Y-18575D03*
X03800Y-16075D03*
X03800Y-16825D03*
X05600Y-17825D03*
X05600Y-18575D03*
X05600Y-16075D03*
X05600Y-16825D03*
X11300Y-22475D03*
X11300Y-21725D03*
G54D19*
X12475Y-24650D03*
X11725Y-24650D03*
G54D20*
X10400Y-22475D03*
X10400Y-21725D03*
X04600Y-12225D03*
X04600Y-11475D03*
G54D19*
X10125Y-26400D03*
X10875Y-26400D03*
G54D20*
X03800Y-15125D03*
X03800Y-14375D03*
X05600Y-15125D03*
X05600Y-14375D03*
G54D19*
X12775Y-26400D03*
X12025Y-26400D03*
X09725Y-24650D03*
X10475Y-24650D03*
G54D18*
X08850Y-30150D03*
X09850Y-30150D03*
G54D21*
X38800Y-08150D03*
X38850Y-39800D03*
X02200Y-39800D03*
X02200Y-08150D03*
G54D22*
X01400Y-04050D03*
G54D23*
X22300Y-03689D03*
X22700Y-04453D03*
X23100Y-03689D03*
X23500Y-04453D03*
X23900Y-03689D03*
X24300Y-04453D03*
X24700Y-03689D03*
X25100Y-04453D03*
X21000Y-06250D03*
X21900Y-06250D03*
X25500Y-06250D03*
X26400Y-06250D03*
G54D24*
X26200Y-02650D03*
X21200Y-02650D03*
G54D22*
X26900Y-04050D03*
G54D23*
X28700Y-03689D03*
X29100Y-04453D03*
X29500Y-03689D03*
X29900Y-04453D03*
X30300Y-03689D03*
X30700Y-04453D03*
X31100Y-03689D03*
X31500Y-04453D03*
X27400Y-06250D03*
X28300Y-06250D03*
X31900Y-06250D03*
X32800Y-06250D03*
G54D24*
X32600Y-02650D03*
X27600Y-02650D03*
G54D22*
X33300Y-04050D03*
G54D23*
X35100Y-03689D03*
X35500Y-04453D03*
X35900Y-03689D03*
X36300Y-04453D03*
X36700Y-03689D03*
X37100Y-04453D03*
X37500Y-03689D03*
X37900Y-04453D03*
X33800Y-06250D03*
X34700Y-06250D03*
X38300Y-06250D03*
X39200Y-06250D03*
G54D24*
X39000Y-02650D03*
X34000Y-02650D03*
G54D22*
X39700Y-04050D03*
G54D23*
X15900Y-03689D03*
X16300Y-04453D03*
X16700Y-03689D03*
X17100Y-04453D03*
X17500Y-03689D03*
X17900Y-04453D03*
X18300Y-03689D03*
X18700Y-04453D03*
X14600Y-06250D03*
X15500Y-06250D03*
X19100Y-06250D03*
X20000Y-06250D03*
G54D24*
X19800Y-02650D03*
X14800Y-02650D03*
G54D22*
X20500Y-04050D03*
G54D23*
X09500Y-03689D03*
X09900Y-04453D03*
X10300Y-03689D03*
X10700Y-04453D03*
X11100Y-03689D03*
X11500Y-04453D03*
X11900Y-03689D03*
X12300Y-04453D03*
X08200Y-06250D03*
X09100Y-06250D03*
X12700Y-06250D03*
X13600Y-06250D03*
G54D24*
X13400Y-02650D03*
X08400Y-02650D03*
G54D22*
X14100Y-04050D03*
G54D23*
X03100Y-03689D03*
X03500Y-04453D03*
X03900Y-03689D03*
X04300Y-04453D03*
X04700Y-03689D03*
X05100Y-04453D03*
X05500Y-03689D03*
X05900Y-04453D03*
X01800Y-06250D03*
X02700Y-06250D03*
X06300Y-06250D03*
X07200Y-06250D03*
G54D24*
X07000Y-02650D03*
X02000Y-02650D03*
G54D22*
X07700Y-04050D03*
G54D25*
X28700Y-29650D03*
G54D26*
X28700Y-33650D03*
X28700Y-36650D03*
X31700Y-35650D03*
G54D25*
X31700Y-29650D03*
X35200Y-29650D03*
G54D26*
X35200Y-33650D03*
X35200Y-36650D03*
X38200Y-35650D03*
G54D25*
X38200Y-29650D03*
G54D27*
X03700Y-28900D03*
X01700Y-28400D03*
X03700Y-27900D03*
X01700Y-27400D03*
X03700Y-26900D03*
X01700Y-26400D03*
X03700Y-25900D03*
G54D28*
X04000Y-32150D03*
X04000Y-35150D03*
G54D15*
X11850Y-13800D03*
G54D14*
X11850Y-12800D03*
X12850Y-13800D03*
X12850Y-12800D03*
X13850Y-13800D03*
X13850Y-12800D03*
X14850Y-13800D03*
X14850Y-12800D03*
X15850Y-13800D03*
X15850Y-12800D03*
G54D29*
X26294Y-39685D03*
G54D30*
X28263Y-39685D03*
X30232Y-39685D03*
G54D29*
X32200Y-39685D03*
G54D30*
X34169Y-39685D03*
X36138Y-39685D03*
G54D29*
X20200Y-39650D03*
G54D30*
X22200Y-39650D03*
M02*
