G04 (created by PCBNEW-RS274X (2010-05-05 BZR 2356)-stable) date 14-11-2010 12:40:04*
G01*
G70*
G90*
%MOIN*%
G04 Gerber Fmt 3.4, Leading zero omitted, Abs format*
%FSLAX34Y34*%
G04 APERTURE LIST*
%ADD10C,0.006000*%
%ADD11C,0.015000*%
%ADD12R,0.080000X0.080000*%
%ADD13C,0.080000*%
%ADD14C,0.075000*%
%ADD15C,0.086000*%
%ADD16R,0.080000X0.138100*%
%ADD17R,0.075000X0.075000*%
G04 APERTURE END LIST*
G54D10*
G54D11*
X10335Y-27756D02*
X30020Y-27756D01*
X10335Y-08071D02*
X10335Y-27756D01*
X30020Y-08071D02*
X10335Y-08071D01*
X30020Y-27756D02*
X30020Y-08071D01*
G54D12*
X17953Y-17307D03*
G54D13*
X17953Y-18307D03*
X17953Y-19307D03*
G54D14*
X22258Y-24776D03*
X22258Y-26776D03*
X19258Y-24776D03*
X19258Y-26776D03*
G54D15*
X17699Y-09944D03*
X18699Y-09944D03*
G54D16*
X17699Y-09444D03*
X18699Y-09444D03*
G54D15*
X20457Y-09943D03*
X21457Y-09943D03*
G54D16*
X20457Y-09443D03*
X21457Y-09443D03*
G54D15*
X14945Y-09944D03*
X15945Y-09944D03*
G54D16*
X14945Y-09444D03*
X15945Y-09444D03*
G54D15*
X12189Y-09945D03*
X13189Y-09945D03*
G54D16*
X12189Y-09445D03*
X13189Y-09445D03*
G54D12*
X15878Y-26811D03*
G54D13*
X16878Y-26811D03*
G54D15*
X28475Y-25515D03*
X28475Y-26515D03*
X28474Y-23151D03*
X28474Y-24151D03*
X28473Y-20791D03*
X28473Y-21791D03*
X28474Y-18428D03*
X28474Y-19428D03*
X28475Y-16064D03*
X28475Y-17064D03*
X28474Y-13705D03*
X28474Y-14705D03*
X28472Y-11341D03*
X28472Y-12341D03*
X28474Y-08980D03*
X28474Y-09980D03*
G54D14*
X20061Y-14752D03*
X21061Y-14752D03*
G54D17*
X17305Y-12732D03*
G54D14*
X18305Y-12732D03*
X18305Y-11732D03*
G54D17*
X11794Y-12733D03*
G54D14*
X12794Y-12733D03*
X12794Y-11733D03*
G54D17*
X14552Y-12731D03*
G54D14*
X15552Y-12731D03*
X15552Y-11731D03*
G54D17*
X20062Y-12731D03*
G54D14*
X21062Y-12731D03*
X21062Y-11731D03*
G54D17*
X12266Y-15766D03*
G54D14*
X13266Y-15766D03*
X13266Y-14766D03*
X16228Y-18617D03*
X16228Y-15617D03*
X23825Y-26130D03*
X26825Y-26130D03*
X15046Y-18616D03*
X15046Y-15616D03*
X23823Y-23766D03*
X26823Y-23766D03*
X23825Y-19042D03*
X26825Y-19042D03*
X23823Y-21406D03*
X26823Y-21406D03*
X23826Y-16681D03*
X26826Y-16681D03*
X23824Y-09594D03*
X26824Y-09594D03*
X23825Y-14318D03*
X26825Y-14318D03*
X23824Y-11955D03*
X26824Y-11955D03*
G54D12*
X13156Y-22341D03*
G54D13*
X13156Y-21341D03*
X14156Y-22341D03*
X14156Y-21341D03*
X15156Y-22341D03*
X15156Y-21341D03*
X16156Y-22341D03*
X16156Y-21341D03*
G54D12*
X11424Y-26170D03*
G54D13*
X11424Y-25170D03*
X12424Y-26170D03*
X12424Y-25170D03*
X13424Y-26170D03*
X13424Y-25170D03*
G54D12*
X11895Y-19691D03*
G54D13*
X11895Y-18691D03*
X11895Y-17691D03*
G54D17*
X19060Y-16875D03*
G54D14*
X19060Y-17875D03*
X19060Y-18875D03*
X19060Y-19875D03*
X19060Y-20875D03*
X19060Y-21875D03*
X19060Y-22875D03*
X22060Y-22875D03*
X22060Y-21875D03*
X22060Y-20875D03*
X22060Y-19875D03*
X22060Y-18875D03*
X22060Y-17875D03*
X22060Y-16875D03*
G54D12*
X18001Y-15645D03*
G54D13*
X18001Y-14645D03*
G54D14*
X11499Y-21339D03*
X11499Y-22339D03*
M02*
