M48
INCH,LZ
T1C0.032
T2C0.035
T3C0.040
%
G05
T1
X011499Y-021339
X011499Y-022339
X011608Y-015903
X011647Y-01287
X012189Y-009945
X012258Y-015253
X012297Y-01222
X012908Y-014603
X012947Y-01157
X013189Y-009945
X014405Y-012868
X014945Y-009944
X015046Y-01719
X015046Y-02019
X015055Y-012218
X015705Y-011568
X015945Y-009944
X016228Y-017191
X016228Y-020191
X017158Y-012869
X017699Y-009944
X017808Y-012219
X018458Y-011569
X018699Y-009944
X01878Y-014614
X01878Y-015622
X01906Y-016875
X01906Y-017875
X01906Y-018875
X01906Y-019875
X01906Y-020875
X01906Y-021875
X01906Y-022875
X019258Y-024776
X019258Y-026776
X019915Y-012868
X020061Y-014752
X020457Y-009943
X020565Y-012218
X021061Y-014752
X021215Y-011568
X021457Y-009943
X02206Y-016875
X02206Y-017875
X02206Y-018875
X02206Y-019875
X02206Y-020875
X02206Y-021875
X02206Y-022875
X022258Y-024776
X022258Y-026776
X023823Y-021406
X023823Y-023766
X023824Y-009594
X023824Y-011955
X023825Y-014318
X023825Y-019042
X023825Y-02613
X023826Y-016681
X026823Y-021406
X026823Y-023766
X026824Y-009594
X026824Y-011955
X026825Y-014318
X026825Y-019042
X026825Y-02613
X026826Y-016681
X028472Y-011341
X028472Y-012341
X028473Y-020791
X028473Y-021791
X028474Y-00898
X028474Y-00998
X028474Y-013705
X028474Y-014705
X028474Y-018428
X028474Y-019428
X028474Y-023151
X028474Y-024151
X028475Y-016064
X028475Y-017064
X028475Y-025515
X028475Y-026515
T2
X017953Y-017307
X017953Y-018307
X017953Y-019307
T3
X011424Y-02517
X011424Y-02617
X011895Y-017691
X011895Y-018691
X011895Y-019691
X012424Y-02517
X012424Y-02617
X013156Y-021341
X013156Y-022341
X013424Y-02517
X013424Y-02617
X014156Y-021341
X014156Y-022341
X015156Y-021341
X015156Y-022341
X015878Y-026811
X016156Y-021341
X016156Y-022341
X016878Y-026811
T0
M30
