G04 (created by PCBNEW-RS274X (2010-05-05 BZR 2356)-stable) date 14-11-2010 12:40:04*
G01*
G70*
G90*
%MOIN*%
G04 Gerber Fmt 3.4, Leading zero omitted, Abs format*
%FSLAX34Y34*%
G04 APERTURE LIST*
%ADD10C,0.006000*%
%ADD11C,0.004900*%
%ADD12C,0.008100*%
%ADD13C,0.015000*%
G04 APERTURE END LIST*
G54D10*
G54D11*
X22829Y-09158D02*
X22604Y-09053D01*
X22829Y-08978D02*
X22357Y-08978D01*
X22357Y-09098D01*
X22380Y-09128D01*
X22402Y-09143D01*
X22447Y-09158D01*
X22514Y-09158D01*
X22559Y-09143D01*
X22582Y-09128D01*
X22604Y-09098D01*
X22604Y-08978D01*
X22829Y-09338D02*
X22807Y-09308D01*
X22784Y-09293D01*
X22739Y-09278D01*
X22604Y-09278D01*
X22559Y-09293D01*
X22537Y-09308D01*
X22514Y-09338D01*
X22514Y-09383D01*
X22537Y-09413D01*
X22559Y-09428D01*
X22604Y-09443D01*
X22739Y-09443D01*
X22784Y-09428D01*
X22807Y-09413D01*
X22829Y-09383D01*
X22829Y-09338D01*
X22829Y-09578D02*
X22357Y-09578D01*
X22537Y-09578D02*
X22514Y-09608D01*
X22514Y-09668D01*
X22537Y-09698D01*
X22559Y-09713D01*
X22604Y-09728D01*
X22739Y-09728D01*
X22784Y-09713D01*
X22807Y-09698D01*
X22829Y-09668D01*
X22829Y-09608D01*
X22807Y-09578D01*
X22829Y-09908D02*
X22807Y-09878D01*
X22784Y-09863D01*
X22739Y-09848D01*
X22604Y-09848D01*
X22559Y-09863D01*
X22537Y-09878D01*
X22514Y-09908D01*
X22514Y-09953D01*
X22537Y-09983D01*
X22559Y-09998D01*
X22604Y-10013D01*
X22739Y-10013D01*
X22784Y-09998D01*
X22807Y-09983D01*
X22829Y-09953D01*
X22829Y-09908D01*
X22514Y-10103D02*
X22514Y-10223D01*
X22357Y-10148D02*
X22762Y-10148D01*
X22807Y-10163D01*
X22829Y-10193D01*
X22829Y-10223D01*
X22514Y-10283D02*
X22514Y-10403D01*
X22357Y-10328D02*
X22762Y-10328D01*
X22807Y-10343D01*
X22829Y-10373D01*
X22829Y-10403D01*
X22829Y-10553D02*
X22807Y-10523D01*
X22784Y-10508D01*
X22739Y-10493D01*
X22604Y-10493D01*
X22559Y-10508D01*
X22537Y-10523D01*
X22514Y-10553D01*
X22514Y-10598D01*
X22537Y-10628D01*
X22559Y-10643D01*
X22604Y-10658D01*
X22739Y-10658D01*
X22784Y-10643D01*
X22807Y-10628D01*
X22829Y-10598D01*
X22829Y-10553D01*
X22514Y-11003D02*
X22829Y-11063D01*
X22604Y-11123D01*
X22829Y-11183D01*
X22514Y-11243D01*
X22829Y-11498D02*
X22582Y-11498D01*
X22537Y-11483D01*
X22514Y-11453D01*
X22514Y-11393D01*
X22537Y-11363D01*
X22807Y-11498D02*
X22829Y-11468D01*
X22829Y-11393D01*
X22807Y-11363D01*
X22762Y-11348D01*
X22717Y-11348D01*
X22672Y-11363D01*
X22649Y-11393D01*
X22649Y-11468D01*
X22627Y-11498D01*
X22807Y-11633D02*
X22829Y-11663D01*
X22829Y-11723D01*
X22807Y-11753D01*
X22762Y-11768D01*
X22739Y-11768D01*
X22694Y-11753D01*
X22672Y-11723D01*
X22672Y-11678D01*
X22649Y-11648D01*
X22604Y-11633D01*
X22582Y-11633D01*
X22537Y-11648D01*
X22514Y-11678D01*
X22514Y-11723D01*
X22537Y-11753D01*
X22829Y-12143D02*
X22357Y-12143D01*
X22829Y-12278D02*
X22582Y-12278D01*
X22537Y-12263D01*
X22514Y-12233D01*
X22514Y-12188D01*
X22537Y-12158D01*
X22559Y-12143D01*
X22807Y-12548D02*
X22829Y-12518D01*
X22829Y-12458D01*
X22807Y-12428D01*
X22762Y-12413D01*
X22582Y-12413D01*
X22537Y-12428D01*
X22514Y-12458D01*
X22514Y-12518D01*
X22537Y-12548D01*
X22582Y-12563D01*
X22627Y-12563D01*
X22672Y-12413D01*
X22829Y-12698D02*
X22514Y-12698D01*
X22604Y-12698D02*
X22559Y-12713D01*
X22537Y-12728D01*
X22514Y-12758D01*
X22514Y-12788D01*
X22807Y-13013D02*
X22829Y-12983D01*
X22829Y-12923D01*
X22807Y-12893D01*
X22762Y-12878D01*
X22582Y-12878D01*
X22537Y-12893D01*
X22514Y-12923D01*
X22514Y-12983D01*
X22537Y-13013D01*
X22582Y-13028D01*
X22627Y-13028D01*
X22672Y-12878D01*
X22784Y-13163D02*
X22807Y-13178D01*
X22829Y-13163D01*
X22807Y-13148D01*
X22784Y-13163D01*
X22829Y-13163D01*
X22784Y-13313D02*
X22807Y-13328D01*
X22829Y-13313D01*
X22807Y-13298D01*
X22784Y-13313D01*
X22829Y-13313D01*
X22784Y-13463D02*
X22807Y-13478D01*
X22829Y-13463D01*
X22807Y-13448D01*
X22784Y-13463D01*
X22829Y-13463D01*
G54D12*
X25042Y-09307D02*
X25042Y-09382D01*
X25070Y-09419D01*
X25126Y-09457D01*
X25239Y-09476D01*
X25436Y-09476D01*
X25548Y-09457D01*
X25605Y-09419D01*
X25633Y-09382D01*
X25633Y-09307D01*
X25605Y-09269D01*
X25548Y-09232D01*
X25436Y-09213D01*
X25239Y-09213D01*
X25126Y-09232D01*
X25070Y-09269D01*
X25042Y-09307D01*
X25239Y-09645D02*
X25830Y-09645D01*
X25267Y-09645D02*
X25239Y-09682D01*
X25239Y-09757D01*
X25267Y-09795D01*
X25295Y-09814D01*
X25351Y-09832D01*
X25520Y-09832D01*
X25576Y-09814D01*
X25605Y-09795D01*
X25633Y-09757D01*
X25633Y-09682D01*
X25605Y-09645D01*
X25605Y-10151D02*
X25633Y-10113D01*
X25633Y-10038D01*
X25605Y-10001D01*
X25548Y-09982D01*
X25323Y-09982D01*
X25267Y-10001D01*
X25239Y-10038D01*
X25239Y-10113D01*
X25267Y-10151D01*
X25323Y-10170D01*
X25379Y-10170D01*
X25436Y-09982D01*
X25239Y-10339D02*
X25633Y-10339D01*
X25295Y-10339D02*
X25267Y-10358D01*
X25239Y-10395D01*
X25239Y-10451D01*
X25267Y-10489D01*
X25323Y-10508D01*
X25633Y-10508D01*
X25605Y-10976D02*
X25633Y-11032D01*
X25633Y-11126D01*
X25605Y-11164D01*
X25576Y-11182D01*
X25520Y-11201D01*
X25464Y-11201D01*
X25408Y-11182D01*
X25379Y-11164D01*
X25351Y-11126D01*
X25323Y-11051D01*
X25295Y-11014D01*
X25267Y-10995D01*
X25211Y-10976D01*
X25154Y-10976D01*
X25098Y-10995D01*
X25070Y-11014D01*
X25042Y-11051D01*
X25042Y-11145D01*
X25070Y-11201D01*
X25239Y-11370D02*
X25830Y-11370D01*
X25267Y-11370D02*
X25239Y-11407D01*
X25239Y-11482D01*
X25267Y-11520D01*
X25295Y-11539D01*
X25351Y-11557D01*
X25520Y-11557D01*
X25576Y-11539D01*
X25605Y-11520D01*
X25633Y-11482D01*
X25633Y-11407D01*
X25605Y-11370D01*
X25633Y-11895D02*
X25323Y-11895D01*
X25267Y-11876D01*
X25239Y-11838D01*
X25239Y-11763D01*
X25267Y-11726D01*
X25605Y-11895D02*
X25633Y-11857D01*
X25633Y-11763D01*
X25605Y-11726D01*
X25548Y-11707D01*
X25492Y-11707D01*
X25436Y-11726D01*
X25408Y-11763D01*
X25408Y-11857D01*
X25379Y-11895D01*
X25605Y-12251D02*
X25633Y-12213D01*
X25633Y-12138D01*
X25605Y-12101D01*
X25576Y-12082D01*
X25520Y-12063D01*
X25351Y-12063D01*
X25295Y-12082D01*
X25267Y-12101D01*
X25239Y-12138D01*
X25239Y-12213D01*
X25267Y-12251D01*
X25605Y-12570D02*
X25633Y-12532D01*
X25633Y-12457D01*
X25605Y-12420D01*
X25548Y-12401D01*
X25323Y-12401D01*
X25267Y-12420D01*
X25239Y-12457D01*
X25239Y-12532D01*
X25267Y-12570D01*
X25323Y-12589D01*
X25379Y-12589D01*
X25436Y-12401D01*
X25464Y-13039D02*
X25464Y-13227D01*
X25633Y-13002D02*
X25042Y-13133D01*
X25633Y-13264D01*
X25633Y-13565D02*
X25323Y-13565D01*
X25267Y-13546D01*
X25239Y-13508D01*
X25239Y-13433D01*
X25267Y-13396D01*
X25605Y-13565D02*
X25633Y-13527D01*
X25633Y-13433D01*
X25605Y-13396D01*
X25548Y-13377D01*
X25492Y-13377D01*
X25436Y-13396D01*
X25408Y-13433D01*
X25408Y-13527D01*
X25379Y-13565D01*
X25633Y-13752D02*
X25239Y-13752D01*
X25351Y-13752D02*
X25295Y-13771D01*
X25267Y-13789D01*
X25239Y-13827D01*
X25239Y-13864D01*
X25633Y-13996D02*
X25042Y-13996D01*
X25633Y-14165D02*
X25323Y-14165D01*
X25267Y-14146D01*
X25239Y-14108D01*
X25239Y-14052D01*
X25267Y-14015D01*
X25295Y-13996D01*
X25239Y-14521D02*
X25633Y-14521D01*
X25239Y-14352D02*
X25548Y-14352D01*
X25605Y-14371D01*
X25633Y-14408D01*
X25633Y-14464D01*
X25605Y-14502D01*
X25576Y-14521D01*
X25605Y-14689D02*
X25633Y-14727D01*
X25633Y-14802D01*
X25605Y-14839D01*
X25548Y-14858D01*
X25520Y-14858D01*
X25464Y-14839D01*
X25436Y-14802D01*
X25436Y-14745D01*
X25408Y-14708D01*
X25351Y-14689D01*
X25323Y-14689D01*
X25267Y-14708D01*
X25239Y-14745D01*
X25239Y-14802D01*
X25267Y-14839D01*
X25605Y-15308D02*
X25633Y-15346D01*
X25633Y-15421D01*
X25605Y-15458D01*
X25548Y-15477D01*
X25520Y-15477D01*
X25464Y-15458D01*
X25436Y-15421D01*
X25436Y-15364D01*
X25408Y-15327D01*
X25351Y-15308D01*
X25323Y-15308D01*
X25267Y-15327D01*
X25239Y-15364D01*
X25239Y-15421D01*
X25267Y-15458D01*
X25633Y-15702D02*
X25605Y-15665D01*
X25576Y-15646D01*
X25520Y-15627D01*
X25351Y-15627D01*
X25295Y-15646D01*
X25267Y-15665D01*
X25239Y-15702D01*
X25239Y-15758D01*
X25267Y-15796D01*
X25295Y-15815D01*
X25351Y-15833D01*
X25520Y-15833D01*
X25576Y-15815D01*
X25605Y-15796D01*
X25633Y-15758D01*
X25633Y-15702D01*
X25633Y-16058D02*
X25605Y-16021D01*
X25548Y-16002D01*
X25042Y-16002D01*
X25633Y-16377D02*
X25042Y-16377D01*
X25605Y-16377D02*
X25633Y-16339D01*
X25633Y-16264D01*
X25605Y-16227D01*
X25576Y-16208D01*
X25520Y-16189D01*
X25351Y-16189D01*
X25295Y-16208D01*
X25267Y-16227D01*
X25239Y-16264D01*
X25239Y-16339D01*
X25267Y-16377D01*
X25605Y-16714D02*
X25633Y-16676D01*
X25633Y-16601D01*
X25605Y-16564D01*
X25548Y-16545D01*
X25323Y-16545D01*
X25267Y-16564D01*
X25239Y-16601D01*
X25239Y-16676D01*
X25267Y-16714D01*
X25323Y-16733D01*
X25379Y-16733D01*
X25436Y-16545D01*
X25633Y-16902D02*
X25239Y-16902D01*
X25351Y-16902D02*
X25295Y-16921D01*
X25267Y-16939D01*
X25239Y-16977D01*
X25239Y-17014D01*
X25633Y-17146D02*
X25239Y-17146D01*
X25042Y-17146D02*
X25070Y-17127D01*
X25098Y-17146D01*
X25070Y-17165D01*
X25042Y-17146D01*
X25098Y-17146D01*
X25239Y-17334D02*
X25633Y-17334D01*
X25295Y-17334D02*
X25267Y-17353D01*
X25239Y-17390D01*
X25239Y-17446D01*
X25267Y-17484D01*
X25323Y-17503D01*
X25633Y-17503D01*
X25239Y-17859D02*
X25717Y-17859D01*
X25773Y-17840D01*
X25802Y-17821D01*
X25830Y-17784D01*
X25830Y-17727D01*
X25802Y-17690D01*
X25605Y-17859D02*
X25633Y-17821D01*
X25633Y-17746D01*
X25605Y-17709D01*
X25576Y-17690D01*
X25520Y-17671D01*
X25351Y-17671D01*
X25295Y-17690D01*
X25267Y-17709D01*
X25239Y-17746D01*
X25239Y-17821D01*
X25267Y-17859D01*
X25239Y-18308D02*
X25633Y-18383D01*
X25351Y-18458D01*
X25633Y-18533D01*
X25239Y-18608D01*
X25633Y-18815D02*
X25605Y-18778D01*
X25576Y-18759D01*
X25520Y-18740D01*
X25351Y-18740D01*
X25295Y-18759D01*
X25267Y-18778D01*
X25239Y-18815D01*
X25239Y-18871D01*
X25267Y-18909D01*
X25295Y-18928D01*
X25351Y-18946D01*
X25520Y-18946D01*
X25576Y-18928D01*
X25605Y-18909D01*
X25633Y-18871D01*
X25633Y-18815D01*
X25633Y-19115D02*
X25239Y-19115D01*
X25351Y-19115D02*
X25295Y-19134D01*
X25267Y-19152D01*
X25239Y-19190D01*
X25239Y-19227D01*
X25633Y-19359D02*
X25042Y-19359D01*
X25408Y-19396D02*
X25633Y-19509D01*
X25239Y-19509D02*
X25464Y-19359D01*
X25605Y-19659D02*
X25633Y-19697D01*
X25633Y-19772D01*
X25605Y-19809D01*
X25548Y-19828D01*
X25520Y-19828D01*
X25464Y-19809D01*
X25436Y-19772D01*
X25436Y-19715D01*
X25408Y-19678D01*
X25351Y-19659D01*
X25323Y-19659D01*
X25267Y-19678D01*
X25239Y-19715D01*
X25239Y-19772D01*
X25267Y-19809D01*
X25633Y-19997D02*
X25042Y-19997D01*
X25633Y-20166D02*
X25323Y-20166D01*
X25267Y-20147D01*
X25239Y-20109D01*
X25239Y-20053D01*
X25267Y-20016D01*
X25295Y-19997D01*
X25633Y-20409D02*
X25605Y-20372D01*
X25576Y-20353D01*
X25520Y-20334D01*
X25351Y-20334D01*
X25295Y-20353D01*
X25267Y-20372D01*
X25239Y-20409D01*
X25239Y-20465D01*
X25267Y-20503D01*
X25295Y-20522D01*
X25351Y-20540D01*
X25520Y-20540D01*
X25576Y-20522D01*
X25605Y-20503D01*
X25633Y-20465D01*
X25633Y-20409D01*
X25239Y-20709D02*
X25830Y-20709D01*
X25267Y-20709D02*
X25239Y-20746D01*
X25239Y-20821D01*
X25267Y-20859D01*
X25295Y-20878D01*
X25351Y-20896D01*
X25520Y-20896D01*
X25576Y-20878D01*
X25605Y-20859D01*
X25633Y-20821D01*
X25633Y-20746D01*
X25605Y-20709D01*
X25408Y-21365D02*
X25408Y-21665D01*
X25042Y-22115D02*
X25042Y-22378D01*
X25633Y-22115D01*
X25633Y-22378D01*
X25464Y-22509D02*
X25464Y-22697D01*
X25633Y-22472D02*
X25042Y-22603D01*
X25633Y-22734D01*
X25323Y-22997D02*
X25351Y-23053D01*
X25379Y-23072D01*
X25436Y-23091D01*
X25520Y-23091D01*
X25576Y-23072D01*
X25605Y-23053D01*
X25633Y-23016D01*
X25633Y-22866D01*
X25042Y-22866D01*
X25042Y-22997D01*
X25070Y-23035D01*
X25098Y-23053D01*
X25154Y-23072D01*
X25211Y-23072D01*
X25267Y-23053D01*
X25295Y-23035D01*
X25323Y-22997D01*
X25323Y-22866D01*
X25633Y-23447D02*
X25633Y-23260D01*
X25042Y-23260D01*
X25323Y-23579D02*
X25323Y-23710D01*
X25633Y-23766D02*
X25633Y-23579D01*
X25042Y-23579D01*
X25042Y-23766D01*
X25042Y-23879D02*
X25042Y-24104D01*
X25633Y-23991D02*
X25042Y-23991D01*
X25576Y-24235D02*
X25605Y-24254D01*
X25633Y-24235D01*
X25605Y-24216D01*
X25576Y-24235D01*
X25633Y-24235D01*
X25042Y-24498D02*
X25042Y-24573D01*
X25070Y-24610D01*
X25126Y-24648D01*
X25239Y-24667D01*
X25436Y-24667D01*
X25548Y-24648D01*
X25605Y-24610D01*
X25633Y-24573D01*
X25633Y-24498D01*
X25605Y-24460D01*
X25548Y-24423D01*
X25436Y-24404D01*
X25239Y-24404D01*
X25126Y-24423D01*
X25070Y-24460D01*
X25042Y-24498D01*
X25605Y-24817D02*
X25633Y-24873D01*
X25633Y-24967D01*
X25605Y-25005D01*
X25576Y-25023D01*
X25520Y-25042D01*
X25464Y-25042D01*
X25408Y-25023D01*
X25379Y-25005D01*
X25351Y-24967D01*
X25323Y-24892D01*
X25295Y-24855D01*
X25267Y-24836D01*
X25211Y-24817D01*
X25154Y-24817D01*
X25098Y-24836D01*
X25070Y-24855D01*
X25042Y-24892D01*
X25042Y-24986D01*
X25070Y-25042D01*
X25464Y-25192D02*
X25464Y-25380D01*
X25633Y-25155D02*
X25042Y-25286D01*
X25633Y-25417D01*
X25464Y-25530D02*
X25464Y-25718D01*
X25633Y-25493D02*
X25042Y-25624D01*
X25633Y-25755D01*
X25576Y-25887D02*
X25605Y-25906D01*
X25633Y-25887D01*
X25605Y-25868D01*
X25576Y-25887D01*
X25633Y-25887D01*
X25633Y-26075D02*
X25042Y-26075D01*
X25042Y-26169D01*
X25070Y-26225D01*
X25126Y-26262D01*
X25182Y-26281D01*
X25295Y-26300D01*
X25379Y-26300D01*
X25492Y-26281D01*
X25548Y-26262D01*
X25605Y-26225D01*
X25633Y-26169D01*
X25633Y-26075D01*
X25633Y-26469D02*
X25042Y-26469D01*
X25633Y-26694D02*
X25295Y-26525D01*
X25042Y-26694D02*
X25379Y-26469D01*
X20456Y-16814D02*
X20456Y-17021D01*
X20850Y-16814D01*
X20850Y-17021D01*
X20850Y-17340D02*
X20540Y-17340D01*
X20484Y-17321D01*
X20456Y-17283D01*
X20456Y-17208D01*
X20484Y-17171D01*
X20822Y-17340D02*
X20850Y-17302D01*
X20850Y-17208D01*
X20822Y-17171D01*
X20765Y-17152D01*
X20709Y-17152D01*
X20653Y-17171D01*
X20625Y-17208D01*
X20625Y-17302D01*
X20596Y-17340D01*
X20850Y-17527D02*
X20259Y-17527D01*
X20484Y-17527D02*
X20456Y-17564D01*
X20456Y-17639D01*
X20484Y-17677D01*
X20512Y-17696D01*
X20568Y-17714D01*
X20737Y-17714D01*
X20793Y-17696D01*
X20822Y-17677D01*
X20850Y-17639D01*
X20850Y-17564D01*
X20822Y-17527D01*
X20850Y-17939D02*
X20822Y-17902D01*
X20765Y-17883D01*
X20259Y-17883D01*
X20822Y-18239D02*
X20850Y-18201D01*
X20850Y-18126D01*
X20822Y-18089D01*
X20765Y-18070D01*
X20540Y-18070D01*
X20484Y-18089D01*
X20456Y-18126D01*
X20456Y-18201D01*
X20484Y-18239D01*
X20540Y-18258D01*
X20596Y-18258D01*
X20653Y-18070D01*
X20456Y-18371D02*
X20456Y-18521D01*
X20259Y-18427D02*
X20765Y-18427D01*
X20822Y-18446D01*
X20850Y-18483D01*
X20850Y-18521D01*
X20793Y-18652D02*
X20822Y-18671D01*
X20850Y-18652D01*
X20822Y-18633D01*
X20793Y-18652D01*
X20850Y-18652D01*
X20850Y-18896D02*
X20822Y-18859D01*
X20793Y-18840D01*
X20737Y-18821D01*
X20568Y-18821D01*
X20512Y-18840D01*
X20484Y-18859D01*
X20456Y-18896D01*
X20456Y-18952D01*
X20484Y-18990D01*
X20512Y-19009D01*
X20568Y-19027D01*
X20737Y-19027D01*
X20793Y-19009D01*
X20822Y-18990D01*
X20850Y-18952D01*
X20850Y-18896D01*
X20822Y-19177D02*
X20850Y-19215D01*
X20850Y-19290D01*
X20822Y-19327D01*
X20765Y-19346D01*
X20737Y-19346D01*
X20681Y-19327D01*
X20653Y-19290D01*
X20653Y-19233D01*
X20625Y-19196D01*
X20568Y-19177D01*
X20540Y-19177D01*
X20484Y-19196D01*
X20456Y-19233D01*
X20456Y-19290D01*
X20484Y-19327D01*
X20850Y-19684D02*
X20540Y-19684D01*
X20484Y-19665D01*
X20456Y-19627D01*
X20456Y-19552D01*
X20484Y-19515D01*
X20822Y-19684D02*
X20850Y-19646D01*
X20850Y-19552D01*
X20822Y-19515D01*
X20765Y-19496D01*
X20709Y-19496D01*
X20653Y-19515D01*
X20625Y-19552D01*
X20625Y-19646D01*
X20596Y-19684D01*
X20850Y-20040D02*
X20540Y-20040D01*
X20484Y-20021D01*
X20456Y-19983D01*
X20456Y-19908D01*
X20484Y-19871D01*
X20822Y-20040D02*
X20850Y-20002D01*
X20850Y-19908D01*
X20822Y-19871D01*
X20765Y-19852D01*
X20709Y-19852D01*
X20653Y-19871D01*
X20625Y-19908D01*
X20625Y-20002D01*
X20596Y-20040D01*
X20793Y-20227D02*
X20822Y-20246D01*
X20850Y-20227D01*
X20822Y-20208D01*
X20793Y-20227D01*
X20850Y-20227D01*
X20850Y-20584D02*
X20259Y-20584D01*
X20822Y-20584D02*
X20850Y-20546D01*
X20850Y-20471D01*
X20822Y-20434D01*
X20793Y-20415D01*
X20737Y-20396D01*
X20568Y-20396D01*
X20512Y-20415D01*
X20484Y-20434D01*
X20456Y-20471D01*
X20456Y-20546D01*
X20484Y-20584D01*
X20850Y-20771D02*
X20259Y-20771D01*
X20625Y-20808D02*
X20850Y-20921D01*
X20456Y-20921D02*
X20681Y-20771D01*
G54D13*
X10335Y-27756D02*
X30020Y-27756D01*
X10335Y-08071D02*
X10335Y-27756D01*
X30020Y-08071D02*
X10335Y-08071D01*
X30020Y-27756D02*
X30020Y-08071D01*
M02*
