M48
INCH,LZ
T1C0.025
T2C0.032
T3C0.040
%
G05
T1
X020197Y-022008
X020197Y-02374
T2
X011499Y-021339
X011499Y-022339
X011794Y-012733
X012189Y-009945
X012266Y-015766
X012794Y-011733
X012794Y-012733
X013189Y-009945
X013266Y-014766
X013266Y-015766
X014552Y-012731
X014945Y-009944
X015046Y-015616
X015046Y-018616
X015552Y-011731
X015552Y-012731
X015945Y-009944
X016228Y-015617
X016228Y-018617
X017305Y-012732
X017699Y-009944
X018001Y-014645
X018001Y-015645
X018305Y-011732
X018305Y-012732
X018699Y-009944
X01906Y-016875
X01906Y-017875
X01906Y-018875
X01906Y-019875
X01906Y-020875
X01906Y-021875
X01906Y-022875
X019258Y-024776
X019258Y-026776
X020061Y-014752
X020062Y-012731
X020457Y-009943
X021061Y-014752
X021062Y-011731
X021062Y-012731
X021457Y-009943
X02206Y-016875
X02206Y-017875
X02206Y-018875
X02206Y-019875
X02206Y-020875
X02206Y-021875
X02206Y-022875
X022258Y-024776
X022258Y-026776
X023823Y-021406
X023823Y-023766
X023824Y-009594
X023824Y-011955
X023825Y-014318
X023825Y-019042
X023825Y-02613
X023826Y-016681
X026823Y-021406
X026823Y-023766
X026824Y-009594
X026824Y-011955
X026825Y-014318
X026825Y-019042
X026825Y-02613
X026826Y-016681
X028472Y-011341
X028472Y-012341
X028473Y-020791
X028473Y-021791
X028474Y-00898
X028474Y-00998
X028474Y-013705
X028474Y-014705
X028474Y-018428
X028474Y-019428
X028474Y-023151
X028474Y-024151
X028475Y-016064
X028475Y-017064
X028475Y-025515
X028475Y-026515
T3
X011424Y-02517
X011424Y-02617
X011895Y-017691
X011895Y-018691
X011895Y-019691
X012424Y-02517
X012424Y-02617
X013156Y-021341
X013156Y-022341
X013424Y-02517
X013424Y-02617
X014156Y-021341
X014156Y-022341
X015156Y-021341
X015156Y-022341
X015878Y-026811
X016156Y-021341
X016156Y-022341
X016878Y-026811
X017953Y-017307
X017953Y-018307
X017953Y-019307
T0
M30
