G04 (created by PCBNEW-RS274X (2010-05-05 BZR 2356)-stable) date 13-12-2010 10:38:44*
G01*
G70*
G90*
%MOIN*%
G04 Gerber Fmt 3.4, Leading zero omitted, Abs format*
%FSLAX34Y34*%
G04 APERTURE LIST*
%ADD10C,0.006000*%
%ADD11C,0.015000*%
%ADD12R,0.080000X0.080000*%
%ADD13C,0.080000*%
%ADD14R,0.060000X0.118100*%
%ADD15C,0.066000*%
%ADD16C,0.090000*%
%ADD17C,0.055000*%
%ADD18C,0.078700*%
%ADD19C,0.016000*%
%ADD20C,0.010000*%
G04 APERTURE END LIST*
G54D10*
G54D11*
X10335Y-27756D02*
X30020Y-27756D01*
X10335Y-08071D02*
X10335Y-27756D01*
X30020Y-08071D02*
X10335Y-08071D01*
X30020Y-27756D02*
X30020Y-08071D01*
G54D12*
X17953Y-17307D03*
G54D13*
X17953Y-18307D03*
X17953Y-19307D03*
X22258Y-24776D03*
X22258Y-26776D03*
X19258Y-24776D03*
X19258Y-26776D03*
X17699Y-09944D03*
X18699Y-09944D03*
G54D14*
X17699Y-09444D03*
X18699Y-09444D03*
G54D13*
X20457Y-09943D03*
X21457Y-09943D03*
G54D14*
X20457Y-09443D03*
X21457Y-09443D03*
G54D13*
X14945Y-09944D03*
X15945Y-09944D03*
G54D14*
X14945Y-09444D03*
X15945Y-09444D03*
G54D13*
X12189Y-09945D03*
X13189Y-09945D03*
G54D14*
X12189Y-09445D03*
X13189Y-09445D03*
G54D12*
X15878Y-26811D03*
G54D13*
X16878Y-26811D03*
X28475Y-25515D03*
X28475Y-26515D03*
X28474Y-23151D03*
X28474Y-24151D03*
X28473Y-20791D03*
X28473Y-21791D03*
X28474Y-18428D03*
G54D15*
X28474Y-19428D03*
G54D13*
X28475Y-16064D03*
X28475Y-17064D03*
X28474Y-13705D03*
X28474Y-14705D03*
X28472Y-11341D03*
X28472Y-12341D03*
X28474Y-08980D03*
X28474Y-09980D03*
X20061Y-14752D03*
X21061Y-14752D03*
X16228Y-20191D03*
X16228Y-17191D03*
X23825Y-26130D03*
X26825Y-26130D03*
X15046Y-20190D03*
X15046Y-17190D03*
X23823Y-23766D03*
X26823Y-23766D03*
X23825Y-19042D03*
X26825Y-19042D03*
X23823Y-21406D03*
X26823Y-21406D03*
X23826Y-16681D03*
X26826Y-16681D03*
X23824Y-09594D03*
X26824Y-09594D03*
X23825Y-14318D03*
X26825Y-14318D03*
X23824Y-11955D03*
X26824Y-11955D03*
G54D12*
X13156Y-22341D03*
G54D13*
X13156Y-21341D03*
X14156Y-22341D03*
X14156Y-21341D03*
G54D16*
X15156Y-22341D03*
G54D13*
X15156Y-21341D03*
X16156Y-22341D03*
X16156Y-21341D03*
G54D12*
X11424Y-26170D03*
G54D13*
X11424Y-25170D03*
X12424Y-26170D03*
X12424Y-25170D03*
X13424Y-26170D03*
X13424Y-25170D03*
G54D12*
X11895Y-19691D03*
G54D13*
X11895Y-18691D03*
X11895Y-17691D03*
G54D12*
X19060Y-16875D03*
G54D13*
X19060Y-17875D03*
X19060Y-18875D03*
X19060Y-19875D03*
X19060Y-20875D03*
X19060Y-21875D03*
X19060Y-22875D03*
X22060Y-22875D03*
X22060Y-21875D03*
X22060Y-20875D03*
X22060Y-19875D03*
X22060Y-18875D03*
G54D17*
X22060Y-17875D03*
G54D13*
X22060Y-16875D03*
X11499Y-21339D03*
X11499Y-22339D03*
G54D10*
G36*
X11608Y-15347D02*
X12164Y-15903D01*
X11608Y-16459D01*
X11052Y-15903D01*
X11608Y-15347D01*
X11608Y-15347D01*
G37*
G54D18*
X12258Y-15253D03*
X12908Y-14603D03*
G54D10*
G36*
X11647Y-12314D02*
X12203Y-12870D01*
X11647Y-13426D01*
X11091Y-12870D01*
X11647Y-12314D01*
X11647Y-12314D01*
G37*
G54D18*
X12297Y-12220D03*
X12947Y-11570D03*
G54D10*
G36*
X14405Y-12312D02*
X14961Y-12868D01*
X14405Y-13424D01*
X13849Y-12868D01*
X14405Y-12312D01*
X14405Y-12312D01*
G37*
G54D18*
X15055Y-12218D03*
X15705Y-11568D03*
G54D10*
G36*
X17158Y-12313D02*
X17714Y-12869D01*
X17158Y-13425D01*
X16602Y-12869D01*
X17158Y-12313D01*
X17158Y-12313D01*
G37*
G54D18*
X17808Y-12219D03*
X18458Y-11569D03*
G54D10*
G36*
X19915Y-12312D02*
X20471Y-12868D01*
X19915Y-13424D01*
X19359Y-12868D01*
X19915Y-12312D01*
X19915Y-12312D01*
G37*
G54D18*
X20565Y-12218D03*
X21215Y-11568D03*
G54D12*
X18780Y-15622D03*
G54D13*
X18780Y-14614D03*
G54D19*
X12677Y-19829D02*
X12677Y-18473D01*
X13038Y-20190D02*
X12677Y-19829D01*
X15046Y-20190D02*
X13038Y-20190D01*
X12677Y-18473D02*
X11895Y-17691D01*
X16228Y-20191D02*
X18376Y-20191D01*
X18376Y-20191D02*
X19060Y-20875D01*
X12424Y-25170D02*
X13232Y-24331D01*
X20435Y-22875D02*
X21565Y-24005D01*
X23013Y-24370D02*
X28255Y-24370D01*
X28255Y-24370D02*
X28474Y-24151D01*
X21565Y-24005D02*
X22648Y-24005D01*
X18825Y-23110D02*
X19060Y-22875D01*
X16422Y-24322D02*
X17634Y-23110D01*
X15788Y-24331D02*
X16422Y-24322D01*
X22648Y-24005D02*
X23013Y-24370D01*
X15788Y-24331D02*
X13232Y-24331D01*
X17634Y-23110D02*
X18825Y-23110D01*
X19060Y-22875D02*
X20435Y-22875D01*
X26299Y-13031D02*
X26299Y-12993D01*
X26497Y-12795D02*
X28018Y-12795D01*
X26299Y-12993D02*
X26497Y-12795D01*
X24369Y-14961D02*
X23110Y-16220D01*
X23110Y-17835D02*
X23110Y-16220D01*
X22633Y-18302D02*
X22643Y-18302D01*
X22643Y-18302D02*
X23110Y-17835D01*
X24369Y-14961D02*
X26299Y-13031D01*
X22633Y-18302D02*
X22060Y-18875D01*
X22641Y-18294D02*
X22633Y-18302D01*
X28018Y-12795D02*
X28472Y-12341D01*
X22756Y-14252D02*
X22756Y-13189D01*
X23150Y-12795D02*
X24213Y-12795D01*
X22756Y-13189D02*
X23150Y-12795D01*
X27982Y-10472D02*
X28474Y-09980D01*
X24213Y-12795D02*
X26536Y-10472D01*
X22086Y-17875D02*
X22756Y-17205D01*
X22756Y-17205D02*
X22756Y-14252D01*
X22060Y-17875D02*
X22086Y-17875D01*
X26536Y-10472D02*
X27982Y-10472D01*
X24488Y-17047D02*
X24488Y-15867D01*
X28218Y-14961D02*
X28474Y-14705D01*
X25394Y-14961D02*
X28218Y-14961D01*
X24488Y-15867D02*
X25394Y-14961D01*
X22855Y-18680D02*
X23268Y-18267D01*
X22093Y-19875D02*
X22855Y-19113D01*
X22855Y-19113D02*
X22855Y-18680D01*
X22060Y-19875D02*
X22093Y-19875D01*
X23268Y-18267D02*
X24488Y-17047D01*
X22060Y-21875D02*
X22101Y-21875D01*
X24252Y-19724D02*
X28178Y-19724D01*
X22101Y-21875D02*
X24252Y-19724D01*
X28178Y-19724D02*
X28474Y-19428D01*
X27283Y-17638D02*
X27284Y-17638D01*
X27858Y-17064D02*
X28475Y-17064D01*
X27284Y-17638D02*
X27858Y-17064D01*
X23189Y-19528D02*
X23189Y-18819D01*
X26299Y-17638D02*
X27283Y-17638D01*
X23189Y-19843D02*
X22157Y-20875D01*
X22157Y-20875D02*
X22060Y-20875D01*
X23189Y-19528D02*
X23189Y-19843D01*
X23189Y-18819D02*
X24370Y-17638D01*
X24370Y-17638D02*
X26299Y-17638D01*
X18330Y-19307D02*
X18762Y-18875D01*
X17953Y-19307D02*
X18330Y-19307D01*
X18762Y-18875D02*
X19060Y-18875D01*
X17953Y-17307D02*
X18173Y-17307D01*
X18173Y-17307D02*
X18741Y-17875D01*
X18741Y-17875D02*
X19060Y-17875D01*
X12947Y-10187D02*
X13189Y-09945D01*
X13189Y-09945D02*
X13189Y-09445D01*
X12947Y-11570D02*
X12947Y-10187D01*
X15705Y-11568D02*
X15705Y-10184D01*
X15705Y-10184D02*
X15945Y-09944D01*
X15945Y-09944D02*
X15945Y-09444D01*
X18458Y-11569D02*
X18458Y-10185D01*
X18699Y-09944D02*
X18699Y-09444D01*
X18458Y-10185D02*
X18699Y-09944D01*
X21215Y-10185D02*
X21457Y-09943D01*
X21215Y-11568D02*
X21215Y-10185D01*
X21457Y-09943D02*
X21457Y-09443D01*
X11790Y-21339D02*
X11790Y-20239D01*
X13347Y-23071D02*
X15426Y-23071D01*
X11790Y-21339D02*
X11499Y-21339D01*
X11895Y-19691D02*
X11895Y-20134D01*
X11790Y-20239D02*
X11895Y-20134D01*
X15426Y-23071D02*
X16156Y-22341D01*
X13156Y-22341D02*
X13156Y-22880D01*
X13060Y-22245D02*
X13156Y-22341D01*
X11790Y-21339D02*
X12696Y-22245D01*
X12696Y-22245D02*
X13060Y-22245D01*
X13156Y-22880D02*
X13347Y-23071D01*
X25236Y-25394D02*
X26771Y-26929D01*
X20051Y-24776D02*
X21023Y-25748D01*
X23188Y-25394D02*
X25236Y-25394D01*
X22834Y-25748D02*
X23188Y-25394D01*
X21023Y-25748D02*
X22834Y-25748D01*
X28061Y-26929D02*
X28475Y-26515D01*
X26771Y-26929D02*
X28061Y-26929D01*
X19258Y-24776D02*
X20051Y-24776D01*
X22060Y-22875D02*
X22283Y-22875D01*
X22993Y-22165D02*
X28099Y-22165D01*
X22283Y-22875D02*
X22993Y-22165D01*
X28099Y-22165D02*
X28473Y-21791D01*
X12297Y-12220D02*
X12297Y-12415D01*
X12908Y-13026D02*
X12908Y-14603D01*
X12297Y-12415D02*
X12908Y-13026D01*
X16228Y-17191D02*
X16168Y-17191D01*
X16168Y-17191D02*
X15316Y-16339D01*
X11608Y-15903D02*
X11611Y-15903D01*
X15433Y-16339D02*
X15316Y-16339D01*
X15316Y-16339D02*
X12839Y-16339D01*
X12839Y-16339D02*
X12555Y-16339D01*
X18001Y-15645D02*
X16256Y-15645D01*
X16256Y-15645D02*
X16228Y-15617D01*
X19060Y-15645D02*
X18001Y-15645D01*
X16155Y-15617D02*
X15433Y-16339D01*
X16228Y-15617D02*
X16155Y-15617D01*
X11611Y-15903D02*
X12047Y-16339D01*
X12047Y-16339D02*
X12555Y-16339D01*
X18780Y-15622D02*
X19191Y-15622D01*
X19191Y-15622D02*
X20061Y-14752D01*
X20457Y-09943D02*
X20457Y-09443D01*
X12189Y-09945D02*
X12189Y-09445D01*
X14945Y-09944D02*
X14945Y-09444D01*
X20457Y-09943D02*
X20457Y-08843D01*
X20457Y-08843D02*
X20118Y-08504D01*
X17699Y-09944D02*
X17699Y-08841D01*
X17699Y-08841D02*
X17362Y-08504D01*
X14945Y-09944D02*
X14945Y-08646D01*
X14945Y-08646D02*
X14803Y-08504D01*
X12189Y-09945D02*
X12189Y-09031D01*
X12189Y-09031D02*
X12716Y-08504D01*
X12716Y-08504D02*
X14803Y-08504D01*
X14803Y-08504D02*
X17362Y-08504D01*
X17362Y-08504D02*
X20118Y-08504D01*
X17699Y-09944D02*
X17699Y-09444D01*
X19060Y-15645D02*
X19060Y-16875D01*
X19168Y-15645D02*
X19060Y-15645D01*
X20061Y-14752D02*
X19168Y-15645D01*
G54D20*
X10610Y-08346D02*
X12407Y-08346D01*
X20426Y-08346D02*
X28308Y-08346D01*
X28639Y-08346D02*
X29745Y-08346D01*
X10610Y-08426D02*
X12327Y-08426D01*
X20506Y-08426D02*
X28116Y-08426D01*
X28833Y-08426D02*
X29745Y-08426D01*
X10610Y-08506D02*
X12247Y-08506D01*
X20586Y-08506D02*
X28030Y-08506D01*
X28918Y-08506D02*
X29745Y-08506D01*
X10610Y-08586D02*
X12167Y-08586D01*
X20666Y-08586D02*
X27950Y-08586D01*
X28998Y-08586D02*
X29745Y-08586D01*
X10610Y-08666D02*
X11726Y-08666D01*
X20922Y-08666D02*
X20992Y-08666D01*
X21922Y-08666D02*
X27902Y-08666D01*
X29047Y-08666D02*
X29745Y-08666D01*
X10610Y-08746D02*
X11665Y-08746D01*
X21983Y-08746D02*
X27869Y-08746D01*
X29080Y-08746D02*
X29745Y-08746D01*
X10610Y-08826D02*
X11640Y-08826D01*
X22006Y-08826D02*
X27836Y-08826D01*
X29113Y-08826D02*
X29745Y-08826D01*
X10610Y-08906D02*
X11640Y-08906D01*
X13738Y-08906D02*
X14396Y-08906D01*
X16494Y-08906D02*
X17150Y-08906D01*
X19248Y-08906D02*
X19908Y-08906D01*
X22006Y-08906D02*
X27825Y-08906D01*
X29123Y-08906D02*
X29745Y-08906D01*
X10610Y-08986D02*
X11640Y-08986D01*
X13738Y-08986D02*
X14396Y-08986D01*
X16494Y-08986D02*
X17150Y-08986D01*
X19248Y-08986D02*
X19908Y-08986D01*
X22006Y-08986D02*
X23597Y-08986D01*
X24052Y-08986D02*
X26597Y-08986D01*
X27052Y-08986D02*
X27825Y-08986D01*
X29123Y-08986D02*
X29745Y-08986D01*
X10610Y-09066D02*
X11640Y-09066D01*
X13738Y-09066D02*
X14396Y-09066D01*
X16494Y-09066D02*
X17150Y-09066D01*
X19248Y-09066D02*
X19908Y-09066D01*
X22006Y-09066D02*
X23434Y-09066D01*
X24214Y-09066D02*
X26434Y-09066D01*
X27214Y-09066D02*
X27825Y-09066D01*
X29123Y-09066D02*
X29745Y-09066D01*
X10610Y-09146D02*
X11640Y-09146D01*
X13738Y-09146D02*
X14396Y-09146D01*
X16494Y-09146D02*
X17150Y-09146D01*
X19248Y-09146D02*
X19908Y-09146D01*
X22006Y-09146D02*
X23354Y-09146D01*
X24294Y-09146D02*
X26354Y-09146D01*
X27294Y-09146D02*
X27840Y-09146D01*
X29107Y-09146D02*
X29745Y-09146D01*
X10610Y-09226D02*
X11640Y-09226D01*
X13738Y-09226D02*
X14396Y-09226D01*
X16494Y-09226D02*
X17150Y-09226D01*
X19248Y-09226D02*
X19908Y-09226D01*
X22006Y-09226D02*
X23274Y-09226D01*
X24374Y-09226D02*
X26274Y-09226D01*
X27374Y-09226D02*
X27873Y-09226D01*
X29074Y-09226D02*
X29745Y-09226D01*
X10610Y-09306D02*
X11640Y-09306D01*
X13738Y-09306D02*
X14396Y-09306D01*
X16494Y-09306D02*
X17150Y-09306D01*
X19248Y-09306D02*
X19908Y-09306D01*
X22006Y-09306D02*
X23241Y-09306D01*
X24408Y-09306D02*
X26241Y-09306D01*
X27408Y-09306D02*
X27906Y-09306D01*
X29041Y-09306D02*
X29745Y-09306D01*
X10610Y-09386D02*
X11640Y-09386D01*
X13738Y-09386D02*
X14396Y-09386D01*
X16494Y-09386D02*
X17150Y-09386D01*
X19248Y-09386D02*
X19908Y-09386D01*
X22006Y-09386D02*
X23208Y-09386D01*
X24441Y-09386D02*
X26208Y-09386D01*
X27441Y-09386D02*
X27961Y-09386D01*
X28986Y-09386D02*
X29745Y-09386D01*
X10610Y-09466D02*
X11640Y-09466D01*
X13738Y-09466D02*
X14396Y-09466D01*
X16494Y-09466D02*
X17150Y-09466D01*
X19248Y-09466D02*
X19908Y-09466D01*
X22006Y-09466D02*
X23175Y-09466D01*
X24473Y-09466D02*
X26175Y-09466D01*
X27473Y-09466D02*
X28041Y-09466D01*
X28906Y-09466D02*
X29745Y-09466D01*
X10610Y-09546D02*
X11640Y-09546D01*
X13738Y-09546D02*
X14396Y-09546D01*
X16494Y-09546D02*
X17150Y-09546D01*
X19248Y-09546D02*
X19908Y-09546D01*
X22006Y-09546D02*
X23175Y-09546D01*
X24473Y-09546D02*
X26175Y-09546D01*
X27473Y-09546D02*
X27990Y-09546D01*
X28958Y-09546D02*
X29745Y-09546D01*
X10610Y-09626D02*
X11619Y-09626D01*
X13760Y-09626D02*
X14375Y-09626D01*
X16516Y-09626D02*
X17129Y-09626D01*
X19270Y-09626D02*
X19886Y-09626D01*
X22029Y-09626D02*
X23175Y-09626D01*
X24473Y-09626D02*
X26175Y-09626D01*
X27473Y-09626D02*
X27919Y-09626D01*
X29030Y-09626D02*
X29745Y-09626D01*
X10610Y-09706D02*
X11586Y-09706D01*
X13793Y-09706D02*
X14342Y-09706D01*
X16549Y-09706D02*
X17096Y-09706D01*
X19303Y-09706D02*
X19853Y-09706D01*
X22062Y-09706D02*
X23175Y-09706D01*
X24473Y-09706D02*
X26175Y-09706D01*
X27473Y-09706D02*
X27886Y-09706D01*
X29063Y-09706D02*
X29745Y-09706D01*
X10610Y-09786D02*
X11553Y-09786D01*
X13826Y-09786D02*
X14309Y-09786D01*
X16582Y-09786D02*
X17063Y-09786D01*
X19336Y-09786D02*
X19820Y-09786D01*
X22095Y-09786D02*
X23201Y-09786D01*
X24446Y-09786D02*
X26201Y-09786D01*
X27446Y-09786D02*
X27852Y-09786D01*
X29097Y-09786D02*
X29745Y-09786D01*
X10610Y-09866D02*
X11540Y-09866D01*
X13838Y-09866D02*
X14296Y-09866D01*
X16594Y-09866D02*
X17050Y-09866D01*
X19348Y-09866D02*
X19808Y-09866D01*
X22106Y-09866D02*
X23234Y-09866D01*
X24413Y-09866D02*
X26234Y-09866D01*
X27413Y-09866D02*
X27825Y-09866D01*
X29123Y-09866D02*
X29745Y-09866D01*
X10610Y-09946D02*
X11540Y-09946D01*
X13838Y-09946D02*
X14296Y-09946D01*
X16594Y-09946D02*
X17050Y-09946D01*
X19348Y-09946D02*
X19808Y-09946D01*
X22106Y-09946D02*
X23267Y-09946D01*
X24380Y-09946D02*
X26267Y-09946D01*
X27380Y-09946D02*
X27825Y-09946D01*
X29123Y-09946D02*
X29745Y-09946D01*
X10610Y-10026D02*
X11540Y-10026D01*
X13838Y-10026D02*
X14296Y-10026D01*
X16594Y-10026D02*
X17050Y-10026D01*
X19348Y-10026D02*
X19808Y-10026D01*
X22106Y-10026D02*
X23338Y-10026D01*
X24310Y-10026D02*
X26338Y-10026D01*
X27310Y-10026D02*
X27825Y-10026D01*
X29123Y-10026D02*
X29745Y-10026D01*
X10610Y-10106D02*
X11553Y-10106D01*
X13824Y-10106D02*
X14309Y-10106D01*
X16580Y-10106D02*
X17063Y-10106D01*
X19334Y-10106D02*
X19822Y-10106D01*
X22091Y-10106D02*
X23418Y-10106D01*
X24230Y-10106D02*
X26418Y-10106D01*
X27230Y-10106D02*
X27825Y-10106D01*
X29123Y-10106D02*
X29745Y-10106D01*
X10610Y-10186D02*
X11586Y-10186D01*
X13791Y-10186D02*
X14342Y-10186D01*
X16547Y-10186D02*
X17096Y-10186D01*
X19301Y-10186D02*
X19855Y-10186D01*
X22058Y-10186D02*
X23557Y-10186D01*
X24090Y-10186D02*
X26381Y-10186D01*
X29091Y-10186D02*
X29745Y-10186D01*
X10610Y-10266D02*
X11619Y-10266D01*
X13758Y-10266D02*
X14375Y-10266D01*
X16514Y-10266D02*
X17129Y-10266D01*
X19268Y-10266D02*
X19888Y-10266D01*
X22025Y-10266D02*
X26276Y-10266D01*
X29057Y-10266D02*
X29745Y-10266D01*
X10610Y-10346D02*
X11672Y-10346D01*
X13706Y-10346D02*
X14429Y-10346D01*
X16461Y-10346D02*
X17183Y-10346D01*
X19215Y-10346D02*
X19942Y-10346D01*
X21972Y-10346D02*
X26196Y-10346D01*
X29024Y-10346D02*
X29745Y-10346D01*
X10610Y-10426D02*
X11752Y-10426D01*
X13626Y-10426D02*
X14509Y-10426D01*
X16381Y-10426D02*
X17263Y-10426D01*
X19135Y-10426D02*
X20022Y-10426D01*
X21892Y-10426D02*
X26116Y-10426D01*
X28946Y-10426D02*
X29745Y-10426D01*
X10610Y-10506D02*
X11847Y-10506D01*
X12530Y-10506D02*
X12617Y-10506D01*
X13530Y-10506D02*
X14605Y-10506D01*
X15284Y-10506D02*
X15375Y-10506D01*
X16284Y-10506D02*
X17359Y-10506D01*
X18038Y-10506D02*
X18128Y-10506D01*
X19038Y-10506D02*
X20120Y-10506D01*
X20793Y-10506D02*
X20885Y-10506D01*
X21793Y-10506D02*
X26036Y-10506D01*
X28866Y-10506D02*
X29745Y-10506D01*
X10610Y-10586D02*
X12040Y-10586D01*
X12337Y-10586D02*
X12617Y-10586D01*
X13337Y-10586D02*
X14799Y-10586D01*
X15090Y-10586D02*
X15375Y-10586D01*
X16090Y-10586D02*
X17553Y-10586D01*
X17844Y-10586D02*
X18128Y-10586D01*
X18844Y-10586D02*
X20313Y-10586D01*
X20600Y-10586D02*
X20885Y-10586D01*
X21600Y-10586D02*
X25956Y-10586D01*
X28706Y-10586D02*
X29745Y-10586D01*
X10610Y-10666D02*
X12617Y-10666D01*
X13277Y-10666D02*
X15375Y-10666D01*
X16035Y-10666D02*
X18128Y-10666D01*
X18788Y-10666D02*
X20885Y-10666D01*
X21545Y-10666D02*
X25876Y-10666D01*
X28253Y-10666D02*
X29745Y-10666D01*
X10610Y-10746D02*
X12617Y-10746D01*
X13277Y-10746D02*
X15375Y-10746D01*
X16035Y-10746D02*
X18128Y-10746D01*
X18788Y-10746D02*
X20885Y-10746D01*
X21545Y-10746D02*
X25796Y-10746D01*
X28154Y-10746D02*
X28213Y-10746D01*
X28732Y-10746D02*
X29745Y-10746D01*
X10610Y-10826D02*
X12617Y-10826D01*
X13277Y-10826D02*
X15375Y-10826D01*
X16035Y-10826D02*
X18128Y-10826D01*
X18788Y-10826D02*
X20885Y-10826D01*
X21545Y-10826D02*
X25716Y-10826D01*
X26648Y-10826D02*
X28069Y-10826D01*
X28875Y-10826D02*
X29745Y-10826D01*
X10610Y-10906D02*
X12617Y-10906D01*
X13277Y-10906D02*
X15375Y-10906D01*
X16035Y-10906D02*
X18128Y-10906D01*
X18788Y-10906D02*
X20885Y-10906D01*
X21545Y-10906D02*
X25636Y-10906D01*
X26568Y-10906D02*
X27989Y-10906D01*
X28955Y-10906D02*
X29745Y-10906D01*
X10610Y-10986D02*
X12617Y-10986D01*
X13277Y-10986D02*
X15375Y-10986D01*
X16035Y-10986D02*
X18128Y-10986D01*
X18788Y-10986D02*
X20885Y-10986D01*
X21545Y-10986D02*
X25556Y-10986D01*
X26488Y-10986D02*
X27917Y-10986D01*
X29028Y-10986D02*
X29745Y-10986D01*
X10610Y-11066D02*
X12543Y-11066D01*
X13352Y-11066D02*
X15299Y-11066D01*
X16112Y-11066D02*
X18053Y-11066D01*
X18864Y-11066D02*
X20809Y-11066D01*
X21622Y-11066D02*
X25476Y-11066D01*
X26408Y-11066D02*
X27884Y-11066D01*
X29061Y-11066D02*
X29745Y-11066D01*
X10610Y-11146D02*
X12463Y-11146D01*
X13432Y-11146D02*
X15219Y-11146D01*
X16192Y-11146D02*
X17973Y-11146D01*
X18944Y-11146D02*
X20729Y-11146D01*
X21702Y-11146D02*
X25396Y-11146D01*
X26328Y-11146D02*
X27851Y-11146D01*
X29094Y-11146D02*
X29745Y-11146D01*
X10610Y-11226D02*
X12395Y-11226D01*
X13500Y-11226D02*
X15152Y-11226D01*
X16259Y-11226D02*
X17905Y-11226D01*
X19012Y-11226D02*
X20662Y-11226D01*
X21769Y-11226D02*
X25316Y-11226D01*
X26248Y-11226D02*
X27823Y-11226D01*
X29121Y-11226D02*
X29745Y-11226D01*
X10610Y-11306D02*
X12361Y-11306D01*
X13534Y-11306D02*
X15118Y-11306D01*
X16292Y-11306D02*
X17872Y-11306D01*
X19045Y-11306D02*
X20628Y-11306D01*
X21802Y-11306D02*
X23695Y-11306D01*
X23954Y-11306D02*
X25236Y-11306D01*
X26168Y-11306D02*
X26695Y-11306D01*
X26954Y-11306D02*
X27823Y-11306D01*
X29121Y-11306D02*
X29745Y-11306D01*
X10610Y-11386D02*
X12328Y-11386D01*
X13567Y-11386D02*
X15085Y-11386D01*
X16326Y-11386D02*
X17838Y-11386D01*
X19078Y-11386D02*
X20595Y-11386D01*
X21836Y-11386D02*
X23502Y-11386D01*
X24147Y-11386D02*
X25156Y-11386D01*
X26088Y-11386D02*
X26502Y-11386D01*
X27147Y-11386D02*
X27823Y-11386D01*
X29121Y-11386D02*
X29745Y-11386D01*
X10610Y-11466D02*
X12304Y-11466D01*
X13590Y-11466D02*
X15062Y-11466D01*
X16348Y-11466D02*
X17815Y-11466D01*
X19101Y-11466D02*
X20572Y-11466D01*
X21858Y-11466D02*
X23395Y-11466D01*
X24253Y-11466D02*
X25076Y-11466D01*
X26008Y-11466D02*
X26395Y-11466D01*
X27253Y-11466D02*
X27823Y-11466D01*
X29121Y-11466D02*
X29745Y-11466D01*
X10610Y-11546D02*
X12304Y-11546D01*
X13590Y-11546D02*
X15062Y-11546D01*
X16348Y-11546D02*
X17815Y-11546D01*
X19101Y-11546D02*
X20572Y-11546D01*
X21858Y-11546D02*
X23315Y-11546D01*
X24333Y-11546D02*
X24996Y-11546D01*
X25928Y-11546D02*
X26315Y-11546D01*
X27333Y-11546D02*
X27854Y-11546D01*
X29089Y-11546D02*
X29745Y-11546D01*
X10610Y-11626D02*
X12052Y-11626D01*
X13590Y-11626D02*
X14806Y-11626D01*
X16348Y-11626D02*
X17561Y-11626D01*
X19101Y-11626D02*
X20316Y-11626D01*
X21858Y-11626D02*
X23258Y-11626D01*
X24391Y-11626D02*
X24916Y-11626D01*
X25848Y-11626D02*
X26258Y-11626D01*
X27391Y-11626D02*
X27887Y-11626D01*
X29056Y-11626D02*
X29745Y-11626D01*
X10610Y-11706D02*
X11903Y-11706D01*
X13587Y-11706D02*
X14659Y-11706D01*
X16344Y-11706D02*
X17413Y-11706D01*
X19097Y-11706D02*
X20169Y-11706D01*
X21854Y-11706D02*
X23225Y-11706D01*
X24424Y-11706D02*
X24836Y-11706D01*
X25768Y-11706D02*
X26225Y-11706D01*
X27424Y-11706D02*
X27920Y-11706D01*
X29023Y-11706D02*
X29745Y-11706D01*
X10610Y-11786D02*
X11823Y-11786D01*
X13553Y-11786D02*
X14579Y-11786D01*
X16310Y-11786D02*
X17333Y-11786D01*
X19064Y-11786D02*
X20089Y-11786D01*
X21820Y-11786D02*
X23192Y-11786D01*
X24457Y-11786D02*
X24756Y-11786D01*
X25688Y-11786D02*
X26192Y-11786D01*
X27457Y-11786D02*
X27998Y-11786D01*
X28944Y-11786D02*
X29745Y-11786D01*
X10610Y-11866D02*
X11749Y-11866D01*
X13519Y-11866D02*
X14506Y-11866D01*
X16277Y-11866D02*
X17259Y-11866D01*
X19030Y-11866D02*
X20016Y-11866D01*
X21787Y-11866D02*
X23175Y-11866D01*
X24473Y-11866D02*
X24676Y-11866D01*
X25608Y-11866D02*
X26175Y-11866D01*
X27473Y-11866D02*
X28029Y-11866D01*
X28916Y-11866D02*
X29745Y-11866D01*
X10610Y-11946D02*
X11715Y-11946D01*
X13479Y-11946D02*
X14472Y-11946D01*
X16235Y-11946D02*
X17226Y-11946D01*
X18989Y-11946D02*
X19982Y-11946D01*
X21745Y-11946D02*
X23175Y-11946D01*
X24473Y-11946D02*
X24596Y-11946D01*
X25528Y-11946D02*
X26175Y-11946D01*
X27473Y-11946D02*
X27949Y-11946D01*
X28996Y-11946D02*
X29745Y-11946D01*
X10610Y-12026D02*
X11681Y-12026D01*
X13399Y-12026D02*
X14438Y-12026D01*
X16155Y-12026D02*
X17192Y-12026D01*
X18909Y-12026D02*
X19948Y-12026D01*
X21665Y-12026D02*
X23175Y-12026D01*
X24473Y-12026D02*
X24516Y-12026D01*
X25448Y-12026D02*
X26175Y-12026D01*
X27473Y-12026D02*
X27901Y-12026D01*
X29044Y-12026D02*
X29745Y-12026D01*
X10610Y-12106D02*
X11503Y-12106D01*
X13319Y-12106D02*
X14259Y-12106D01*
X16075Y-12106D02*
X17013Y-12106D01*
X18829Y-12106D02*
X19769Y-12106D01*
X21585Y-12106D02*
X23184Y-12106D01*
X25368Y-12106D02*
X26184Y-12106D01*
X27463Y-12106D02*
X27867Y-12106D01*
X29078Y-12106D02*
X29745Y-12106D01*
X10610Y-12186D02*
X11423Y-12186D01*
X13139Y-12186D02*
X14179Y-12186D01*
X15892Y-12186D02*
X16933Y-12186D01*
X18647Y-12186D02*
X19689Y-12186D01*
X21402Y-12186D02*
X23217Y-12186D01*
X25288Y-12186D02*
X26217Y-12186D01*
X27430Y-12186D02*
X27834Y-12186D01*
X29111Y-12186D02*
X29745Y-12186D01*
X10610Y-12266D02*
X11343Y-12266D01*
X12940Y-12266D02*
X14099Y-12266D01*
X15698Y-12266D02*
X16853Y-12266D01*
X18451Y-12266D02*
X19609Y-12266D01*
X21208Y-12266D02*
X23250Y-12266D01*
X25208Y-12266D02*
X26250Y-12266D01*
X27397Y-12266D02*
X27823Y-12266D01*
X29121Y-12266D02*
X29745Y-12266D01*
X10610Y-12346D02*
X11272Y-12346D01*
X12940Y-12346D02*
X14030Y-12346D01*
X15698Y-12346D02*
X16783Y-12346D01*
X18451Y-12346D02*
X19540Y-12346D01*
X21208Y-12346D02*
X23297Y-12346D01*
X25128Y-12346D02*
X26297Y-12346D01*
X27350Y-12346D02*
X27823Y-12346D01*
X29121Y-12346D02*
X29745Y-12346D01*
X10610Y-12426D02*
X11274Y-12426D01*
X12907Y-12426D02*
X14034Y-12426D01*
X15664Y-12426D02*
X16786Y-12426D01*
X18418Y-12426D02*
X19544Y-12426D01*
X21174Y-12426D02*
X23377Y-12426D01*
X25048Y-12426D02*
X26377Y-12426D01*
X27270Y-12426D02*
X27823Y-12426D01*
X29121Y-12426D02*
X29745Y-12426D01*
X10610Y-12506D02*
X11103Y-12506D01*
X11212Y-12506D02*
X11354Y-12506D01*
X12873Y-12506D02*
X13859Y-12506D01*
X13972Y-12506D02*
X14114Y-12506D01*
X15631Y-12506D02*
X16613Y-12506D01*
X16724Y-12506D02*
X16866Y-12506D01*
X18384Y-12506D02*
X19369Y-12506D01*
X19482Y-12506D02*
X19624Y-12506D01*
X21141Y-12506D02*
X23000Y-12506D01*
X24968Y-12506D02*
X26347Y-12506D01*
X29106Y-12506D02*
X29745Y-12506D01*
X10610Y-12586D02*
X11023Y-12586D01*
X11292Y-12586D02*
X11434Y-12586D01*
X12934Y-12586D02*
X13779Y-12586D01*
X14052Y-12586D02*
X14194Y-12586D01*
X15595Y-12586D02*
X16533Y-12586D01*
X16804Y-12586D02*
X16946Y-12586D01*
X18349Y-12586D02*
X19289Y-12586D01*
X19562Y-12586D02*
X19704Y-12586D01*
X21105Y-12586D02*
X22893Y-12586D01*
X24888Y-12586D02*
X26240Y-12586D01*
X29072Y-12586D02*
X29745Y-12586D01*
X10610Y-12666D02*
X10943Y-12666D01*
X11372Y-12666D02*
X11514Y-12666D01*
X11779Y-12666D02*
X11780Y-12666D01*
X13014Y-12666D02*
X13699Y-12666D01*
X14132Y-12666D02*
X14274Y-12666D01*
X14535Y-12666D02*
X14536Y-12666D01*
X15515Y-12666D02*
X16453Y-12666D01*
X16884Y-12666D02*
X17026Y-12666D01*
X17289Y-12666D02*
X17290Y-12666D01*
X18269Y-12666D02*
X19209Y-12666D01*
X19642Y-12666D02*
X19784Y-12666D01*
X20045Y-12666D02*
X20046Y-12666D01*
X21025Y-12666D02*
X22813Y-12666D01*
X24808Y-12666D02*
X26160Y-12666D01*
X29039Y-12666D02*
X29745Y-12666D01*
X10610Y-12746D02*
X10873Y-12746D01*
X11452Y-12746D02*
X11594Y-12746D01*
X11699Y-12746D02*
X11700Y-12746D01*
X13094Y-12746D02*
X13631Y-12746D01*
X14212Y-12746D02*
X14354Y-12746D01*
X14455Y-12746D02*
X14456Y-12746D01*
X15435Y-12746D02*
X16384Y-12746D01*
X16964Y-12746D02*
X17106Y-12746D01*
X17209Y-12746D02*
X17210Y-12746D01*
X18189Y-12746D02*
X19141Y-12746D01*
X19722Y-12746D02*
X19864Y-12746D01*
X19965Y-12746D02*
X19966Y-12746D01*
X20945Y-12746D02*
X22733Y-12746D01*
X24728Y-12746D02*
X26080Y-12746D01*
X28985Y-12746D02*
X29745Y-12746D01*
X10610Y-12826D02*
X10842Y-12826D01*
X11532Y-12826D02*
X11674Y-12826D01*
X13164Y-12826D02*
X13600Y-12826D01*
X14292Y-12826D02*
X14434Y-12826D01*
X15265Y-12826D02*
X16353Y-12826D01*
X17044Y-12826D02*
X17186Y-12826D01*
X18021Y-12826D02*
X19110Y-12826D01*
X19802Y-12826D02*
X19944Y-12826D01*
X20775Y-12826D02*
X22653Y-12826D01*
X24648Y-12826D02*
X26022Y-12826D01*
X28905Y-12826D02*
X29745Y-12826D01*
X10610Y-12906D02*
X10842Y-12906D01*
X11540Y-12906D02*
X11754Y-12906D01*
X13214Y-12906D02*
X13600Y-12906D01*
X14296Y-12906D02*
X14514Y-12906D01*
X15210Y-12906D02*
X16353Y-12906D01*
X17050Y-12906D02*
X17266Y-12906D01*
X17963Y-12906D02*
X19110Y-12906D01*
X19806Y-12906D02*
X20024Y-12906D01*
X20720Y-12906D02*
X22573Y-12906D01*
X24568Y-12906D02*
X25957Y-12906D01*
X28803Y-12906D02*
X29745Y-12906D01*
X10610Y-12986D02*
X10869Y-12986D01*
X11460Y-12986D02*
X11602Y-12986D01*
X11692Y-12986D02*
X11834Y-12986D01*
X13230Y-12986D02*
X13628Y-12986D01*
X14216Y-12986D02*
X14358Y-12986D01*
X14452Y-12986D02*
X14594Y-12986D01*
X15181Y-12986D02*
X16381Y-12986D01*
X16970Y-12986D02*
X17112Y-12986D01*
X17204Y-12986D02*
X17346Y-12986D01*
X17934Y-12986D02*
X19138Y-12986D01*
X19726Y-12986D02*
X19868Y-12986D01*
X19962Y-12986D02*
X20104Y-12986D01*
X20691Y-12986D02*
X22503Y-12986D01*
X24488Y-12986D02*
X25877Y-12986D01*
X28292Y-12986D02*
X28333Y-12986D01*
X28610Y-12986D02*
X29745Y-12986D01*
X10610Y-13066D02*
X10935Y-13066D01*
X11380Y-13066D02*
X11522Y-13066D01*
X11772Y-13066D02*
X11914Y-13066D01*
X12359Y-13066D02*
X12481Y-13066D01*
X13238Y-13066D02*
X13695Y-13066D01*
X14136Y-13066D02*
X14278Y-13066D01*
X14532Y-13066D02*
X14674Y-13066D01*
X15115Y-13066D02*
X16447Y-13066D01*
X16890Y-13066D02*
X17032Y-13066D01*
X17284Y-13066D02*
X17426Y-13066D01*
X17869Y-13066D02*
X19205Y-13066D01*
X19646Y-13066D02*
X19788Y-13066D01*
X20042Y-13066D02*
X20184Y-13066D01*
X20625Y-13066D02*
X22451Y-13066D01*
X24390Y-13066D02*
X25797Y-13066D01*
X28195Y-13066D02*
X28321Y-13066D01*
X28628Y-13066D02*
X29745Y-13066D01*
X10610Y-13146D02*
X11014Y-13146D01*
X11300Y-13146D02*
X11442Y-13146D01*
X11852Y-13146D02*
X11994Y-13146D01*
X12279Y-13146D02*
X12561Y-13146D01*
X13238Y-13146D02*
X13774Y-13146D01*
X14056Y-13146D02*
X14198Y-13146D01*
X14612Y-13146D02*
X14754Y-13146D01*
X15035Y-13146D02*
X16526Y-13146D01*
X16810Y-13146D02*
X16952Y-13146D01*
X17364Y-13146D02*
X17506Y-13146D01*
X17789Y-13146D02*
X19284Y-13146D01*
X19566Y-13146D02*
X19708Y-13146D01*
X20122Y-13146D02*
X20264Y-13146D01*
X20545Y-13146D02*
X22435Y-13146D01*
X23265Y-13146D02*
X25717Y-13146D01*
X26611Y-13146D02*
X28128Y-13146D01*
X28821Y-13146D02*
X29745Y-13146D01*
X10610Y-13226D02*
X11094Y-13226D01*
X11220Y-13226D02*
X11362Y-13226D01*
X11932Y-13226D02*
X12074Y-13226D01*
X12199Y-13226D02*
X12578Y-13226D01*
X13238Y-13226D02*
X13854Y-13226D01*
X13976Y-13226D02*
X14118Y-13226D01*
X14692Y-13226D02*
X14834Y-13226D01*
X14955Y-13226D02*
X16606Y-13226D01*
X16730Y-13226D02*
X16872Y-13226D01*
X17444Y-13226D02*
X17586Y-13226D01*
X17709Y-13226D02*
X19364Y-13226D01*
X19486Y-13226D02*
X19628Y-13226D01*
X20202Y-13226D02*
X20344Y-13226D01*
X20465Y-13226D02*
X22426Y-13226D01*
X23185Y-13226D02*
X25637Y-13226D01*
X26557Y-13226D02*
X28035Y-13226D01*
X28913Y-13226D02*
X29745Y-13226D01*
X10610Y-13306D02*
X11282Y-13306D01*
X12012Y-13306D02*
X12578Y-13306D01*
X13238Y-13306D02*
X14038Y-13306D01*
X14772Y-13306D02*
X16792Y-13306D01*
X17524Y-13306D02*
X19548Y-13306D01*
X20282Y-13306D02*
X22426Y-13306D01*
X23105Y-13306D02*
X25557Y-13306D01*
X26490Y-13306D02*
X27955Y-13306D01*
X28993Y-13306D02*
X29745Y-13306D01*
X10610Y-13386D02*
X11272Y-13386D01*
X12022Y-13386D02*
X12578Y-13386D01*
X13238Y-13386D02*
X14030Y-13386D01*
X14780Y-13386D02*
X16783Y-13386D01*
X17533Y-13386D02*
X19540Y-13386D01*
X20290Y-13386D02*
X22426Y-13386D01*
X23086Y-13386D02*
X25477Y-13386D01*
X26410Y-13386D02*
X27904Y-13386D01*
X29045Y-13386D02*
X29745Y-13386D01*
X10610Y-13466D02*
X11334Y-13466D01*
X11959Y-13466D02*
X12578Y-13466D01*
X13238Y-13466D02*
X14094Y-13466D01*
X14715Y-13466D02*
X16846Y-13466D01*
X17469Y-13466D02*
X19604Y-13466D01*
X20225Y-13466D02*
X22426Y-13466D01*
X23086Y-13466D02*
X25397Y-13466D01*
X26330Y-13466D02*
X27871Y-13466D01*
X29078Y-13466D02*
X29745Y-13466D01*
X10610Y-13546D02*
X11414Y-13546D01*
X11879Y-13546D02*
X12578Y-13546D01*
X13238Y-13546D02*
X14174Y-13546D01*
X14635Y-13546D02*
X16926Y-13546D01*
X17389Y-13546D02*
X19684Y-13546D01*
X20145Y-13546D02*
X22426Y-13546D01*
X23086Y-13546D02*
X25317Y-13546D01*
X26250Y-13546D02*
X27838Y-13546D01*
X29111Y-13546D02*
X29745Y-13546D01*
X10610Y-13626D02*
X11495Y-13626D01*
X11799Y-13626D02*
X12578Y-13626D01*
X13238Y-13626D02*
X14255Y-13626D01*
X14555Y-13626D02*
X17007Y-13626D01*
X17309Y-13626D02*
X19765Y-13626D01*
X20065Y-13626D02*
X22426Y-13626D01*
X23086Y-13626D02*
X25237Y-13626D01*
X26170Y-13626D02*
X27825Y-13626D01*
X29123Y-13626D02*
X29745Y-13626D01*
X10610Y-13706D02*
X12578Y-13706D01*
X13238Y-13706D02*
X22426Y-13706D01*
X23086Y-13706D02*
X23607Y-13706D01*
X24044Y-13706D02*
X25157Y-13706D01*
X26090Y-13706D02*
X26607Y-13706D01*
X27044Y-13706D02*
X27825Y-13706D01*
X29123Y-13706D02*
X29745Y-13706D01*
X10610Y-13786D02*
X12578Y-13786D01*
X13238Y-13786D02*
X22426Y-13786D01*
X23086Y-13786D02*
X23439Y-13786D01*
X24211Y-13786D02*
X25077Y-13786D01*
X26010Y-13786D02*
X26439Y-13786D01*
X27211Y-13786D02*
X27825Y-13786D01*
X29123Y-13786D02*
X29745Y-13786D01*
X10610Y-13866D02*
X12578Y-13866D01*
X13238Y-13866D02*
X22426Y-13866D01*
X23086Y-13866D02*
X23359Y-13866D01*
X24291Y-13866D02*
X24997Y-13866D01*
X25930Y-13866D02*
X26359Y-13866D01*
X27291Y-13866D02*
X27838Y-13866D01*
X29109Y-13866D02*
X29745Y-13866D01*
X10610Y-13946D02*
X12578Y-13946D01*
X13238Y-13946D02*
X22426Y-13946D01*
X23086Y-13946D02*
X23279Y-13946D01*
X24371Y-13946D02*
X24917Y-13946D01*
X25850Y-13946D02*
X26279Y-13946D01*
X27371Y-13946D02*
X27871Y-13946D01*
X29076Y-13946D02*
X29745Y-13946D01*
X10610Y-14026D02*
X12578Y-14026D01*
X13238Y-14026D02*
X18524Y-14026D01*
X19028Y-14026D02*
X22426Y-14026D01*
X23086Y-14026D02*
X23244Y-14026D01*
X24407Y-14026D02*
X24837Y-14026D01*
X25770Y-14026D02*
X26244Y-14026D01*
X27407Y-14026D02*
X27904Y-14026D01*
X29043Y-14026D02*
X29745Y-14026D01*
X10610Y-14106D02*
X12497Y-14106D01*
X13320Y-14106D02*
X18424Y-14106D01*
X19137Y-14106D02*
X19925Y-14106D01*
X20198Y-14106D02*
X22426Y-14106D01*
X23086Y-14106D02*
X23211Y-14106D01*
X24440Y-14106D02*
X24757Y-14106D01*
X25690Y-14106D02*
X26211Y-14106D01*
X27440Y-14106D02*
X27956Y-14106D01*
X28990Y-14106D02*
X29745Y-14106D01*
X10610Y-14186D02*
X12417Y-14186D01*
X13400Y-14186D02*
X18423Y-14186D01*
X19137Y-14186D02*
X19732Y-14186D01*
X20391Y-14186D02*
X20751Y-14186D01*
X21369Y-14186D02*
X22426Y-14186D01*
X23086Y-14186D02*
X23178Y-14186D01*
X24473Y-14186D02*
X24677Y-14186D01*
X25610Y-14186D02*
X26178Y-14186D01*
X27473Y-14186D02*
X28036Y-14186D01*
X28910Y-14186D02*
X29745Y-14186D01*
X10610Y-14266D02*
X12353Y-14266D01*
X13464Y-14266D02*
X18249Y-14266D01*
X18361Y-14266D02*
X18503Y-14266D01*
X19057Y-14266D02*
X19199Y-14266D01*
X19312Y-14266D02*
X19629Y-14266D01*
X20493Y-14266D02*
X20697Y-14266D01*
X21426Y-14266D02*
X22426Y-14266D01*
X23086Y-14266D02*
X23176Y-14266D01*
X24474Y-14266D02*
X24597Y-14266D01*
X25529Y-14266D02*
X26176Y-14266D01*
X27474Y-14266D02*
X27995Y-14266D01*
X28953Y-14266D02*
X29745Y-14266D01*
X10610Y-14346D02*
X12319Y-14346D01*
X13498Y-14346D02*
X18200Y-14346D01*
X18441Y-14346D02*
X18583Y-14346D01*
X18977Y-14346D02*
X19119Y-14346D01*
X19364Y-14346D02*
X19549Y-14346D01*
X20573Y-14346D02*
X20726Y-14346D01*
X21396Y-14346D02*
X22426Y-14346D01*
X23086Y-14346D02*
X23176Y-14346D01*
X24474Y-14346D02*
X24517Y-14346D01*
X25449Y-14346D02*
X26176Y-14346D01*
X27474Y-14346D02*
X27921Y-14346D01*
X29028Y-14346D02*
X29745Y-14346D01*
X10610Y-14426D02*
X12286Y-14426D01*
X13531Y-14426D02*
X18171Y-14426D01*
X18521Y-14426D02*
X18663Y-14426D01*
X18897Y-14426D02*
X19039Y-14426D01*
X19396Y-14426D02*
X19494Y-14426D01*
X20664Y-14426D02*
X20806Y-14426D01*
X21316Y-14426D02*
X21458Y-14426D01*
X21621Y-14426D02*
X22426Y-14426D01*
X23086Y-14426D02*
X23176Y-14426D01*
X25369Y-14426D02*
X26176Y-14426D01*
X27474Y-14426D02*
X27888Y-14426D01*
X29061Y-14426D02*
X29745Y-14426D01*
X10610Y-14506D02*
X12265Y-14506D01*
X13551Y-14506D02*
X18141Y-14506D01*
X18601Y-14506D02*
X18743Y-14506D01*
X18817Y-14506D02*
X18959Y-14506D01*
X19413Y-14506D02*
X19460Y-14506D01*
X20744Y-14506D02*
X20886Y-14506D01*
X21236Y-14506D02*
X21378Y-14506D01*
X21654Y-14506D02*
X22426Y-14506D01*
X23086Y-14506D02*
X23200Y-14506D01*
X25289Y-14506D02*
X26200Y-14506D01*
X27449Y-14506D02*
X27854Y-14506D01*
X29095Y-14506D02*
X29745Y-14506D01*
X10610Y-14586D02*
X12265Y-14586D01*
X13551Y-14586D02*
X18141Y-14586D01*
X18681Y-14586D02*
X18879Y-14586D01*
X19416Y-14586D02*
X19427Y-14586D01*
X20824Y-14586D02*
X20966Y-14586D01*
X21156Y-14586D02*
X21298Y-14586D01*
X21686Y-14586D02*
X22426Y-14586D01*
X23086Y-14586D02*
X23233Y-14586D01*
X25209Y-14586D02*
X26233Y-14586D01*
X27415Y-14586D02*
X27825Y-14586D01*
X29123Y-14586D02*
X29745Y-14586D01*
X10610Y-14666D02*
X11997Y-14666D01*
X13551Y-14666D02*
X18145Y-14666D01*
X18657Y-14666D02*
X18657Y-14666D01*
X18761Y-14666D02*
X18799Y-14666D01*
X20904Y-14666D02*
X21046Y-14666D01*
X21076Y-14666D02*
X21218Y-14666D01*
X21695Y-14666D02*
X22426Y-14666D01*
X23086Y-14666D02*
X23266Y-14666D01*
X25129Y-14666D02*
X25253Y-14666D01*
X29123Y-14666D02*
X29745Y-14666D01*
X10610Y-14746D02*
X11857Y-14746D01*
X13545Y-14746D02*
X18148Y-14746D01*
X18577Y-14746D02*
X18577Y-14746D01*
X20984Y-14746D02*
X21138Y-14746D01*
X21698Y-14746D02*
X22426Y-14746D01*
X23086Y-14746D02*
X23335Y-14746D01*
X25049Y-14746D02*
X25143Y-14746D01*
X29123Y-14746D02*
X29745Y-14746D01*
X10610Y-14826D02*
X11777Y-14826D01*
X13511Y-14826D02*
X18173Y-14826D01*
X18497Y-14826D02*
X18497Y-14826D01*
X20916Y-14826D02*
X21058Y-14826D01*
X21064Y-14826D02*
X21206Y-14826D01*
X21701Y-14826D02*
X22426Y-14826D01*
X23086Y-14826D02*
X23415Y-14826D01*
X24969Y-14826D02*
X25063Y-14826D01*
X29123Y-14826D02*
X29745Y-14826D01*
X10610Y-14906D02*
X11707Y-14906D01*
X13478Y-14906D02*
X18206Y-14906D01*
X18417Y-14906D02*
X18417Y-14906D01*
X20836Y-14906D02*
X20978Y-14906D01*
X21144Y-14906D02*
X21286Y-14906D01*
X21683Y-14906D02*
X22426Y-14906D01*
X23086Y-14906D02*
X23548Y-14906D01*
X24889Y-14906D02*
X24983Y-14906D01*
X29093Y-14906D02*
X29745Y-14906D01*
X10610Y-14986D02*
X11673Y-14986D01*
X13433Y-14986D02*
X18299Y-14986D01*
X20756Y-14986D02*
X20898Y-14986D01*
X21224Y-14986D02*
X21366Y-14986D01*
X21653Y-14986D02*
X22426Y-14986D01*
X23086Y-14986D02*
X23877Y-14986D01*
X24809Y-14986D02*
X24903Y-14986D01*
X29060Y-14986D02*
X29745Y-14986D01*
X10610Y-15066D02*
X11639Y-15066D01*
X13353Y-15066D02*
X18184Y-15066D01*
X20676Y-15066D02*
X20818Y-15066D01*
X21304Y-15066D02*
X21446Y-15066D01*
X21624Y-15066D02*
X22426Y-15066D01*
X23086Y-15066D02*
X23797Y-15066D01*
X24729Y-15066D02*
X24823Y-15066D01*
X29026Y-15066D02*
X29745Y-15066D01*
X10610Y-15146D02*
X11457Y-15146D01*
X13273Y-15146D02*
X18142Y-15146D01*
X20584Y-15146D02*
X20738Y-15146D01*
X21384Y-15146D02*
X22426Y-15146D01*
X23086Y-15146D02*
X23717Y-15146D01*
X24649Y-15146D02*
X24743Y-15146D01*
X28951Y-15146D02*
X29745Y-15146D01*
X10610Y-15226D02*
X11377Y-15226D01*
X13083Y-15226D02*
X18131Y-15226D01*
X20504Y-15226D02*
X20692Y-15226D01*
X21429Y-15226D02*
X22426Y-15226D01*
X23086Y-15226D02*
X23637Y-15226D01*
X24570Y-15226D02*
X24663Y-15226D01*
X28871Y-15226D02*
X29745Y-15226D01*
X10610Y-15306D02*
X11297Y-15306D01*
X12901Y-15306D02*
X16060Y-15306D01*
X16325Y-15306D02*
X18131Y-15306D01*
X20419Y-15306D02*
X20721Y-15306D01*
X21401Y-15306D02*
X22426Y-15306D01*
X23086Y-15306D02*
X23557Y-15306D01*
X24490Y-15306D02*
X24583Y-15306D01*
X25515Y-15306D02*
X28228Y-15306D01*
X28718Y-15306D02*
X29745Y-15306D01*
X10610Y-15386D02*
X11217Y-15386D01*
X12899Y-15386D02*
X15920Y-15386D01*
X19893Y-15386D02*
X19896Y-15386D01*
X20226Y-15386D02*
X20938Y-15386D01*
X21135Y-15386D02*
X22426Y-15386D01*
X23086Y-15386D02*
X23477Y-15386D01*
X24410Y-15386D02*
X24503Y-15386D01*
X25435Y-15386D02*
X29745Y-15386D01*
X10610Y-15466D02*
X11137Y-15466D01*
X12865Y-15466D02*
X15840Y-15466D01*
X19813Y-15466D02*
X22426Y-15466D01*
X23086Y-15466D02*
X23397Y-15466D01*
X24330Y-15466D02*
X24423Y-15466D01*
X25355Y-15466D02*
X28223Y-15466D01*
X28728Y-15466D02*
X29745Y-15466D01*
X10610Y-15546D02*
X11057Y-15546D01*
X12832Y-15546D02*
X15760Y-15546D01*
X19733Y-15546D02*
X22426Y-15546D01*
X23086Y-15546D02*
X23317Y-15546D01*
X24250Y-15546D02*
X24343Y-15546D01*
X25275Y-15546D02*
X28075Y-15546D01*
X28875Y-15546D02*
X29745Y-15546D01*
X10610Y-15626D02*
X10977Y-15626D01*
X12793Y-15626D02*
X15680Y-15626D01*
X19653Y-15626D02*
X22426Y-15626D01*
X23086Y-15626D02*
X23237Y-15626D01*
X24170Y-15626D02*
X24263Y-15626D01*
X25195Y-15626D02*
X27995Y-15626D01*
X28955Y-15626D02*
X29745Y-15626D01*
X10610Y-15706D02*
X10897Y-15706D01*
X12713Y-15706D02*
X15600Y-15706D01*
X19573Y-15706D02*
X22426Y-15706D01*
X23086Y-15706D02*
X23157Y-15706D01*
X24090Y-15706D02*
X24207Y-15706D01*
X25115Y-15706D02*
X27921Y-15706D01*
X29030Y-15706D02*
X29745Y-15706D01*
X10610Y-15786D02*
X10832Y-15786D01*
X12633Y-15786D02*
X15520Y-15786D01*
X19493Y-15786D02*
X22426Y-15786D01*
X24010Y-15786D02*
X24174Y-15786D01*
X25035Y-15786D02*
X27888Y-15786D01*
X29063Y-15786D02*
X29745Y-15786D01*
X10610Y-15866D02*
X10803Y-15866D01*
X12456Y-15866D02*
X15440Y-15866D01*
X19429Y-15866D02*
X22426Y-15866D01*
X23930Y-15866D02*
X24159Y-15866D01*
X24955Y-15866D02*
X27855Y-15866D01*
X29096Y-15866D02*
X29745Y-15866D01*
X10610Y-15946D02*
X10803Y-15946D01*
X12413Y-15946D02*
X15360Y-15946D01*
X19429Y-15946D02*
X22426Y-15946D01*
X23850Y-15946D02*
X24158Y-15946D01*
X24875Y-15946D02*
X27826Y-15946D01*
X29124Y-15946D02*
X29745Y-15946D01*
X10610Y-16026D02*
X10833Y-16026D01*
X16211Y-16026D02*
X18131Y-16026D01*
X19429Y-16026D02*
X22426Y-16026D01*
X23770Y-16026D02*
X24158Y-16026D01*
X24818Y-16026D02*
X27826Y-16026D01*
X29124Y-16026D02*
X29745Y-16026D01*
X10610Y-16106D02*
X10903Y-16106D01*
X16131Y-16106D02*
X18145Y-16106D01*
X19414Y-16106D02*
X22426Y-16106D01*
X24134Y-16106D02*
X24158Y-16106D01*
X24818Y-16106D02*
X26519Y-16106D01*
X27134Y-16106D02*
X27826Y-16106D01*
X29124Y-16106D02*
X29745Y-16106D01*
X10610Y-16186D02*
X10983Y-16186D01*
X16051Y-16186D02*
X18192Y-16186D01*
X19390Y-16186D02*
X22426Y-16186D01*
X24818Y-16186D02*
X26403Y-16186D01*
X27249Y-16186D02*
X27826Y-16186D01*
X29124Y-16186D02*
X29745Y-16186D01*
X10610Y-16266D02*
X11063Y-16266D01*
X15971Y-16266D02*
X18318Y-16266D01*
X19603Y-16266D02*
X21855Y-16266D01*
X22251Y-16266D02*
X22426Y-16266D01*
X24818Y-16266D02*
X26323Y-16266D01*
X27329Y-16266D02*
X27856Y-16266D01*
X29093Y-16266D02*
X29745Y-16266D01*
X10610Y-16346D02*
X11143Y-16346D01*
X15891Y-16346D02*
X18444Y-16346D01*
X19676Y-16346D02*
X21711Y-16346D01*
X22410Y-16346D02*
X22426Y-16346D01*
X24818Y-16346D02*
X26263Y-16346D01*
X27390Y-16346D02*
X27889Y-16346D01*
X29060Y-16346D02*
X29745Y-16346D01*
X10610Y-16426D02*
X11223Y-16426D01*
X15869Y-16426D02*
X18411Y-16426D01*
X19709Y-16426D02*
X21682Y-16426D01*
X24818Y-16426D02*
X26230Y-16426D01*
X27423Y-16426D02*
X27922Y-16426D01*
X29027Y-16426D02*
X29745Y-16426D01*
X10610Y-16506D02*
X11303Y-16506D01*
X15949Y-16506D02*
X18411Y-16506D01*
X19709Y-16506D02*
X21586Y-16506D01*
X21620Y-16506D02*
X21762Y-16506D01*
X22358Y-16506D02*
X22358Y-16506D01*
X24818Y-16506D02*
X26197Y-16506D01*
X27456Y-16506D02*
X27999Y-16506D01*
X28950Y-16506D02*
X29745Y-16506D01*
X10610Y-16586D02*
X11383Y-16586D01*
X11832Y-16586D02*
X11834Y-16586D01*
X16464Y-16586D02*
X18411Y-16586D01*
X19709Y-16586D02*
X21488Y-16586D01*
X21700Y-16586D02*
X21842Y-16586D01*
X22278Y-16586D02*
X22278Y-16586D01*
X22419Y-16586D02*
X22420Y-16586D01*
X24818Y-16586D02*
X26177Y-16586D01*
X27475Y-16586D02*
X28035Y-16586D01*
X28916Y-16586D02*
X29745Y-16586D01*
X10610Y-16666D02*
X11463Y-16666D01*
X11752Y-16666D02*
X12031Y-16666D01*
X16621Y-16666D02*
X17485Y-16666D01*
X19709Y-16666D02*
X21458Y-16666D01*
X21780Y-16666D02*
X21922Y-16666D01*
X22198Y-16666D02*
X22198Y-16666D01*
X22339Y-16666D02*
X22340Y-16666D01*
X24818Y-16666D02*
X26177Y-16666D01*
X27475Y-16666D02*
X27955Y-16666D01*
X28996Y-16666D02*
X29745Y-16666D01*
X10610Y-16746D02*
X14572Y-16746D01*
X16701Y-16746D02*
X17362Y-16746D01*
X19709Y-16746D02*
X21429Y-16746D01*
X21860Y-16746D02*
X22002Y-16746D01*
X22118Y-16746D02*
X22118Y-16746D01*
X22259Y-16746D02*
X22260Y-16746D01*
X24818Y-16746D02*
X26177Y-16746D01*
X27475Y-16746D02*
X27798Y-16746D01*
X29046Y-16746D02*
X29745Y-16746D01*
X10610Y-16826D02*
X14495Y-16826D01*
X16780Y-16826D02*
X17317Y-16826D01*
X19709Y-16826D02*
X21421Y-16826D01*
X21940Y-16826D02*
X22082Y-16826D01*
X22179Y-16826D02*
X22180Y-16826D01*
X24818Y-16826D02*
X26183Y-16826D01*
X27468Y-16826D02*
X27632Y-16826D01*
X29079Y-16826D02*
X29745Y-16826D01*
X10610Y-16906D02*
X14462Y-16906D01*
X16813Y-16906D02*
X17304Y-16906D01*
X19709Y-16906D02*
X21424Y-16906D01*
X21958Y-16906D02*
X22100Y-16906D01*
X22162Y-16906D02*
X22162Y-16906D01*
X24818Y-16906D02*
X26216Y-16906D01*
X27435Y-16906D02*
X27549Y-16906D01*
X29112Y-16906D02*
X29745Y-16906D01*
X10610Y-16986D02*
X14429Y-16986D01*
X16846Y-16986D02*
X17304Y-16986D01*
X19709Y-16986D02*
X21427Y-16986D01*
X21878Y-16986D02*
X22020Y-16986D01*
X22100Y-16986D02*
X22100Y-16986D01*
X22242Y-16986D02*
X22242Y-16986D01*
X24818Y-16986D02*
X26249Y-16986D01*
X27402Y-16986D02*
X27469Y-16986D01*
X29124Y-16986D02*
X29745Y-16986D01*
X10610Y-17066D02*
X11709Y-17066D01*
X12082Y-17066D02*
X14397Y-17066D01*
X16877Y-17066D02*
X17304Y-17066D01*
X19709Y-17066D02*
X21445Y-17066D01*
X21798Y-17066D02*
X21940Y-17066D01*
X22180Y-17066D02*
X22180Y-17066D01*
X22322Y-17066D02*
X22322Y-17066D01*
X24814Y-17066D02*
X26293Y-17066D01*
X27359Y-17066D02*
X27389Y-17066D01*
X29124Y-17066D02*
X29745Y-17066D01*
X10610Y-17146D02*
X11522Y-17146D01*
X12268Y-17146D02*
X14397Y-17146D01*
X16877Y-17146D02*
X17304Y-17146D01*
X19709Y-17146D02*
X21477Y-17146D01*
X21718Y-17146D02*
X21860Y-17146D01*
X22260Y-17146D02*
X22260Y-17146D01*
X24797Y-17146D02*
X26373Y-17146D01*
X27279Y-17146D02*
X27309Y-17146D01*
X29124Y-17146D02*
X29745Y-17146D01*
X10610Y-17226D02*
X11442Y-17226D01*
X12348Y-17226D02*
X14397Y-17226D01*
X16877Y-17226D02*
X17304Y-17226D01*
X19709Y-17226D02*
X21536Y-17226D01*
X21638Y-17226D02*
X21780Y-17226D01*
X24758Y-17226D02*
X26453Y-17226D01*
X27199Y-17226D02*
X27229Y-17226D01*
X29110Y-17226D02*
X29745Y-17226D01*
X10610Y-17306D02*
X11362Y-17306D01*
X12428Y-17306D02*
X14397Y-17306D01*
X16877Y-17306D02*
X17304Y-17306D01*
X19709Y-17306D02*
X21700Y-17306D01*
X24695Y-17306D02*
X26638Y-17306D01*
X27012Y-17306D02*
X27149Y-17306D01*
X29077Y-17306D02*
X29745Y-17306D01*
X10610Y-17386D02*
X11319Y-17386D01*
X12472Y-17386D02*
X14424Y-17386D01*
X16849Y-17386D02*
X17304Y-17386D01*
X19683Y-17386D02*
X21704Y-17386D01*
X29044Y-17386D02*
X29745Y-17386D01*
X10610Y-17466D02*
X11286Y-17466D01*
X12505Y-17466D02*
X14457Y-17466D01*
X15633Y-17466D02*
X15638Y-17466D01*
X16816Y-17466D02*
X17304Y-17466D01*
X19621Y-17466D02*
X21726Y-17466D01*
X27921Y-17466D02*
X27959Y-17466D01*
X28991Y-17466D02*
X29745Y-17466D01*
X10610Y-17546D02*
X11253Y-17546D01*
X12538Y-17546D02*
X14491Y-17546D01*
X15600Y-17546D02*
X15672Y-17546D01*
X16783Y-17546D02*
X17304Y-17546D01*
X19627Y-17546D02*
X21646Y-17546D01*
X27841Y-17546D02*
X28039Y-17546D01*
X28911Y-17546D02*
X29745Y-17546D01*
X10610Y-17626D02*
X11246Y-17626D01*
X12544Y-17626D02*
X14564Y-17626D01*
X15528Y-17626D02*
X15745Y-17626D01*
X16711Y-17626D02*
X17304Y-17626D01*
X19660Y-17626D02*
X21595Y-17626D01*
X27761Y-17626D02*
X28135Y-17626D01*
X28814Y-17626D02*
X29745Y-17626D01*
X10610Y-17706D02*
X11246Y-17706D01*
X12544Y-17706D02*
X14644Y-17706D01*
X15448Y-17706D02*
X15825Y-17706D01*
X16631Y-17706D02*
X17304Y-17706D01*
X19693Y-17706D02*
X21562Y-17706D01*
X27681Y-17706D02*
X28329Y-17706D01*
X28620Y-17706D02*
X29745Y-17706D01*
X10610Y-17786D02*
X11246Y-17786D01*
X12544Y-17786D02*
X14789Y-17786D01*
X15302Y-17786D02*
X15968Y-17786D01*
X16487Y-17786D02*
X17316Y-17786D01*
X19709Y-17786D02*
X21535Y-17786D01*
X27601Y-17786D02*
X28329Y-17786D01*
X28620Y-17786D02*
X29745Y-17786D01*
X10610Y-17866D02*
X11265Y-17866D01*
X12537Y-17866D02*
X17360Y-17866D01*
X19709Y-17866D02*
X21535Y-17866D01*
X27521Y-17866D02*
X28135Y-17866D01*
X28814Y-17866D02*
X29745Y-17866D01*
X10610Y-17946D02*
X11298Y-17946D01*
X12617Y-17946D02*
X17455Y-17946D01*
X19709Y-17946D02*
X21535Y-17946D01*
X27395Y-17946D02*
X28038Y-17946D01*
X28910Y-17946D02*
X29745Y-17946D01*
X10610Y-18026D02*
X11331Y-18026D01*
X12697Y-18026D02*
X17378Y-18026D01*
X17601Y-18026D02*
X17601Y-18026D01*
X17743Y-18026D02*
X17743Y-18026D01*
X18163Y-18026D02*
X18163Y-18026D01*
X18303Y-18026D02*
X18305Y-18026D01*
X19699Y-18026D02*
X21554Y-18026D01*
X24447Y-18026D02*
X27958Y-18026D01*
X28990Y-18026D02*
X29745Y-18026D01*
X10610Y-18106D02*
X11392Y-18106D01*
X12777Y-18106D02*
X17348Y-18106D01*
X17681Y-18106D02*
X17681Y-18106D01*
X17823Y-18106D02*
X17823Y-18106D01*
X18083Y-18106D02*
X18083Y-18106D01*
X18223Y-18106D02*
X18225Y-18106D01*
X19666Y-18106D02*
X21587Y-18106D01*
X24367Y-18106D02*
X27905Y-18106D01*
X29044Y-18106D02*
X29745Y-18106D01*
X10610Y-18186D02*
X11472Y-18186D01*
X12857Y-18186D02*
X17319Y-18186D01*
X17761Y-18186D02*
X17761Y-18186D01*
X17903Y-18186D02*
X17903Y-18186D01*
X18003Y-18186D02*
X18003Y-18186D01*
X18144Y-18186D02*
X18145Y-18186D01*
X19633Y-18186D02*
X21629Y-18186D01*
X24287Y-18186D02*
X27872Y-18186D01*
X29077Y-18186D02*
X29745Y-18186D01*
X10610Y-18266D02*
X11402Y-18266D01*
X12928Y-18266D02*
X17314Y-18266D01*
X17841Y-18266D02*
X17841Y-18266D01*
X17923Y-18266D02*
X17983Y-18266D01*
X18064Y-18266D02*
X18065Y-18266D01*
X19587Y-18266D02*
X21709Y-18266D01*
X24207Y-18266D02*
X27839Y-18266D01*
X29110Y-18266D02*
X29745Y-18266D01*
X10610Y-18346D02*
X11336Y-18346D01*
X12982Y-18346D02*
X17317Y-18346D01*
X17843Y-18346D02*
X17985Y-18346D01*
X18063Y-18346D02*
X18063Y-18346D01*
X19507Y-18346D02*
X21671Y-18346D01*
X24127Y-18346D02*
X27825Y-18346D01*
X29123Y-18346D02*
X29745Y-18346D01*
X10610Y-18426D02*
X11303Y-18426D01*
X12998Y-18426D02*
X17320Y-18426D01*
X17763Y-18426D02*
X17905Y-18426D01*
X18001Y-18426D02*
X18001Y-18426D01*
X18143Y-18426D02*
X18143Y-18426D01*
X19529Y-18426D02*
X21591Y-18426D01*
X24047Y-18426D02*
X26617Y-18426D01*
X27034Y-18426D02*
X27825Y-18426D01*
X29123Y-18426D02*
X29745Y-18426D01*
X10610Y-18506D02*
X11270Y-18506D01*
X13007Y-18506D02*
X17341Y-18506D01*
X17683Y-18506D02*
X17825Y-18506D01*
X18081Y-18506D02*
X18081Y-18506D01*
X18223Y-18506D02*
X18223Y-18506D01*
X19609Y-18506D02*
X21511Y-18506D01*
X24207Y-18506D02*
X26443Y-18506D01*
X27207Y-18506D02*
X27825Y-18506D01*
X29123Y-18506D02*
X29745Y-18506D01*
X10610Y-18586D02*
X11246Y-18586D01*
X13007Y-18586D02*
X17374Y-18586D01*
X17603Y-18586D02*
X17745Y-18586D01*
X18161Y-18586D02*
X18161Y-18586D01*
X18303Y-18586D02*
X18303Y-18586D01*
X19643Y-18586D02*
X21478Y-18586D01*
X24287Y-18586D02*
X26363Y-18586D01*
X27287Y-18586D02*
X27837Y-18586D01*
X29110Y-18586D02*
X29745Y-18586D01*
X10610Y-18666D02*
X11246Y-18666D01*
X13007Y-18666D02*
X17451Y-18666D01*
X17523Y-18666D02*
X17665Y-18666D01*
X18241Y-18666D02*
X18241Y-18666D01*
X18383Y-18666D02*
X18383Y-18666D01*
X19676Y-18666D02*
X21445Y-18666D01*
X24367Y-18666D02*
X26283Y-18666D01*
X27367Y-18666D02*
X27870Y-18666D01*
X29077Y-18666D02*
X29745Y-18666D01*
X10610Y-18746D02*
X11246Y-18746D01*
X13007Y-18746D02*
X17585Y-18746D01*
X18321Y-18746D02*
X18321Y-18746D01*
X18378Y-18746D02*
X18411Y-18746D01*
X19709Y-18746D02*
X21411Y-18746D01*
X24405Y-18746D02*
X26246Y-18746D01*
X27405Y-18746D02*
X27903Y-18746D01*
X29044Y-18746D02*
X29745Y-18746D01*
X10610Y-18826D02*
X11248Y-18826D01*
X13007Y-18826D02*
X17516Y-18826D01*
X19709Y-18826D02*
X21411Y-18826D01*
X24438Y-18826D02*
X26213Y-18826D01*
X27438Y-18826D02*
X27953Y-18826D01*
X28993Y-18826D02*
X29745Y-18826D01*
X10610Y-18906D02*
X11281Y-18906D01*
X13007Y-18906D02*
X17436Y-18906D01*
X19709Y-18906D02*
X21411Y-18906D01*
X24472Y-18906D02*
X26179Y-18906D01*
X27472Y-18906D02*
X28033Y-18906D01*
X28913Y-18906D02*
X29745Y-18906D01*
X10610Y-18986D02*
X11314Y-18986D01*
X13007Y-18986D02*
X17384Y-18986D01*
X19709Y-18986D02*
X21411Y-18986D01*
X24474Y-18986D02*
X26176Y-18986D01*
X27474Y-18986D02*
X28096Y-18986D01*
X28853Y-18986D02*
X29745Y-18986D01*
X10610Y-19066D02*
X11352Y-19066D01*
X13007Y-19066D02*
X17351Y-19066D01*
X19683Y-19066D02*
X21436Y-19066D01*
X24474Y-19066D02*
X26176Y-19066D01*
X27474Y-19066D02*
X28016Y-19066D01*
X28933Y-19066D02*
X29745Y-19066D01*
X10610Y-19146D02*
X11288Y-19146D01*
X13007Y-19146D02*
X17318Y-19146D01*
X19650Y-19146D02*
X21469Y-19146D01*
X24474Y-19146D02*
X26176Y-19146D01*
X27474Y-19146D02*
X27964Y-19146D01*
X28986Y-19146D02*
X29745Y-19146D01*
X10610Y-19226D02*
X11253Y-19226D01*
X13007Y-19226D02*
X17304Y-19226D01*
X19617Y-19226D02*
X21502Y-19226D01*
X24451Y-19226D02*
X26198Y-19226D01*
X27451Y-19226D02*
X27930Y-19226D01*
X29019Y-19226D02*
X29745Y-19226D01*
X10610Y-19306D02*
X11246Y-19306D01*
X13007Y-19306D02*
X17304Y-19306D01*
X19546Y-19306D02*
X21572Y-19306D01*
X24417Y-19306D02*
X26231Y-19306D01*
X27417Y-19306D02*
X27897Y-19306D01*
X29052Y-19306D02*
X29745Y-19306D01*
X10610Y-19386D02*
X11246Y-19386D01*
X13007Y-19386D02*
X17304Y-19386D01*
X19489Y-19386D02*
X21631Y-19386D01*
X24384Y-19386D02*
X26264Y-19386D01*
X27384Y-19386D02*
X27894Y-19386D01*
X29054Y-19386D02*
X29745Y-19386D01*
X10610Y-19466D02*
X11246Y-19466D01*
X13007Y-19466D02*
X17316Y-19466D01*
X19569Y-19466D02*
X21551Y-19466D01*
X29054Y-19466D02*
X29745Y-19466D01*
X10610Y-19546D02*
X11246Y-19546D01*
X13007Y-19546D02*
X14905Y-19546D01*
X15188Y-19546D02*
X16090Y-19546D01*
X16367Y-19546D02*
X17349Y-19546D01*
X19627Y-19546D02*
X21494Y-19546D01*
X29053Y-19546D02*
X29745Y-19546D01*
X10610Y-19626D02*
X11246Y-19626D01*
X13007Y-19626D02*
X14712Y-19626D01*
X15381Y-19626D02*
X15897Y-19626D01*
X16560Y-19626D02*
X17382Y-19626D01*
X19660Y-19626D02*
X21461Y-19626D01*
X29019Y-19626D02*
X29745Y-19626D01*
X10610Y-19706D02*
X11246Y-19706D01*
X13021Y-19706D02*
X14612Y-19706D01*
X15480Y-19706D02*
X15795Y-19706D01*
X16661Y-19706D02*
X17434Y-19706D01*
X19693Y-19706D02*
X21428Y-19706D01*
X28986Y-19706D02*
X29745Y-19706D01*
X10610Y-19786D02*
X11246Y-19786D01*
X13101Y-19786D02*
X14532Y-19786D01*
X15560Y-19786D02*
X15715Y-19786D01*
X16741Y-19786D02*
X17514Y-19786D01*
X19709Y-19786D02*
X21411Y-19786D01*
X28936Y-19786D02*
X29745Y-19786D01*
X10610Y-19866D02*
X11246Y-19866D01*
X15615Y-19866D02*
X15661Y-19866D01*
X19709Y-19866D02*
X21411Y-19866D01*
X28856Y-19866D02*
X29745Y-19866D01*
X10610Y-19946D02*
X11246Y-19946D01*
X19709Y-19946D02*
X21411Y-19946D01*
X28739Y-19946D02*
X29745Y-19946D01*
X10610Y-20026D02*
X11246Y-20026D01*
X19699Y-20026D02*
X21420Y-20026D01*
X28309Y-20026D02*
X29745Y-20026D01*
X10610Y-20106D02*
X11246Y-20106D01*
X19666Y-20106D02*
X21453Y-20106D01*
X24335Y-20106D02*
X29745Y-20106D01*
X10610Y-20186D02*
X11265Y-20186D01*
X19633Y-20186D02*
X21486Y-20186D01*
X24255Y-20186D02*
X28238Y-20186D01*
X28709Y-20186D02*
X29745Y-20186D01*
X10610Y-20266D02*
X11318Y-20266D01*
X19586Y-20266D02*
X21533Y-20266D01*
X24175Y-20266D02*
X28080Y-20266D01*
X28866Y-20266D02*
X29745Y-20266D01*
X10610Y-20346D02*
X11460Y-20346D01*
X19506Y-20346D02*
X21613Y-20346D01*
X24095Y-20346D02*
X28000Y-20346D01*
X28946Y-20346D02*
X29745Y-20346D01*
X10610Y-20426D02*
X11460Y-20426D01*
X19530Y-20426D02*
X21590Y-20426D01*
X24015Y-20426D02*
X27922Y-20426D01*
X29025Y-20426D02*
X29745Y-20426D01*
X10610Y-20506D02*
X11460Y-20506D01*
X15617Y-20506D02*
X15655Y-20506D01*
X19610Y-20506D02*
X21511Y-20506D01*
X23935Y-20506D02*
X27889Y-20506D01*
X29058Y-20506D02*
X29745Y-20506D01*
X10610Y-20586D02*
X11460Y-20586D01*
X15568Y-20586D02*
X15705Y-20586D01*
X16751Y-20586D02*
X18304Y-20586D01*
X19643Y-20586D02*
X21478Y-20586D01*
X23855Y-20586D02*
X27856Y-20586D01*
X29091Y-20586D02*
X29745Y-20586D01*
X10610Y-20666D02*
X11460Y-20666D01*
X15488Y-20666D02*
X15785Y-20666D01*
X16671Y-20666D02*
X18384Y-20666D01*
X19676Y-20666D02*
X21445Y-20666D01*
X23775Y-20666D02*
X27824Y-20666D01*
X29122Y-20666D02*
X29745Y-20666D01*
X10610Y-20746D02*
X11235Y-20746D01*
X15417Y-20746D02*
X15872Y-20746D01*
X16583Y-20746D02*
X18411Y-20746D01*
X19709Y-20746D02*
X21411Y-20746D01*
X23695Y-20746D02*
X27824Y-20746D01*
X29122Y-20746D02*
X29745Y-20746D01*
X10610Y-20826D02*
X11094Y-20826D01*
X15559Y-20826D02*
X15802Y-20826D01*
X16511Y-20826D02*
X18411Y-20826D01*
X19709Y-20826D02*
X21411Y-20826D01*
X24119Y-20826D02*
X26528Y-20826D01*
X27119Y-20826D02*
X27824Y-20826D01*
X29122Y-20826D02*
X29745Y-20826D01*
X10610Y-20906D02*
X11014Y-20906D01*
X15639Y-20906D02*
X15792Y-20906D01*
X16520Y-20906D02*
X18411Y-20906D01*
X19709Y-20906D02*
X21411Y-20906D01*
X24241Y-20906D02*
X26405Y-20906D01*
X27241Y-20906D02*
X27824Y-20906D01*
X29122Y-20906D02*
X29745Y-20906D01*
X10610Y-20986D02*
X10943Y-20986D01*
X15730Y-20986D02*
X15872Y-20986D01*
X16440Y-20986D02*
X16582Y-20986D01*
X16669Y-20986D02*
X18411Y-20986D01*
X19709Y-20986D02*
X21411Y-20986D01*
X24321Y-20986D02*
X26325Y-20986D01*
X27321Y-20986D02*
X27851Y-20986D01*
X29094Y-20986D02*
X29745Y-20986D01*
X10610Y-21066D02*
X10910Y-21066D01*
X15810Y-21066D02*
X15952Y-21066D01*
X16360Y-21066D02*
X16502Y-21066D01*
X16737Y-21066D02*
X18436Y-21066D01*
X19683Y-21066D02*
X21436Y-21066D01*
X24385Y-21066D02*
X26262Y-21066D01*
X27385Y-21066D02*
X27884Y-21066D01*
X29061Y-21066D02*
X29745Y-21066D01*
X10610Y-21146D02*
X10877Y-21146D01*
X15890Y-21146D02*
X16032Y-21146D01*
X16280Y-21146D02*
X16422Y-21146D01*
X16770Y-21146D02*
X18469Y-21146D01*
X19650Y-21146D02*
X21469Y-21146D01*
X24418Y-21146D02*
X26229Y-21146D01*
X27418Y-21146D02*
X27917Y-21146D01*
X29028Y-21146D02*
X29745Y-21146D01*
X10610Y-21226D02*
X10850Y-21226D01*
X15970Y-21226D02*
X16112Y-21226D01*
X16200Y-21226D02*
X16342Y-21226D01*
X16789Y-21226D02*
X18502Y-21226D01*
X19617Y-21226D02*
X21502Y-21226D01*
X24451Y-21226D02*
X26196Y-21226D01*
X27451Y-21226D02*
X27990Y-21226D01*
X28956Y-21226D02*
X29745Y-21226D01*
X10610Y-21306D02*
X10850Y-21306D01*
X16050Y-21306D02*
X16262Y-21306D01*
X16792Y-21306D02*
X18573Y-21306D01*
X19546Y-21306D02*
X21573Y-21306D01*
X24472Y-21306D02*
X26174Y-21306D01*
X27472Y-21306D02*
X28039Y-21306D01*
X28906Y-21306D02*
X29745Y-21306D01*
X10610Y-21386D02*
X10850Y-21386D01*
X16040Y-21386D02*
X16272Y-21386D01*
X16795Y-21386D02*
X18630Y-21386D01*
X19490Y-21386D02*
X21630Y-21386D01*
X24472Y-21386D02*
X26174Y-21386D01*
X27472Y-21386D02*
X27960Y-21386D01*
X28986Y-21386D02*
X29745Y-21386D01*
X10610Y-21466D02*
X10850Y-21466D01*
X15960Y-21466D02*
X16102Y-21466D01*
X16210Y-21466D02*
X16352Y-21466D01*
X16788Y-21466D02*
X18551Y-21466D01*
X19570Y-21466D02*
X21551Y-21466D01*
X24472Y-21466D02*
X26174Y-21466D01*
X27472Y-21466D02*
X27906Y-21466D01*
X29041Y-21466D02*
X29745Y-21466D01*
X10610Y-21546D02*
X10882Y-21546D01*
X15880Y-21546D02*
X16022Y-21546D01*
X16290Y-21546D02*
X16432Y-21546D01*
X16759Y-21546D02*
X18494Y-21546D01*
X19627Y-21546D02*
X21494Y-21546D01*
X24467Y-21546D02*
X26178Y-21546D01*
X27467Y-21546D02*
X27873Y-21546D01*
X29074Y-21546D02*
X29745Y-21546D01*
X10610Y-21626D02*
X10915Y-21626D01*
X15800Y-21626D02*
X15942Y-21626D01*
X16370Y-21626D02*
X16512Y-21626D01*
X16730Y-21626D02*
X18461Y-21626D01*
X19660Y-21626D02*
X21461Y-21626D01*
X24434Y-21626D02*
X26211Y-21626D01*
X27434Y-21626D02*
X27839Y-21626D01*
X29108Y-21626D02*
X29745Y-21626D01*
X10610Y-21706D02*
X10948Y-21706D01*
X15720Y-21706D02*
X15862Y-21706D01*
X16450Y-21706D02*
X16592Y-21706D01*
X16640Y-21706D02*
X18428Y-21706D01*
X19693Y-21706D02*
X21428Y-21706D01*
X24401Y-21706D02*
X26244Y-21706D01*
X27401Y-21706D02*
X27824Y-21706D01*
X29122Y-21706D02*
X29745Y-21706D01*
X10610Y-21786D02*
X11028Y-21786D01*
X15628Y-21786D02*
X15782Y-21786D01*
X16530Y-21786D02*
X18411Y-21786D01*
X19709Y-21786D02*
X21411Y-21786D01*
X24361Y-21786D02*
X26284Y-21786D01*
X27361Y-21786D02*
X27824Y-21786D01*
X29122Y-21786D02*
X29745Y-21786D01*
X10610Y-21866D02*
X11108Y-21866D01*
X15670Y-21866D02*
X15712Y-21866D01*
X16599Y-21866D02*
X18411Y-21866D01*
X19709Y-21866D02*
X21411Y-21866D01*
X29122Y-21866D02*
X29745Y-21866D01*
X10610Y-21946D02*
X11177Y-21946D01*
X11820Y-21946D02*
X11821Y-21946D01*
X16679Y-21946D02*
X18411Y-21946D01*
X19709Y-21946D02*
X21411Y-21946D01*
X29111Y-21946D02*
X29745Y-21946D01*
X10610Y-22026D02*
X10936Y-22026D01*
X11115Y-22026D02*
X11257Y-22026D01*
X11740Y-22026D02*
X11741Y-22026D01*
X16728Y-22026D02*
X18420Y-22026D01*
X19699Y-22026D02*
X21420Y-22026D01*
X29078Y-22026D02*
X29745Y-22026D01*
X10610Y-22106D02*
X10906Y-22106D01*
X11195Y-22106D02*
X11337Y-22106D01*
X11660Y-22106D02*
X11661Y-22106D01*
X16762Y-22106D02*
X18453Y-22106D01*
X19666Y-22106D02*
X21453Y-22106D01*
X29044Y-22106D02*
X29745Y-22106D01*
X10610Y-22186D02*
X10877Y-22186D01*
X11275Y-22186D02*
X11417Y-22186D01*
X11580Y-22186D02*
X11581Y-22186D01*
X12130Y-22186D02*
X12170Y-22186D01*
X16795Y-22186D02*
X18486Y-22186D01*
X19633Y-22186D02*
X21486Y-22186D01*
X28996Y-22186D02*
X29745Y-22186D01*
X10610Y-22266D02*
X10859Y-22266D01*
X11355Y-22266D02*
X11497Y-22266D01*
X11500Y-22266D02*
X11501Y-22266D01*
X12134Y-22266D02*
X12250Y-22266D01*
X16805Y-22266D02*
X18533Y-22266D01*
X19586Y-22266D02*
X21533Y-22266D01*
X28916Y-22266D02*
X29745Y-22266D01*
X10610Y-22346D02*
X10862Y-22346D01*
X11421Y-22346D02*
X11577Y-22346D01*
X12137Y-22346D02*
X12330Y-22346D01*
X16805Y-22346D02*
X18613Y-22346D01*
X19505Y-22346D02*
X21613Y-22346D01*
X28828Y-22346D02*
X29745Y-22346D01*
X10610Y-22426D02*
X10865Y-22426D01*
X11341Y-22426D02*
X11483Y-22426D01*
X11515Y-22426D02*
X11657Y-22426D01*
X12140Y-22426D02*
X12410Y-22426D01*
X16805Y-22426D02*
X18591Y-22426D01*
X19529Y-22426D02*
X21590Y-22426D01*
X28290Y-22426D02*
X28310Y-22426D01*
X28635Y-22426D02*
X29745Y-22426D01*
X10610Y-22506D02*
X10874Y-22506D01*
X11261Y-22506D02*
X11403Y-22506D01*
X11595Y-22506D02*
X11737Y-22506D01*
X12116Y-22506D02*
X12504Y-22506D01*
X16790Y-22506D02*
X18511Y-22506D01*
X19609Y-22506D02*
X21511Y-22506D01*
X23117Y-22506D02*
X28336Y-22506D01*
X28613Y-22506D02*
X29745Y-22506D01*
X10610Y-22586D02*
X10907Y-22586D01*
X11181Y-22586D02*
X11323Y-22586D01*
X11675Y-22586D02*
X11817Y-22586D01*
X12087Y-22586D02*
X12507Y-22586D01*
X16756Y-22586D02*
X18478Y-22586D01*
X20586Y-22586D02*
X21478Y-22586D01*
X23037Y-22586D02*
X28143Y-22586D01*
X28806Y-22586D02*
X29745Y-22586D01*
X10610Y-22666D02*
X10939Y-22666D01*
X11101Y-22666D02*
X11243Y-22666D01*
X11755Y-22666D02*
X11897Y-22666D01*
X12057Y-22666D02*
X12507Y-22666D01*
X16723Y-22666D02*
X18445Y-22666D01*
X20692Y-22666D02*
X21445Y-22666D01*
X22957Y-22666D02*
X28041Y-22666D01*
X28907Y-22666D02*
X29745Y-22666D01*
X10610Y-22746D02*
X11163Y-22746D01*
X11835Y-22746D02*
X12507Y-22746D01*
X16669Y-22746D02*
X18411Y-22746D01*
X20772Y-22746D02*
X21411Y-22746D01*
X22877Y-22746D02*
X27961Y-22746D01*
X28987Y-22746D02*
X29745Y-22746D01*
X10610Y-22826D02*
X11134Y-22826D01*
X11863Y-22826D02*
X12521Y-22826D01*
X16589Y-22826D02*
X17477Y-22826D01*
X20852Y-22826D02*
X21411Y-22826D01*
X22797Y-22826D02*
X27907Y-22826D01*
X29042Y-22826D02*
X29745Y-22826D01*
X10610Y-22906D02*
X11194Y-22906D01*
X11807Y-22906D02*
X12569Y-22906D01*
X16487Y-22906D02*
X17372Y-22906D01*
X20932Y-22906D02*
X21411Y-22906D01*
X22717Y-22906D02*
X27874Y-22906D01*
X29075Y-22906D02*
X29745Y-22906D01*
X10610Y-22986D02*
X12696Y-22986D01*
X15977Y-22986D02*
X16017Y-22986D01*
X16294Y-22986D02*
X17292Y-22986D01*
X21012Y-22986D02*
X21411Y-22986D01*
X22709Y-22986D02*
X27840Y-22986D01*
X29109Y-22986D02*
X29745Y-22986D01*
X10610Y-23066D02*
X12891Y-23066D01*
X15897Y-23066D02*
X17212Y-23066D01*
X21092Y-23066D02*
X21436Y-23066D01*
X22683Y-23066D02*
X27825Y-23066D01*
X29123Y-23066D02*
X29745Y-23066D01*
X10610Y-23146D02*
X12956Y-23146D01*
X15817Y-23146D02*
X17132Y-23146D01*
X21172Y-23146D02*
X21469Y-23146D01*
X22650Y-23146D02*
X23624Y-23146D01*
X24023Y-23146D02*
X26624Y-23146D01*
X27023Y-23146D02*
X27825Y-23146D01*
X29123Y-23146D02*
X29745Y-23146D01*
X10610Y-23226D02*
X13036Y-23226D01*
X15737Y-23226D02*
X17052Y-23226D01*
X19616Y-23226D02*
X20320Y-23226D01*
X21252Y-23226D02*
X21502Y-23226D01*
X22617Y-23226D02*
X23445Y-23226D01*
X24201Y-23226D02*
X26445Y-23226D01*
X27201Y-23226D02*
X27825Y-23226D01*
X29123Y-23226D02*
X29745Y-23226D01*
X10610Y-23306D02*
X13116Y-23306D01*
X15656Y-23306D02*
X16972Y-23306D01*
X19547Y-23306D02*
X20400Y-23306D01*
X21332Y-23306D02*
X21573Y-23306D01*
X22547Y-23306D02*
X23365Y-23306D01*
X24281Y-23306D02*
X26365Y-23306D01*
X27281Y-23306D02*
X27835Y-23306D01*
X29112Y-23306D02*
X29745Y-23306D01*
X10610Y-23386D02*
X13274Y-23386D01*
X15502Y-23386D02*
X16892Y-23386D01*
X19467Y-23386D02*
X20480Y-23386D01*
X21412Y-23386D02*
X21653Y-23386D01*
X22467Y-23386D02*
X23285Y-23386D01*
X24361Y-23386D02*
X26285Y-23386D01*
X27361Y-23386D02*
X27868Y-23386D01*
X29079Y-23386D02*
X29745Y-23386D01*
X10610Y-23466D02*
X16812Y-23466D01*
X17742Y-23466D02*
X18790Y-23466D01*
X19329Y-23466D02*
X20560Y-23466D01*
X21492Y-23466D02*
X21790Y-23466D01*
X22329Y-23466D02*
X23245Y-23466D01*
X24402Y-23466D02*
X26245Y-23466D01*
X27402Y-23466D02*
X27902Y-23466D01*
X29045Y-23466D02*
X29745Y-23466D01*
X10610Y-23546D02*
X16732Y-23546D01*
X17662Y-23546D02*
X20640Y-23546D01*
X21572Y-23546D02*
X23212Y-23546D01*
X24435Y-23546D02*
X26212Y-23546D01*
X27435Y-23546D02*
X27951Y-23546D01*
X28996Y-23546D02*
X29745Y-23546D01*
X10610Y-23626D02*
X16652Y-23626D01*
X17582Y-23626D02*
X20720Y-23626D01*
X21652Y-23626D02*
X23179Y-23626D01*
X24468Y-23626D02*
X26179Y-23626D01*
X27468Y-23626D02*
X28031Y-23626D01*
X28916Y-23626D02*
X29745Y-23626D01*
X10610Y-23706D02*
X16572Y-23706D01*
X17502Y-23706D02*
X20800Y-23706D01*
X22784Y-23706D02*
X23174Y-23706D01*
X24472Y-23706D02*
X26174Y-23706D01*
X27472Y-23706D02*
X28001Y-23706D01*
X28948Y-23706D02*
X29745Y-23706D01*
X10610Y-23786D02*
X16492Y-23786D01*
X17422Y-23786D02*
X20880Y-23786D01*
X22895Y-23786D02*
X23174Y-23786D01*
X24472Y-23786D02*
X26174Y-23786D01*
X27472Y-23786D02*
X27923Y-23786D01*
X29026Y-23786D02*
X29745Y-23786D01*
X10610Y-23866D02*
X16412Y-23866D01*
X17342Y-23866D02*
X20960Y-23866D01*
X22975Y-23866D02*
X23174Y-23866D01*
X24472Y-23866D02*
X26174Y-23866D01*
X27472Y-23866D02*
X27890Y-23866D01*
X29059Y-23866D02*
X29745Y-23866D01*
X10610Y-23946D02*
X16332Y-23946D01*
X17262Y-23946D02*
X21040Y-23946D01*
X23055Y-23946D02*
X23195Y-23946D01*
X24450Y-23946D02*
X26195Y-23946D01*
X27450Y-23946D02*
X27857Y-23946D01*
X29092Y-23946D02*
X29745Y-23946D01*
X10610Y-24026D02*
X13106Y-24026D01*
X17183Y-24026D02*
X21120Y-24026D01*
X23135Y-24026D02*
X23228Y-24026D01*
X24416Y-24026D02*
X26228Y-24026D01*
X27416Y-24026D02*
X27825Y-24026D01*
X29123Y-24026D02*
X29745Y-24026D01*
X10610Y-24106D02*
X12990Y-24106D01*
X17103Y-24106D02*
X21200Y-24106D01*
X29123Y-24106D02*
X29745Y-24106D01*
X10610Y-24186D02*
X12912Y-24186D01*
X17023Y-24186D02*
X18987Y-24186D01*
X19530Y-24186D02*
X21280Y-24186D01*
X29123Y-24186D02*
X29745Y-24186D01*
X10610Y-24266D02*
X12835Y-24266D01*
X16943Y-24266D02*
X18850Y-24266D01*
X19666Y-24266D02*
X21373Y-24266D01*
X29123Y-24266D02*
X29745Y-24266D01*
X10610Y-24346D02*
X12758Y-24346D01*
X16863Y-24346D02*
X18770Y-24346D01*
X19746Y-24346D02*
X21770Y-24346D01*
X29095Y-24346D02*
X29745Y-24346D01*
X10610Y-24426D02*
X12681Y-24426D01*
X16783Y-24426D02*
X18701Y-24426D01*
X19816Y-24426D02*
X21701Y-24426D01*
X29062Y-24426D02*
X29745Y-24426D01*
X10610Y-24506D02*
X12604Y-24506D01*
X16703Y-24506D02*
X18668Y-24506D01*
X20230Y-24506D02*
X21668Y-24506D01*
X29029Y-24506D02*
X29745Y-24506D01*
X10610Y-24586D02*
X11139Y-24586D01*
X11710Y-24586D02*
X12139Y-24586D01*
X16609Y-24586D02*
X18635Y-24586D01*
X20327Y-24586D02*
X21635Y-24586D01*
X28957Y-24586D02*
X29745Y-24586D01*
X10610Y-24666D02*
X11010Y-24666D01*
X11839Y-24666D02*
X12010Y-24666D01*
X13782Y-24666D02*
X18609Y-24666D01*
X20407Y-24666D02*
X21609Y-24666D01*
X28877Y-24666D02*
X29745Y-24666D01*
X10610Y-24746D02*
X10930Y-24746D01*
X11919Y-24746D02*
X11930Y-24746D01*
X13777Y-24746D02*
X18609Y-24746D01*
X20487Y-24746D02*
X21609Y-24746D01*
X22907Y-24746D02*
X28214Y-24746D01*
X28733Y-24746D02*
X29745Y-24746D01*
X10610Y-24826D02*
X10865Y-24826D01*
X13697Y-24826D02*
X13839Y-24826D01*
X13967Y-24826D02*
X18609Y-24826D01*
X20567Y-24826D02*
X21609Y-24826D01*
X22907Y-24826D02*
X29745Y-24826D01*
X10610Y-24906D02*
X10831Y-24906D01*
X13231Y-24906D02*
X13231Y-24906D01*
X13617Y-24906D02*
X13759Y-24906D01*
X14009Y-24906D02*
X18609Y-24906D01*
X20647Y-24906D02*
X21609Y-24906D01*
X22906Y-24906D02*
X28250Y-24906D01*
X28701Y-24906D02*
X29745Y-24906D01*
X10610Y-24986D02*
X10798Y-24986D01*
X13169Y-24986D02*
X13169Y-24986D01*
X13311Y-24986D02*
X13311Y-24986D01*
X13537Y-24986D02*
X13679Y-24986D01*
X14042Y-24986D02*
X18642Y-24986D01*
X20727Y-24986D02*
X21642Y-24986D01*
X22873Y-24986D02*
X28086Y-24986D01*
X28864Y-24986D02*
X29745Y-24986D01*
X10610Y-25066D02*
X10775Y-25066D01*
X13249Y-25066D02*
X13249Y-25066D01*
X13391Y-25066D02*
X13391Y-25066D01*
X13457Y-25066D02*
X13599Y-25066D01*
X14057Y-25066D02*
X18675Y-25066D01*
X20807Y-25066D02*
X21675Y-25066D01*
X22840Y-25066D02*
X23178Y-25066D01*
X25247Y-25066D02*
X28006Y-25066D01*
X28944Y-25066D02*
X29745Y-25066D01*
X10610Y-25146D02*
X10775Y-25146D01*
X13329Y-25146D02*
X13329Y-25146D01*
X13377Y-25146D02*
X13519Y-25146D01*
X14060Y-25146D02*
X18710Y-25146D01*
X19806Y-25146D02*
X19954Y-25146D01*
X20887Y-25146D02*
X21710Y-25146D01*
X22806Y-25146D02*
X22977Y-25146D01*
X25447Y-25146D02*
X27926Y-25146D01*
X29024Y-25146D02*
X29745Y-25146D01*
X10610Y-25226D02*
X10775Y-25226D01*
X13297Y-25226D02*
X13551Y-25226D01*
X14064Y-25226D02*
X18790Y-25226D01*
X19726Y-25226D02*
X20034Y-25226D01*
X20967Y-25226D02*
X21790Y-25226D01*
X22726Y-25226D02*
X22889Y-25226D01*
X25535Y-25226D02*
X27893Y-25226D01*
X29058Y-25226D02*
X29745Y-25226D01*
X10610Y-25306D02*
X10777Y-25306D01*
X13217Y-25306D02*
X13359Y-25306D01*
X13489Y-25306D02*
X13631Y-25306D01*
X14052Y-25306D02*
X18870Y-25306D01*
X19646Y-25306D02*
X20114Y-25306D01*
X21047Y-25306D02*
X21870Y-25306D01*
X22646Y-25306D02*
X22809Y-25306D01*
X25615Y-25306D02*
X27860Y-25306D01*
X29091Y-25306D02*
X29745Y-25306D01*
X10610Y-25386D02*
X10811Y-25386D01*
X13137Y-25386D02*
X13279Y-25386D01*
X13569Y-25386D02*
X13711Y-25386D01*
X14023Y-25386D02*
X19034Y-25386D01*
X19481Y-25386D02*
X20194Y-25386D01*
X21127Y-25386D02*
X22034Y-25386D01*
X22480Y-25386D02*
X22729Y-25386D01*
X25695Y-25386D02*
X27826Y-25386D01*
X29124Y-25386D02*
X29745Y-25386D01*
X10610Y-25466D02*
X10844Y-25466D01*
X13057Y-25466D02*
X13199Y-25466D01*
X13649Y-25466D02*
X13791Y-25466D01*
X13994Y-25466D02*
X20274Y-25466D01*
X25775Y-25466D02*
X27826Y-25466D01*
X29124Y-25466D02*
X29745Y-25466D01*
X10610Y-25546D02*
X10882Y-25546D01*
X12965Y-25546D02*
X12969Y-25546D01*
X12977Y-25546D02*
X13119Y-25546D01*
X13729Y-25546D02*
X13871Y-25546D01*
X13878Y-25546D02*
X20354Y-25546D01*
X25855Y-25546D02*
X26540Y-25546D01*
X27111Y-25546D02*
X27826Y-25546D01*
X29124Y-25546D02*
X29745Y-25546D01*
X10610Y-25626D02*
X10816Y-25626D01*
X12885Y-25626D02*
X13047Y-25626D01*
X13799Y-25626D02*
X20434Y-25626D01*
X25935Y-25626D02*
X26411Y-25626D01*
X27239Y-25626D02*
X27826Y-25626D01*
X29124Y-25626D02*
X29745Y-25626D01*
X10610Y-25706D02*
X10781Y-25706D01*
X12879Y-25706D02*
X12969Y-25706D01*
X13878Y-25706D02*
X20514Y-25706D01*
X26015Y-25706D02*
X26331Y-25706D01*
X27319Y-25706D02*
X27851Y-25706D01*
X29098Y-25706D02*
X29745Y-25706D01*
X10610Y-25786D02*
X10775Y-25786D01*
X13958Y-25786D02*
X20594Y-25786D01*
X23261Y-25786D02*
X23264Y-25786D01*
X24385Y-25786D02*
X25161Y-25786D01*
X26095Y-25786D02*
X26265Y-25786D01*
X27385Y-25786D02*
X27884Y-25786D01*
X29065Y-25786D02*
X29745Y-25786D01*
X10610Y-25866D02*
X10775Y-25866D01*
X14001Y-25866D02*
X20674Y-25866D01*
X23181Y-25866D02*
X23232Y-25866D01*
X24419Y-25866D02*
X25241Y-25866D01*
X26175Y-25866D02*
X26232Y-25866D01*
X27419Y-25866D02*
X27917Y-25866D01*
X29032Y-25866D02*
X29745Y-25866D01*
X10610Y-25946D02*
X10775Y-25946D01*
X14034Y-25946D02*
X20754Y-25946D01*
X23101Y-25946D02*
X23199Y-25946D01*
X24452Y-25946D02*
X25321Y-25946D01*
X27452Y-25946D02*
X27988Y-25946D01*
X28962Y-25946D02*
X29745Y-25946D01*
X10610Y-26026D02*
X10775Y-26026D01*
X14067Y-26026D02*
X20857Y-26026D01*
X23000Y-26026D02*
X23176Y-26026D01*
X24474Y-26026D02*
X25401Y-26026D01*
X27474Y-26026D02*
X28045Y-26026D01*
X28904Y-26026D02*
X29745Y-26026D01*
X10610Y-26106D02*
X10775Y-26106D01*
X14073Y-26106D02*
X23176Y-26106D01*
X24474Y-26106D02*
X25481Y-26106D01*
X27474Y-26106D02*
X27966Y-26106D01*
X28984Y-26106D02*
X29745Y-26106D01*
X10610Y-26186D02*
X10775Y-26186D01*
X14073Y-26186D02*
X15371Y-26186D01*
X16386Y-26186D02*
X16713Y-26186D01*
X17025Y-26186D02*
X18987Y-26186D01*
X19530Y-26186D02*
X22007Y-26186D01*
X22500Y-26186D02*
X23176Y-26186D01*
X24474Y-26186D02*
X25561Y-26186D01*
X27474Y-26186D02*
X27909Y-26186D01*
X29042Y-26186D02*
X29745Y-26186D01*
X10610Y-26266D02*
X10775Y-26266D01*
X14073Y-26266D02*
X15271Y-26266D01*
X16485Y-26266D02*
X16535Y-26266D01*
X17222Y-26266D02*
X18850Y-26266D01*
X19666Y-26266D02*
X21903Y-26266D01*
X22614Y-26266D02*
X23178Y-26266D01*
X24471Y-26266D02*
X25641Y-26266D01*
X27471Y-26266D02*
X27876Y-26266D01*
X29075Y-26266D02*
X29745Y-26266D01*
X10610Y-26346D02*
X10775Y-26346D01*
X14053Y-26346D02*
X15236Y-26346D01*
X17251Y-26346D02*
X18770Y-26346D01*
X19746Y-26346D02*
X21899Y-26346D01*
X22617Y-26346D02*
X23212Y-26346D01*
X24437Y-26346D02*
X25721Y-26346D01*
X27437Y-26346D02*
X27843Y-26346D01*
X29108Y-26346D02*
X29745Y-26346D01*
X10610Y-26426D02*
X10775Y-26426D01*
X14020Y-26426D02*
X15229Y-26426D01*
X17191Y-26426D02*
X18701Y-26426D01*
X19816Y-26426D02*
X21732Y-26426D01*
X21837Y-26426D02*
X21979Y-26426D01*
X22537Y-26426D02*
X22679Y-26426D01*
X22785Y-26426D02*
X23245Y-26426D01*
X24404Y-26426D02*
X25801Y-26426D01*
X27404Y-26426D02*
X27826Y-26426D01*
X29124Y-26426D02*
X29745Y-26426D01*
X10610Y-26506D02*
X10775Y-26506D01*
X13987Y-26506D02*
X15229Y-26506D01*
X17111Y-26506D02*
X17254Y-26506D01*
X17447Y-26506D02*
X18668Y-26506D01*
X19849Y-26506D02*
X21679Y-26506D01*
X21917Y-26506D02*
X22059Y-26506D01*
X22457Y-26506D02*
X22599Y-26506D01*
X22841Y-26506D02*
X23283Y-26506D01*
X24367Y-26506D02*
X25881Y-26506D01*
X27367Y-26506D02*
X27826Y-26506D01*
X29124Y-26506D02*
X29745Y-26506D01*
X10610Y-26586D02*
X10775Y-26586D01*
X13926Y-26586D02*
X15229Y-26586D01*
X17031Y-26586D02*
X17174Y-26586D01*
X17479Y-26586D02*
X18635Y-26586D01*
X19882Y-26586D02*
X21649Y-26586D01*
X21997Y-26586D02*
X22139Y-26586D01*
X22377Y-26586D02*
X22519Y-26586D01*
X22874Y-26586D02*
X23363Y-26586D01*
X24287Y-26586D02*
X25961Y-26586D01*
X27287Y-26586D02*
X27826Y-26586D01*
X29124Y-26586D02*
X29745Y-26586D01*
X10610Y-26666D02*
X10794Y-26666D01*
X12845Y-26666D02*
X13002Y-26666D01*
X13846Y-26666D02*
X15229Y-26666D01*
X16951Y-26666D02*
X17094Y-26666D01*
X17510Y-26666D02*
X18609Y-26666D01*
X19907Y-26666D02*
X21620Y-26666D01*
X22077Y-26666D02*
X22219Y-26666D01*
X22297Y-26666D02*
X22439Y-26666D01*
X22891Y-26666D02*
X23443Y-26666D01*
X24207Y-26666D02*
X26041Y-26666D01*
X29114Y-26666D02*
X29745Y-26666D01*
X10610Y-26746D02*
X10848Y-26746D01*
X12000Y-26746D02*
X12118Y-26746D01*
X12729Y-26746D02*
X13118Y-26746D01*
X13729Y-26746D02*
X15229Y-26746D01*
X16871Y-26746D02*
X17014Y-26746D01*
X17513Y-26746D02*
X18609Y-26746D01*
X19907Y-26746D02*
X21619Y-26746D01*
X22157Y-26746D02*
X22359Y-26746D01*
X22894Y-26746D02*
X23616Y-26746D01*
X24033Y-26746D02*
X26121Y-26746D01*
X29081Y-26746D02*
X29745Y-26746D01*
X10610Y-26826D02*
X15229Y-26826D01*
X16822Y-26826D02*
X16964Y-26826D01*
X17516Y-26826D02*
X18609Y-26826D01*
X19907Y-26826D02*
X21623Y-26826D01*
X22137Y-26826D02*
X22379Y-26826D01*
X22897Y-26826D02*
X26201Y-26826D01*
X29048Y-26826D02*
X29745Y-26826D01*
X10610Y-26906D02*
X15229Y-26906D01*
X16902Y-26906D02*
X17044Y-26906D01*
X17519Y-26906D02*
X18609Y-26906D01*
X19906Y-26906D02*
X21626Y-26906D01*
X22057Y-26906D02*
X22199Y-26906D01*
X22317Y-26906D02*
X22459Y-26906D01*
X22889Y-26906D02*
X26281Y-26906D01*
X29002Y-26906D02*
X29745Y-26906D01*
X10610Y-26986D02*
X15229Y-26986D01*
X16982Y-26986D02*
X17124Y-26986D01*
X17492Y-26986D02*
X18642Y-26986D01*
X19873Y-26986D02*
X21651Y-26986D01*
X21977Y-26986D02*
X22119Y-26986D01*
X22397Y-26986D02*
X22539Y-26986D01*
X22859Y-26986D02*
X26361Y-26986D01*
X28922Y-26986D02*
X29745Y-26986D01*
X10610Y-27066D02*
X15229Y-27066D01*
X17062Y-27066D02*
X17204Y-27066D01*
X17463Y-27066D02*
X18675Y-27066D01*
X19840Y-27066D02*
X21683Y-27066D01*
X21897Y-27066D02*
X22039Y-27066D01*
X22477Y-27066D02*
X22619Y-27066D01*
X22830Y-27066D02*
X26441Y-27066D01*
X28840Y-27066D02*
X29745Y-27066D01*
X10610Y-27146D02*
X15229Y-27146D01*
X17142Y-27146D02*
X17284Y-27146D01*
X17433Y-27146D02*
X18710Y-27146D01*
X19806Y-27146D02*
X21786Y-27146D01*
X21817Y-27146D02*
X21959Y-27146D01*
X22557Y-27146D02*
X22699Y-27146D01*
X22729Y-27146D02*
X26521Y-27146D01*
X28647Y-27146D02*
X29745Y-27146D01*
X10610Y-27226D02*
X15229Y-27226D01*
X17222Y-27226D02*
X18790Y-27226D01*
X19726Y-27226D02*
X21880Y-27226D01*
X22635Y-27226D02*
X26633Y-27226D01*
X28199Y-27226D02*
X29745Y-27226D01*
X10610Y-27306D02*
X15248Y-27306D01*
X16507Y-27306D02*
X16516Y-27306D01*
X17239Y-27306D02*
X18870Y-27306D01*
X19646Y-27306D02*
X21909Y-27306D01*
X22606Y-27306D02*
X29745Y-27306D01*
X10610Y-27386D02*
X15301Y-27386D01*
X16455Y-27386D02*
X16595Y-27386D01*
X17166Y-27386D02*
X19034Y-27386D01*
X19481Y-27386D02*
X22070Y-27386D01*
X22460Y-27386D02*
X29745Y-27386D01*
X10610Y-27466D02*
X29745Y-27466D01*
X29745Y-27481D02*
X29745Y-08346D01*
X28639Y-08346D01*
X28842Y-08430D01*
X29024Y-08612D01*
X29123Y-08851D01*
X29123Y-09109D01*
X29024Y-09348D01*
X28892Y-09480D01*
X29024Y-09612D01*
X29123Y-09851D01*
X29123Y-10109D01*
X29024Y-10348D01*
X28842Y-10530D01*
X28603Y-10629D01*
X28345Y-10629D01*
X28306Y-10613D01*
X28215Y-10705D01*
X28109Y-10777D01*
X27982Y-10802D01*
X26672Y-10802D01*
X24446Y-13028D01*
X24340Y-13100D01*
X24213Y-13125D01*
X23286Y-13125D01*
X23086Y-13325D01*
X23086Y-15777D01*
X23896Y-14967D01*
X23696Y-14967D01*
X23457Y-14868D01*
X23275Y-14686D01*
X23176Y-14447D01*
X23176Y-14189D01*
X23275Y-13950D01*
X23457Y-13768D01*
X23696Y-13669D01*
X23954Y-13669D01*
X24193Y-13768D01*
X24375Y-13950D01*
X24474Y-14189D01*
X24474Y-14389D01*
X25993Y-12869D01*
X25994Y-12866D01*
X26066Y-12760D01*
X26264Y-12562D01*
X26370Y-12490D01*
X26429Y-12478D01*
X26274Y-12323D01*
X26175Y-12084D01*
X26175Y-11826D01*
X26274Y-11587D01*
X26456Y-11405D01*
X26695Y-11306D01*
X26953Y-11306D01*
X27192Y-11405D01*
X27374Y-11587D01*
X27473Y-11826D01*
X27473Y-12084D01*
X27374Y-12323D01*
X27232Y-12464D01*
X27823Y-12465D01*
X27823Y-12212D01*
X27922Y-11973D01*
X28053Y-11841D01*
X27922Y-11709D01*
X27823Y-11470D01*
X27823Y-11212D01*
X27922Y-10973D01*
X28104Y-10791D01*
X28343Y-10692D01*
X28601Y-10692D01*
X28840Y-10791D01*
X29022Y-10973D01*
X29121Y-11212D01*
X29121Y-11470D01*
X29022Y-11709D01*
X28890Y-11840D01*
X29022Y-11973D01*
X29121Y-12212D01*
X29121Y-12470D01*
X29022Y-12709D01*
X28840Y-12891D01*
X28601Y-12990D01*
X28343Y-12990D01*
X28304Y-12974D01*
X28251Y-13028D01*
X28145Y-13100D01*
X28018Y-13125D01*
X26633Y-13125D01*
X26604Y-13153D01*
X26604Y-13157D01*
X26579Y-13193D01*
X26532Y-13265D01*
X24603Y-15192D01*
X24602Y-15195D01*
X23764Y-16032D01*
X23955Y-16032D01*
X24158Y-16116D01*
X24158Y-15867D01*
X24183Y-15740D01*
X24255Y-15634D01*
X25160Y-14728D01*
X25267Y-14656D01*
X25288Y-14652D01*
X25394Y-14631D01*
X26252Y-14630D01*
X26176Y-14447D01*
X26176Y-14189D01*
X26275Y-13950D01*
X26457Y-13768D01*
X26696Y-13669D01*
X26954Y-13669D01*
X27193Y-13768D01*
X27375Y-13950D01*
X27474Y-14189D01*
X27474Y-14447D01*
X27397Y-14630D01*
X27825Y-14631D01*
X27825Y-14576D01*
X27924Y-14337D01*
X28055Y-14205D01*
X27924Y-14073D01*
X27825Y-13834D01*
X27825Y-13576D01*
X27924Y-13337D01*
X28106Y-13155D01*
X28345Y-13056D01*
X28603Y-13056D01*
X28842Y-13155D01*
X29024Y-13337D01*
X29123Y-13576D01*
X29123Y-13834D01*
X29024Y-14073D01*
X28891Y-14205D01*
X29024Y-14337D01*
X29123Y-14576D01*
X29123Y-14834D01*
X29024Y-15073D01*
X28842Y-15255D01*
X28603Y-15354D01*
X28345Y-15354D01*
X28192Y-15291D01*
X25530Y-15291D01*
X24818Y-16003D01*
X24818Y-17047D01*
X24796Y-17152D01*
X24793Y-17174D01*
X24721Y-17281D01*
X24693Y-17308D01*
X26643Y-17308D01*
X26458Y-17231D01*
X26276Y-17049D01*
X26177Y-16810D01*
X26177Y-16552D01*
X26276Y-16313D01*
X26458Y-16131D01*
X26697Y-16032D01*
X26955Y-16032D01*
X27194Y-16131D01*
X27376Y-16313D01*
X27475Y-16552D01*
X27475Y-16810D01*
X27376Y-17049D01*
X27194Y-17231D01*
X27008Y-17308D01*
X27147Y-17308D01*
X27624Y-16831D01*
X27732Y-16759D01*
X27858Y-16734D01*
X27909Y-16734D01*
X27925Y-16696D01*
X28057Y-16564D01*
X27925Y-16432D01*
X27826Y-16193D01*
X27826Y-15935D01*
X27925Y-15696D01*
X28107Y-15514D01*
X28346Y-15415D01*
X28604Y-15415D01*
X28843Y-15514D01*
X29025Y-15696D01*
X29124Y-15935D01*
X29124Y-16193D01*
X29025Y-16432D01*
X28893Y-16563D01*
X29025Y-16696D01*
X29124Y-16935D01*
X29124Y-17193D01*
X29025Y-17432D01*
X28843Y-17614D01*
X28604Y-17713D01*
X28346Y-17713D01*
X28107Y-17614D01*
X27940Y-17447D01*
X27517Y-17871D01*
X27411Y-17943D01*
X27284Y-17968D01*
X24505Y-17968D01*
X24043Y-18430D01*
X24193Y-18492D01*
X24375Y-18674D01*
X24474Y-18913D01*
X24474Y-19171D01*
X24381Y-19394D01*
X26268Y-19394D01*
X26176Y-19171D01*
X26176Y-18913D01*
X26275Y-18674D01*
X26457Y-18492D01*
X26696Y-18393D01*
X26954Y-18393D01*
X27193Y-18492D01*
X27375Y-18674D01*
X27474Y-18913D01*
X27474Y-19171D01*
X27381Y-19394D01*
X27894Y-19394D01*
X27894Y-19312D01*
X27983Y-19099D01*
X28104Y-18977D01*
X27924Y-18796D01*
X27825Y-18557D01*
X27825Y-18299D01*
X27924Y-18060D01*
X28106Y-17878D01*
X28345Y-17779D01*
X28603Y-17779D01*
X28842Y-17878D01*
X29024Y-18060D01*
X29123Y-18299D01*
X29123Y-18557D01*
X29024Y-18796D01*
X28843Y-18976D01*
X28966Y-19100D01*
X29054Y-19313D01*
X29054Y-19544D01*
X28965Y-19757D01*
X28802Y-19920D01*
X28589Y-20008D01*
X28358Y-20008D01*
X28344Y-20002D01*
X28305Y-20029D01*
X28178Y-20054D01*
X24388Y-20054D01*
X23679Y-20762D01*
X23694Y-20757D01*
X23952Y-20757D01*
X24191Y-20856D01*
X24373Y-21038D01*
X24472Y-21277D01*
X24472Y-21535D01*
X24373Y-21774D01*
X24312Y-21835D01*
X26333Y-21835D01*
X26273Y-21774D01*
X26174Y-21535D01*
X26174Y-21277D01*
X26273Y-21038D01*
X26455Y-20856D01*
X26694Y-20757D01*
X26952Y-20757D01*
X27191Y-20856D01*
X27373Y-21038D01*
X27472Y-21277D01*
X27472Y-21535D01*
X27373Y-21774D01*
X27312Y-21835D01*
X27824Y-21835D01*
X27824Y-21662D01*
X27923Y-21423D01*
X28054Y-21290D01*
X27923Y-21159D01*
X27824Y-20920D01*
X27824Y-20662D01*
X27923Y-20423D01*
X28105Y-20241D01*
X28344Y-20142D01*
X28602Y-20142D01*
X28841Y-20241D01*
X29023Y-20423D01*
X29122Y-20662D01*
X29122Y-20920D01*
X29023Y-21159D01*
X28891Y-21291D01*
X29023Y-21423D01*
X29122Y-21662D01*
X29122Y-21920D01*
X29023Y-22159D01*
X28841Y-22341D01*
X28602Y-22440D01*
X28344Y-22440D01*
X28298Y-22421D01*
X28226Y-22470D01*
X28099Y-22495D01*
X23128Y-22495D01*
X22709Y-22915D01*
X22709Y-23004D01*
X22610Y-23243D01*
X22428Y-23425D01*
X22189Y-23524D01*
X21931Y-23524D01*
X21692Y-23425D01*
X21510Y-23243D01*
X21411Y-23004D01*
X21411Y-22746D01*
X21510Y-22507D01*
X21641Y-22374D01*
X21510Y-22243D01*
X21411Y-22004D01*
X21411Y-21746D01*
X21510Y-21507D01*
X21641Y-21374D01*
X21510Y-21243D01*
X21411Y-21004D01*
X21411Y-20746D01*
X21510Y-20507D01*
X21641Y-20374D01*
X21510Y-20243D01*
X21411Y-20004D01*
X21411Y-19746D01*
X21510Y-19507D01*
X21641Y-19375D01*
X21510Y-19243D01*
X21411Y-19004D01*
X21411Y-18746D01*
X21510Y-18507D01*
X21692Y-18325D01*
X21745Y-18302D01*
X21615Y-18172D01*
X21535Y-17979D01*
X21535Y-17770D01*
X21611Y-17586D01*
X21611Y-17253D01*
X21506Y-17215D01*
X21429Y-17026D01*
X21419Y-16772D01*
X21506Y-16535D01*
X21510Y-16533D01*
X21510Y-15130D01*
X21132Y-14752D01*
X21510Y-14374D01*
X21615Y-14412D01*
X21692Y-14601D01*
X21702Y-14855D01*
X21615Y-15092D01*
X21510Y-15130D01*
X21510Y-16533D01*
X21611Y-16497D01*
X21989Y-16875D01*
X21611Y-17253D01*
X21611Y-17586D01*
X21615Y-17577D01*
X21752Y-17440D01*
X21720Y-17429D01*
X21682Y-17324D01*
X22060Y-16946D01*
X22304Y-17190D01*
X22304Y-17189D01*
X22060Y-16946D01*
X22131Y-16875D01*
X22374Y-17119D01*
X22375Y-17119D01*
X22131Y-16875D01*
X22426Y-16580D01*
X22426Y-16579D01*
X22131Y-16875D01*
X22060Y-16804D01*
X22426Y-16438D01*
X22426Y-16438D01*
X22060Y-16804D01*
X21682Y-16426D01*
X21720Y-16321D01*
X21909Y-16244D01*
X22163Y-16234D01*
X22400Y-16321D01*
X22426Y-16392D01*
X22426Y-13189D01*
X22451Y-13062D01*
X22523Y-12956D01*
X22917Y-12562D01*
X23023Y-12490D01*
X23044Y-12486D01*
X23150Y-12465D01*
X23416Y-12464D01*
X23274Y-12323D01*
X23175Y-12084D01*
X23175Y-11826D01*
X23274Y-11587D01*
X23456Y-11405D01*
X23695Y-11306D01*
X23695Y-10243D01*
X23456Y-10144D01*
X23274Y-09962D01*
X23175Y-09723D01*
X23175Y-09465D01*
X23274Y-09226D01*
X23456Y-09044D01*
X23695Y-08945D01*
X23953Y-08945D01*
X24192Y-09044D01*
X24374Y-09226D01*
X24473Y-09465D01*
X24473Y-09723D01*
X24374Y-09962D01*
X24192Y-10144D01*
X23953Y-10243D01*
X23695Y-10243D01*
X23695Y-11306D01*
X23953Y-11306D01*
X24192Y-11405D01*
X24374Y-11587D01*
X24473Y-11826D01*
X24473Y-12069D01*
X26302Y-10239D01*
X26409Y-10167D01*
X26430Y-10163D01*
X26478Y-10153D01*
X26456Y-10144D01*
X26274Y-09962D01*
X26175Y-09723D01*
X26175Y-09465D01*
X26274Y-09226D01*
X26456Y-09044D01*
X26695Y-08945D01*
X26953Y-08945D01*
X27192Y-09044D01*
X27374Y-09226D01*
X27473Y-09465D01*
X27473Y-09723D01*
X27374Y-09962D01*
X27194Y-10142D01*
X27838Y-10142D01*
X27825Y-10109D01*
X27825Y-09851D01*
X27924Y-09612D01*
X28055Y-09480D01*
X27924Y-09348D01*
X27825Y-09109D01*
X27825Y-08851D01*
X27924Y-08612D01*
X28106Y-08430D01*
X28308Y-08346D01*
X20426Y-08346D01*
X20684Y-08604D01*
X20807Y-08604D01*
X20898Y-08642D01*
X20957Y-08701D01*
X21016Y-08642D01*
X21108Y-08604D01*
X21807Y-08604D01*
X21898Y-08642D01*
X21968Y-08712D01*
X22006Y-08804D01*
X22006Y-09574D01*
X22007Y-09575D01*
X22106Y-09814D01*
X22106Y-10072D01*
X22007Y-10311D01*
X21825Y-10493D01*
X21586Y-10592D01*
X21545Y-10592D01*
X21545Y-11009D01*
X21580Y-11024D01*
X21760Y-11205D01*
X21858Y-11441D01*
X21858Y-11697D01*
X21759Y-11933D01*
X21578Y-12113D01*
X21342Y-12211D01*
X21208Y-12211D01*
X21208Y-12347D01*
X21109Y-12583D01*
X20928Y-12763D01*
X20720Y-12849D01*
X20720Y-12917D01*
X20682Y-13009D01*
X20449Y-13243D01*
X20361Y-13243D01*
X19986Y-12868D01*
X19915Y-12797D01*
X20075Y-12636D01*
X20075Y-12636D01*
X19915Y-12797D01*
X19540Y-12422D01*
X19540Y-12334D01*
X19774Y-12101D01*
X19866Y-12063D01*
X19932Y-12063D01*
X20021Y-11853D01*
X20202Y-11673D01*
X20438Y-11575D01*
X20572Y-11575D01*
X20572Y-11439D01*
X20671Y-11203D01*
X20852Y-11023D01*
X20885Y-11009D01*
X20885Y-10433D01*
X20825Y-10493D01*
X20586Y-10592D01*
X20328Y-10592D01*
X20089Y-10493D01*
X19907Y-10311D01*
X19808Y-10072D01*
X19808Y-09814D01*
X19907Y-09575D01*
X19908Y-09574D01*
X19908Y-08834D01*
X19248Y-08834D01*
X19248Y-09575D01*
X19249Y-09576D01*
X19348Y-09815D01*
X19348Y-10073D01*
X19249Y-10312D01*
X19067Y-10494D01*
X18828Y-10593D01*
X18788Y-10593D01*
X18788Y-11010D01*
X18823Y-11025D01*
X19003Y-11206D01*
X19101Y-11442D01*
X19101Y-11698D01*
X19002Y-11934D01*
X18821Y-12114D01*
X18585Y-12212D01*
X18451Y-12212D01*
X18451Y-12348D01*
X18352Y-12584D01*
X18171Y-12764D01*
X17963Y-12850D01*
X17963Y-12918D01*
X17925Y-13010D01*
X17692Y-13244D01*
X17604Y-13244D01*
X17229Y-12869D01*
X17158Y-12798D01*
X17318Y-12637D01*
X17318Y-12637D01*
X17158Y-12798D01*
X16783Y-12423D01*
X16783Y-12335D01*
X17017Y-12102D01*
X17109Y-12064D01*
X17175Y-12064D01*
X17264Y-11854D01*
X17445Y-11674D01*
X17681Y-11576D01*
X17815Y-11576D01*
X17815Y-11440D01*
X17914Y-11204D01*
X18095Y-11024D01*
X18128Y-11010D01*
X18128Y-10433D01*
X18067Y-10494D01*
X17828Y-10593D01*
X17570Y-10593D01*
X17331Y-10494D01*
X17149Y-10312D01*
X17050Y-10073D01*
X17050Y-09815D01*
X17149Y-09576D01*
X17150Y-09575D01*
X17150Y-08834D01*
X16494Y-08834D01*
X16494Y-09575D01*
X16495Y-09576D01*
X16594Y-09815D01*
X16594Y-10073D01*
X16495Y-10312D01*
X16313Y-10494D01*
X16074Y-10593D01*
X16035Y-10593D01*
X16035Y-11009D01*
X16070Y-11024D01*
X16250Y-11205D01*
X16348Y-11441D01*
X16348Y-11697D01*
X16249Y-11933D01*
X16068Y-12113D01*
X15832Y-12211D01*
X15698Y-12211D01*
X15698Y-12347D01*
X15599Y-12583D01*
X15418Y-12763D01*
X15210Y-12849D01*
X15210Y-12917D01*
X15172Y-13009D01*
X14939Y-13243D01*
X14851Y-13243D01*
X14476Y-12868D01*
X14405Y-12797D01*
X14565Y-12636D01*
X14565Y-12636D01*
X14405Y-12797D01*
X14030Y-12422D01*
X14030Y-12334D01*
X14264Y-12101D01*
X14356Y-12063D01*
X14422Y-12063D01*
X14511Y-11853D01*
X14692Y-11673D01*
X14928Y-11575D01*
X15062Y-11575D01*
X15062Y-11439D01*
X15161Y-11203D01*
X15342Y-11023D01*
X15375Y-11009D01*
X15375Y-10432D01*
X15313Y-10494D01*
X15074Y-10593D01*
X14816Y-10593D01*
X14577Y-10494D01*
X14395Y-10312D01*
X14296Y-10073D01*
X14296Y-09815D01*
X14395Y-09576D01*
X14396Y-09575D01*
X14396Y-08834D01*
X13738Y-08834D01*
X13738Y-09576D01*
X13739Y-09577D01*
X13838Y-09816D01*
X13838Y-10074D01*
X13739Y-10313D01*
X13557Y-10495D01*
X13318Y-10594D01*
X13277Y-10594D01*
X13277Y-11011D01*
X13312Y-11026D01*
X13492Y-11207D01*
X13590Y-11443D01*
X13590Y-11699D01*
X13491Y-11935D01*
X13310Y-12115D01*
X13074Y-12213D01*
X12940Y-12213D01*
X12940Y-12349D01*
X12868Y-12520D01*
X13141Y-12793D01*
X13213Y-12899D01*
X13216Y-12920D01*
X13238Y-13026D01*
X13238Y-14044D01*
X13273Y-14059D01*
X13453Y-14240D01*
X13551Y-14476D01*
X13551Y-14732D01*
X13452Y-14968D01*
X13271Y-15148D01*
X13035Y-15246D01*
X12901Y-15246D01*
X12901Y-15382D01*
X12802Y-15618D01*
X12621Y-15798D01*
X12413Y-15884D01*
X12413Y-15952D01*
X12389Y-16009D01*
X13871Y-16009D01*
X13871Y-13243D01*
X13708Y-13079D01*
X13638Y-13009D01*
X13600Y-12917D01*
X13600Y-12819D01*
X13638Y-12727D01*
X13871Y-12493D01*
X13959Y-12493D01*
X14334Y-12868D01*
X13959Y-13243D01*
X13871Y-13243D01*
X13871Y-16009D01*
X14356Y-16009D01*
X14356Y-13673D01*
X14264Y-13635D01*
X14194Y-13565D01*
X14030Y-13402D01*
X14030Y-13314D01*
X14405Y-12939D01*
X14780Y-13314D01*
X14780Y-13402D01*
X14546Y-13635D01*
X14454Y-13673D01*
X14356Y-13673D01*
X14356Y-16009D01*
X15297Y-16009D01*
X15922Y-15384D01*
X16028Y-15312D01*
X16049Y-15308D01*
X16155Y-15287D01*
X16228Y-15287D01*
X16355Y-15312D01*
X16359Y-15315D01*
X16624Y-15315D01*
X16624Y-13244D01*
X16461Y-13080D01*
X16391Y-13010D01*
X16353Y-12918D01*
X16353Y-12820D01*
X16391Y-12728D01*
X16624Y-12494D01*
X16712Y-12494D01*
X17087Y-12869D01*
X16712Y-13244D01*
X16624Y-13244D01*
X16624Y-15315D01*
X17109Y-15315D01*
X17109Y-13674D01*
X17017Y-13636D01*
X16947Y-13566D01*
X16783Y-13403D01*
X16783Y-13315D01*
X17158Y-12940D01*
X17533Y-13315D01*
X17533Y-13403D01*
X17299Y-13636D01*
X17207Y-13674D01*
X17109Y-13674D01*
X17109Y-15315D01*
X18131Y-15315D01*
X18131Y-15172D01*
X18169Y-15081D01*
X18239Y-15011D01*
X18306Y-14983D01*
X18226Y-14954D01*
X18149Y-14765D01*
X18139Y-14511D01*
X18226Y-14274D01*
X18331Y-14236D01*
X18709Y-14614D01*
X18350Y-14973D01*
X18350Y-14973D01*
X18709Y-14614D01*
X18780Y-14685D01*
X18780Y-14543D01*
X18402Y-14165D01*
X18440Y-14060D01*
X18629Y-13983D01*
X18883Y-13973D01*
X19120Y-14060D01*
X19158Y-14165D01*
X18780Y-14543D01*
X18780Y-14685D01*
X18851Y-14614D01*
X19229Y-14236D01*
X19334Y-14274D01*
X19381Y-14389D01*
X19381Y-13243D01*
X19218Y-13079D01*
X19148Y-13009D01*
X19110Y-12917D01*
X19110Y-12819D01*
X19148Y-12727D01*
X19381Y-12493D01*
X19469Y-12493D01*
X19844Y-12868D01*
X19469Y-13243D01*
X19381Y-13243D01*
X19381Y-14389D01*
X19411Y-14463D01*
X19416Y-14611D01*
X19511Y-14384D01*
X19693Y-14202D01*
X19866Y-14130D01*
X19866Y-13673D01*
X19774Y-13635D01*
X19704Y-13565D01*
X19540Y-13402D01*
X19540Y-13314D01*
X19915Y-12939D01*
X20290Y-13314D01*
X20290Y-13402D01*
X20056Y-13635D01*
X19964Y-13673D01*
X19866Y-13673D01*
X19866Y-14130D01*
X19932Y-14103D01*
X20190Y-14103D01*
X20429Y-14202D01*
X20603Y-14376D01*
X20612Y-14374D01*
X20990Y-14752D01*
X20612Y-15130D01*
X20603Y-15127D01*
X20429Y-15302D01*
X20190Y-15401D01*
X19932Y-15401D01*
X19894Y-15385D01*
X19429Y-15850D01*
X19429Y-16072D01*
X19391Y-16163D01*
X19390Y-16164D01*
X19390Y-16226D01*
X19510Y-16226D01*
X19601Y-16264D01*
X19671Y-16334D01*
X19709Y-16426D01*
X19709Y-17325D01*
X19671Y-17416D01*
X19601Y-17486D01*
X19592Y-17489D01*
X19610Y-17507D01*
X19709Y-17746D01*
X19709Y-18004D01*
X19610Y-18243D01*
X19478Y-18375D01*
X19610Y-18507D01*
X19709Y-18746D01*
X19709Y-19004D01*
X19610Y-19243D01*
X19477Y-19374D01*
X19610Y-19507D01*
X19709Y-19746D01*
X19709Y-20004D01*
X19610Y-20243D01*
X19478Y-20374D01*
X19610Y-20507D01*
X19709Y-20746D01*
X19709Y-21004D01*
X19610Y-21243D01*
X19478Y-21374D01*
X19610Y-21507D01*
X19709Y-21746D01*
X19709Y-22004D01*
X19610Y-22243D01*
X19477Y-22374D01*
X19610Y-22507D01*
X19625Y-22545D01*
X20435Y-22545D01*
X20562Y-22570D01*
X20668Y-22642D01*
X20958Y-22932D01*
X20958Y-15393D01*
X20721Y-15306D01*
X20683Y-15201D01*
X21061Y-14823D01*
X21061Y-14681D01*
X20683Y-14303D01*
X20721Y-14198D01*
X20910Y-14121D01*
X21164Y-14111D01*
X21401Y-14198D01*
X21439Y-14303D01*
X21061Y-14681D01*
X21061Y-14823D01*
X21439Y-15201D01*
X21401Y-15306D01*
X21212Y-15383D01*
X20958Y-15393D01*
X20958Y-22932D01*
X21701Y-23675D01*
X22648Y-23675D01*
X22775Y-23700D01*
X22881Y-23772D01*
X23149Y-24040D01*
X23234Y-24040D01*
X23174Y-23895D01*
X23174Y-23637D01*
X23273Y-23398D01*
X23455Y-23216D01*
X23694Y-23117D01*
X23952Y-23117D01*
X24191Y-23216D01*
X24373Y-23398D01*
X24472Y-23637D01*
X24472Y-23895D01*
X24411Y-24040D01*
X26234Y-24040D01*
X26174Y-23895D01*
X26174Y-23637D01*
X26273Y-23398D01*
X26455Y-23216D01*
X26694Y-23117D01*
X26952Y-23117D01*
X27191Y-23216D01*
X27373Y-23398D01*
X27472Y-23637D01*
X27472Y-23895D01*
X27411Y-24040D01*
X27825Y-24040D01*
X27825Y-24022D01*
X27924Y-23783D01*
X28056Y-23651D01*
X27924Y-23519D01*
X27825Y-23280D01*
X27825Y-23022D01*
X27924Y-22783D01*
X28106Y-22601D01*
X28345Y-22502D01*
X28603Y-22502D01*
X28842Y-22601D01*
X29024Y-22783D01*
X29123Y-23022D01*
X29123Y-23280D01*
X29024Y-23519D01*
X28892Y-23650D01*
X29024Y-23783D01*
X29123Y-24022D01*
X29123Y-24280D01*
X29024Y-24519D01*
X28842Y-24701D01*
X28603Y-24800D01*
X28345Y-24800D01*
X28106Y-24701D01*
X28105Y-24700D01*
X23013Y-24700D01*
X22907Y-24678D01*
X22907Y-24905D01*
X22808Y-25144D01*
X22626Y-25326D01*
X22403Y-25418D01*
X22697Y-25418D01*
X22954Y-25161D01*
X23025Y-25113D01*
X23062Y-25089D01*
X23188Y-25064D01*
X25236Y-25064D01*
X25363Y-25089D01*
X25469Y-25161D01*
X26215Y-25906D01*
X26275Y-25762D01*
X26457Y-25580D01*
X26696Y-25481D01*
X26954Y-25481D01*
X27193Y-25580D01*
X27375Y-25762D01*
X27474Y-26001D01*
X27474Y-26259D01*
X27375Y-26498D01*
X27274Y-26599D01*
X27826Y-26599D01*
X27826Y-26386D01*
X27925Y-26147D01*
X28056Y-26014D01*
X27925Y-25883D01*
X27826Y-25644D01*
X27826Y-25386D01*
X27925Y-25147D01*
X28107Y-24965D01*
X28346Y-24866D01*
X28604Y-24866D01*
X28843Y-24965D01*
X29025Y-25147D01*
X29124Y-25386D01*
X29124Y-25644D01*
X29025Y-25883D01*
X28893Y-26015D01*
X29025Y-26147D01*
X29124Y-26386D01*
X29124Y-26644D01*
X29025Y-26883D01*
X28843Y-27065D01*
X28604Y-27164D01*
X28346Y-27164D01*
X28307Y-27148D01*
X28294Y-27162D01*
X28188Y-27234D01*
X28061Y-27259D01*
X26771Y-27259D01*
X26645Y-27234D01*
X26609Y-27209D01*
X26537Y-27162D01*
X25099Y-25724D01*
X24336Y-25724D01*
X24375Y-25762D01*
X24474Y-26001D01*
X24474Y-26259D01*
X24375Y-26498D01*
X24193Y-26680D01*
X23954Y-26779D01*
X23696Y-26779D01*
X23457Y-26680D01*
X23275Y-26498D01*
X23176Y-26259D01*
X23176Y-26001D01*
X23266Y-25781D01*
X23067Y-25981D01*
X22961Y-26053D01*
X22834Y-26078D01*
X21023Y-26078D01*
X20897Y-26053D01*
X20861Y-26028D01*
X20789Y-25981D01*
X19914Y-25105D01*
X19823Y-25106D01*
X19808Y-25144D01*
X19626Y-25326D01*
X19387Y-25425D01*
X19129Y-25425D01*
X18890Y-25326D01*
X18708Y-25144D01*
X18609Y-24905D01*
X18609Y-24647D01*
X18708Y-24408D01*
X18890Y-24226D01*
X19129Y-24127D01*
X19387Y-24127D01*
X19626Y-24226D01*
X19808Y-24408D01*
X19823Y-24446D01*
X20051Y-24446D01*
X20178Y-24471D01*
X20284Y-24543D01*
X21159Y-25418D01*
X22112Y-25418D01*
X21890Y-25326D01*
X21708Y-25144D01*
X21609Y-24905D01*
X21609Y-24647D01*
X21708Y-24408D01*
X21781Y-24335D01*
X21565Y-24335D01*
X21459Y-24313D01*
X21438Y-24310D01*
X21332Y-24238D01*
X20299Y-23205D01*
X19625Y-23205D01*
X19610Y-23243D01*
X19428Y-23425D01*
X19189Y-23524D01*
X18931Y-23524D01*
X18728Y-23440D01*
X17769Y-23439D01*
X16658Y-24552D01*
X16655Y-24555D01*
X16556Y-24622D01*
X16552Y-24625D01*
X16551Y-24625D01*
X16549Y-24627D01*
X16478Y-24640D01*
X16427Y-24652D01*
X15793Y-24661D01*
X15790Y-24660D01*
X15788Y-24661D01*
X13780Y-24661D01*
X13802Y-24721D01*
X13424Y-25099D01*
X13182Y-24857D01*
X13181Y-24857D01*
X13424Y-25099D01*
X13353Y-25170D01*
X13112Y-24928D01*
X13112Y-24929D01*
X13353Y-25170D01*
X12975Y-25548D01*
X12966Y-25545D01*
X12842Y-25669D01*
X12924Y-25751D01*
X13048Y-25627D01*
X13046Y-25619D01*
X13424Y-25241D01*
X13802Y-25619D01*
X13799Y-25627D01*
X13873Y-25701D01*
X13873Y-25548D01*
X13495Y-25170D01*
X13873Y-24792D01*
X13978Y-24830D01*
X14055Y-25019D01*
X14065Y-25273D01*
X13978Y-25510D01*
X13873Y-25548D01*
X13873Y-25701D01*
X13974Y-25802D01*
X14073Y-26041D01*
X14073Y-26299D01*
X13974Y-26538D01*
X13792Y-26720D01*
X13553Y-26819D01*
X13295Y-26819D01*
X13056Y-26720D01*
X12923Y-26587D01*
X12792Y-26720D01*
X12553Y-26819D01*
X12295Y-26819D01*
X12056Y-26720D01*
X12038Y-26702D01*
X12035Y-26711D01*
X11965Y-26781D01*
X11873Y-26819D01*
X10974Y-26819D01*
X10883Y-26781D01*
X10813Y-26711D01*
X10775Y-26619D01*
X10775Y-25720D01*
X10813Y-25629D01*
X10883Y-25559D01*
X10891Y-25555D01*
X10874Y-25538D01*
X10775Y-25299D01*
X10775Y-25041D01*
X10874Y-24802D01*
X11050Y-24625D01*
X11050Y-22717D01*
X10945Y-22679D01*
X10868Y-22490D01*
X10858Y-22236D01*
X10945Y-21999D01*
X11050Y-21961D01*
X11428Y-22339D01*
X11050Y-22717D01*
X11050Y-24625D01*
X11056Y-24620D01*
X11295Y-24521D01*
X11396Y-24521D01*
X11396Y-22980D01*
X11159Y-22893D01*
X11121Y-22788D01*
X11499Y-22410D01*
X11877Y-22788D01*
X11839Y-22893D01*
X11650Y-22970D01*
X11396Y-22980D01*
X11396Y-24521D01*
X11553Y-24521D01*
X11792Y-24620D01*
X11924Y-24751D01*
X12056Y-24620D01*
X12295Y-24521D01*
X12553Y-24521D01*
X12579Y-24531D01*
X12993Y-24102D01*
X13099Y-24029D01*
X13102Y-24028D01*
X13106Y-24026D01*
X13200Y-24007D01*
X13225Y-24002D01*
X13226Y-24002D01*
X13232Y-24001D01*
X15783Y-24001D01*
X16284Y-23993D01*
X17401Y-22877D01*
X17507Y-22805D01*
X17528Y-22801D01*
X17634Y-22780D01*
X18411Y-22780D01*
X18411Y-22746D01*
X18510Y-22507D01*
X18642Y-22374D01*
X18510Y-22243D01*
X18411Y-22004D01*
X18411Y-21746D01*
X18510Y-21507D01*
X18641Y-21374D01*
X18510Y-21243D01*
X18411Y-21004D01*
X18411Y-20746D01*
X18426Y-20708D01*
X18239Y-20521D01*
X16793Y-20521D01*
X16778Y-20559D01*
X16596Y-20741D01*
X16490Y-20784D01*
X16496Y-20787D01*
X16534Y-20892D01*
X16156Y-21270D01*
X15778Y-20892D01*
X15816Y-20787D01*
X15894Y-20755D01*
X15860Y-20741D01*
X15678Y-20559D01*
X15636Y-20459D01*
X15596Y-20558D01*
X15414Y-20740D01*
X15407Y-20742D01*
X15524Y-20791D01*
X15698Y-20965D01*
X15707Y-20963D01*
X16085Y-21341D01*
X15707Y-21719D01*
X15698Y-21716D01*
X15609Y-21805D01*
X15691Y-21887D01*
X15780Y-21798D01*
X15778Y-21790D01*
X16156Y-21412D01*
X16534Y-21790D01*
X16531Y-21798D01*
X16605Y-21872D01*
X16605Y-21719D01*
X16227Y-21341D01*
X16605Y-20963D01*
X16710Y-21001D01*
X16787Y-21190D01*
X16797Y-21444D01*
X16710Y-21681D01*
X16605Y-21719D01*
X16605Y-21872D01*
X16706Y-21973D01*
X16805Y-22212D01*
X16805Y-22470D01*
X16706Y-22709D01*
X16524Y-22891D01*
X16285Y-22990D01*
X16027Y-22990D01*
X15989Y-22974D01*
X15659Y-23304D01*
X15553Y-23376D01*
X15426Y-23401D01*
X13347Y-23401D01*
X13241Y-23379D01*
X13220Y-23376D01*
X13114Y-23304D01*
X12923Y-23113D01*
X12851Y-23007D01*
X12847Y-22990D01*
X12706Y-22990D01*
X12615Y-22952D01*
X12545Y-22882D01*
X12507Y-22790D01*
X12507Y-22508D01*
X12462Y-22478D01*
X12100Y-22116D01*
X12130Y-22188D01*
X12140Y-22442D01*
X12053Y-22679D01*
X11948Y-22717D01*
X11570Y-22339D01*
X11499Y-22268D01*
X11875Y-21891D01*
X11875Y-21891D01*
X11499Y-22268D01*
X11121Y-21890D01*
X11123Y-21881D01*
X10949Y-21707D01*
X10850Y-21468D01*
X10850Y-21210D01*
X10949Y-20971D01*
X11131Y-20789D01*
X11370Y-20690D01*
X11460Y-20690D01*
X11460Y-20340D01*
X11445Y-20340D01*
X11354Y-20302D01*
X11284Y-20232D01*
X11246Y-20140D01*
X11246Y-19241D01*
X11284Y-19150D01*
X11354Y-19080D01*
X11362Y-19076D01*
X11345Y-19059D01*
X11246Y-18820D01*
X11246Y-18562D01*
X11345Y-18323D01*
X11477Y-18191D01*
X11345Y-18059D01*
X11246Y-17820D01*
X11246Y-17562D01*
X11345Y-17323D01*
X11527Y-17141D01*
X11766Y-17042D01*
X12024Y-17042D01*
X12263Y-17141D01*
X12445Y-17323D01*
X12544Y-17562D01*
X12544Y-17820D01*
X12528Y-17857D01*
X12910Y-18239D01*
X12957Y-18310D01*
X12982Y-18347D01*
X13007Y-18473D01*
X13007Y-19692D01*
X13174Y-19860D01*
X14480Y-19860D01*
X14496Y-19822D01*
X14678Y-19640D01*
X14917Y-19541D01*
X15175Y-19541D01*
X15414Y-19640D01*
X15596Y-19822D01*
X15637Y-19921D01*
X15678Y-19823D01*
X15860Y-19641D01*
X16099Y-19542D01*
X16357Y-19542D01*
X16596Y-19641D01*
X16778Y-19823D01*
X16793Y-19861D01*
X17594Y-19861D01*
X17585Y-19857D01*
X17403Y-19675D01*
X17304Y-19436D01*
X17304Y-19178D01*
X17403Y-18939D01*
X17577Y-18764D01*
X17575Y-18756D01*
X17953Y-18378D01*
X18024Y-18307D01*
X18420Y-18704D01*
X18350Y-18774D01*
X17953Y-18378D01*
X18331Y-18756D01*
X18328Y-18764D01*
X18350Y-18786D01*
X18350Y-18774D01*
X18350Y-18786D01*
X18367Y-18803D01*
X18411Y-18759D01*
X18411Y-18746D01*
X18442Y-18670D01*
X18402Y-18685D01*
X18024Y-18307D01*
X18365Y-17966D01*
X18364Y-17965D01*
X18024Y-18307D01*
X17953Y-18236D01*
X18233Y-17956D01*
X18233Y-17956D01*
X17953Y-18236D01*
X17673Y-17956D01*
X17672Y-17956D01*
X17953Y-18236D01*
X17882Y-18307D01*
X17531Y-17956D01*
X17531Y-17956D01*
X17882Y-18307D01*
X17504Y-18685D01*
X17399Y-18647D01*
X17322Y-18458D01*
X17312Y-18204D01*
X17399Y-17967D01*
X17468Y-17941D01*
X17412Y-17918D01*
X17342Y-17848D01*
X17304Y-17756D01*
X17304Y-16857D01*
X17342Y-16766D01*
X17412Y-16696D01*
X17504Y-16658D01*
X18403Y-16658D01*
X18411Y-16661D01*
X18411Y-16425D01*
X18449Y-16334D01*
X18512Y-16271D01*
X18330Y-16271D01*
X18239Y-16233D01*
X18169Y-16163D01*
X18131Y-16071D01*
X18131Y-15975D01*
X16263Y-15975D01*
X15840Y-16397D01*
X16018Y-16575D01*
X16099Y-16542D01*
X16357Y-16542D01*
X16596Y-16641D01*
X16778Y-16823D01*
X16877Y-17062D01*
X16877Y-17320D01*
X16778Y-17559D01*
X16596Y-17741D01*
X16357Y-17840D01*
X16099Y-17840D01*
X15860Y-17741D01*
X15678Y-17559D01*
X15636Y-17459D01*
X15596Y-17558D01*
X15414Y-17740D01*
X15175Y-17839D01*
X14917Y-17839D01*
X14678Y-17740D01*
X14496Y-17558D01*
X14397Y-17319D01*
X14397Y-17061D01*
X14496Y-16822D01*
X14649Y-16669D01*
X12047Y-16669D01*
X11921Y-16644D01*
X11884Y-16619D01*
X11833Y-16585D01*
X11749Y-16670D01*
X11657Y-16708D01*
X11559Y-16708D01*
X11467Y-16670D01*
X10841Y-16044D01*
X10803Y-15952D01*
X10803Y-15854D01*
X10841Y-15762D01*
X11113Y-15490D01*
X11113Y-13245D01*
X10950Y-13081D01*
X10880Y-13011D01*
X10842Y-12919D01*
X10842Y-12821D01*
X10880Y-12729D01*
X11113Y-12495D01*
X11201Y-12495D01*
X11576Y-12870D01*
X11201Y-13245D01*
X11113Y-13245D01*
X11113Y-15490D01*
X11467Y-15136D01*
X11559Y-15098D01*
X11598Y-15098D01*
X11598Y-13675D01*
X11506Y-13637D01*
X11436Y-13567D01*
X11272Y-13404D01*
X11272Y-13316D01*
X11647Y-12941D01*
X12022Y-13316D01*
X12022Y-13404D01*
X11788Y-13637D01*
X11696Y-13675D01*
X11598Y-13675D01*
X11598Y-15098D01*
X11625Y-15098D01*
X11714Y-14888D01*
X11895Y-14708D01*
X12131Y-14610D01*
X12265Y-14610D01*
X12265Y-14474D01*
X12364Y-14238D01*
X12545Y-14058D01*
X12578Y-14044D01*
X12578Y-13162D01*
X12417Y-13002D01*
X12414Y-13011D01*
X12181Y-13245D01*
X12093Y-13245D01*
X11718Y-12870D01*
X11647Y-12799D01*
X11807Y-12638D01*
X11807Y-12638D01*
X11647Y-12799D01*
X11272Y-12424D01*
X11272Y-12336D01*
X11506Y-12103D01*
X11598Y-12065D01*
X11664Y-12064D01*
X11753Y-11855D01*
X11934Y-11675D01*
X12170Y-11577D01*
X12304Y-11577D01*
X12304Y-11441D01*
X12403Y-11205D01*
X12584Y-11025D01*
X12617Y-11011D01*
X12617Y-10435D01*
X12557Y-10495D01*
X12318Y-10594D01*
X12060Y-10594D01*
X11821Y-10495D01*
X11639Y-10313D01*
X11540Y-10074D01*
X11540Y-09816D01*
X11639Y-09577D01*
X11640Y-09576D01*
X11640Y-08805D01*
X11678Y-08714D01*
X11748Y-08644D01*
X11840Y-08606D01*
X12147Y-08606D01*
X12407Y-08346D01*
X10610Y-08346D01*
X10610Y-27481D01*
X15428Y-27481D01*
X15428Y-27460D01*
X15337Y-27422D01*
X15267Y-27352D01*
X15229Y-27260D01*
X15229Y-26361D01*
X15267Y-26270D01*
X15337Y-26200D01*
X15429Y-26162D01*
X16328Y-26162D01*
X16419Y-26200D01*
X16489Y-26270D01*
X16512Y-26327D01*
X16538Y-26257D01*
X16727Y-26180D01*
X16981Y-26170D01*
X17218Y-26257D01*
X17256Y-26362D01*
X16877Y-26740D01*
X16807Y-26811D01*
X16877Y-26882D01*
X17256Y-27260D01*
X17218Y-27365D01*
X17029Y-27442D01*
X16775Y-27452D01*
X16538Y-27365D01*
X16512Y-27295D01*
X16489Y-27352D01*
X16419Y-27422D01*
X16327Y-27460D01*
X15428Y-27460D01*
X15428Y-27481D01*
X17327Y-27481D01*
X17327Y-27189D01*
X16949Y-26811D01*
X17327Y-26433D01*
X17432Y-26471D01*
X17509Y-26660D01*
X17519Y-26914D01*
X17432Y-27151D01*
X17327Y-27189D01*
X17327Y-27481D01*
X19129Y-27481D01*
X19129Y-27425D01*
X18890Y-27326D01*
X18708Y-27144D01*
X18609Y-26905D01*
X18609Y-26647D01*
X18708Y-26408D01*
X18890Y-26226D01*
X19129Y-26127D01*
X19387Y-26127D01*
X19626Y-26226D01*
X19808Y-26408D01*
X19907Y-26647D01*
X19907Y-26905D01*
X19808Y-27144D01*
X19626Y-27326D01*
X19387Y-27425D01*
X19129Y-27425D01*
X19129Y-27481D01*
X21809Y-27481D01*
X21809Y-27154D01*
X21704Y-27116D01*
X21627Y-26927D01*
X21617Y-26673D01*
X21704Y-26436D01*
X21809Y-26398D01*
X22187Y-26776D01*
X21809Y-27154D01*
X21809Y-27481D01*
X22155Y-27481D01*
X22155Y-27417D01*
X21918Y-27330D01*
X21880Y-27225D01*
X22258Y-26847D01*
X22258Y-26705D01*
X21880Y-26327D01*
X21918Y-26222D01*
X22107Y-26145D01*
X22361Y-26135D01*
X22598Y-26222D01*
X22636Y-26327D01*
X22258Y-26705D01*
X22258Y-26847D01*
X22636Y-27225D01*
X22598Y-27330D01*
X22409Y-27407D01*
X22155Y-27417D01*
X22155Y-27481D01*
X22707Y-27481D01*
X22707Y-27154D01*
X22329Y-26776D01*
X22707Y-26398D01*
X22812Y-26436D01*
X22889Y-26625D01*
X22899Y-26879D01*
X22812Y-27116D01*
X22707Y-27154D01*
X22707Y-27481D01*
X29745Y-27481D01*
M02*
