G04 (created by PCBNEW-RS274X (2010-05-05 BZR 2356)-stable) date 08-11-2010 18:06:31*
G01*
G70*
G90*
%MOIN*%
G04 Gerber Fmt 3.4, Leading zero omitted, Abs format*
%FSLAX34Y34*%
G04 APERTURE LIST*
%ADD10C,0.006000*%
%ADD11C,0.015000*%
%ADD12R,0.060000X0.060000*%
%ADD13C,0.060000*%
%ADD14C,0.055000*%
%ADD15C,0.066000*%
%ADD16R,0.060000X0.118100*%
%ADD17R,0.055000X0.055000*%
%ADD18C,0.035000*%
%ADD19C,0.016000*%
%ADD20C,0.010000*%
G04 APERTURE END LIST*
G54D10*
G54D11*
X10335Y-27756D02*
X30020Y-27756D01*
X10335Y-08071D02*
X10335Y-27756D01*
X30020Y-08071D02*
X10335Y-08071D01*
X30020Y-27756D02*
X30020Y-08071D01*
G54D12*
X17953Y-17307D03*
G54D13*
X17953Y-18307D03*
X17953Y-19307D03*
G54D14*
X22258Y-24776D03*
X22258Y-26776D03*
X19258Y-24776D03*
X19258Y-26776D03*
G54D15*
X17699Y-09944D03*
X18699Y-09944D03*
G54D16*
X17699Y-09444D03*
X18699Y-09444D03*
G54D15*
X20457Y-09943D03*
X21457Y-09943D03*
G54D16*
X20457Y-09443D03*
X21457Y-09443D03*
G54D15*
X14945Y-09944D03*
X15945Y-09944D03*
G54D16*
X14945Y-09444D03*
X15945Y-09444D03*
G54D15*
X12189Y-09945D03*
X13189Y-09945D03*
G54D16*
X12189Y-09445D03*
X13189Y-09445D03*
G54D12*
X15878Y-26811D03*
G54D13*
X16878Y-26811D03*
G54D15*
X28475Y-25515D03*
X28475Y-26515D03*
X28474Y-23151D03*
X28474Y-24151D03*
X28473Y-20791D03*
X28473Y-21791D03*
X28474Y-18428D03*
X28474Y-19428D03*
X28475Y-16064D03*
X28475Y-17064D03*
X28474Y-13705D03*
X28474Y-14705D03*
X28472Y-11341D03*
X28472Y-12341D03*
X28474Y-08980D03*
X28474Y-09980D03*
G54D14*
X20061Y-14752D03*
X21061Y-14752D03*
G54D17*
X17305Y-12732D03*
G54D14*
X18305Y-12732D03*
X18305Y-11732D03*
G54D17*
X11794Y-12733D03*
G54D14*
X12794Y-12733D03*
X12794Y-11733D03*
G54D17*
X14552Y-12731D03*
G54D14*
X15552Y-12731D03*
X15552Y-11731D03*
G54D17*
X20062Y-12731D03*
G54D14*
X21062Y-12731D03*
X21062Y-11731D03*
G54D17*
X12266Y-15766D03*
G54D14*
X13266Y-15766D03*
X13266Y-14766D03*
X16228Y-18617D03*
X16228Y-15617D03*
X23825Y-26130D03*
X26825Y-26130D03*
X15046Y-18616D03*
X15046Y-15616D03*
X23823Y-23766D03*
X26823Y-23766D03*
X23825Y-19042D03*
X26825Y-19042D03*
X23823Y-21406D03*
X26823Y-21406D03*
X23826Y-16681D03*
X26826Y-16681D03*
X23824Y-09594D03*
X26824Y-09594D03*
X23825Y-14318D03*
X26825Y-14318D03*
X23824Y-11955D03*
X26824Y-11955D03*
G54D12*
X13156Y-22341D03*
G54D13*
X13156Y-21341D03*
X14156Y-22341D03*
X14156Y-21341D03*
X15156Y-22341D03*
X15156Y-21341D03*
X16156Y-22341D03*
X16156Y-21341D03*
G54D12*
X11424Y-26170D03*
G54D13*
X11424Y-25170D03*
X12424Y-26170D03*
X12424Y-25170D03*
X13424Y-26170D03*
X13424Y-25170D03*
G54D12*
X11895Y-19691D03*
G54D13*
X11895Y-18691D03*
X11895Y-17691D03*
G54D17*
X19060Y-16875D03*
G54D14*
X19060Y-17875D03*
X19060Y-18875D03*
X19060Y-19875D03*
X19060Y-20875D03*
X19060Y-21875D03*
X19060Y-22875D03*
X22060Y-22875D03*
X22060Y-21875D03*
X22060Y-20875D03*
X22060Y-19875D03*
X22060Y-18875D03*
X22060Y-17875D03*
X22060Y-16875D03*
G54D12*
X18001Y-15645D03*
G54D13*
X18001Y-14645D03*
G54D14*
X11499Y-21339D03*
X11499Y-22339D03*
G54D18*
X20197Y-22008D03*
X20197Y-23740D03*
G54D19*
X15046Y-18616D02*
X12820Y-18616D01*
X12820Y-18616D02*
X11895Y-17691D01*
X12258Y-19054D02*
X14448Y-19054D01*
X11895Y-18691D02*
X12258Y-19054D01*
X15791Y-19054D02*
X16228Y-18617D01*
X15632Y-19213D02*
X15791Y-19054D01*
X14607Y-19213D02*
X15632Y-19213D01*
X14448Y-19054D02*
X14607Y-19213D01*
X17568Y-20875D02*
X16228Y-19535D01*
X16228Y-19535D02*
X16228Y-18617D01*
X19060Y-20875D02*
X17568Y-20875D01*
X16063Y-24087D02*
X16109Y-24087D01*
X17321Y-22875D02*
X17775Y-22875D01*
X16109Y-24087D02*
X17321Y-22875D01*
X19060Y-22875D02*
X20435Y-22875D01*
X20435Y-22875D02*
X21565Y-24005D01*
X28255Y-24370D02*
X28474Y-24151D01*
X23013Y-24370D02*
X28255Y-24370D01*
X22648Y-24005D02*
X23013Y-24370D01*
X13507Y-24087D02*
X12424Y-25170D01*
X16063Y-24087D02*
X13507Y-24087D01*
X17775Y-22875D02*
X19060Y-22875D01*
X21565Y-24005D02*
X22648Y-24005D01*
X15046Y-15616D02*
X13416Y-15616D01*
X13416Y-15616D02*
X13266Y-15766D01*
X26299Y-13031D02*
X27782Y-13031D01*
X23110Y-16220D02*
X26299Y-13031D01*
X23110Y-17835D02*
X23110Y-16220D01*
X22643Y-18302D02*
X23110Y-17835D01*
X22641Y-18294D02*
X22633Y-18302D01*
X22633Y-18302D02*
X22060Y-18875D01*
X22633Y-18302D02*
X22643Y-18302D01*
X27782Y-13031D02*
X28472Y-12341D01*
X22086Y-17875D02*
X22756Y-17205D01*
X22756Y-17205D02*
X22756Y-14252D01*
X22060Y-17875D02*
X22086Y-17875D01*
X27982Y-10472D02*
X28474Y-09980D01*
X26536Y-10472D02*
X27982Y-10472D01*
X22756Y-14252D02*
X26536Y-10472D01*
X22060Y-19875D02*
X22093Y-19875D01*
X26417Y-15118D02*
X26851Y-15118D01*
X23268Y-18267D02*
X26417Y-15118D01*
X28061Y-15118D02*
X28474Y-14705D01*
X26851Y-15118D02*
X28061Y-15118D01*
X22093Y-19875D02*
X22855Y-19113D01*
X22855Y-18680D02*
X23268Y-18267D01*
X22855Y-19113D02*
X22855Y-18680D01*
X22060Y-21875D02*
X22377Y-21875D01*
X27508Y-20394D02*
X28474Y-19428D01*
X23858Y-20394D02*
X27508Y-20394D01*
X22377Y-21875D02*
X23858Y-20394D01*
X27901Y-17638D02*
X28475Y-17064D01*
X26299Y-17638D02*
X27901Y-17638D01*
X22060Y-20875D02*
X22060Y-20657D01*
X24370Y-17638D02*
X26299Y-17638D01*
X23189Y-18819D02*
X24370Y-17638D01*
X23189Y-19528D02*
X23189Y-18819D01*
X22060Y-20657D02*
X23189Y-19528D01*
X17953Y-19307D02*
X18628Y-19307D01*
X18628Y-19307D02*
X19060Y-18875D01*
X18492Y-17307D02*
X19060Y-17875D01*
X17953Y-17307D02*
X18492Y-17307D01*
X13189Y-09945D02*
X13189Y-09445D01*
X15945Y-09944D02*
X15945Y-09444D01*
X18699Y-09944D02*
X18699Y-09444D01*
X21457Y-09943D02*
X21457Y-09443D01*
X12696Y-22245D02*
X13060Y-22245D01*
X11790Y-21339D02*
X12696Y-22245D01*
X13060Y-22245D02*
X13156Y-22341D01*
X13156Y-22341D02*
X13156Y-22880D01*
X13156Y-22880D02*
X13347Y-23071D01*
X13347Y-23071D02*
X15426Y-23071D01*
X15426Y-23071D02*
X16156Y-22341D01*
X11895Y-19691D02*
X11895Y-20134D01*
X11790Y-20239D02*
X11895Y-20134D01*
X11790Y-21339D02*
X11499Y-21339D01*
X11790Y-21339D02*
X11790Y-20239D01*
X19258Y-24776D02*
X20051Y-24776D01*
X23188Y-25394D02*
X25236Y-25394D01*
X22834Y-25748D02*
X23188Y-25394D01*
X21023Y-25748D02*
X22834Y-25748D01*
X20051Y-24776D02*
X21023Y-25748D01*
X25236Y-25394D02*
X26771Y-26929D01*
X26771Y-26929D02*
X28061Y-26929D01*
X28061Y-26929D02*
X28475Y-26515D01*
X11424Y-26170D02*
X11424Y-26582D01*
X21064Y-22875D02*
X22060Y-22875D01*
X20197Y-22008D02*
X21064Y-22875D01*
X17796Y-23740D02*
X20197Y-23740D01*
X14528Y-27008D02*
X17796Y-23740D01*
X11850Y-27008D02*
X14528Y-27008D01*
X11424Y-26582D02*
X11850Y-27008D01*
X27389Y-22875D02*
X28473Y-21791D01*
X22060Y-22875D02*
X27389Y-22875D01*
X17769Y-13268D02*
X20525Y-13268D01*
X20525Y-13268D02*
X21062Y-12731D01*
X15039Y-13268D02*
X17769Y-13268D01*
X17769Y-13268D02*
X18305Y-12732D01*
X15552Y-12731D02*
X15552Y-12755D01*
X13897Y-13268D02*
X13266Y-13899D01*
X15039Y-13268D02*
X13897Y-13268D01*
X15552Y-12755D02*
X15039Y-13268D01*
X13266Y-14766D02*
X13266Y-13899D01*
X13266Y-13899D02*
X13266Y-13205D01*
X13266Y-13205D02*
X12794Y-12733D01*
X20457Y-09943D02*
X20457Y-09443D01*
X17699Y-09944D02*
X17699Y-09444D01*
X12189Y-09945D02*
X12189Y-09445D01*
X14945Y-09944D02*
X14945Y-09444D01*
X20457Y-09943D02*
X20457Y-08843D01*
X20457Y-08843D02*
X20118Y-08504D01*
X17699Y-09944D02*
X17699Y-08841D01*
X17699Y-08841D02*
X17362Y-08504D01*
X14945Y-09944D02*
X14945Y-08646D01*
X14945Y-08646D02*
X14803Y-08504D01*
X12189Y-09945D02*
X12189Y-09031D01*
X12189Y-09031D02*
X12716Y-08504D01*
X12716Y-08504D02*
X14803Y-08504D01*
X14803Y-08504D02*
X17362Y-08504D01*
X17362Y-08504D02*
X20118Y-08504D01*
X16228Y-15617D02*
X16155Y-15617D01*
X12839Y-16339D02*
X12266Y-15766D01*
X15433Y-16339D02*
X12839Y-16339D01*
X16155Y-15617D02*
X15433Y-16339D01*
X16256Y-15645D02*
X16228Y-15617D01*
X18001Y-15645D02*
X16256Y-15645D01*
X19060Y-15645D02*
X19060Y-16875D01*
X19168Y-15645D02*
X19060Y-15645D01*
X20061Y-14752D02*
X19168Y-15645D01*
X19060Y-15645D02*
X18001Y-15645D01*
G54D20*
X10610Y-08346D02*
X12407Y-08346D01*
X20426Y-08346D02*
X29745Y-08346D01*
X10610Y-08426D02*
X12327Y-08426D01*
X20506Y-08426D02*
X28297Y-08426D01*
X28653Y-08426D02*
X29745Y-08426D01*
X10610Y-08506D02*
X12247Y-08506D01*
X20586Y-08506D02*
X28128Y-08506D01*
X28820Y-08506D02*
X29745Y-08506D01*
X10610Y-08586D02*
X12167Y-08586D01*
X20666Y-08586D02*
X28048Y-08586D01*
X28900Y-08586D02*
X29745Y-08586D01*
X10610Y-08666D02*
X11726Y-08666D01*
X20922Y-08666D02*
X20992Y-08666D01*
X21922Y-08666D02*
X27977Y-08666D01*
X28972Y-08666D02*
X29745Y-08666D01*
X10610Y-08746D02*
X11665Y-08746D01*
X21983Y-08746D02*
X27944Y-08746D01*
X29005Y-08746D02*
X29745Y-08746D01*
X10610Y-08826D02*
X11640Y-08826D01*
X22006Y-08826D02*
X27910Y-08826D01*
X29038Y-08826D02*
X29745Y-08826D01*
X10610Y-08906D02*
X11640Y-08906D01*
X13738Y-08906D02*
X14396Y-08906D01*
X16494Y-08906D02*
X17150Y-08906D01*
X19248Y-08906D02*
X19908Y-08906D01*
X22006Y-08906D02*
X27894Y-08906D01*
X29054Y-08906D02*
X29745Y-08906D01*
X10610Y-08986D02*
X11640Y-08986D01*
X13738Y-08986D02*
X14396Y-08986D01*
X16494Y-08986D02*
X17150Y-08986D01*
X19248Y-08986D02*
X19908Y-08986D01*
X22006Y-08986D02*
X27894Y-08986D01*
X29054Y-08986D02*
X29745Y-08986D01*
X10610Y-09066D02*
X11640Y-09066D01*
X13738Y-09066D02*
X14396Y-09066D01*
X16494Y-09066D02*
X17150Y-09066D01*
X19248Y-09066D02*
X19908Y-09066D01*
X22006Y-09066D02*
X27894Y-09066D01*
X29054Y-09066D02*
X29745Y-09066D01*
X10610Y-09146D02*
X11640Y-09146D01*
X13738Y-09146D02*
X14396Y-09146D01*
X16494Y-09146D02*
X17150Y-09146D01*
X19248Y-09146D02*
X19908Y-09146D01*
X22006Y-09146D02*
X23535Y-09146D01*
X24115Y-09146D02*
X26535Y-09146D01*
X27115Y-09146D02*
X27915Y-09146D01*
X29033Y-09146D02*
X29745Y-09146D01*
X10610Y-09226D02*
X11640Y-09226D01*
X13738Y-09226D02*
X14396Y-09226D01*
X16494Y-09226D02*
X17150Y-09226D01*
X19248Y-09226D02*
X19908Y-09226D01*
X22006Y-09226D02*
X23450Y-09226D01*
X24199Y-09226D02*
X26450Y-09226D01*
X27199Y-09226D02*
X27948Y-09226D01*
X28999Y-09226D02*
X29745Y-09226D01*
X10610Y-09306D02*
X11640Y-09306D01*
X13738Y-09306D02*
X14396Y-09306D01*
X16494Y-09306D02*
X17150Y-09306D01*
X19248Y-09306D02*
X19908Y-09306D01*
X22006Y-09306D02*
X23375Y-09306D01*
X24273Y-09306D02*
X26375Y-09306D01*
X27273Y-09306D02*
X27981Y-09306D01*
X28966Y-09306D02*
X29745Y-09306D01*
X10610Y-09386D02*
X11640Y-09386D01*
X13738Y-09386D02*
X14396Y-09386D01*
X16494Y-09386D02*
X17150Y-09386D01*
X19248Y-09386D02*
X19908Y-09386D01*
X22006Y-09386D02*
X23342Y-09386D01*
X24306Y-09386D02*
X26342Y-09386D01*
X27306Y-09386D02*
X28060Y-09386D01*
X28888Y-09386D02*
X29745Y-09386D01*
X10610Y-09466D02*
X11640Y-09466D01*
X13738Y-09466D02*
X14396Y-09466D01*
X16494Y-09466D02*
X17150Y-09466D01*
X19248Y-09466D02*
X19908Y-09466D01*
X22006Y-09466D02*
X23309Y-09466D01*
X24340Y-09466D02*
X26309Y-09466D01*
X27340Y-09466D02*
X28140Y-09466D01*
X28808Y-09466D02*
X29745Y-09466D01*
X10610Y-09546D02*
X11640Y-09546D01*
X13738Y-09546D02*
X14396Y-09546D01*
X16494Y-09546D02*
X17150Y-09546D01*
X19248Y-09546D02*
X19908Y-09546D01*
X22006Y-09546D02*
X23299Y-09546D01*
X24349Y-09546D02*
X26299Y-09546D01*
X27349Y-09546D02*
X28088Y-09546D01*
X28860Y-09546D02*
X29745Y-09546D01*
X10610Y-09626D02*
X11640Y-09626D01*
X13738Y-09626D02*
X14396Y-09626D01*
X16494Y-09626D02*
X17150Y-09626D01*
X19248Y-09626D02*
X19908Y-09626D01*
X22006Y-09626D02*
X23299Y-09626D01*
X24349Y-09626D02*
X26299Y-09626D01*
X27349Y-09626D02*
X28008Y-09626D01*
X28940Y-09626D02*
X29745Y-09626D01*
X10610Y-09706D02*
X11640Y-09706D01*
X13738Y-09706D02*
X14396Y-09706D01*
X16494Y-09706D02*
X17150Y-09706D01*
X19248Y-09706D02*
X19908Y-09706D01*
X22006Y-09706D02*
X23302Y-09706D01*
X24346Y-09706D02*
X26302Y-09706D01*
X27346Y-09706D02*
X27961Y-09706D01*
X28989Y-09706D02*
X29745Y-09706D01*
X10610Y-09786D02*
X11627Y-09786D01*
X13752Y-09786D02*
X14383Y-09786D01*
X16508Y-09786D02*
X17137Y-09786D01*
X19262Y-09786D02*
X19894Y-09786D01*
X22020Y-09786D02*
X23335Y-09786D01*
X24312Y-09786D02*
X26335Y-09786D01*
X27312Y-09786D02*
X27927Y-09786D01*
X29022Y-09786D02*
X29745Y-09786D01*
X10610Y-09866D02*
X11609Y-09866D01*
X13769Y-09866D02*
X14365Y-09866D01*
X16525Y-09866D02*
X17119Y-09866D01*
X19279Y-09866D02*
X19877Y-09866D01*
X22037Y-09866D02*
X23368Y-09866D01*
X24279Y-09866D02*
X26368Y-09866D01*
X27279Y-09866D02*
X27894Y-09866D01*
X29054Y-09866D02*
X29745Y-09866D01*
X10610Y-09946D02*
X11609Y-09946D01*
X13769Y-09946D02*
X14365Y-09946D01*
X16525Y-09946D02*
X17119Y-09946D01*
X19279Y-09946D02*
X19877Y-09946D01*
X22037Y-09946D02*
X23433Y-09946D01*
X24214Y-09946D02*
X26433Y-09946D01*
X27214Y-09946D02*
X27894Y-09946D01*
X29054Y-09946D02*
X29745Y-09946D01*
X10610Y-10026D02*
X11609Y-10026D01*
X13769Y-10026D02*
X14365Y-10026D01*
X16525Y-10026D02*
X17119Y-10026D01*
X19279Y-10026D02*
X19877Y-10026D01*
X22037Y-10026D02*
X23513Y-10026D01*
X24134Y-10026D02*
X26513Y-10026D01*
X27134Y-10026D02*
X27894Y-10026D01*
X29054Y-10026D02*
X29745Y-10026D01*
X10610Y-10106D02*
X11628Y-10106D01*
X13750Y-10106D02*
X14384Y-10106D01*
X16505Y-10106D02*
X17138Y-10106D01*
X19259Y-10106D02*
X19896Y-10106D01*
X22017Y-10106D02*
X23687Y-10106D01*
X23959Y-10106D02*
X26687Y-10106D01*
X26959Y-10106D02*
X27881Y-10106D01*
X29049Y-10106D02*
X29745Y-10106D01*
X10610Y-10186D02*
X11661Y-10186D01*
X13716Y-10186D02*
X14417Y-10186D01*
X16472Y-10186D02*
X17171Y-10186D01*
X19226Y-10186D02*
X19929Y-10186D01*
X21983Y-10186D02*
X26381Y-10186D01*
X29016Y-10186D02*
X29745Y-10186D01*
X10610Y-10266D02*
X11694Y-10266D01*
X12683Y-10266D02*
X12693Y-10266D01*
X13683Y-10266D02*
X14450Y-10266D01*
X15438Y-10266D02*
X15450Y-10266D01*
X16438Y-10266D02*
X17204Y-10266D01*
X18192Y-10266D02*
X18204Y-10266D01*
X19192Y-10266D02*
X19962Y-10266D01*
X20950Y-10266D02*
X20962Y-10266D01*
X21950Y-10266D02*
X26275Y-10266D01*
X28982Y-10266D02*
X29745Y-10266D01*
X10610Y-10346D02*
X11770Y-10346D01*
X12608Y-10346D02*
X12770Y-10346D01*
X13608Y-10346D02*
X14527Y-10346D01*
X15363Y-10346D02*
X15527Y-10346D01*
X16363Y-10346D02*
X17281Y-10346D01*
X18117Y-10346D02*
X18281Y-10346D01*
X19117Y-10346D02*
X20040Y-10346D01*
X20874Y-10346D02*
X21040Y-10346D01*
X21874Y-10346D02*
X26195Y-10346D01*
X28928Y-10346D02*
X29745Y-10346D01*
X10610Y-10426D02*
X11850Y-10426D01*
X12528Y-10426D02*
X12850Y-10426D01*
X13528Y-10426D02*
X14607Y-10426D01*
X15283Y-10426D02*
X15607Y-10426D01*
X16283Y-10426D02*
X17361Y-10426D01*
X18037Y-10426D02*
X18361Y-10426D01*
X19037Y-10426D02*
X20120Y-10426D01*
X20794Y-10426D02*
X21120Y-10426D01*
X21794Y-10426D02*
X26115Y-10426D01*
X28848Y-10426D02*
X29745Y-10426D01*
X10610Y-10506D02*
X12027Y-10506D01*
X12349Y-10506D02*
X13027Y-10506D01*
X13349Y-10506D02*
X14785Y-10506D01*
X15103Y-10506D02*
X15785Y-10506D01*
X16103Y-10506D02*
X17539Y-10506D01*
X17857Y-10506D02*
X18539Y-10506D01*
X18857Y-10506D02*
X20300Y-10506D01*
X20613Y-10506D02*
X21300Y-10506D01*
X21613Y-10506D02*
X26035Y-10506D01*
X28719Y-10506D02*
X29745Y-10506D01*
X10610Y-10586D02*
X25955Y-10586D01*
X28333Y-10586D02*
X29745Y-10586D01*
X10610Y-10666D02*
X25875Y-10666D01*
X28253Y-10666D02*
X29745Y-10666D01*
X10610Y-10746D02*
X25795Y-10746D01*
X28154Y-10746D02*
X29745Y-10746D01*
X10610Y-10826D02*
X25715Y-10826D01*
X26647Y-10826D02*
X28200Y-10826D01*
X28744Y-10826D02*
X29745Y-10826D01*
X10610Y-10906D02*
X25635Y-10906D01*
X26567Y-10906D02*
X28087Y-10906D01*
X28857Y-10906D02*
X29745Y-10906D01*
X10610Y-10986D02*
X25555Y-10986D01*
X26487Y-10986D02*
X28007Y-10986D01*
X28937Y-10986D02*
X29745Y-10986D01*
X10610Y-11066D02*
X25475Y-11066D01*
X26407Y-11066D02*
X27959Y-11066D01*
X28986Y-11066D02*
X29745Y-11066D01*
X10610Y-11146D02*
X25395Y-11146D01*
X26327Y-11146D02*
X27926Y-11146D01*
X29019Y-11146D02*
X29745Y-11146D01*
X10610Y-11226D02*
X12647Y-11226D01*
X12943Y-11226D02*
X15400Y-11226D01*
X15706Y-11226D02*
X18156Y-11226D01*
X18456Y-11226D02*
X20910Y-11226D01*
X21216Y-11226D02*
X25315Y-11226D01*
X26247Y-11226D02*
X27892Y-11226D01*
X29052Y-11226D02*
X29745Y-11226D01*
X10610Y-11306D02*
X12479Y-11306D01*
X13110Y-11306D02*
X15235Y-11306D01*
X15870Y-11306D02*
X17989Y-11306D01*
X18622Y-11306D02*
X20745Y-11306D01*
X21380Y-11306D02*
X25235Y-11306D01*
X26167Y-11306D02*
X27892Y-11306D01*
X29052Y-11306D02*
X29745Y-11306D01*
X10610Y-11386D02*
X12399Y-11386D01*
X13190Y-11386D02*
X15155Y-11386D01*
X15950Y-11386D02*
X17909Y-11386D01*
X18702Y-11386D02*
X20665Y-11386D01*
X21460Y-11386D02*
X25155Y-11386D01*
X26087Y-11386D02*
X27892Y-11386D01*
X29052Y-11386D02*
X29745Y-11386D01*
X10610Y-11466D02*
X12337Y-11466D01*
X13252Y-11466D02*
X15094Y-11466D01*
X16011Y-11466D02*
X17847Y-11466D01*
X18763Y-11466D02*
X20604Y-11466D01*
X21521Y-11466D02*
X23633Y-11466D01*
X24016Y-11466D02*
X25075Y-11466D01*
X26007Y-11466D02*
X26634Y-11466D01*
X27016Y-11466D02*
X27896Y-11466D01*
X29048Y-11466D02*
X29745Y-11466D01*
X10610Y-11546D02*
X12303Y-11546D01*
X13285Y-11546D02*
X15061Y-11546D01*
X16044Y-11546D02*
X17814Y-11546D01*
X18797Y-11546D02*
X20571Y-11546D01*
X21554Y-11546D02*
X23491Y-11546D01*
X24158Y-11546D02*
X24995Y-11546D01*
X25927Y-11546D02*
X26491Y-11546D01*
X27158Y-11546D02*
X27929Y-11546D01*
X29014Y-11546D02*
X29745Y-11546D01*
X10610Y-11626D02*
X12270Y-11626D01*
X13318Y-11626D02*
X15027Y-11626D01*
X16077Y-11626D02*
X17781Y-11626D01*
X18830Y-11626D02*
X20537Y-11626D01*
X21587Y-11626D02*
X23411Y-11626D01*
X24238Y-11626D02*
X24915Y-11626D01*
X25847Y-11626D02*
X26411Y-11626D01*
X27238Y-11626D02*
X27962Y-11626D01*
X28981Y-11626D02*
X29745Y-11626D01*
X10610Y-11706D02*
X12269Y-11706D01*
X13319Y-11706D02*
X15027Y-11706D01*
X16077Y-11706D02*
X17780Y-11706D01*
X18830Y-11706D02*
X20537Y-11706D01*
X21587Y-11706D02*
X23359Y-11706D01*
X24289Y-11706D02*
X24835Y-11706D01*
X25767Y-11706D02*
X26359Y-11706D01*
X27289Y-11706D02*
X28017Y-11706D01*
X28927Y-11706D02*
X29745Y-11706D01*
X10610Y-11786D02*
X12269Y-11786D01*
X13319Y-11786D02*
X15027Y-11786D01*
X16077Y-11786D02*
X17780Y-11786D01*
X18830Y-11786D02*
X20537Y-11786D01*
X21587Y-11786D02*
X23326Y-11786D01*
X24323Y-11786D02*
X24755Y-11786D01*
X25687Y-11786D02*
X26326Y-11786D01*
X27323Y-11786D02*
X28097Y-11786D01*
X28847Y-11786D02*
X29745Y-11786D01*
X10610Y-11866D02*
X12281Y-11866D01*
X13307Y-11866D02*
X15039Y-11866D01*
X16064Y-11866D02*
X17792Y-11866D01*
X18817Y-11866D02*
X20549Y-11866D01*
X21574Y-11866D02*
X23299Y-11866D01*
X24349Y-11866D02*
X24675Y-11866D01*
X25607Y-11866D02*
X26299Y-11866D01*
X27349Y-11866D02*
X28127Y-11866D01*
X28817Y-11866D02*
X29745Y-11866D01*
X10610Y-11946D02*
X12314Y-11946D01*
X13274Y-11946D02*
X15073Y-11946D01*
X16031Y-11946D02*
X17825Y-11946D01*
X18784Y-11946D02*
X20583Y-11946D01*
X21541Y-11946D02*
X23299Y-11946D01*
X24349Y-11946D02*
X24595Y-11946D01*
X25527Y-11946D02*
X26299Y-11946D01*
X27349Y-11946D02*
X28047Y-11946D01*
X28897Y-11946D02*
X29745Y-11946D01*
X10610Y-12026D02*
X12347Y-12026D01*
X13241Y-12026D02*
X15106Y-12026D01*
X15998Y-12026D02*
X17858Y-12026D01*
X18751Y-12026D02*
X20616Y-12026D01*
X21508Y-12026D02*
X23299Y-12026D01*
X24349Y-12026D02*
X24515Y-12026D01*
X25447Y-12026D02*
X26299Y-12026D01*
X27349Y-12026D02*
X27976Y-12026D01*
X28970Y-12026D02*
X29745Y-12026D01*
X10610Y-12106D02*
X12424Y-12106D01*
X13163Y-12106D02*
X15184Y-12106D01*
X15919Y-12106D02*
X17936Y-12106D01*
X18673Y-12106D02*
X20694Y-12106D01*
X21429Y-12106D02*
X23318Y-12106D01*
X24329Y-12106D02*
X24435Y-12106D01*
X25367Y-12106D02*
X26318Y-12106D01*
X27329Y-12106D02*
X27942Y-12106D01*
X29003Y-12106D02*
X29745Y-12106D01*
X10610Y-12186D02*
X12515Y-12186D01*
X13071Y-12186D02*
X15278Y-12186D01*
X15824Y-12186D02*
X18028Y-12186D01*
X18579Y-12186D02*
X20788Y-12186D01*
X21334Y-12186D02*
X23351Y-12186D01*
X24296Y-12186D02*
X24355Y-12186D01*
X25287Y-12186D02*
X26351Y-12186D01*
X27296Y-12186D02*
X27909Y-12186D01*
X29036Y-12186D02*
X29745Y-12186D01*
X10610Y-12266D02*
X11359Y-12266D01*
X11740Y-12266D02*
X11848Y-12266D01*
X12229Y-12266D02*
X12550Y-12266D01*
X13040Y-12266D02*
X14115Y-12266D01*
X14500Y-12266D02*
X14604Y-12266D01*
X14989Y-12266D02*
X15303Y-12266D01*
X15803Y-12266D02*
X16869Y-12266D01*
X17252Y-12266D02*
X17358Y-12266D01*
X17741Y-12266D02*
X18059Y-12266D01*
X18553Y-12266D02*
X19625Y-12266D01*
X20010Y-12266D02*
X20114Y-12266D01*
X20499Y-12266D02*
X20813Y-12266D01*
X21313Y-12266D02*
X23392Y-12266D01*
X24255Y-12266D02*
X24275Y-12266D01*
X25207Y-12266D02*
X26392Y-12266D01*
X27255Y-12266D02*
X27892Y-12266D01*
X29052Y-12266D02*
X29745Y-12266D01*
X10610Y-12346D02*
X11296Y-12346D01*
X11744Y-12346D02*
X11844Y-12346D01*
X12293Y-12346D02*
X12439Y-12346D01*
X13150Y-12346D02*
X14054Y-12346D01*
X14502Y-12346D02*
X14602Y-12346D01*
X15051Y-12346D02*
X15195Y-12346D01*
X15910Y-12346D02*
X16807Y-12346D01*
X17255Y-12346D02*
X17355Y-12346D01*
X17804Y-12346D02*
X17949Y-12346D01*
X18662Y-12346D02*
X19564Y-12346D01*
X20012Y-12346D02*
X20112Y-12346D01*
X20561Y-12346D02*
X20705Y-12346D01*
X21420Y-12346D02*
X23472Y-12346D01*
X24175Y-12346D02*
X24195Y-12346D01*
X25127Y-12346D02*
X26472Y-12346D01*
X27175Y-12346D02*
X27892Y-12346D01*
X29052Y-12346D02*
X29745Y-12346D01*
X10610Y-12426D02*
X11270Y-12426D01*
X11744Y-12426D02*
X11844Y-12426D01*
X12318Y-12426D02*
X12359Y-12426D01*
X13230Y-12426D02*
X14028Y-12426D01*
X14502Y-12426D02*
X14602Y-12426D01*
X15076Y-12426D02*
X15115Y-12426D01*
X15990Y-12426D02*
X16781Y-12426D01*
X17255Y-12426D02*
X17355Y-12426D01*
X17829Y-12426D02*
X17869Y-12426D01*
X18742Y-12426D02*
X19538Y-12426D01*
X20012Y-12426D02*
X20112Y-12426D01*
X20586Y-12426D02*
X20625Y-12426D01*
X21500Y-12426D02*
X23588Y-12426D01*
X24058Y-12426D02*
X24115Y-12426D01*
X25047Y-12426D02*
X26588Y-12426D01*
X27058Y-12426D02*
X27892Y-12426D01*
X29052Y-12426D02*
X29745Y-12426D01*
X10610Y-12506D02*
X11270Y-12506D01*
X11744Y-12506D02*
X11844Y-12506D01*
X12318Y-12506D02*
X12320Y-12506D01*
X13269Y-12506D02*
X14028Y-12506D01*
X14502Y-12506D02*
X14602Y-12506D01*
X15076Y-12506D02*
X15077Y-12506D01*
X16027Y-12506D02*
X16781Y-12506D01*
X17255Y-12506D02*
X17355Y-12506D01*
X17829Y-12506D02*
X17830Y-12506D01*
X18780Y-12506D02*
X19538Y-12506D01*
X20012Y-12506D02*
X20112Y-12506D01*
X20586Y-12506D02*
X20587Y-12506D01*
X21537Y-12506D02*
X24035Y-12506D01*
X24967Y-12506D02*
X27840Y-12506D01*
X29031Y-12506D02*
X29745Y-12506D01*
X10610Y-12586D02*
X11270Y-12586D01*
X11744Y-12586D02*
X11844Y-12586D01*
X13302Y-12586D02*
X14028Y-12586D01*
X14502Y-12586D02*
X14602Y-12586D01*
X16061Y-12586D02*
X16781Y-12586D01*
X17255Y-12586D02*
X17355Y-12586D01*
X18813Y-12586D02*
X19538Y-12586D01*
X20012Y-12586D02*
X20112Y-12586D01*
X21571Y-12586D02*
X23955Y-12586D01*
X24887Y-12586D02*
X27760Y-12586D01*
X28998Y-12586D02*
X29745Y-12586D01*
X10610Y-12666D02*
X11314Y-12666D01*
X11744Y-12666D02*
X11844Y-12666D01*
X13319Y-12666D02*
X14074Y-12666D01*
X14502Y-12666D02*
X14602Y-12666D01*
X16077Y-12666D02*
X16826Y-12666D01*
X17255Y-12666D02*
X17355Y-12666D01*
X18830Y-12666D02*
X19584Y-12666D01*
X20012Y-12666D02*
X20112Y-12666D01*
X21587Y-12666D02*
X23875Y-12666D01*
X24807Y-12666D02*
X27680Y-12666D01*
X28964Y-12666D02*
X29745Y-12666D01*
X10610Y-12746D02*
X11844Y-12746D01*
X13319Y-12746D02*
X14602Y-12746D01*
X16077Y-12746D02*
X17355Y-12746D01*
X18830Y-12746D02*
X20112Y-12746D01*
X21587Y-12746D02*
X23795Y-12746D01*
X24727Y-12746D02*
X26143Y-12746D01*
X28887Y-12746D02*
X29745Y-12746D01*
X10610Y-12826D02*
X11288Y-12826D01*
X11744Y-12826D02*
X11844Y-12826D01*
X13354Y-12826D02*
X14044Y-12826D01*
X16077Y-12826D02*
X16798Y-12826D01*
X18830Y-12826D02*
X19554Y-12826D01*
X21587Y-12826D02*
X23716Y-12826D01*
X24647Y-12826D02*
X26037Y-12826D01*
X28807Y-12826D02*
X29745Y-12826D01*
X10610Y-12906D02*
X11269Y-12906D01*
X11744Y-12906D02*
X11844Y-12906D01*
X13434Y-12906D02*
X14027Y-12906D01*
X16047Y-12906D02*
X16780Y-12906D01*
X18801Y-12906D02*
X19537Y-12906D01*
X21557Y-12906D02*
X23636Y-12906D01*
X24567Y-12906D02*
X25957Y-12906D01*
X28623Y-12906D02*
X29745Y-12906D01*
X10610Y-12986D02*
X11270Y-12986D01*
X11744Y-12986D02*
X11844Y-12986D01*
X12318Y-12986D02*
X12330Y-12986D01*
X13509Y-12986D02*
X13736Y-12986D01*
X21524Y-12986D02*
X23556Y-12986D01*
X24487Y-12986D02*
X25877Y-12986D01*
X28293Y-12986D02*
X29745Y-12986D01*
X10610Y-13066D02*
X11273Y-13066D01*
X11744Y-13066D02*
X11844Y-13066D01*
X12314Y-13066D02*
X12384Y-13066D01*
X13562Y-13066D02*
X13632Y-13066D01*
X21469Y-13066D02*
X23476Y-13066D01*
X24407Y-13066D02*
X25797Y-13066D01*
X28213Y-13066D02*
X29745Y-13066D01*
X10610Y-13146D02*
X11306Y-13146D01*
X11744Y-13146D02*
X11844Y-13146D01*
X12281Y-13146D02*
X12464Y-13146D01*
X21389Y-13146D02*
X23396Y-13146D01*
X24327Y-13146D02*
X25717Y-13146D01*
X28133Y-13146D02*
X28309Y-13146D01*
X28641Y-13146D02*
X29745Y-13146D01*
X10610Y-13226D02*
X11394Y-13226D01*
X11714Y-13226D02*
X11874Y-13226D01*
X12193Y-13226D02*
X12611Y-13226D01*
X21238Y-13226D02*
X23316Y-13226D01*
X24247Y-13226D02*
X25637Y-13226D01*
X28053Y-13226D02*
X28133Y-13226D01*
X28815Y-13226D02*
X29745Y-13226D01*
X10610Y-13306D02*
X12900Y-13306D01*
X20953Y-13306D02*
X23236Y-13306D01*
X24167Y-13306D02*
X25557Y-13306D01*
X27953Y-13306D02*
X28053Y-13306D01*
X28895Y-13306D02*
X29745Y-13306D01*
X10610Y-13386D02*
X12936Y-13386D01*
X20873Y-13386D02*
X23156Y-13386D01*
X24087Y-13386D02*
X25477Y-13386D01*
X26410Y-13386D02*
X27979Y-13386D01*
X28970Y-13386D02*
X29745Y-13386D01*
X10610Y-13466D02*
X12936Y-13466D01*
X20793Y-13466D02*
X23076Y-13466D01*
X24007Y-13466D02*
X25397Y-13466D01*
X26330Y-13466D02*
X27946Y-13466D01*
X29003Y-13466D02*
X29745Y-13466D01*
X10610Y-13546D02*
X12936Y-13546D01*
X20691Y-13546D02*
X22996Y-13546D01*
X23927Y-13546D02*
X25317Y-13546D01*
X26250Y-13546D02*
X27912Y-13546D01*
X29036Y-13546D02*
X29745Y-13546D01*
X10610Y-13626D02*
X12936Y-13626D01*
X14005Y-13626D02*
X22916Y-13626D01*
X23847Y-13626D02*
X25237Y-13626D01*
X26170Y-13626D02*
X27894Y-13626D01*
X29054Y-13626D02*
X29745Y-13626D01*
X10610Y-13706D02*
X12936Y-13706D01*
X13925Y-13706D02*
X22836Y-13706D01*
X23767Y-13706D02*
X25157Y-13706D01*
X26090Y-13706D02*
X27894Y-13706D01*
X29054Y-13706D02*
X29745Y-13706D01*
X10610Y-13786D02*
X12936Y-13786D01*
X13845Y-13786D02*
X22756Y-13786D01*
X23687Y-13786D02*
X25077Y-13786D01*
X26010Y-13786D02*
X27894Y-13786D01*
X29054Y-13786D02*
X29745Y-13786D01*
X10610Y-13866D02*
X12936Y-13866D01*
X13765Y-13866D02*
X22676Y-13866D01*
X24107Y-13866D02*
X24997Y-13866D01*
X25930Y-13866D02*
X26545Y-13866D01*
X27107Y-13866D02*
X27913Y-13866D01*
X29035Y-13866D02*
X29745Y-13866D01*
X10610Y-13946D02*
X12936Y-13946D01*
X13685Y-13946D02*
X22596Y-13946D01*
X24196Y-13946D02*
X24917Y-13946D01*
X25850Y-13946D02*
X26455Y-13946D01*
X27196Y-13946D02*
X27946Y-13946D01*
X29001Y-13946D02*
X29745Y-13946D01*
X10610Y-14026D02*
X12936Y-14026D01*
X13605Y-14026D02*
X22519Y-14026D01*
X24273Y-14026D02*
X24837Y-14026D01*
X25770Y-14026D02*
X26378Y-14026D01*
X27273Y-14026D02*
X27979Y-14026D01*
X28968Y-14026D02*
X29745Y-14026D01*
X10610Y-14106D02*
X12936Y-14106D01*
X13596Y-14106D02*
X18003Y-14106D01*
X18092Y-14106D02*
X22464Y-14106D01*
X24306Y-14106D02*
X24757Y-14106D01*
X25690Y-14106D02*
X26345Y-14106D01*
X27306Y-14106D02*
X28055Y-14106D01*
X28893Y-14106D02*
X29745Y-14106D01*
X10610Y-14186D02*
X12936Y-14186D01*
X13596Y-14186D02*
X17717Y-14186D01*
X18286Y-14186D02*
X22439Y-14186D01*
X24339Y-14186D02*
X24677Y-14186D01*
X25610Y-14186D02*
X26312Y-14186D01*
X27339Y-14186D02*
X28135Y-14186D01*
X28813Y-14186D02*
X29745Y-14186D01*
X10610Y-14266D02*
X12936Y-14266D01*
X13596Y-14266D02*
X17694Y-14266D01*
X18309Y-14266D02*
X19863Y-14266D01*
X20261Y-14266D02*
X20878Y-14266D01*
X21231Y-14266D02*
X22426Y-14266D01*
X24350Y-14266D02*
X24597Y-14266D01*
X25530Y-14266D02*
X26300Y-14266D01*
X27350Y-14266D02*
X28093Y-14266D01*
X28855Y-14266D02*
X29745Y-14266D01*
X10610Y-14346D02*
X12936Y-14346D01*
X13596Y-14346D02*
X17592Y-14346D01*
X17632Y-14346D02*
X17772Y-14346D01*
X18229Y-14346D02*
X18371Y-14346D01*
X18411Y-14346D02*
X19725Y-14346D01*
X20398Y-14346D02*
X20783Y-14346D01*
X21340Y-14346D02*
X22426Y-14346D01*
X24350Y-14346D02*
X24517Y-14346D01*
X25450Y-14346D02*
X26300Y-14346D01*
X27350Y-14346D02*
X28013Y-14346D01*
X28935Y-14346D02*
X29745Y-14346D01*
X10610Y-14426D02*
X12863Y-14426D01*
X13669Y-14426D02*
X17508Y-14426D01*
X17712Y-14426D02*
X17852Y-14426D01*
X18149Y-14426D02*
X18291Y-14426D01*
X18499Y-14426D02*
X19645Y-14426D01*
X20478Y-14426D02*
X20806Y-14426D01*
X21316Y-14426D02*
X22426Y-14426D01*
X24348Y-14426D02*
X24437Y-14426D01*
X25370Y-14426D02*
X26301Y-14426D01*
X27348Y-14426D02*
X27963Y-14426D01*
X28987Y-14426D02*
X29745Y-14426D01*
X10610Y-14506D02*
X12806Y-14506D01*
X13727Y-14506D02*
X17480Y-14506D01*
X17792Y-14506D02*
X17932Y-14506D01*
X18069Y-14506D02*
X18211Y-14506D01*
X18531Y-14506D02*
X19595Y-14506D01*
X20528Y-14506D02*
X20602Y-14506D01*
X20744Y-14506D02*
X20886Y-14506D01*
X21236Y-14506D02*
X21378Y-14506D01*
X21522Y-14506D02*
X22426Y-14506D01*
X24314Y-14506D02*
X24357Y-14506D01*
X25290Y-14506D02*
X26334Y-14506D01*
X27315Y-14506D02*
X27929Y-14506D01*
X29020Y-14506D02*
X29745Y-14506D01*
X10610Y-14586D02*
X12773Y-14586D01*
X13760Y-14586D02*
X17459Y-14586D01*
X17872Y-14586D02*
X18131Y-14586D01*
X18537Y-14586D02*
X19562Y-14586D01*
X20560Y-14586D02*
X20574Y-14586D01*
X20824Y-14586D02*
X20966Y-14586D01*
X21156Y-14586D02*
X21298Y-14586D01*
X21555Y-14586D02*
X22426Y-14586D01*
X25210Y-14586D02*
X26367Y-14586D01*
X27282Y-14586D02*
X27896Y-14586D01*
X29053Y-14586D02*
X29745Y-14586D01*
X10610Y-14666D02*
X12741Y-14666D01*
X13791Y-14666D02*
X17463Y-14666D01*
X17909Y-14666D02*
X18092Y-14666D01*
X18542Y-14666D02*
X19536Y-14666D01*
X20904Y-14666D02*
X21046Y-14666D01*
X21076Y-14666D02*
X21218Y-14666D01*
X21572Y-14666D02*
X22426Y-14666D01*
X25130Y-14666D02*
X26430Y-14666D01*
X27219Y-14666D02*
X27894Y-14666D01*
X29054Y-14666D02*
X29745Y-14666D01*
X10610Y-14746D02*
X12741Y-14746D01*
X13791Y-14746D02*
X17467Y-14746D01*
X17829Y-14746D02*
X17971Y-14746D01*
X18032Y-14746D02*
X18172Y-14746D01*
X18536Y-14746D02*
X19536Y-14746D01*
X20984Y-14746D02*
X21138Y-14746D01*
X21576Y-14746D02*
X22426Y-14746D01*
X25050Y-14746D02*
X26510Y-14746D01*
X27139Y-14746D02*
X27894Y-14746D01*
X29054Y-14746D02*
X29745Y-14746D01*
X10610Y-14826D02*
X12741Y-14826D01*
X13791Y-14826D02*
X17488Y-14826D01*
X17749Y-14826D02*
X17891Y-14826D01*
X18112Y-14826D02*
X18252Y-14826D01*
X18508Y-14826D02*
X19520Y-14826D01*
X20916Y-14826D02*
X21058Y-14826D01*
X21064Y-14826D02*
X21206Y-14826D01*
X21580Y-14826D02*
X22426Y-14826D01*
X24970Y-14826D02*
X26271Y-14826D01*
X29051Y-14826D02*
X29745Y-14826D01*
X10610Y-14906D02*
X12755Y-14906D01*
X13776Y-14906D02*
X17520Y-14906D01*
X17669Y-14906D02*
X17811Y-14906D01*
X18192Y-14906D02*
X18332Y-14906D01*
X18480Y-14906D02*
X19440Y-14906D01*
X20836Y-14906D02*
X20978Y-14906D01*
X21144Y-14906D02*
X21286Y-14906D01*
X21552Y-14906D02*
X22426Y-14906D01*
X24890Y-14906D02*
X26162Y-14906D01*
X29018Y-14906D02*
X29745Y-14906D01*
X10610Y-14986D02*
X12789Y-14986D01*
X13743Y-14986D02*
X17731Y-14986D01*
X18272Y-14986D02*
X19360Y-14986D01*
X20532Y-14986D02*
X20595Y-14986D01*
X20756Y-14986D02*
X20898Y-14986D01*
X21224Y-14986D02*
X21366Y-14986D01*
X21524Y-14986D02*
X22426Y-14986D01*
X24810Y-14986D02*
X26082Y-14986D01*
X28985Y-14986D02*
X29745Y-14986D01*
X10610Y-15066D02*
X12823Y-15066D01*
X13708Y-15066D02*
X17704Y-15066D01*
X18296Y-15066D02*
X19280Y-15066D01*
X20489Y-15066D02*
X20818Y-15066D01*
X21304Y-15066D02*
X22426Y-15066D01*
X24730Y-15066D02*
X26002Y-15066D01*
X28933Y-15066D02*
X29745Y-15066D01*
X10610Y-15146D02*
X12903Y-15146D01*
X13628Y-15146D02*
X14810Y-15146D01*
X15284Y-15146D02*
X15994Y-15146D01*
X16464Y-15146D02*
X17548Y-15146D01*
X18454Y-15146D02*
X19200Y-15146D01*
X20409Y-15146D02*
X20779Y-15146D01*
X21342Y-15146D02*
X22426Y-15146D01*
X24650Y-15146D02*
X25922Y-15146D01*
X28853Y-15146D02*
X29745Y-15146D01*
X10610Y-15226D02*
X13004Y-15226D01*
X13526Y-15226D02*
X14694Y-15226D01*
X15399Y-15226D02*
X15877Y-15226D01*
X16580Y-15226D02*
X17481Y-15226D01*
X18522Y-15226D02*
X19120Y-15226D01*
X20288Y-15226D02*
X20857Y-15226D01*
X21274Y-15226D02*
X22426Y-15226D01*
X24570Y-15226D02*
X25842Y-15226D01*
X28731Y-15226D02*
X29745Y-15226D01*
X10610Y-15306D02*
X11824Y-15306D01*
X12708Y-15306D02*
X13005Y-15306D01*
X15479Y-15306D02*
X15797Y-15306D01*
X16660Y-15306D02*
X17452Y-15306D01*
X18550Y-15306D02*
X19040Y-15306D01*
X19973Y-15306D02*
X22426Y-15306D01*
X24490Y-15306D02*
X25762Y-15306D01*
X28339Y-15306D02*
X29745Y-15306D01*
X10610Y-15386D02*
X11765Y-15386D01*
X12767Y-15386D02*
X12904Y-15386D01*
X15519Y-15386D02*
X15756Y-15386D01*
X19893Y-15386D02*
X22426Y-15386D01*
X24410Y-15386D02*
X25682Y-15386D01*
X28242Y-15386D02*
X29745Y-15386D01*
X10610Y-15466D02*
X11742Y-15466D01*
X12790Y-15466D02*
X12824Y-15466D01*
X15552Y-15466D02*
X15723Y-15466D01*
X19813Y-15466D02*
X22426Y-15466D01*
X24330Y-15466D02*
X25602Y-15466D01*
X26535Y-15466D02*
X29745Y-15466D01*
X10610Y-15546D02*
X11742Y-15546D01*
X15571Y-15546D02*
X15703Y-15546D01*
X19733Y-15546D02*
X22426Y-15546D01*
X24250Y-15546D02*
X25522Y-15546D01*
X26455Y-15546D02*
X28210Y-15546D01*
X28740Y-15546D02*
X29745Y-15546D01*
X10610Y-15626D02*
X11742Y-15626D01*
X15571Y-15626D02*
X15680Y-15626D01*
X19653Y-15626D02*
X22426Y-15626D01*
X24170Y-15626D02*
X25442Y-15626D01*
X26375Y-15626D02*
X28093Y-15626D01*
X28857Y-15626D02*
X29745Y-15626D01*
X10610Y-15706D02*
X11742Y-15706D01*
X15571Y-15706D02*
X15600Y-15706D01*
X19573Y-15706D02*
X22426Y-15706D01*
X24090Y-15706D02*
X25362Y-15706D01*
X26295Y-15706D02*
X28013Y-15706D01*
X28937Y-15706D02*
X29745Y-15706D01*
X10610Y-15786D02*
X11742Y-15786D01*
X19493Y-15786D02*
X22426Y-15786D01*
X24010Y-15786D02*
X25282Y-15786D01*
X26215Y-15786D02*
X27963Y-15786D01*
X28988Y-15786D02*
X29745Y-15786D01*
X10610Y-15866D02*
X11742Y-15866D01*
X19413Y-15866D02*
X22426Y-15866D01*
X23930Y-15866D02*
X25202Y-15866D01*
X26135Y-15866D02*
X27930Y-15866D01*
X29021Y-15866D02*
X29745Y-15866D01*
X10610Y-15946D02*
X11742Y-15946D01*
X19390Y-15946D02*
X22426Y-15946D01*
X23850Y-15946D02*
X25122Y-15946D01*
X26055Y-15946D02*
X27896Y-15946D01*
X29054Y-15946D02*
X29745Y-15946D01*
X10610Y-16026D02*
X11742Y-16026D01*
X16561Y-16026D02*
X17465Y-16026D01*
X18537Y-16026D02*
X18730Y-16026D01*
X19390Y-16026D02*
X22426Y-16026D01*
X23770Y-16026D02*
X25042Y-16026D01*
X25975Y-16026D02*
X27895Y-16026D01*
X29055Y-16026D02*
X29745Y-16026D01*
X10610Y-16106D02*
X11748Y-16106D01*
X16418Y-16106D02*
X17510Y-16106D01*
X18492Y-16106D02*
X18730Y-16106D01*
X19390Y-16106D02*
X22426Y-16106D01*
X23690Y-16106D02*
X24962Y-16106D01*
X25895Y-16106D02*
X27895Y-16106D01*
X29055Y-16106D02*
X29745Y-16106D01*
X10610Y-16186D02*
X11784Y-16186D01*
X16051Y-16186D02*
X17631Y-16186D01*
X18369Y-16186D02*
X18730Y-16186D01*
X19390Y-16186D02*
X22426Y-16186D01*
X23610Y-16186D02*
X23650Y-16186D01*
X24004Y-16186D02*
X24882Y-16186D01*
X25815Y-16186D02*
X26650Y-16186D01*
X27004Y-16186D02*
X27897Y-16186D01*
X29052Y-16186D02*
X29745Y-16186D01*
X10610Y-16266D02*
X11883Y-16266D01*
X15971Y-16266D02*
X18730Y-16266D01*
X19390Y-16266D02*
X22426Y-16266D01*
X24154Y-16266D02*
X24802Y-16266D01*
X25735Y-16266D02*
X26499Y-16266D01*
X27154Y-16266D02*
X27930Y-16266D01*
X29019Y-16266D02*
X29745Y-16266D01*
X10610Y-16346D02*
X12379Y-16346D01*
X15891Y-16346D02*
X18730Y-16346D01*
X19390Y-16346D02*
X22426Y-16346D01*
X24234Y-16346D02*
X24722Y-16346D01*
X25655Y-16346D02*
X26419Y-16346D01*
X27234Y-16346D02*
X27963Y-16346D01*
X28985Y-16346D02*
X29745Y-16346D01*
X10610Y-16426D02*
X12459Y-16426D01*
X15811Y-16426D02*
X18607Y-16426D01*
X19513Y-16426D02*
X21793Y-16426D01*
X22328Y-16426D02*
X22426Y-16426D01*
X24289Y-16426D02*
X24642Y-16426D01*
X25575Y-16426D02*
X26364Y-16426D01*
X27289Y-16426D02*
X28017Y-16426D01*
X28933Y-16426D02*
X29745Y-16426D01*
X10610Y-16506D02*
X12539Y-16506D01*
X15731Y-16506D02*
X18555Y-16506D01*
X19566Y-16506D02*
X21773Y-16506D01*
X22348Y-16506D02*
X22358Y-16506D01*
X22376Y-16506D02*
X22426Y-16506D01*
X24322Y-16506D02*
X24562Y-16506D01*
X25495Y-16506D02*
X26331Y-16506D01*
X27322Y-16506D02*
X28097Y-16506D01*
X28853Y-16506D02*
X29745Y-16506D01*
X10610Y-16586D02*
X12625Y-16586D01*
X15645Y-16586D02*
X18536Y-16586D01*
X19584Y-16586D02*
X21696Y-16586D01*
X21700Y-16586D02*
X21842Y-16586D01*
X24351Y-16586D02*
X24482Y-16586D01*
X25415Y-16586D02*
X26301Y-16586D01*
X27351Y-16586D02*
X28133Y-16586D01*
X28817Y-16586D02*
X29745Y-16586D01*
X10610Y-16666D02*
X12824Y-16666D01*
X15448Y-16666D02*
X18536Y-16666D01*
X19584Y-16666D02*
X21588Y-16666D01*
X21780Y-16666D02*
X21922Y-16666D01*
X24351Y-16666D02*
X24402Y-16666D01*
X25335Y-16666D02*
X26301Y-16666D01*
X27351Y-16666D02*
X28053Y-16666D01*
X28897Y-16666D02*
X29745Y-16666D01*
X10610Y-16746D02*
X18536Y-16746D01*
X19584Y-16746D02*
X21561Y-16746D01*
X21860Y-16746D02*
X22002Y-16746D01*
X25255Y-16746D02*
X26301Y-16746D01*
X27351Y-16746D02*
X27980Y-16746D01*
X28972Y-16746D02*
X29745Y-16746D01*
X10610Y-16826D02*
X17482Y-16826D01*
X18424Y-16826D02*
X18536Y-16826D01*
X19584Y-16826D02*
X21542Y-16826D01*
X21940Y-16826D02*
X22082Y-16826D01*
X25175Y-16826D02*
X26317Y-16826D01*
X27334Y-16826D02*
X27946Y-16826D01*
X29005Y-16826D02*
X29745Y-16826D01*
X10610Y-16906D02*
X17426Y-16906D01*
X18481Y-16906D02*
X18536Y-16906D01*
X19584Y-16906D02*
X21546Y-16906D01*
X21958Y-16906D02*
X22100Y-16906D01*
X25095Y-16906D02*
X26351Y-16906D01*
X27301Y-16906D02*
X27913Y-16906D01*
X29038Y-16906D02*
X29745Y-16906D01*
X10610Y-16986D02*
X17404Y-16986D01*
X19584Y-16986D02*
X21550Y-16986D01*
X21878Y-16986D02*
X22020Y-16986D01*
X25015Y-16986D02*
X26388Y-16986D01*
X27263Y-16986D02*
X27895Y-16986D01*
X29055Y-16986D02*
X29745Y-16986D01*
X10610Y-17066D02*
X17404Y-17066D01*
X19584Y-17066D02*
X21576Y-17066D01*
X21798Y-17066D02*
X21940Y-17066D01*
X24935Y-17066D02*
X26468Y-17066D01*
X27183Y-17066D02*
X27895Y-17066D01*
X29055Y-17066D02*
X29745Y-17066D01*
X10610Y-17146D02*
X11777Y-17146D01*
X12014Y-17146D02*
X17404Y-17146D01*
X19584Y-17146D02*
X21623Y-17146D01*
X21718Y-17146D02*
X21860Y-17146D01*
X24855Y-17146D02*
X26576Y-17146D01*
X27074Y-17146D02*
X27895Y-17146D01*
X29055Y-17146D02*
X29745Y-17146D01*
X10610Y-17226D02*
X11584Y-17226D01*
X12206Y-17226D02*
X17404Y-17226D01*
X19573Y-17226D02*
X21780Y-17226D01*
X24775Y-17226D02*
X27846Y-17226D01*
X29035Y-17226D02*
X29745Y-17226D01*
X10610Y-17306D02*
X11504Y-17306D01*
X12286Y-17306D02*
X17404Y-17306D01*
X19531Y-17306D02*
X21787Y-17306D01*
X24695Y-17306D02*
X27766Y-17306D01*
X29002Y-17306D02*
X29745Y-17306D01*
X10610Y-17386D02*
X11428Y-17386D01*
X12363Y-17386D02*
X17404Y-17386D01*
X19415Y-17386D02*
X21869Y-17386D01*
X28968Y-17386D02*
X29745Y-17386D01*
X10610Y-17466D02*
X11395Y-17466D01*
X12396Y-17466D02*
X17404Y-17466D01*
X19394Y-17466D02*
X21727Y-17466D01*
X28893Y-17466D02*
X29745Y-17466D01*
X10610Y-17546D02*
X11361Y-17546D01*
X12430Y-17546D02*
X17404Y-17546D01*
X19474Y-17546D02*
X21646Y-17546D01*
X28813Y-17546D02*
X29745Y-17546D01*
X10610Y-17626D02*
X11346Y-17626D01*
X12444Y-17626D02*
X17404Y-17626D01*
X19525Y-17626D02*
X21595Y-17626D01*
X28633Y-17626D02*
X29745Y-17626D01*
X10610Y-17706D02*
X11346Y-17706D01*
X12444Y-17706D02*
X17424Y-17706D01*
X19559Y-17706D02*
X21562Y-17706D01*
X28299Y-17706D02*
X29745Y-17706D01*
X10610Y-17786D02*
X11346Y-17786D01*
X12456Y-17786D02*
X17480Y-17786D01*
X18426Y-17786D02*
X18504Y-17786D01*
X19585Y-17786D02*
X21535Y-17786D01*
X28219Y-17786D02*
X29745Y-17786D01*
X10610Y-17866D02*
X11373Y-17866D01*
X12536Y-17866D02*
X17663Y-17866D01*
X18243Y-17866D02*
X18535Y-17866D01*
X19585Y-17866D02*
X21535Y-17866D01*
X28139Y-17866D02*
X28316Y-17866D01*
X28634Y-17866D02*
X29745Y-17866D01*
X10610Y-17946D02*
X11406Y-17946D01*
X12616Y-17946D02*
X17662Y-17946D01*
X18243Y-17946D02*
X18535Y-17946D01*
X19585Y-17946D02*
X21535Y-17946D01*
X28012Y-17946D02*
X28136Y-17946D01*
X28812Y-17946D02*
X29745Y-17946D01*
X10610Y-18026D02*
X11454Y-18026D01*
X12696Y-18026D02*
X17481Y-18026D01*
X17602Y-18026D02*
X17742Y-18026D01*
X18163Y-18026D02*
X18305Y-18026D01*
X18425Y-18026D02*
X18554Y-18026D01*
X19565Y-18026D02*
X21554Y-18026D01*
X24447Y-18026D02*
X28056Y-18026D01*
X28892Y-18026D02*
X29745Y-18026D01*
X10610Y-18106D02*
X11534Y-18106D01*
X12776Y-18106D02*
X14906Y-18106D01*
X15188Y-18106D02*
X16091Y-18106D01*
X16367Y-18106D02*
X17453Y-18106D01*
X17682Y-18106D02*
X17822Y-18106D01*
X18083Y-18106D02*
X18225Y-18106D01*
X18458Y-18106D02*
X18587Y-18106D01*
X19532Y-18106D02*
X21587Y-18106D01*
X24367Y-18106D02*
X27981Y-18106D01*
X28969Y-18106D02*
X29745Y-18106D01*
X10610Y-18186D02*
X11656Y-18186D01*
X12856Y-18186D02*
X14734Y-18186D01*
X15359Y-18186D02*
X15917Y-18186D01*
X16540Y-18186D02*
X17425Y-18186D01*
X17762Y-18186D02*
X17902Y-18186D01*
X18003Y-18186D02*
X18145Y-18186D01*
X18486Y-18186D02*
X18628Y-18186D01*
X19491Y-18186D02*
X21628Y-18186D01*
X24287Y-18186D02*
X27947Y-18186D01*
X29002Y-18186D02*
X29745Y-18186D01*
X10610Y-18266D02*
X11544Y-18266D01*
X12936Y-18266D02*
X14654Y-18266D01*
X15439Y-18266D02*
X15837Y-18266D01*
X16620Y-18266D02*
X17411Y-18266D01*
X17842Y-18266D02*
X18065Y-18266D01*
X18490Y-18266D02*
X18708Y-18266D01*
X19411Y-18266D02*
X21708Y-18266D01*
X24207Y-18266D02*
X27914Y-18266D01*
X29035Y-18266D02*
X29745Y-18266D01*
X10610Y-18346D02*
X11464Y-18346D01*
X15503Y-18346D02*
X15772Y-18346D01*
X16684Y-18346D02*
X17416Y-18346D01*
X17843Y-18346D02*
X18062Y-18346D01*
X18494Y-18346D02*
X18824Y-18346D01*
X19292Y-18346D02*
X21824Y-18346D01*
X24127Y-18346D02*
X27894Y-18346D01*
X29054Y-18346D02*
X29745Y-18346D01*
X10610Y-18426D02*
X11411Y-18426D01*
X15536Y-18426D02*
X15739Y-18426D01*
X16717Y-18426D02*
X17420Y-18426D01*
X17763Y-18426D02*
X17905Y-18426D01*
X18002Y-18426D02*
X18142Y-18426D01*
X18481Y-18426D02*
X18773Y-18426D01*
X19349Y-18426D02*
X21773Y-18426D01*
X24047Y-18426D02*
X27894Y-18426D01*
X29054Y-18426D02*
X29745Y-18426D01*
X10610Y-18506D02*
X11378Y-18506D01*
X15569Y-18506D02*
X15706Y-18506D01*
X16751Y-18506D02*
X17447Y-18506D01*
X17683Y-18506D02*
X17825Y-18506D01*
X18082Y-18506D02*
X18222Y-18506D01*
X18453Y-18506D02*
X18687Y-18506D01*
X19434Y-18506D02*
X21687Y-18506D01*
X23967Y-18506D02*
X27894Y-18506D01*
X29054Y-18506D02*
X29745Y-18506D01*
X10610Y-18586D02*
X11346Y-18586D01*
X15571Y-18586D02*
X15703Y-18586D01*
X16753Y-18586D02*
X17480Y-18586D01*
X17603Y-18586D02*
X17745Y-18586D01*
X18162Y-18586D02*
X18302Y-18586D01*
X18425Y-18586D02*
X18612Y-18586D01*
X19509Y-18586D02*
X21612Y-18586D01*
X24097Y-18586D02*
X26555Y-18586D01*
X27097Y-18586D02*
X27911Y-18586D01*
X29036Y-18586D02*
X29745Y-18586D01*
X10610Y-18666D02*
X11346Y-18666D01*
X15571Y-18666D02*
X15703Y-18666D01*
X16753Y-18666D02*
X17665Y-18666D01*
X18242Y-18666D02*
X18579Y-18666D01*
X19542Y-18666D02*
X21579Y-18666D01*
X24192Y-18666D02*
X26459Y-18666D01*
X27192Y-18666D02*
X27944Y-18666D01*
X29003Y-18666D02*
X29745Y-18666D01*
X10610Y-18746D02*
X11346Y-18746D01*
X15560Y-18746D02*
X15633Y-18746D01*
X16743Y-18746D02*
X17662Y-18746D01*
X18243Y-18746D02*
X18545Y-18746D01*
X19575Y-18746D02*
X21545Y-18746D01*
X24271Y-18746D02*
X26380Y-18746D01*
X27271Y-18746D02*
X27977Y-18746D01*
X28969Y-18746D02*
X29745Y-18746D01*
X10610Y-18826D02*
X11356Y-18826D01*
X15526Y-18826D02*
X15552Y-18826D01*
X16709Y-18826D02*
X17680Y-18826D01*
X18226Y-18826D02*
X18535Y-18826D01*
X19585Y-18826D02*
X21535Y-18826D01*
X24304Y-18826D02*
X26347Y-18826D01*
X27304Y-18826D02*
X28052Y-18826D01*
X28896Y-18826D02*
X29745Y-18826D01*
X10610Y-18906D02*
X11390Y-18906D01*
X16676Y-18906D02*
X17578Y-18906D01*
X18328Y-18906D02*
X18535Y-18906D01*
X19585Y-18906D02*
X21535Y-18906D01*
X24337Y-18906D02*
X26313Y-18906D01*
X27337Y-18906D02*
X28132Y-18906D01*
X28816Y-18906D02*
X29745Y-18906D01*
X10610Y-18986D02*
X11423Y-18986D01*
X16601Y-18986D02*
X17498Y-18986D01*
X19582Y-18986D02*
X21537Y-18986D01*
X24350Y-18986D02*
X26300Y-18986D01*
X27350Y-18986D02*
X28096Y-18986D01*
X28852Y-18986D02*
X29745Y-18986D01*
X10610Y-19066D02*
X11494Y-19066D01*
X16558Y-19066D02*
X17459Y-19066D01*
X19549Y-19066D02*
X21571Y-19066D01*
X24350Y-19066D02*
X26300Y-19066D01*
X27350Y-19066D02*
X28016Y-19066D01*
X28932Y-19066D02*
X29745Y-19066D01*
X10610Y-19146D02*
X11537Y-19146D01*
X16558Y-19146D02*
X17426Y-19146D01*
X19516Y-19146D02*
X21604Y-19146D01*
X24350Y-19146D02*
X26300Y-19146D01*
X27350Y-19146D02*
X27964Y-19146D01*
X28986Y-19146D02*
X29745Y-19146D01*
X10610Y-19226D02*
X11408Y-19226D01*
X16558Y-19226D02*
X17404Y-19226D01*
X19451Y-19226D02*
X21668Y-19226D01*
X24317Y-19226D02*
X26333Y-19226D01*
X27317Y-19226D02*
X27930Y-19226D01*
X29019Y-19226D02*
X29745Y-19226D01*
X10610Y-19306D02*
X11361Y-19306D01*
X16558Y-19306D02*
X17404Y-19306D01*
X19371Y-19306D02*
X21748Y-19306D01*
X24284Y-19306D02*
X26366Y-19306D01*
X27284Y-19306D02*
X27897Y-19306D01*
X29052Y-19306D02*
X29745Y-19306D01*
X10610Y-19386D02*
X11346Y-19386D01*
X12444Y-19386D02*
X14313Y-19386D01*
X16558Y-19386D02*
X17404Y-19386D01*
X19253Y-19386D02*
X21869Y-19386D01*
X24223Y-19386D02*
X26426Y-19386D01*
X27223Y-19386D02*
X27894Y-19386D01*
X29054Y-19386D02*
X29745Y-19386D01*
X10610Y-19466D02*
X11346Y-19466D01*
X12444Y-19466D02*
X14403Y-19466D01*
X15835Y-19466D02*
X15898Y-19466D01*
X16625Y-19466D02*
X17424Y-19466D01*
X19394Y-19466D02*
X21727Y-19466D01*
X24143Y-19466D02*
X26506Y-19466D01*
X27143Y-19466D02*
X27894Y-19466D01*
X29054Y-19466D02*
X29745Y-19466D01*
X10610Y-19546D02*
X11346Y-19546D01*
X12444Y-19546D02*
X15900Y-19546D01*
X16705Y-19546D02*
X17458Y-19546D01*
X19474Y-19546D02*
X21647Y-19546D01*
X23515Y-19546D02*
X23669Y-19546D01*
X23979Y-19546D02*
X26669Y-19546D01*
X26979Y-19546D02*
X27890Y-19546D01*
X29053Y-19546D02*
X29745Y-19546D01*
X10610Y-19626D02*
X11346Y-19626D01*
X12444Y-19626D02*
X15915Y-19626D01*
X16785Y-19626D02*
X17496Y-19626D01*
X19525Y-19626D02*
X21595Y-19626D01*
X23499Y-19626D02*
X27810Y-19626D01*
X29019Y-19626D02*
X29745Y-19626D01*
X10610Y-19706D02*
X11346Y-19706D01*
X12444Y-19706D02*
X15952Y-19706D01*
X16865Y-19706D02*
X17576Y-19706D01*
X18330Y-19706D02*
X18562Y-19706D01*
X19559Y-19706D02*
X21562Y-19706D01*
X23458Y-19706D02*
X27730Y-19706D01*
X28986Y-19706D02*
X29745Y-19706D01*
X10610Y-19786D02*
X11346Y-19786D01*
X12444Y-19786D02*
X16013Y-19786D01*
X16945Y-19786D02*
X17675Y-19786D01*
X18230Y-19786D02*
X18535Y-19786D01*
X19585Y-19786D02*
X21535Y-19786D01*
X23397Y-19786D02*
X27650Y-19786D01*
X28936Y-19786D02*
X29745Y-19786D01*
X10610Y-19866D02*
X11346Y-19866D01*
X12444Y-19866D02*
X16093Y-19866D01*
X17025Y-19866D02*
X18535Y-19866D01*
X19585Y-19866D02*
X21535Y-19866D01*
X23317Y-19866D02*
X27570Y-19866D01*
X28856Y-19866D02*
X29745Y-19866D01*
X10610Y-19946D02*
X11346Y-19946D01*
X12444Y-19946D02*
X16173Y-19946D01*
X17105Y-19946D02*
X18535Y-19946D01*
X19585Y-19946D02*
X21535Y-19946D01*
X23237Y-19946D02*
X27490Y-19946D01*
X28739Y-19946D02*
X29745Y-19946D01*
X10610Y-20026D02*
X11346Y-20026D01*
X12444Y-20026D02*
X16253Y-20026D01*
X17185Y-20026D02*
X18554Y-20026D01*
X19565Y-20026D02*
X21554Y-20026D01*
X23157Y-20026D02*
X27410Y-20026D01*
X28342Y-20026D02*
X29745Y-20026D01*
X10610Y-20106D02*
X11373Y-20106D01*
X12416Y-20106D02*
X16333Y-20106D01*
X17265Y-20106D02*
X18587Y-20106D01*
X19532Y-20106D02*
X21587Y-20106D01*
X23077Y-20106D02*
X23706Y-20106D01*
X28262Y-20106D02*
X29745Y-20106D01*
X10610Y-20186D02*
X11438Y-20186D01*
X12352Y-20186D02*
X16413Y-20186D01*
X17345Y-20186D02*
X18628Y-20186D01*
X19491Y-20186D02*
X21628Y-20186D01*
X22997Y-20186D02*
X23599Y-20186D01*
X28182Y-20186D02*
X29745Y-20186D01*
X10610Y-20266D02*
X11460Y-20266D01*
X12195Y-20266D02*
X16493Y-20266D01*
X17425Y-20266D02*
X18708Y-20266D01*
X19411Y-20266D02*
X21708Y-20266D01*
X22916Y-20266D02*
X23519Y-20266D01*
X28102Y-20266D02*
X28225Y-20266D01*
X28721Y-20266D02*
X29745Y-20266D01*
X10610Y-20346D02*
X11460Y-20346D01*
X12142Y-20346D02*
X16573Y-20346D01*
X17505Y-20346D02*
X18824Y-20346D01*
X19292Y-20346D02*
X21825Y-20346D01*
X22836Y-20346D02*
X23439Y-20346D01*
X28022Y-20346D02*
X28098Y-20346D01*
X28848Y-20346D02*
X29745Y-20346D01*
X10610Y-20426D02*
X11460Y-20426D01*
X12120Y-20426D02*
X16653Y-20426D01*
X17585Y-20426D02*
X18773Y-20426D01*
X19349Y-20426D02*
X21773Y-20426D01*
X22756Y-20426D02*
X23359Y-20426D01*
X27942Y-20426D02*
X28018Y-20426D01*
X28928Y-20426D02*
X29745Y-20426D01*
X10610Y-20506D02*
X11460Y-20506D01*
X12120Y-20506D02*
X16733Y-20506D01*
X17665Y-20506D02*
X18687Y-20506D01*
X19434Y-20506D02*
X21687Y-20506D01*
X22676Y-20506D02*
X23279Y-20506D01*
X27862Y-20506D02*
X27964Y-20506D01*
X28983Y-20506D02*
X29745Y-20506D01*
X10610Y-20586D02*
X11460Y-20586D01*
X12120Y-20586D02*
X16813Y-20586D01*
X19509Y-20586D02*
X21612Y-20586D01*
X22596Y-20586D02*
X23199Y-20586D01*
X27782Y-20586D02*
X27931Y-20586D01*
X29016Y-20586D02*
X29745Y-20586D01*
X10610Y-20666D02*
X11460Y-20666D01*
X12120Y-20666D02*
X16893Y-20666D01*
X19542Y-20666D02*
X21579Y-20666D01*
X22542Y-20666D02*
X23119Y-20666D01*
X27683Y-20666D02*
X27897Y-20666D01*
X29049Y-20666D02*
X29745Y-20666D01*
X10610Y-20746D02*
X11460Y-20746D01*
X12120Y-20746D02*
X16973Y-20746D01*
X19575Y-20746D02*
X21545Y-20746D01*
X22575Y-20746D02*
X23039Y-20746D01*
X23972Y-20746D02*
X27893Y-20746D01*
X29053Y-20746D02*
X29745Y-20746D01*
X10610Y-20826D02*
X11367Y-20826D01*
X12120Y-20826D02*
X12966Y-20826D01*
X13347Y-20826D02*
X13966Y-20826D01*
X14347Y-20826D02*
X14966Y-20826D01*
X15347Y-20826D02*
X15981Y-20826D01*
X16315Y-20826D02*
X17053Y-20826D01*
X19585Y-20826D02*
X21535Y-20826D01*
X22585Y-20826D02*
X22959Y-20826D01*
X23892Y-20826D02*
X27893Y-20826D01*
X29053Y-20826D02*
X29745Y-20826D01*
X10610Y-20906D02*
X11190Y-20906D01*
X12120Y-20906D02*
X12815Y-20906D01*
X13497Y-20906D02*
X13815Y-20906D01*
X14497Y-20906D02*
X14815Y-20906D01*
X15497Y-20906D02*
X15865Y-20906D01*
X16448Y-20906D02*
X17133Y-20906D01*
X19585Y-20906D02*
X21535Y-20906D01*
X22585Y-20906D02*
X22879Y-20906D01*
X23989Y-20906D02*
X26659Y-20906D01*
X26989Y-20906D02*
X27893Y-20906D01*
X29053Y-20906D02*
X29745Y-20906D01*
X10610Y-20986D02*
X11110Y-20986D01*
X12120Y-20986D02*
X12735Y-20986D01*
X13577Y-20986D02*
X13735Y-20986D01*
X14577Y-20986D02*
X14735Y-20986D01*
X15577Y-20986D02*
X15871Y-20986D01*
X16440Y-20986D02*
X17213Y-20986D01*
X19582Y-20986D02*
X21537Y-20986D01*
X22582Y-20986D02*
X22799Y-20986D01*
X24146Y-20986D02*
X26501Y-20986D01*
X27146Y-20986D02*
X27926Y-20986D01*
X29019Y-20986D02*
X29745Y-20986D01*
X10610Y-21066D02*
X11044Y-21066D01*
X12120Y-21066D02*
X12677Y-21066D01*
X13636Y-21066D02*
X13676Y-21066D01*
X14636Y-21066D02*
X14676Y-21066D01*
X15636Y-21066D02*
X15682Y-21066D01*
X15811Y-21066D02*
X15951Y-21066D01*
X16360Y-21066D02*
X16502Y-21066D01*
X16631Y-21066D02*
X17293Y-21066D01*
X19549Y-21066D02*
X21571Y-21066D01*
X22549Y-21066D02*
X22719Y-21066D01*
X24226Y-21066D02*
X26421Y-21066D01*
X27226Y-21066D02*
X27959Y-21066D01*
X28986Y-21066D02*
X29745Y-21066D01*
X10610Y-21146D02*
X11011Y-21146D01*
X12120Y-21146D02*
X12643Y-21146D01*
X15891Y-21146D02*
X16031Y-21146D01*
X16280Y-21146D02*
X16422Y-21146D01*
X16664Y-21146D02*
X17390Y-21146D01*
X19516Y-21146D02*
X21604Y-21146D01*
X22516Y-21146D02*
X22639Y-21146D01*
X24284Y-21146D02*
X26363Y-21146D01*
X27284Y-21146D02*
X28008Y-21146D01*
X28938Y-21146D02*
X29745Y-21146D01*
X10610Y-21226D02*
X10978Y-21226D01*
X12144Y-21226D02*
X12610Y-21226D01*
X15971Y-21226D02*
X16111Y-21226D01*
X16200Y-21226D02*
X16342Y-21226D01*
X16689Y-21226D02*
X18668Y-21226D01*
X19451Y-21226D02*
X21668Y-21226D01*
X22451Y-21226D02*
X22559Y-21226D01*
X24317Y-21226D02*
X26330Y-21226D01*
X27317Y-21226D02*
X28088Y-21226D01*
X28858Y-21226D02*
X29745Y-21226D01*
X10610Y-21306D02*
X10974Y-21306D01*
X12224Y-21306D02*
X12607Y-21306D01*
X16051Y-21306D02*
X16262Y-21306D01*
X16694Y-21306D02*
X18748Y-21306D01*
X19371Y-21306D02*
X21748Y-21306D01*
X22371Y-21306D02*
X22479Y-21306D01*
X24348Y-21306D02*
X26298Y-21306D01*
X27348Y-21306D02*
X28138Y-21306D01*
X28808Y-21306D02*
X29745Y-21306D01*
X10610Y-21386D02*
X10974Y-21386D01*
X12304Y-21386D02*
X12607Y-21386D01*
X16040Y-21386D02*
X16271Y-21386D01*
X16698Y-21386D02*
X18869Y-21386D01*
X19253Y-21386D02*
X21869Y-21386D01*
X22253Y-21386D02*
X22399Y-21386D01*
X24348Y-21386D02*
X26298Y-21386D01*
X27348Y-21386D02*
X28058Y-21386D01*
X28888Y-21386D02*
X29745Y-21386D01*
X10610Y-21466D02*
X10983Y-21466D01*
X12384Y-21466D02*
X12613Y-21466D01*
X15960Y-21466D02*
X16102Y-21466D01*
X16211Y-21466D02*
X16351Y-21466D01*
X16682Y-21466D02*
X18727Y-21466D01*
X19394Y-21466D02*
X21727Y-21466D01*
X23252Y-21466D02*
X23298Y-21466D01*
X24348Y-21466D02*
X26298Y-21466D01*
X27348Y-21466D02*
X27981Y-21466D01*
X28967Y-21466D02*
X29745Y-21466D01*
X10610Y-21546D02*
X11016Y-21546D01*
X12464Y-21546D02*
X12646Y-21546D01*
X15880Y-21546D02*
X16022Y-21546D01*
X16291Y-21546D02*
X16431Y-21546D01*
X16654Y-21546D02*
X18647Y-21546D01*
X19474Y-21546D02*
X21647Y-21546D01*
X23172Y-21546D02*
X23312Y-21546D01*
X24333Y-21546D02*
X26312Y-21546D01*
X27333Y-21546D02*
X27947Y-21546D01*
X29000Y-21546D02*
X29745Y-21546D01*
X10610Y-21626D02*
X11049Y-21626D01*
X12544Y-21626D02*
X12680Y-21626D01*
X15631Y-21626D02*
X15697Y-21626D01*
X15800Y-21626D02*
X15942Y-21626D01*
X16371Y-21626D02*
X16511Y-21626D01*
X16614Y-21626D02*
X18595Y-21626D01*
X19525Y-21626D02*
X20009Y-21626D01*
X20386Y-21626D02*
X21595Y-21626D01*
X23092Y-21626D02*
X23346Y-21626D01*
X24300Y-21626D02*
X26346Y-21626D01*
X27300Y-21626D02*
X27914Y-21626D01*
X29033Y-21626D02*
X29745Y-21626D01*
X10610Y-21706D02*
X11123Y-21706D01*
X12624Y-21706D02*
X12745Y-21706D01*
X15567Y-21706D02*
X15862Y-21706D01*
X16451Y-21706D02*
X18562Y-21706D01*
X19559Y-21706D02*
X19898Y-21706D01*
X20496Y-21706D02*
X21562Y-21706D01*
X23012Y-21706D02*
X23380Y-21706D01*
X24265Y-21706D02*
X26380Y-21706D01*
X27265Y-21706D02*
X27893Y-21706D01*
X29053Y-21706D02*
X29745Y-21706D01*
X10610Y-21786D02*
X11205Y-21786D01*
X12704Y-21786D02*
X12825Y-21786D01*
X15487Y-21786D02*
X15867Y-21786D01*
X16444Y-21786D02*
X18535Y-21786D01*
X19585Y-21786D02*
X19830Y-21786D01*
X20566Y-21786D02*
X21535Y-21786D01*
X22932Y-21786D02*
X23460Y-21786D01*
X24185Y-21786D02*
X26460Y-21786D01*
X27185Y-21786D02*
X27893Y-21786D01*
X29053Y-21786D02*
X29745Y-21786D01*
X10610Y-21866D02*
X11283Y-21866D01*
X11706Y-21866D02*
X11850Y-21866D01*
X15443Y-21866D02*
X15869Y-21866D01*
X16443Y-21866D02*
X18535Y-21866D01*
X19585Y-21866D02*
X19796Y-21866D01*
X20599Y-21866D02*
X21535Y-21866D01*
X22852Y-21866D02*
X23561Y-21866D01*
X24083Y-21866D02*
X26561Y-21866D01*
X27083Y-21866D02*
X27893Y-21866D01*
X29053Y-21866D02*
X29745Y-21866D01*
X10610Y-21946D02*
X11218Y-21946D01*
X11781Y-21946D02*
X11930Y-21946D01*
X15537Y-21946D02*
X15775Y-21946D01*
X16537Y-21946D02*
X18535Y-21946D01*
X19585Y-21946D02*
X19772Y-21946D01*
X20622Y-21946D02*
X21535Y-21946D01*
X22772Y-21946D02*
X27852Y-21946D01*
X29036Y-21946D02*
X29745Y-21946D01*
X10610Y-22026D02*
X11257Y-22026D01*
X11741Y-22026D02*
X12010Y-22026D01*
X15617Y-22026D02*
X15695Y-22026D01*
X16617Y-22026D02*
X18554Y-22026D01*
X19565Y-22026D02*
X19772Y-22026D01*
X20681Y-22026D02*
X21554Y-22026D01*
X22692Y-22026D02*
X27772Y-22026D01*
X29003Y-22026D02*
X29745Y-22026D01*
X10610Y-22106D02*
X11036Y-22106D01*
X11195Y-22106D02*
X11337Y-22106D01*
X11661Y-22106D02*
X11803Y-22106D01*
X11965Y-22106D02*
X12090Y-22106D01*
X15653Y-22106D02*
X15660Y-22106D01*
X16653Y-22106D02*
X18587Y-22106D01*
X19532Y-22106D02*
X19777Y-22106D01*
X20761Y-22106D02*
X21587Y-22106D01*
X22612Y-22106D02*
X27692Y-22106D01*
X28969Y-22106D02*
X29745Y-22106D01*
X10610Y-22186D02*
X11008Y-22186D01*
X11275Y-22186D02*
X11417Y-22186D01*
X11581Y-22186D02*
X11723Y-22186D01*
X11998Y-22186D02*
X12170Y-22186D01*
X16686Y-22186D02*
X18628Y-22186D01*
X19491Y-22186D02*
X19810Y-22186D01*
X20841Y-22186D02*
X21628Y-22186D01*
X22491Y-22186D02*
X27612Y-22186D01*
X28898Y-22186D02*
X29745Y-22186D01*
X10610Y-22266D02*
X10980Y-22266D01*
X11355Y-22266D02*
X11497Y-22266D01*
X11501Y-22266D02*
X11643Y-22266D01*
X12011Y-22266D02*
X12250Y-22266D01*
X16705Y-22266D02*
X18708Y-22266D01*
X19411Y-22266D02*
X19854Y-22266D01*
X20921Y-22266D02*
X21708Y-22266D01*
X22411Y-22266D02*
X27532Y-22266D01*
X28818Y-22266D02*
X29745Y-22266D01*
X10610Y-22346D02*
X10984Y-22346D01*
X11421Y-22346D02*
X11577Y-22346D01*
X12015Y-22346D02*
X12330Y-22346D01*
X16705Y-22346D02*
X18824Y-22346D01*
X19292Y-22346D02*
X19934Y-22346D01*
X21001Y-22346D02*
X21824Y-22346D01*
X22292Y-22346D02*
X27452Y-22346D01*
X28648Y-22346D02*
X29745Y-22346D01*
X10610Y-22426D02*
X10988Y-22426D01*
X11341Y-22426D02*
X11483Y-22426D01*
X11515Y-22426D02*
X11657Y-22426D01*
X12013Y-22426D02*
X12410Y-22426D01*
X16705Y-22426D02*
X18773Y-22426D01*
X19349Y-22426D02*
X20095Y-22426D01*
X21081Y-22426D02*
X21773Y-22426D01*
X22349Y-22426D02*
X27372Y-22426D01*
X28304Y-22426D02*
X29745Y-22426D01*
X10610Y-22506D02*
X11006Y-22506D01*
X11261Y-22506D02*
X11403Y-22506D01*
X11595Y-22506D02*
X11737Y-22506D01*
X11985Y-22506D02*
X12503Y-22506D01*
X16681Y-22506D02*
X18687Y-22506D01*
X19434Y-22506D02*
X20229Y-22506D01*
X21161Y-22506D02*
X21687Y-22506D01*
X22434Y-22506D02*
X27292Y-22506D01*
X28224Y-22506D02*
X29745Y-22506D01*
X10610Y-22586D02*
X11038Y-22586D01*
X11181Y-22586D02*
X11323Y-22586D01*
X11675Y-22586D02*
X11817Y-22586D01*
X11957Y-22586D02*
X12607Y-22586D01*
X16648Y-22586D02*
X17171Y-22586D01*
X28144Y-22586D02*
X28323Y-22586D01*
X28626Y-22586D02*
X29745Y-22586D01*
X10610Y-22666D02*
X11243Y-22666D01*
X11755Y-22666D02*
X12607Y-22666D01*
X16607Y-22666D02*
X17064Y-22666D01*
X28064Y-22666D02*
X28139Y-22666D01*
X28809Y-22666D02*
X29745Y-22666D01*
X10610Y-22746D02*
X11220Y-22746D01*
X11777Y-22746D02*
X12630Y-22746D01*
X16527Y-22746D02*
X16984Y-22746D01*
X27984Y-22746D02*
X28059Y-22746D01*
X28889Y-22746D02*
X29745Y-22746D01*
X10610Y-22826D02*
X11332Y-22826D01*
X11680Y-22826D02*
X12689Y-22826D01*
X16418Y-22826D02*
X16904Y-22826D01*
X27904Y-22826D02*
X27982Y-22826D01*
X28968Y-22826D02*
X29745Y-22826D01*
X10610Y-22906D02*
X12830Y-22906D01*
X16057Y-22906D02*
X16824Y-22906D01*
X27824Y-22906D02*
X27948Y-22906D01*
X29001Y-22906D02*
X29745Y-22906D01*
X10610Y-22986D02*
X12846Y-22986D01*
X15977Y-22986D02*
X16744Y-22986D01*
X27744Y-22986D02*
X27915Y-22986D01*
X29034Y-22986D02*
X29745Y-22986D01*
X10610Y-23066D02*
X12891Y-23066D01*
X15897Y-23066D02*
X16664Y-23066D01*
X27664Y-23066D02*
X27894Y-23066D01*
X29054Y-23066D02*
X29745Y-23066D01*
X10610Y-23146D02*
X12956Y-23146D01*
X15817Y-23146D02*
X16584Y-23146D01*
X27566Y-23146D02*
X27894Y-23146D01*
X29054Y-23146D02*
X29745Y-23146D01*
X10610Y-23226D02*
X13036Y-23226D01*
X15737Y-23226D02*
X16504Y-23226D01*
X17435Y-23226D02*
X18668Y-23226D01*
X19450Y-23226D02*
X20320Y-23226D01*
X21252Y-23226D02*
X21668Y-23226D01*
X22450Y-23226D02*
X27894Y-23226D01*
X29054Y-23226D02*
X29745Y-23226D01*
X10610Y-23306D02*
X13116Y-23306D01*
X15656Y-23306D02*
X16424Y-23306D01*
X17355Y-23306D02*
X18748Y-23306D01*
X19370Y-23306D02*
X20400Y-23306D01*
X21332Y-23306D02*
X21748Y-23306D01*
X22370Y-23306D02*
X23563Y-23306D01*
X24085Y-23306D02*
X26563Y-23306D01*
X27085Y-23306D02*
X27910Y-23306D01*
X29037Y-23306D02*
X29745Y-23306D01*
X10610Y-23386D02*
X13274Y-23386D01*
X15502Y-23386D02*
X16344Y-23386D01*
X17275Y-23386D02*
X18921Y-23386D01*
X19197Y-23386D02*
X19950Y-23386D01*
X20444Y-23386D02*
X20480Y-23386D01*
X21412Y-23386D02*
X21921Y-23386D01*
X22197Y-23386D02*
X23461Y-23386D01*
X24186Y-23386D02*
X26461Y-23386D01*
X27186Y-23386D02*
X27943Y-23386D01*
X29004Y-23386D02*
X29745Y-23386D01*
X10610Y-23466D02*
X16264Y-23466D01*
X17195Y-23466D02*
X17624Y-23466D01*
X20524Y-23466D02*
X20560Y-23466D01*
X21492Y-23466D02*
X23381Y-23466D01*
X24266Y-23466D02*
X26381Y-23466D01*
X27266Y-23466D02*
X27976Y-23466D01*
X28970Y-23466D02*
X29745Y-23466D01*
X10610Y-23546D02*
X16184Y-23546D01*
X17115Y-23546D02*
X17523Y-23546D01*
X20577Y-23546D02*
X20640Y-23546D01*
X21572Y-23546D02*
X23346Y-23546D01*
X24300Y-23546D02*
X26346Y-23546D01*
X27300Y-23546D02*
X28049Y-23546D01*
X28899Y-23546D02*
X29745Y-23546D01*
X10610Y-23626D02*
X16104Y-23626D01*
X17035Y-23626D02*
X17443Y-23626D01*
X20610Y-23626D02*
X20720Y-23626D01*
X21652Y-23626D02*
X23313Y-23626D01*
X24334Y-23626D02*
X26313Y-23626D01*
X27334Y-23626D02*
X28129Y-23626D01*
X28819Y-23626D02*
X29745Y-23626D01*
X10610Y-23706D02*
X16024Y-23706D01*
X16955Y-23706D02*
X17363Y-23706D01*
X20622Y-23706D02*
X20800Y-23706D01*
X22784Y-23706D02*
X23298Y-23706D01*
X24348Y-23706D02*
X26298Y-23706D01*
X27348Y-23706D02*
X28099Y-23706D01*
X28849Y-23706D02*
X29745Y-23706D01*
X10610Y-23786D02*
X13375Y-23786D01*
X16875Y-23786D02*
X17283Y-23786D01*
X20622Y-23786D02*
X20880Y-23786D01*
X22895Y-23786D02*
X23298Y-23786D01*
X24348Y-23786D02*
X26298Y-23786D01*
X27348Y-23786D02*
X28019Y-23786D01*
X28929Y-23786D02*
X29745Y-23786D01*
X10610Y-23866D02*
X13261Y-23866D01*
X16795Y-23866D02*
X17203Y-23866D01*
X20604Y-23866D02*
X20960Y-23866D01*
X22975Y-23866D02*
X23298Y-23866D01*
X24348Y-23866D02*
X26298Y-23866D01*
X27348Y-23866D02*
X27965Y-23866D01*
X28984Y-23866D02*
X29745Y-23866D01*
X10610Y-23946D02*
X13181Y-23946D01*
X16715Y-23946D02*
X17123Y-23946D01*
X20571Y-23946D02*
X21040Y-23946D01*
X23055Y-23946D02*
X23329Y-23946D01*
X24316Y-23946D02*
X26329Y-23946D01*
X27316Y-23946D02*
X27932Y-23946D01*
X29017Y-23946D02*
X29745Y-23946D01*
X10610Y-24026D02*
X13101Y-24026D01*
X16635Y-24026D02*
X17043Y-24026D01*
X20512Y-24026D02*
X21120Y-24026D01*
X23135Y-24026D02*
X23362Y-24026D01*
X24282Y-24026D02*
X26362Y-24026D01*
X27282Y-24026D02*
X27898Y-24026D01*
X29050Y-24026D02*
X29745Y-24026D01*
X10610Y-24106D02*
X13021Y-24106D01*
X16555Y-24106D02*
X16963Y-24106D01*
X17895Y-24106D02*
X19970Y-24106D01*
X20424Y-24106D02*
X21200Y-24106D01*
X29054Y-24106D02*
X29745Y-24106D01*
X10610Y-24186D02*
X12941Y-24186D01*
X16475Y-24186D02*
X16883Y-24186D01*
X17815Y-24186D02*
X21280Y-24186D01*
X29054Y-24186D02*
X29745Y-24186D01*
X10610Y-24266D02*
X12861Y-24266D01*
X16395Y-24266D02*
X16803Y-24266D01*
X17735Y-24266D02*
X19118Y-24266D01*
X19400Y-24266D02*
X21373Y-24266D01*
X29054Y-24266D02*
X29745Y-24266D01*
X10610Y-24346D02*
X12781Y-24346D01*
X16303Y-24346D02*
X16723Y-24346D01*
X17655Y-24346D02*
X18946Y-24346D01*
X19571Y-24346D02*
X21945Y-24346D01*
X29020Y-24346D02*
X29745Y-24346D01*
X10610Y-24426D02*
X12701Y-24426D01*
X13633Y-24426D02*
X16643Y-24426D01*
X17575Y-24426D02*
X18866Y-24426D01*
X19651Y-24426D02*
X21865Y-24426D01*
X28987Y-24426D02*
X29745Y-24426D01*
X10610Y-24506D02*
X12621Y-24506D01*
X13553Y-24506D02*
X16563Y-24506D01*
X17495Y-24506D02*
X18802Y-24506D01*
X20230Y-24506D02*
X21802Y-24506D01*
X28939Y-24506D02*
X29745Y-24506D01*
X10610Y-24586D02*
X12541Y-24586D01*
X13473Y-24586D02*
X16483Y-24586D01*
X17415Y-24586D02*
X18769Y-24586D01*
X20327Y-24586D02*
X21769Y-24586D01*
X22748Y-24586D02*
X22763Y-24586D01*
X28859Y-24586D02*
X29745Y-24586D01*
X10610Y-24666D02*
X11206Y-24666D01*
X11642Y-24666D02*
X12207Y-24666D01*
X13614Y-24666D02*
X16403Y-24666D01*
X17335Y-24666D02*
X18736Y-24666D01*
X20407Y-24666D02*
X21736Y-24666D01*
X22781Y-24666D02*
X22872Y-24666D01*
X28746Y-24666D02*
X29745Y-24666D01*
X10610Y-24746D02*
X11072Y-24746D01*
X11776Y-24746D02*
X12072Y-24746D01*
X13719Y-24746D02*
X16323Y-24746D01*
X17255Y-24746D02*
X18733Y-24746D01*
X20487Y-24746D02*
X21733Y-24746D01*
X22783Y-24746D02*
X29745Y-24746D01*
X10610Y-24826D02*
X10992Y-24826D01*
X11856Y-24826D02*
X11992Y-24826D01*
X13697Y-24826D02*
X16243Y-24826D01*
X17175Y-24826D02*
X18733Y-24826D01*
X20567Y-24826D02*
X21733Y-24826D01*
X22783Y-24826D02*
X29745Y-24826D01*
X10610Y-24906D02*
X10940Y-24906D01*
X11909Y-24906D02*
X11940Y-24906D01*
X13616Y-24906D02*
X13759Y-24906D01*
X13903Y-24906D02*
X16163Y-24906D01*
X17095Y-24906D02*
X18743Y-24906D01*
X20647Y-24906D02*
X21743Y-24906D01*
X22772Y-24906D02*
X29745Y-24906D01*
X10610Y-24986D02*
X10907Y-24986D01*
X13536Y-24986D02*
X13679Y-24986D01*
X13936Y-24986D02*
X16083Y-24986D01*
X17015Y-24986D02*
X18776Y-24986D01*
X20727Y-24986D02*
X21776Y-24986D01*
X22739Y-24986D02*
X28237Y-24986D01*
X28714Y-24986D02*
X29745Y-24986D01*
X10610Y-25066D02*
X10875Y-25066D01*
X13455Y-25066D02*
X13599Y-25066D01*
X13958Y-25066D02*
X16003Y-25066D01*
X16935Y-25066D02*
X18810Y-25066D01*
X20807Y-25066D02*
X21810Y-25066D01*
X22706Y-25066D02*
X23178Y-25066D01*
X25247Y-25066D02*
X28104Y-25066D01*
X28846Y-25066D02*
X29745Y-25066D01*
X10610Y-25146D02*
X10875Y-25146D01*
X13376Y-25146D02*
X13519Y-25146D01*
X13962Y-25146D02*
X15923Y-25146D01*
X16855Y-25146D02*
X18885Y-25146D01*
X19630Y-25146D02*
X19954Y-25146D01*
X20887Y-25146D02*
X21885Y-25146D01*
X22630Y-25146D02*
X22977Y-25146D01*
X25447Y-25146D02*
X28024Y-25146D01*
X28926Y-25146D02*
X29745Y-25146D01*
X10610Y-25226D02*
X10875Y-25226D01*
X13297Y-25226D02*
X13550Y-25226D01*
X13966Y-25226D02*
X15843Y-25226D01*
X16775Y-25226D02*
X18972Y-25226D01*
X19542Y-25226D02*
X20034Y-25226D01*
X20967Y-25226D02*
X21972Y-25226D01*
X22542Y-25226D02*
X22889Y-25226D01*
X25534Y-25226D02*
X27968Y-25226D01*
X28984Y-25226D02*
X29745Y-25226D01*
X10610Y-25306D02*
X10886Y-25306D01*
X13217Y-25306D02*
X13359Y-25306D01*
X13490Y-25306D02*
X13630Y-25306D01*
X13946Y-25306D02*
X15763Y-25306D01*
X16695Y-25306D02*
X20114Y-25306D01*
X21047Y-25306D02*
X22809Y-25306D01*
X25614Y-25306D02*
X27934Y-25306D01*
X29017Y-25306D02*
X29745Y-25306D01*
X10610Y-25386D02*
X10919Y-25386D01*
X13137Y-25386D02*
X13279Y-25386D01*
X13570Y-25386D02*
X13710Y-25386D01*
X13918Y-25386D02*
X15683Y-25386D01*
X16615Y-25386D02*
X20194Y-25386D01*
X21127Y-25386D02*
X22729Y-25386D01*
X25694Y-25386D02*
X27901Y-25386D01*
X29050Y-25386D02*
X29745Y-25386D01*
X10610Y-25466D02*
X10952Y-25466D01*
X12895Y-25466D02*
X13004Y-25466D01*
X13057Y-25466D02*
X13199Y-25466D01*
X13650Y-25466D02*
X13790Y-25466D01*
X13843Y-25466D02*
X15603Y-25466D01*
X16535Y-25466D02*
X20274Y-25466D01*
X25774Y-25466D02*
X27895Y-25466D01*
X29055Y-25466D02*
X29745Y-25466D01*
X10610Y-25546D02*
X11023Y-25546D01*
X12824Y-25546D02*
X13119Y-25546D01*
X13730Y-25546D02*
X15523Y-25546D01*
X16455Y-25546D02*
X20354Y-25546D01*
X25854Y-25546D02*
X27895Y-25546D01*
X29055Y-25546D02*
X29745Y-25546D01*
X10610Y-25626D02*
X11063Y-25626D01*
X12744Y-25626D02*
X13138Y-25626D01*
X13709Y-25626D02*
X15443Y-25626D01*
X16375Y-25626D02*
X20434Y-25626D01*
X25934Y-25626D02*
X26671Y-25626D01*
X26981Y-25626D02*
X27895Y-25626D01*
X29055Y-25626D02*
X29745Y-25626D01*
X10610Y-25706D02*
X10936Y-25706D01*
X12736Y-25706D02*
X13112Y-25706D01*
X13736Y-25706D02*
X15363Y-25706D01*
X16295Y-25706D02*
X20514Y-25706D01*
X26014Y-25706D02*
X26507Y-25706D01*
X27144Y-25706D02*
X27926Y-25706D01*
X29023Y-25706D02*
X29745Y-25706D01*
X10610Y-25786D02*
X10890Y-25786D01*
X12816Y-25786D02*
X13032Y-25786D01*
X13816Y-25786D02*
X15283Y-25786D01*
X16215Y-25786D02*
X20594Y-25786D01*
X23261Y-25786D02*
X23426Y-25786D01*
X24223Y-25786D02*
X25161Y-25786D01*
X26094Y-25786D02*
X26427Y-25786D01*
X27224Y-25786D02*
X27959Y-25786D01*
X28990Y-25786D02*
X29745Y-25786D01*
X10610Y-25866D02*
X10875Y-25866D01*
X12892Y-25866D02*
X12957Y-25866D01*
X13892Y-25866D02*
X15203Y-25866D01*
X16135Y-25866D02*
X20674Y-25866D01*
X23181Y-25866D02*
X23366Y-25866D01*
X24284Y-25866D02*
X25241Y-25866D01*
X26174Y-25866D02*
X26366Y-25866D01*
X27284Y-25866D02*
X28006Y-25866D01*
X28944Y-25866D02*
X29745Y-25866D01*
X10610Y-25946D02*
X10875Y-25946D01*
X13926Y-25946D02*
X15123Y-25946D01*
X16055Y-25946D02*
X20754Y-25946D01*
X23101Y-25946D02*
X23333Y-25946D01*
X24317Y-25946D02*
X25321Y-25946D01*
X26254Y-25946D02*
X26333Y-25946D01*
X27317Y-25946D02*
X28086Y-25946D01*
X28864Y-25946D02*
X29745Y-25946D01*
X10610Y-26026D02*
X10875Y-26026D01*
X13959Y-26026D02*
X15043Y-26026D01*
X15975Y-26026D02*
X20857Y-26026D01*
X23000Y-26026D02*
X23300Y-26026D01*
X24350Y-26026D02*
X25401Y-26026D01*
X27350Y-26026D02*
X28144Y-26026D01*
X28806Y-26026D02*
X29745Y-26026D01*
X10610Y-26106D02*
X10875Y-26106D01*
X13973Y-26106D02*
X14963Y-26106D01*
X15895Y-26106D02*
X23300Y-26106D01*
X24350Y-26106D02*
X25481Y-26106D01*
X27350Y-26106D02*
X28064Y-26106D01*
X28886Y-26106D02*
X29745Y-26106D01*
X10610Y-26186D02*
X10875Y-26186D01*
X13973Y-26186D02*
X14883Y-26186D01*
X15815Y-26186D02*
X23300Y-26186D01*
X24350Y-26186D02*
X25561Y-26186D01*
X27350Y-26186D02*
X27984Y-26186D01*
X28966Y-26186D02*
X29745Y-26186D01*
X10610Y-26266D02*
X10875Y-26266D01*
X13973Y-26266D02*
X14803Y-26266D01*
X16238Y-26266D02*
X19118Y-26266D01*
X19400Y-26266D02*
X22166Y-26266D01*
X22358Y-26266D02*
X23313Y-26266D01*
X24337Y-26266D02*
X25641Y-26266D01*
X27337Y-26266D02*
X27951Y-26266D01*
X29000Y-26266D02*
X29745Y-26266D01*
X10610Y-26346D02*
X10875Y-26346D01*
X13945Y-26346D02*
X14723Y-26346D01*
X16365Y-26346D02*
X16595Y-26346D01*
X17162Y-26346D02*
X18946Y-26346D01*
X19571Y-26346D02*
X21986Y-26346D01*
X22531Y-26346D02*
X23346Y-26346D01*
X24303Y-26346D02*
X25721Y-26346D01*
X27303Y-26346D02*
X27918Y-26346D01*
X29033Y-26346D02*
X29745Y-26346D01*
X10610Y-26426D02*
X10875Y-26426D01*
X13911Y-26426D02*
X14643Y-26426D01*
X16413Y-26426D02*
X16573Y-26426D01*
X17184Y-26426D02*
X18866Y-26426D01*
X19651Y-26426D02*
X21979Y-26426D01*
X22537Y-26426D02*
X23379Y-26426D01*
X24270Y-26426D02*
X25801Y-26426D01*
X27270Y-26426D02*
X27895Y-26426D01*
X29055Y-26426D02*
X29745Y-26426D01*
X10610Y-26506D02*
X10875Y-26506D01*
X13864Y-26506D02*
X14563Y-26506D01*
X16427Y-26506D02*
X16490Y-26506D01*
X16503Y-26506D02*
X16643Y-26506D01*
X17112Y-26506D02*
X17254Y-26506D01*
X17267Y-26506D02*
X18802Y-26506D01*
X19715Y-26506D02*
X21818Y-26506D01*
X21917Y-26506D02*
X22059Y-26506D01*
X22457Y-26506D02*
X22599Y-26506D01*
X22699Y-26506D02*
X23458Y-26506D01*
X24191Y-26506D02*
X25881Y-26506D01*
X27191Y-26506D02*
X27895Y-26506D01*
X29055Y-26506D02*
X29745Y-26506D01*
X10610Y-26586D02*
X10902Y-26586D01*
X13784Y-26586D02*
X14483Y-26586D01*
X16583Y-26586D02*
X16723Y-26586D01*
X17032Y-26586D02*
X17174Y-26586D01*
X17373Y-26586D02*
X18769Y-26586D01*
X19748Y-26586D02*
X21780Y-26586D01*
X21997Y-26586D02*
X22139Y-26586D01*
X22377Y-26586D02*
X22519Y-26586D01*
X22742Y-26586D02*
X23553Y-26586D01*
X24095Y-26586D02*
X25961Y-26586D01*
X27095Y-26586D02*
X27895Y-26586D01*
X29055Y-26586D02*
X29745Y-26586D01*
X10610Y-26666D02*
X10968Y-26666D01*
X13658Y-26666D02*
X14403Y-26666D01*
X16663Y-26666D02*
X16803Y-26666D01*
X16952Y-26666D02*
X17094Y-26666D01*
X17406Y-26666D02*
X18736Y-26666D01*
X19781Y-26666D02*
X21752Y-26666D01*
X22077Y-26666D02*
X22219Y-26666D01*
X22297Y-26666D02*
X22439Y-26666D01*
X22768Y-26666D02*
X26041Y-26666D01*
X29040Y-26666D02*
X29745Y-26666D01*
X10610Y-26746D02*
X11143Y-26746D01*
X15256Y-26746D02*
X15329Y-26746D01*
X16743Y-26746D02*
X17014Y-26746D01*
X17414Y-26746D02*
X18733Y-26746D01*
X19783Y-26746D02*
X21741Y-26746D01*
X22157Y-26746D02*
X22359Y-26746D01*
X22772Y-26746D02*
X26121Y-26746D01*
X29006Y-26746D02*
X29745Y-26746D01*
X10610Y-26826D02*
X11201Y-26826D01*
X15176Y-26826D02*
X15329Y-26826D01*
X16792Y-26826D02*
X16963Y-26826D01*
X17418Y-26826D02*
X18733Y-26826D01*
X19783Y-26826D02*
X21745Y-26826D01*
X22137Y-26826D02*
X22379Y-26826D01*
X22776Y-26826D02*
X26201Y-26826D01*
X28973Y-26826D02*
X29745Y-26826D01*
X10610Y-26906D02*
X11281Y-26906D01*
X15096Y-26906D02*
X15329Y-26906D01*
X16712Y-26906D02*
X16854Y-26906D01*
X16903Y-26906D02*
X17043Y-26906D01*
X17415Y-26906D02*
X18743Y-26906D01*
X19772Y-26906D02*
X21750Y-26906D01*
X22057Y-26906D02*
X22199Y-26906D01*
X22317Y-26906D02*
X22459Y-26906D01*
X22757Y-26906D02*
X26281Y-26906D01*
X28904Y-26906D02*
X29745Y-26906D01*
X10610Y-26986D02*
X11361Y-26986D01*
X15016Y-26986D02*
X15329Y-26986D01*
X16632Y-26986D02*
X16774Y-26986D01*
X16983Y-26986D02*
X17123Y-26986D01*
X17387Y-26986D02*
X18776Y-26986D01*
X19739Y-26986D02*
X21782Y-26986D01*
X21977Y-26986D02*
X22119Y-26986D01*
X22397Y-26986D02*
X22539Y-26986D01*
X22729Y-26986D02*
X26361Y-26986D01*
X28824Y-26986D02*
X29745Y-26986D01*
X10610Y-27066D02*
X11441Y-27066D01*
X14936Y-27066D02*
X15329Y-27066D01*
X16552Y-27066D02*
X16694Y-27066D01*
X17063Y-27066D02*
X17203Y-27066D01*
X17359Y-27066D02*
X18810Y-27066D01*
X19706Y-27066D02*
X22039Y-27066D01*
X22477Y-27066D02*
X26441Y-27066D01*
X28660Y-27066D02*
X29745Y-27066D01*
X10610Y-27146D02*
X11521Y-27146D01*
X14856Y-27146D02*
X15329Y-27146D01*
X16427Y-27146D02*
X16614Y-27146D01*
X17143Y-27146D02*
X18885Y-27146D01*
X19630Y-27146D02*
X21970Y-27146D01*
X22545Y-27146D02*
X26521Y-27146D01*
X28310Y-27146D02*
X29745Y-27146D01*
X10610Y-27226D02*
X11601Y-27226D01*
X14776Y-27226D02*
X15356Y-27226D01*
X16399Y-27226D02*
X16580Y-27226D01*
X17175Y-27226D02*
X18972Y-27226D01*
X19542Y-27226D02*
X21990Y-27226D01*
X22525Y-27226D02*
X26633Y-27226D01*
X28199Y-27226D02*
X29745Y-27226D01*
X10610Y-27306D02*
X11713Y-27306D01*
X14665Y-27306D02*
X15421Y-27306D01*
X16335Y-27306D02*
X16662Y-27306D01*
X17102Y-27306D02*
X29745Y-27306D01*
X10610Y-27386D02*
X29745Y-27386D01*
X10610Y-27466D02*
X29745Y-27466D01*
X29745Y-27481D02*
X29745Y-08346D01*
X20426Y-08346D01*
X20684Y-08604D01*
X20807Y-08604D01*
X20898Y-08642D01*
X20957Y-08701D01*
X21016Y-08642D01*
X21108Y-08604D01*
X21807Y-08604D01*
X21898Y-08642D01*
X21968Y-08712D01*
X22006Y-08804D01*
X22006Y-09752D01*
X22037Y-09828D01*
X22037Y-10059D01*
X21948Y-10272D01*
X21785Y-10435D01*
X21572Y-10523D01*
X21341Y-10523D01*
X21128Y-10434D01*
X20965Y-10271D01*
X20956Y-10251D01*
X20948Y-10272D01*
X20785Y-10435D01*
X20572Y-10523D01*
X20341Y-10523D01*
X20128Y-10434D01*
X19965Y-10271D01*
X19877Y-10058D01*
X19877Y-09827D01*
X19908Y-09752D01*
X19908Y-08834D01*
X19248Y-08834D01*
X19248Y-09753D01*
X19279Y-09829D01*
X19279Y-10060D01*
X19190Y-10273D01*
X19027Y-10436D01*
X18814Y-10524D01*
X18583Y-10524D01*
X18370Y-10435D01*
X18207Y-10272D01*
X18198Y-10252D01*
X18190Y-10273D01*
X18027Y-10436D01*
X17814Y-10524D01*
X17583Y-10524D01*
X17370Y-10435D01*
X17207Y-10272D01*
X17119Y-10059D01*
X17119Y-09828D01*
X17150Y-09753D01*
X17150Y-08834D01*
X16494Y-08834D01*
X16494Y-09753D01*
X16525Y-09829D01*
X16525Y-10060D01*
X16436Y-10273D01*
X16273Y-10436D01*
X16060Y-10524D01*
X15829Y-10524D01*
X15616Y-10435D01*
X15453Y-10272D01*
X15444Y-10252D01*
X15436Y-10273D01*
X15273Y-10436D01*
X15060Y-10524D01*
X14829Y-10524D01*
X14616Y-10435D01*
X14453Y-10272D01*
X14365Y-10059D01*
X14365Y-09828D01*
X14396Y-09753D01*
X14396Y-08834D01*
X13738Y-08834D01*
X13738Y-09754D01*
X13769Y-09830D01*
X13769Y-10061D01*
X13680Y-10274D01*
X13517Y-10437D01*
X13304Y-10525D01*
X13073Y-10525D01*
X12860Y-10436D01*
X12697Y-10273D01*
X12688Y-10253D01*
X12680Y-10274D01*
X12517Y-10437D01*
X12304Y-10525D01*
X12073Y-10525D01*
X11860Y-10436D01*
X11697Y-10273D01*
X11609Y-10060D01*
X11609Y-09829D01*
X11640Y-09754D01*
X11640Y-08805D01*
X11678Y-08714D01*
X11748Y-08644D01*
X11840Y-08606D01*
X12147Y-08606D01*
X12407Y-08346D01*
X10610Y-08346D01*
X10610Y-27481D01*
X15528Y-27481D01*
X15528Y-27360D01*
X15437Y-27322D01*
X15367Y-27252D01*
X15329Y-27160D01*
X15329Y-26673D01*
X14761Y-27241D01*
X14655Y-27313D01*
X14528Y-27338D01*
X11850Y-27338D01*
X11724Y-27313D01*
X11687Y-27288D01*
X11616Y-27241D01*
X11191Y-26815D01*
X11125Y-26719D01*
X11074Y-26719D01*
X10983Y-26681D01*
X10913Y-26611D01*
X10875Y-26519D01*
X10875Y-25820D01*
X10913Y-25729D01*
X10983Y-25659D01*
X11075Y-25621D01*
X11098Y-25621D01*
X10959Y-25481D01*
X10875Y-25279D01*
X10875Y-25061D01*
X10959Y-24859D01*
X11113Y-24705D01*
X11138Y-24694D01*
X11138Y-22629D01*
X11047Y-22606D01*
X10991Y-22469D01*
X10980Y-22265D01*
X11047Y-22072D01*
X11138Y-22049D01*
X11428Y-22339D01*
X11138Y-22629D01*
X11138Y-24694D01*
X11315Y-24621D01*
X11425Y-24621D01*
X11425Y-22858D01*
X11232Y-22791D01*
X11209Y-22700D01*
X11499Y-22410D01*
X11789Y-22700D01*
X11766Y-22791D01*
X11629Y-22847D01*
X11425Y-22858D01*
X11425Y-24621D01*
X11533Y-24621D01*
X11735Y-24705D01*
X11860Y-24830D01*
X11860Y-22629D01*
X11570Y-22339D01*
X11860Y-22049D01*
X11951Y-22072D01*
X12007Y-22209D01*
X12018Y-22413D01*
X11951Y-22606D01*
X11860Y-22629D01*
X11860Y-24830D01*
X11889Y-24859D01*
X11924Y-24943D01*
X11959Y-24859D01*
X12113Y-24705D01*
X12315Y-24621D01*
X12506Y-24621D01*
X13273Y-23854D01*
X13344Y-23806D01*
X13381Y-23782D01*
X13507Y-23757D01*
X15972Y-23757D01*
X17088Y-22642D01*
X17194Y-22570D01*
X17215Y-22566D01*
X17321Y-22545D01*
X18647Y-22545D01*
X18763Y-22430D01*
X18895Y-22375D01*
X18762Y-22320D01*
X18615Y-22172D01*
X18535Y-21979D01*
X18535Y-21770D01*
X18615Y-21577D01*
X18763Y-21430D01*
X18895Y-21375D01*
X18762Y-21320D01*
X18647Y-21205D01*
X17568Y-21205D01*
X17462Y-21183D01*
X17441Y-21180D01*
X17335Y-21108D01*
X15995Y-19768D01*
X15923Y-19662D01*
X15898Y-19535D01*
X15898Y-19413D01*
X15865Y-19446D01*
X15759Y-19518D01*
X15632Y-19543D01*
X14607Y-19543D01*
X14481Y-19518D01*
X14445Y-19493D01*
X14373Y-19446D01*
X14311Y-19383D01*
X12444Y-19384D01*
X12444Y-20041D01*
X12406Y-20132D01*
X12336Y-20202D01*
X12244Y-20240D01*
X12203Y-20240D01*
X12200Y-20260D01*
X12175Y-20295D01*
X12128Y-20368D01*
X12120Y-20375D01*
X12120Y-21202D01*
X12738Y-21820D01*
X12807Y-21792D01*
X12831Y-21792D01*
X12691Y-21652D01*
X12607Y-21450D01*
X12607Y-21232D01*
X12691Y-21030D01*
X12845Y-20876D01*
X13047Y-20792D01*
X13265Y-20792D01*
X13467Y-20876D01*
X13621Y-21030D01*
X13656Y-21114D01*
X13691Y-21030D01*
X13845Y-20876D01*
X14047Y-20792D01*
X14265Y-20792D01*
X14467Y-20876D01*
X14621Y-21030D01*
X14656Y-21114D01*
X14691Y-21030D01*
X14845Y-20876D01*
X15047Y-20792D01*
X15265Y-20792D01*
X15467Y-20876D01*
X15621Y-21030D01*
X15660Y-21125D01*
X15684Y-21060D01*
X15778Y-21033D01*
X16085Y-21341D01*
X15778Y-21649D01*
X15684Y-21622D01*
X15658Y-21560D01*
X15621Y-21652D01*
X15467Y-21806D01*
X15382Y-21841D01*
X15467Y-21876D01*
X15621Y-22030D01*
X15656Y-22114D01*
X15691Y-22030D01*
X15845Y-21876D01*
X15940Y-21836D01*
X15875Y-21813D01*
X15848Y-21719D01*
X16156Y-21412D01*
X16156Y-21270D01*
X15848Y-20963D01*
X15875Y-20869D01*
X16022Y-20809D01*
X16235Y-20798D01*
X16437Y-20869D01*
X16464Y-20963D01*
X16156Y-21270D01*
X16156Y-21412D01*
X16464Y-21719D01*
X16437Y-21813D01*
X16375Y-21838D01*
X16467Y-21876D01*
X16534Y-21943D01*
X16534Y-21649D01*
X16227Y-21341D01*
X16534Y-21033D01*
X16628Y-21060D01*
X16688Y-21207D01*
X16699Y-21420D01*
X16628Y-21622D01*
X16534Y-21649D01*
X16534Y-21943D01*
X16621Y-22030D01*
X16705Y-22232D01*
X16705Y-22450D01*
X16621Y-22652D01*
X16467Y-22806D01*
X16265Y-22890D01*
X16073Y-22890D01*
X15659Y-23304D01*
X15553Y-23376D01*
X15426Y-23401D01*
X13347Y-23401D01*
X13241Y-23379D01*
X13220Y-23376D01*
X13114Y-23304D01*
X12923Y-23113D01*
X12851Y-23007D01*
X12827Y-22890D01*
X12806Y-22890D01*
X12715Y-22852D01*
X12645Y-22782D01*
X12607Y-22690D01*
X12607Y-22557D01*
X12590Y-22553D01*
X12569Y-22550D01*
X12462Y-22478D01*
X11776Y-21791D01*
X11646Y-21845D01*
X11766Y-21887D01*
X11789Y-21978D01*
X11499Y-22268D01*
X11209Y-21978D01*
X11232Y-21887D01*
X11341Y-21842D01*
X11201Y-21784D01*
X11054Y-21636D01*
X10974Y-21443D01*
X10974Y-21234D01*
X11054Y-21041D01*
X11202Y-20894D01*
X11395Y-20814D01*
X11460Y-20814D01*
X11460Y-20239D01*
X11466Y-20207D01*
X11454Y-20202D01*
X11384Y-20132D01*
X11346Y-20040D01*
X11346Y-19341D01*
X11384Y-19250D01*
X11454Y-19180D01*
X11546Y-19142D01*
X11570Y-19142D01*
X11430Y-19002D01*
X11346Y-18800D01*
X11346Y-18582D01*
X11430Y-18380D01*
X11584Y-18226D01*
X11668Y-18191D01*
X11584Y-18156D01*
X11430Y-18002D01*
X11346Y-17800D01*
X11346Y-17582D01*
X11430Y-17380D01*
X11584Y-17226D01*
X11682Y-17185D01*
X11682Y-13258D01*
X11470Y-13257D01*
X11378Y-13219D01*
X11308Y-13149D01*
X11270Y-13058D01*
X11270Y-12959D01*
X11269Y-12845D01*
X11331Y-12783D01*
X11331Y-12683D01*
X11269Y-12621D01*
X11270Y-12507D01*
X11270Y-12408D01*
X11308Y-12317D01*
X11378Y-12247D01*
X11470Y-12209D01*
X11682Y-12208D01*
X11744Y-12270D01*
X11744Y-12683D01*
X11331Y-12683D01*
X11331Y-12783D01*
X11744Y-12783D01*
X11744Y-13196D01*
X11682Y-13258D01*
X11682Y-17185D01*
X11786Y-17142D01*
X12004Y-17142D01*
X12206Y-17226D01*
X12360Y-17380D01*
X12444Y-17582D01*
X12444Y-17774D01*
X12956Y-18286D01*
X14633Y-18286D01*
X14749Y-18171D01*
X14942Y-18091D01*
X15151Y-18091D01*
X15344Y-18171D01*
X15491Y-18319D01*
X15571Y-18512D01*
X15571Y-18721D01*
X15509Y-18868D01*
X15557Y-18821D01*
X15559Y-18819D01*
X15703Y-18676D01*
X15703Y-18512D01*
X15783Y-18319D01*
X15931Y-18172D01*
X16124Y-18092D01*
X16333Y-18092D01*
X16526Y-18172D01*
X16673Y-18320D01*
X16753Y-18513D01*
X16753Y-18722D01*
X16673Y-18915D01*
X16558Y-19029D01*
X16558Y-19399D01*
X17704Y-20545D01*
X18647Y-20545D01*
X18763Y-20430D01*
X18895Y-20375D01*
X18762Y-20320D01*
X18615Y-20172D01*
X18535Y-19979D01*
X18535Y-19770D01*
X18590Y-19637D01*
X18399Y-19637D01*
X18264Y-19772D01*
X18062Y-19856D01*
X17844Y-19856D01*
X17642Y-19772D01*
X17488Y-19618D01*
X17404Y-19416D01*
X17404Y-19198D01*
X17488Y-18996D01*
X17575Y-18909D01*
X17575Y-18615D01*
X17481Y-18588D01*
X17421Y-18441D01*
X17410Y-18228D01*
X17481Y-18026D01*
X17575Y-17999D01*
X17882Y-18307D01*
X17575Y-18615D01*
X17575Y-18909D01*
X17642Y-18842D01*
X17737Y-18802D01*
X17672Y-18779D01*
X17645Y-18685D01*
X17953Y-18378D01*
X18261Y-18685D01*
X18234Y-18779D01*
X18172Y-18804D01*
X18264Y-18842D01*
X18331Y-18909D01*
X18331Y-18615D01*
X18024Y-18307D01*
X18331Y-17999D01*
X18425Y-18026D01*
X18485Y-18173D01*
X18496Y-18386D01*
X18425Y-18588D01*
X18331Y-18615D01*
X18331Y-18909D01*
X18399Y-18977D01*
X18491Y-18977D01*
X18535Y-18933D01*
X18535Y-18770D01*
X18615Y-18577D01*
X18763Y-18430D01*
X18895Y-18375D01*
X18762Y-18320D01*
X18615Y-18172D01*
X18535Y-17979D01*
X18535Y-17816D01*
X18464Y-17746D01*
X18464Y-17748D01*
X18394Y-17818D01*
X18302Y-17856D01*
X18240Y-17856D01*
X18261Y-17929D01*
X17953Y-18236D01*
X17645Y-17929D01*
X17665Y-17856D01*
X17603Y-17856D01*
X17512Y-17818D01*
X17442Y-17748D01*
X17404Y-17656D01*
X17404Y-16957D01*
X17442Y-16866D01*
X17512Y-16796D01*
X17604Y-16758D01*
X18303Y-16758D01*
X18394Y-16796D01*
X18464Y-16866D01*
X18502Y-16958D01*
X18502Y-16978D01*
X18536Y-16985D01*
X18536Y-16550D01*
X18574Y-16459D01*
X18644Y-16389D01*
X18730Y-16353D01*
X18730Y-15975D01*
X18550Y-15975D01*
X18550Y-15995D01*
X18512Y-16086D01*
X18442Y-16156D01*
X18350Y-16194D01*
X17651Y-16194D01*
X17560Y-16156D01*
X17490Y-16086D01*
X17452Y-15994D01*
X17452Y-15975D01*
X16612Y-15975D01*
X16525Y-16062D01*
X16332Y-16142D01*
X16123Y-16142D01*
X16103Y-16134D01*
X15666Y-16572D01*
X15560Y-16644D01*
X15433Y-16669D01*
X12839Y-16669D01*
X12733Y-16647D01*
X12712Y-16644D01*
X12605Y-16572D01*
X12323Y-16290D01*
X11941Y-16290D01*
X11850Y-16252D01*
X11780Y-16182D01*
X11742Y-16090D01*
X11742Y-15441D01*
X11780Y-15350D01*
X11850Y-15280D01*
X11942Y-15242D01*
X12591Y-15242D01*
X12682Y-15280D01*
X12752Y-15350D01*
X12790Y-15442D01*
X12790Y-15542D01*
X12821Y-15468D01*
X12969Y-15321D01*
X13101Y-15266D01*
X12968Y-15211D01*
X12821Y-15063D01*
X12741Y-14870D01*
X12741Y-14661D01*
X12821Y-14468D01*
X12936Y-14353D01*
X12936Y-13341D01*
X12852Y-13258D01*
X12689Y-13258D01*
X12496Y-13178D01*
X12349Y-13030D01*
X12318Y-12955D01*
X12318Y-13058D01*
X12280Y-13149D01*
X12210Y-13219D01*
X12118Y-13257D01*
X11906Y-13258D01*
X11844Y-13196D01*
X11844Y-12783D01*
X11844Y-12683D01*
X11844Y-12270D01*
X11906Y-12208D01*
X12118Y-12209D01*
X12210Y-12247D01*
X12280Y-12317D01*
X12318Y-12408D01*
X12318Y-12509D01*
X12349Y-12435D01*
X12497Y-12288D01*
X12629Y-12233D01*
X12496Y-12178D01*
X12349Y-12030D01*
X12269Y-11837D01*
X12269Y-11628D01*
X12349Y-11435D01*
X12497Y-11288D01*
X12690Y-11208D01*
X12899Y-11208D01*
X13092Y-11288D01*
X13239Y-11436D01*
X13319Y-11629D01*
X13319Y-11838D01*
X13239Y-12031D01*
X13091Y-12178D01*
X12958Y-12232D01*
X13092Y-12288D01*
X13239Y-12436D01*
X13319Y-12629D01*
X13319Y-12791D01*
X13499Y-12971D01*
X13546Y-13043D01*
X13571Y-13079D01*
X13578Y-13119D01*
X13663Y-13035D01*
X13770Y-12963D01*
X13791Y-12959D01*
X13897Y-12938D01*
X14027Y-12937D01*
X14027Y-12843D01*
X14089Y-12781D01*
X14089Y-12681D01*
X14027Y-12619D01*
X14028Y-12505D01*
X14028Y-12406D01*
X14066Y-12315D01*
X14136Y-12245D01*
X14228Y-12207D01*
X14440Y-12206D01*
X14502Y-12268D01*
X14502Y-12681D01*
X14089Y-12681D01*
X14089Y-12781D01*
X14502Y-12781D01*
X14602Y-12781D01*
X14602Y-12681D01*
X14602Y-12268D01*
X14664Y-12206D01*
X14876Y-12207D01*
X14968Y-12245D01*
X15038Y-12315D01*
X15076Y-12406D01*
X15076Y-12507D01*
X15107Y-12433D01*
X15255Y-12286D01*
X15387Y-12231D01*
X15254Y-12176D01*
X15107Y-12028D01*
X15027Y-11835D01*
X15027Y-11626D01*
X15107Y-11433D01*
X15255Y-11286D01*
X15448Y-11206D01*
X15657Y-11206D01*
X15850Y-11286D01*
X15997Y-11434D01*
X16077Y-11627D01*
X16077Y-11836D01*
X15997Y-12029D01*
X15849Y-12176D01*
X15716Y-12230D01*
X15850Y-12286D01*
X15997Y-12434D01*
X16077Y-12627D01*
X16077Y-12836D01*
X16034Y-12938D01*
X16780Y-12937D01*
X16780Y-12844D01*
X16842Y-12782D01*
X16842Y-12682D01*
X16780Y-12620D01*
X16781Y-12506D01*
X16781Y-12407D01*
X16819Y-12316D01*
X16889Y-12246D01*
X16981Y-12208D01*
X17193Y-12207D01*
X17255Y-12269D01*
X17255Y-12682D01*
X16842Y-12682D01*
X16842Y-12782D01*
X17255Y-12782D01*
X17355Y-12782D01*
X17355Y-12682D01*
X17355Y-12269D01*
X17417Y-12207D01*
X17629Y-12208D01*
X17721Y-12246D01*
X17791Y-12316D01*
X17829Y-12407D01*
X17829Y-12508D01*
X17860Y-12434D01*
X18008Y-12287D01*
X18140Y-12232D01*
X18007Y-12177D01*
X17860Y-12029D01*
X17780Y-11836D01*
X17780Y-11627D01*
X17860Y-11434D01*
X18008Y-11287D01*
X18201Y-11207D01*
X18410Y-11207D01*
X18603Y-11287D01*
X18750Y-11435D01*
X18830Y-11628D01*
X18830Y-11837D01*
X18750Y-12030D01*
X18602Y-12177D01*
X18469Y-12231D01*
X18603Y-12287D01*
X18750Y-12435D01*
X18830Y-12628D01*
X18830Y-12837D01*
X18788Y-12938D01*
X19537Y-12938D01*
X19537Y-12843D01*
X19599Y-12781D01*
X19599Y-12681D01*
X19537Y-12619D01*
X19538Y-12505D01*
X19538Y-12406D01*
X19576Y-12315D01*
X19646Y-12245D01*
X19738Y-12207D01*
X19950Y-12206D01*
X20012Y-12268D01*
X20012Y-12681D01*
X19599Y-12681D01*
X19599Y-12781D01*
X20012Y-12781D01*
X20112Y-12781D01*
X20112Y-12681D01*
X20112Y-12268D01*
X20174Y-12206D01*
X20386Y-12207D01*
X20478Y-12245D01*
X20548Y-12315D01*
X20586Y-12406D01*
X20586Y-12507D01*
X20617Y-12433D01*
X20765Y-12286D01*
X20897Y-12231D01*
X20764Y-12176D01*
X20617Y-12028D01*
X20537Y-11835D01*
X20537Y-11626D01*
X20617Y-11433D01*
X20765Y-11286D01*
X20958Y-11206D01*
X21167Y-11206D01*
X21360Y-11286D01*
X21507Y-11434D01*
X21587Y-11627D01*
X21587Y-11836D01*
X21507Y-12029D01*
X21359Y-12176D01*
X21226Y-12230D01*
X21360Y-12286D01*
X21507Y-12434D01*
X21587Y-12627D01*
X21587Y-12836D01*
X21507Y-13029D01*
X21359Y-13176D01*
X21166Y-13256D01*
X21003Y-13256D01*
X20758Y-13501D01*
X20652Y-13573D01*
X20525Y-13598D01*
X14033Y-13598D01*
X13596Y-14035D01*
X13596Y-14353D01*
X13711Y-14469D01*
X13791Y-14662D01*
X13791Y-14871D01*
X13711Y-15064D01*
X13563Y-15211D01*
X13430Y-15265D01*
X13479Y-15286D01*
X14633Y-15286D01*
X14749Y-15171D01*
X14942Y-15091D01*
X15151Y-15091D01*
X15344Y-15171D01*
X15491Y-15319D01*
X15571Y-15512D01*
X15571Y-15721D01*
X15561Y-15744D01*
X15703Y-15603D01*
X15703Y-15512D01*
X15783Y-15319D01*
X15931Y-15172D01*
X16124Y-15092D01*
X16333Y-15092D01*
X16526Y-15172D01*
X16668Y-15315D01*
X17452Y-15315D01*
X17452Y-15295D01*
X17490Y-15204D01*
X17560Y-15134D01*
X17623Y-15107D01*
X17623Y-14953D01*
X17529Y-14926D01*
X17469Y-14779D01*
X17458Y-14566D01*
X17529Y-14364D01*
X17623Y-14337D01*
X17930Y-14645D01*
X17623Y-14953D01*
X17623Y-15107D01*
X17652Y-15096D01*
X17713Y-15096D01*
X17693Y-15023D01*
X18001Y-14716D01*
X18001Y-14574D01*
X17693Y-14267D01*
X17720Y-14173D01*
X17867Y-14113D01*
X18080Y-14102D01*
X18282Y-14173D01*
X18309Y-14267D01*
X18001Y-14574D01*
X18001Y-14716D01*
X18309Y-15023D01*
X18288Y-15096D01*
X18351Y-15096D01*
X18379Y-15107D01*
X18379Y-14953D01*
X18072Y-14645D01*
X18379Y-14337D01*
X18473Y-14364D01*
X18533Y-14511D01*
X18544Y-14724D01*
X18473Y-14926D01*
X18379Y-14953D01*
X18379Y-15107D01*
X18442Y-15134D01*
X18512Y-15204D01*
X18550Y-15296D01*
X18550Y-15315D01*
X19031Y-15315D01*
X19536Y-14810D01*
X19536Y-14647D01*
X19616Y-14454D01*
X19764Y-14307D01*
X19957Y-14227D01*
X20166Y-14227D01*
X20359Y-14307D01*
X20506Y-14455D01*
X20567Y-14603D01*
X20609Y-14485D01*
X20700Y-14462D01*
X20990Y-14752D01*
X20700Y-15042D01*
X20609Y-15019D01*
X20564Y-14909D01*
X20506Y-15050D01*
X20358Y-15197D01*
X20165Y-15277D01*
X20002Y-15277D01*
X19401Y-15878D01*
X19390Y-15885D01*
X19390Y-16353D01*
X19476Y-16389D01*
X19546Y-16459D01*
X19584Y-16551D01*
X19584Y-17200D01*
X19546Y-17291D01*
X19476Y-17361D01*
X19384Y-17399D01*
X19283Y-17399D01*
X19358Y-17430D01*
X19505Y-17578D01*
X19585Y-17771D01*
X19585Y-17980D01*
X19505Y-18173D01*
X19357Y-18320D01*
X19224Y-18374D01*
X19358Y-18430D01*
X19505Y-18578D01*
X19585Y-18771D01*
X19585Y-18980D01*
X19505Y-19173D01*
X19357Y-19320D01*
X19224Y-19374D01*
X19358Y-19430D01*
X19505Y-19578D01*
X19585Y-19771D01*
X19585Y-19980D01*
X19505Y-20173D01*
X19357Y-20320D01*
X19224Y-20374D01*
X19358Y-20430D01*
X19505Y-20578D01*
X19585Y-20771D01*
X19585Y-20980D01*
X19505Y-21173D01*
X19357Y-21320D01*
X19224Y-21374D01*
X19358Y-21430D01*
X19505Y-21578D01*
X19585Y-21771D01*
X19585Y-21980D01*
X19505Y-22173D01*
X19357Y-22320D01*
X19224Y-22374D01*
X19358Y-22430D01*
X19472Y-22545D01*
X20268Y-22545D01*
X20156Y-22433D01*
X20112Y-22433D01*
X19956Y-22368D01*
X19836Y-22248D01*
X19772Y-22092D01*
X19772Y-21923D01*
X19837Y-21767D01*
X19957Y-21647D01*
X20113Y-21583D01*
X20282Y-21583D01*
X20438Y-21648D01*
X20558Y-21768D01*
X20622Y-21924D01*
X20622Y-21967D01*
X20987Y-22332D01*
X20987Y-15271D01*
X20794Y-15204D01*
X20771Y-15113D01*
X21061Y-14823D01*
X21061Y-14681D01*
X20771Y-14391D01*
X20794Y-14300D01*
X20931Y-14244D01*
X21135Y-14233D01*
X21328Y-14300D01*
X21351Y-14391D01*
X21061Y-14681D01*
X21061Y-14823D01*
X21351Y-15113D01*
X21328Y-15204D01*
X21191Y-15260D01*
X20987Y-15271D01*
X20987Y-22332D01*
X21200Y-22545D01*
X21422Y-22545D01*
X21422Y-15042D01*
X21132Y-14752D01*
X21422Y-14462D01*
X21513Y-14485D01*
X21569Y-14622D01*
X21580Y-14826D01*
X21513Y-15019D01*
X21422Y-15042D01*
X21422Y-22545D01*
X21647Y-22545D01*
X21763Y-22430D01*
X21895Y-22375D01*
X21762Y-22320D01*
X21615Y-22172D01*
X21535Y-21979D01*
X21535Y-21770D01*
X21615Y-21577D01*
X21763Y-21430D01*
X21895Y-21375D01*
X21762Y-21320D01*
X21615Y-21172D01*
X21535Y-20979D01*
X21535Y-20770D01*
X21615Y-20577D01*
X21763Y-20430D01*
X21862Y-20388D01*
X21881Y-20369D01*
X21762Y-20320D01*
X21615Y-20172D01*
X21535Y-19979D01*
X21535Y-19770D01*
X21615Y-19577D01*
X21763Y-19430D01*
X21895Y-19375D01*
X21762Y-19320D01*
X21615Y-19172D01*
X21535Y-18979D01*
X21535Y-18770D01*
X21615Y-18577D01*
X21763Y-18430D01*
X21895Y-18375D01*
X21762Y-18320D01*
X21615Y-18172D01*
X21535Y-17979D01*
X21535Y-17770D01*
X21615Y-17577D01*
X21699Y-17493D01*
X21699Y-17165D01*
X21608Y-17142D01*
X21552Y-17005D01*
X21541Y-16801D01*
X21608Y-16608D01*
X21699Y-16585D01*
X21989Y-16875D01*
X21699Y-17165D01*
X21699Y-17493D01*
X21763Y-17430D01*
X21911Y-17368D01*
X21793Y-17327D01*
X21770Y-17236D01*
X22060Y-16946D01*
X22131Y-16875D01*
X22060Y-16804D01*
X21770Y-16514D01*
X21793Y-16423D01*
X21930Y-16367D01*
X22134Y-16356D01*
X22327Y-16423D01*
X22350Y-16514D01*
X22367Y-16497D01*
X22426Y-16556D01*
X22426Y-14252D01*
X22451Y-14125D01*
X22523Y-14019D01*
X23719Y-12822D01*
X23719Y-12480D01*
X23526Y-12400D01*
X23379Y-12252D01*
X23299Y-12059D01*
X23299Y-11850D01*
X23379Y-11657D01*
X23527Y-11510D01*
X23719Y-11430D01*
X23719Y-10119D01*
X23526Y-10039D01*
X23379Y-09891D01*
X23299Y-09698D01*
X23299Y-09489D01*
X23379Y-09296D01*
X23527Y-09149D01*
X23720Y-09069D01*
X23929Y-09069D01*
X24122Y-09149D01*
X24269Y-09297D01*
X24349Y-09490D01*
X24349Y-09699D01*
X24269Y-09892D01*
X24121Y-10039D01*
X23928Y-10119D01*
X23719Y-10119D01*
X23719Y-11430D01*
X23929Y-11430D01*
X24122Y-11510D01*
X24269Y-11658D01*
X24349Y-11851D01*
X24349Y-12060D01*
X24269Y-12253D01*
X24121Y-12400D01*
X23928Y-12480D01*
X23719Y-12480D01*
X23719Y-12822D01*
X26302Y-10239D01*
X26373Y-10191D01*
X26410Y-10167D01*
X26536Y-10142D01*
X26719Y-10142D01*
X26719Y-10119D01*
X26526Y-10039D01*
X26379Y-09891D01*
X26299Y-09698D01*
X26299Y-09489D01*
X26379Y-09296D01*
X26527Y-09149D01*
X26720Y-09069D01*
X26929Y-09069D01*
X27122Y-09149D01*
X27269Y-09297D01*
X27349Y-09490D01*
X27349Y-09699D01*
X27269Y-09892D01*
X27121Y-10039D01*
X26928Y-10119D01*
X26719Y-10119D01*
X26719Y-10142D01*
X27845Y-10142D01*
X27894Y-10093D01*
X27894Y-09864D01*
X27983Y-09651D01*
X28146Y-09488D01*
X28165Y-09479D01*
X28145Y-09471D01*
X27982Y-09308D01*
X27894Y-09095D01*
X27894Y-08864D01*
X27983Y-08651D01*
X28146Y-08488D01*
X28359Y-08400D01*
X28590Y-08400D01*
X28803Y-08489D01*
X28966Y-08652D01*
X29054Y-08865D01*
X29054Y-09096D01*
X28965Y-09309D01*
X28802Y-09472D01*
X28782Y-09480D01*
X28803Y-09489D01*
X28966Y-09652D01*
X29054Y-09865D01*
X29054Y-10096D01*
X28965Y-10309D01*
X28802Y-10472D01*
X28589Y-10560D01*
X28360Y-10559D01*
X28215Y-10705D01*
X28109Y-10777D01*
X27982Y-10802D01*
X26672Y-10802D01*
X23652Y-13821D01*
X23721Y-13793D01*
X23930Y-13793D01*
X24123Y-13873D01*
X24270Y-14021D01*
X24350Y-14214D01*
X24350Y-14423D01*
X24285Y-14577D01*
X26065Y-12798D01*
X26173Y-12726D01*
X26299Y-12701D01*
X26719Y-12701D01*
X26719Y-12480D01*
X26526Y-12400D01*
X26379Y-12252D01*
X26299Y-12059D01*
X26299Y-11850D01*
X26379Y-11657D01*
X26527Y-11510D01*
X26720Y-11430D01*
X26929Y-11430D01*
X27122Y-11510D01*
X27269Y-11658D01*
X27349Y-11851D01*
X27349Y-12060D01*
X27269Y-12253D01*
X27121Y-12400D01*
X26928Y-12480D01*
X26719Y-12480D01*
X26719Y-12701D01*
X27645Y-12701D01*
X27892Y-12454D01*
X27892Y-12225D01*
X27981Y-12012D01*
X28144Y-11849D01*
X28163Y-11840D01*
X28143Y-11832D01*
X27980Y-11669D01*
X27892Y-11456D01*
X27892Y-11225D01*
X27981Y-11012D01*
X28144Y-10849D01*
X28357Y-10761D01*
X28588Y-10761D01*
X28801Y-10850D01*
X28964Y-11013D01*
X29052Y-11226D01*
X29052Y-11457D01*
X28963Y-11670D01*
X28800Y-11833D01*
X28780Y-11841D01*
X28801Y-11850D01*
X28964Y-12013D01*
X29052Y-12226D01*
X29052Y-12457D01*
X28963Y-12670D01*
X28800Y-12833D01*
X28587Y-12921D01*
X28358Y-12921D01*
X28015Y-13264D01*
X27909Y-13336D01*
X27782Y-13361D01*
X26435Y-13361D01*
X23582Y-16214D01*
X23722Y-16156D01*
X23931Y-16156D01*
X24124Y-16236D01*
X24271Y-16384D01*
X24351Y-16577D01*
X24351Y-16717D01*
X26183Y-14885D01*
X26290Y-14813D01*
X26311Y-14809D01*
X26417Y-14788D01*
X26587Y-14788D01*
X26527Y-14763D01*
X26380Y-14615D01*
X26300Y-14422D01*
X26300Y-14213D01*
X26380Y-14020D01*
X26528Y-13873D01*
X26721Y-13793D01*
X26930Y-13793D01*
X27123Y-13873D01*
X27270Y-14021D01*
X27350Y-14214D01*
X27350Y-14423D01*
X27270Y-14616D01*
X27122Y-14763D01*
X27061Y-14788D01*
X27894Y-14788D01*
X27894Y-14589D01*
X27983Y-14376D01*
X28146Y-14213D01*
X28165Y-14204D01*
X28145Y-14196D01*
X27982Y-14033D01*
X27894Y-13820D01*
X27894Y-13589D01*
X27983Y-13376D01*
X28146Y-13213D01*
X28359Y-13125D01*
X28590Y-13125D01*
X28803Y-13214D01*
X28966Y-13377D01*
X29054Y-13590D01*
X29054Y-13821D01*
X28965Y-14034D01*
X28802Y-14197D01*
X28782Y-14205D01*
X28803Y-14214D01*
X28966Y-14377D01*
X29054Y-14590D01*
X29054Y-14821D01*
X28965Y-15034D01*
X28802Y-15197D01*
X28589Y-15285D01*
X28360Y-15285D01*
X28294Y-15351D01*
X28188Y-15423D01*
X28061Y-15448D01*
X26553Y-15448D01*
X24693Y-17308D01*
X26721Y-17308D01*
X26721Y-17206D01*
X26528Y-17126D01*
X26381Y-16978D01*
X26301Y-16785D01*
X26301Y-16576D01*
X26381Y-16383D01*
X26529Y-16236D01*
X26722Y-16156D01*
X26931Y-16156D01*
X27124Y-16236D01*
X27271Y-16384D01*
X27351Y-16577D01*
X27351Y-16786D01*
X27271Y-16979D01*
X27123Y-17126D01*
X26930Y-17206D01*
X26721Y-17206D01*
X26721Y-17308D01*
X27764Y-17308D01*
X27895Y-17177D01*
X27895Y-16948D01*
X27984Y-16735D01*
X28147Y-16572D01*
X28166Y-16563D01*
X28146Y-16555D01*
X27983Y-16392D01*
X27895Y-16179D01*
X27895Y-15948D01*
X27984Y-15735D01*
X28147Y-15572D01*
X28360Y-15484D01*
X28591Y-15484D01*
X28804Y-15573D01*
X28967Y-15736D01*
X29055Y-15949D01*
X29055Y-16180D01*
X28966Y-16393D01*
X28803Y-16556D01*
X28783Y-16564D01*
X28804Y-16573D01*
X28967Y-16736D01*
X29055Y-16949D01*
X29055Y-17180D01*
X28966Y-17393D01*
X28803Y-17556D01*
X28590Y-17644D01*
X28361Y-17644D01*
X28134Y-17871D01*
X28028Y-17943D01*
X27901Y-17968D01*
X24505Y-17968D01*
X23949Y-18524D01*
X24123Y-18597D01*
X24270Y-18745D01*
X24350Y-18938D01*
X24350Y-19147D01*
X24270Y-19340D01*
X24122Y-19487D01*
X23929Y-19567D01*
X23720Y-19567D01*
X23527Y-19487D01*
X23519Y-19478D01*
X23519Y-19528D01*
X23494Y-19654D01*
X23469Y-19689D01*
X23422Y-19762D01*
X22534Y-20648D01*
X22585Y-20771D01*
X22585Y-20980D01*
X22505Y-21173D01*
X22357Y-21320D01*
X22224Y-21374D01*
X22356Y-21429D01*
X23624Y-20161D01*
X23695Y-20113D01*
X23732Y-20089D01*
X23858Y-20064D01*
X26720Y-20064D01*
X26720Y-19567D01*
X26527Y-19487D01*
X26380Y-19339D01*
X26300Y-19146D01*
X26300Y-18937D01*
X26380Y-18744D01*
X26528Y-18597D01*
X26721Y-18517D01*
X26930Y-18517D01*
X27123Y-18597D01*
X27270Y-18745D01*
X27350Y-18938D01*
X27350Y-19147D01*
X27270Y-19340D01*
X27122Y-19487D01*
X26929Y-19567D01*
X26720Y-19567D01*
X26720Y-20064D01*
X27372Y-20064D01*
X27894Y-19542D01*
X27894Y-19312D01*
X27983Y-19099D01*
X28146Y-18936D01*
X28165Y-18927D01*
X28145Y-18919D01*
X27982Y-18756D01*
X27894Y-18543D01*
X27894Y-18312D01*
X27983Y-18099D01*
X28146Y-17936D01*
X28359Y-17848D01*
X28590Y-17848D01*
X28803Y-17937D01*
X28966Y-18100D01*
X29054Y-18313D01*
X29054Y-18544D01*
X28965Y-18757D01*
X28802Y-18920D01*
X28782Y-18928D01*
X28803Y-18937D01*
X28966Y-19100D01*
X29054Y-19313D01*
X29054Y-19544D01*
X28965Y-19757D01*
X28802Y-19920D01*
X28589Y-20008D01*
X28360Y-20008D01*
X27741Y-20627D01*
X27635Y-20699D01*
X27508Y-20724D01*
X23994Y-20724D01*
X23837Y-20881D01*
X23928Y-20881D01*
X24121Y-20961D01*
X24268Y-21109D01*
X24348Y-21302D01*
X24348Y-21511D01*
X24268Y-21704D01*
X24120Y-21851D01*
X23927Y-21931D01*
X23718Y-21931D01*
X23525Y-21851D01*
X23378Y-21703D01*
X23298Y-21510D01*
X23298Y-21420D01*
X22610Y-22108D01*
X22504Y-22180D01*
X22496Y-22181D01*
X22357Y-22320D01*
X22224Y-22374D01*
X22358Y-22430D01*
X22472Y-22545D01*
X26718Y-22545D01*
X26718Y-21931D01*
X26525Y-21851D01*
X26378Y-21703D01*
X26298Y-21510D01*
X26298Y-21301D01*
X26378Y-21108D01*
X26526Y-20961D01*
X26719Y-20881D01*
X26928Y-20881D01*
X27121Y-20961D01*
X27268Y-21109D01*
X27348Y-21302D01*
X27348Y-21511D01*
X27268Y-21704D01*
X27120Y-21851D01*
X26927Y-21931D01*
X26718Y-21931D01*
X26718Y-22545D01*
X27253Y-22545D01*
X27893Y-21905D01*
X27893Y-21675D01*
X27982Y-21462D01*
X28145Y-21299D01*
X28164Y-21290D01*
X28144Y-21282D01*
X27981Y-21119D01*
X27893Y-20906D01*
X27893Y-20675D01*
X27982Y-20462D01*
X28145Y-20299D01*
X28358Y-20211D01*
X28589Y-20211D01*
X28802Y-20300D01*
X28965Y-20463D01*
X29053Y-20676D01*
X29053Y-20907D01*
X28964Y-21120D01*
X28801Y-21283D01*
X28781Y-21291D01*
X28802Y-21300D01*
X28965Y-21463D01*
X29053Y-21676D01*
X29053Y-21907D01*
X28964Y-22120D01*
X28801Y-22283D01*
X28588Y-22371D01*
X28359Y-22371D01*
X27622Y-23108D01*
X27516Y-23180D01*
X27389Y-23205D01*
X22472Y-23204D01*
X22357Y-23320D01*
X22164Y-23400D01*
X21955Y-23400D01*
X21762Y-23320D01*
X21647Y-23205D01*
X21231Y-23205D01*
X21701Y-23675D01*
X22648Y-23675D01*
X22775Y-23700D01*
X22881Y-23772D01*
X23149Y-24040D01*
X23368Y-24040D01*
X23298Y-23870D01*
X23298Y-23661D01*
X23378Y-23468D01*
X23526Y-23321D01*
X23719Y-23241D01*
X23928Y-23241D01*
X24121Y-23321D01*
X24268Y-23469D01*
X24348Y-23662D01*
X24348Y-23871D01*
X24277Y-24040D01*
X26368Y-24040D01*
X26298Y-23870D01*
X26298Y-23661D01*
X26378Y-23468D01*
X26526Y-23321D01*
X26719Y-23241D01*
X26928Y-23241D01*
X27121Y-23321D01*
X27268Y-23469D01*
X27348Y-23662D01*
X27348Y-23871D01*
X27277Y-24040D01*
X27894Y-24040D01*
X27894Y-24035D01*
X27983Y-23822D01*
X28146Y-23659D01*
X28165Y-23650D01*
X28145Y-23642D01*
X27982Y-23479D01*
X27894Y-23266D01*
X27894Y-23035D01*
X27983Y-22822D01*
X28146Y-22659D01*
X28359Y-22571D01*
X28590Y-22571D01*
X28803Y-22660D01*
X28966Y-22823D01*
X29054Y-23036D01*
X29054Y-23267D01*
X28965Y-23480D01*
X28802Y-23643D01*
X28782Y-23651D01*
X28803Y-23660D01*
X28966Y-23823D01*
X29054Y-24036D01*
X29054Y-24267D01*
X28965Y-24480D01*
X28802Y-24643D01*
X28589Y-24731D01*
X28358Y-24731D01*
X28274Y-24696D01*
X28255Y-24700D01*
X23013Y-24700D01*
X22907Y-24678D01*
X22886Y-24675D01*
X22780Y-24603D01*
X22736Y-24559D01*
X22783Y-24672D01*
X22783Y-24881D01*
X22703Y-25074D01*
X22555Y-25221D01*
X22362Y-25301D01*
X22153Y-25301D01*
X21960Y-25221D01*
X21813Y-25073D01*
X21733Y-24880D01*
X21733Y-24671D01*
X21813Y-24478D01*
X21956Y-24335D01*
X21565Y-24335D01*
X21459Y-24313D01*
X21438Y-24310D01*
X21332Y-24238D01*
X20299Y-23205D01*
X19472Y-23204D01*
X19357Y-23320D01*
X19164Y-23400D01*
X18955Y-23400D01*
X18762Y-23320D01*
X18647Y-23205D01*
X17456Y-23205D01*
X16342Y-24320D01*
X16236Y-24392D01*
X16109Y-24417D01*
X13643Y-24417D01*
X13429Y-24630D01*
X13503Y-24627D01*
X13705Y-24698D01*
X13732Y-24792D01*
X13423Y-25098D01*
X13353Y-25170D01*
X13046Y-25478D01*
X12952Y-25451D01*
X12926Y-25389D01*
X12889Y-25481D01*
X12735Y-25635D01*
X12650Y-25670D01*
X12735Y-25705D01*
X12889Y-25859D01*
X12924Y-25943D01*
X12959Y-25859D01*
X13113Y-25705D01*
X13208Y-25665D01*
X13143Y-25642D01*
X13116Y-25548D01*
X13424Y-25241D01*
X13732Y-25548D01*
X13705Y-25642D01*
X13643Y-25667D01*
X13735Y-25705D01*
X13802Y-25772D01*
X13802Y-25478D01*
X13495Y-25170D01*
X13802Y-24862D01*
X13896Y-24889D01*
X13956Y-25036D01*
X13967Y-25249D01*
X13896Y-25451D01*
X13802Y-25478D01*
X13802Y-25772D01*
X13889Y-25859D01*
X13973Y-26061D01*
X13973Y-26279D01*
X13889Y-26481D01*
X13735Y-26635D01*
X13631Y-26677D01*
X14391Y-26677D01*
X17562Y-23507D01*
X17670Y-23435D01*
X17796Y-23410D01*
X19925Y-23410D01*
X19957Y-23379D01*
X20113Y-23315D01*
X20282Y-23315D01*
X20438Y-23380D01*
X20558Y-23500D01*
X20622Y-23656D01*
X20622Y-23825D01*
X20557Y-23981D01*
X20437Y-24101D01*
X20281Y-24165D01*
X20112Y-24165D01*
X19956Y-24100D01*
X19926Y-24070D01*
X17932Y-24070D01*
X15740Y-26261D01*
X16228Y-26262D01*
X16319Y-26300D01*
X16389Y-26370D01*
X16427Y-26462D01*
X16427Y-26523D01*
X16500Y-26503D01*
X16807Y-26811D01*
X16500Y-27119D01*
X16427Y-27098D01*
X16427Y-27161D01*
X16389Y-27252D01*
X16319Y-27322D01*
X16227Y-27360D01*
X15528Y-27360D01*
X15528Y-27481D01*
X16799Y-27481D01*
X16799Y-27354D01*
X16597Y-27283D01*
X16570Y-27189D01*
X16878Y-26882D01*
X16878Y-26740D01*
X16570Y-26433D01*
X16597Y-26339D01*
X16744Y-26279D01*
X16957Y-26268D01*
X17159Y-26339D01*
X17186Y-26433D01*
X16878Y-26740D01*
X16878Y-26882D01*
X17186Y-27189D01*
X17159Y-27283D01*
X17012Y-27343D01*
X16799Y-27354D01*
X16799Y-27481D01*
X17256Y-27481D01*
X17256Y-27119D01*
X16949Y-26811D01*
X17256Y-26503D01*
X17350Y-26530D01*
X17410Y-26677D01*
X17421Y-26890D01*
X17350Y-27092D01*
X17256Y-27119D01*
X17256Y-27481D01*
X19153Y-27481D01*
X19153Y-27301D01*
X18960Y-27221D01*
X18813Y-27073D01*
X18733Y-26880D01*
X18733Y-26671D01*
X18813Y-26478D01*
X18961Y-26331D01*
X19154Y-26251D01*
X19363Y-26251D01*
X19556Y-26331D01*
X19703Y-26479D01*
X19783Y-26672D01*
X19783Y-26881D01*
X19703Y-27074D01*
X19555Y-27221D01*
X19362Y-27301D01*
X19153Y-27301D01*
X19153Y-27481D01*
X21897Y-27481D01*
X21897Y-27066D01*
X21806Y-27043D01*
X21750Y-26906D01*
X21739Y-26702D01*
X21806Y-26509D01*
X21897Y-26486D01*
X22187Y-26776D01*
X21897Y-27066D01*
X21897Y-27481D01*
X22184Y-27481D01*
X22184Y-27295D01*
X21991Y-27228D01*
X21968Y-27137D01*
X22258Y-26847D01*
X22258Y-26705D01*
X21968Y-26415D01*
X21991Y-26324D01*
X22128Y-26268D01*
X22332Y-26257D01*
X22525Y-26324D01*
X22548Y-26415D01*
X22258Y-26705D01*
X22258Y-26847D01*
X22548Y-27137D01*
X22525Y-27228D01*
X22388Y-27284D01*
X22184Y-27295D01*
X22184Y-27481D01*
X22619Y-27481D01*
X22619Y-27066D01*
X22329Y-26776D01*
X22619Y-26486D01*
X22710Y-26509D01*
X22766Y-26646D01*
X22777Y-26850D01*
X22710Y-27043D01*
X22619Y-27066D01*
X22619Y-27481D01*
X26771Y-27481D01*
X26771Y-27259D01*
X26645Y-27234D01*
X26609Y-27209D01*
X26537Y-27162D01*
X25099Y-25724D01*
X24161Y-25724D01*
X24270Y-25833D01*
X24350Y-26026D01*
X24350Y-26235D01*
X24270Y-26428D01*
X24122Y-26575D01*
X23929Y-26655D01*
X23720Y-26655D01*
X23527Y-26575D01*
X23380Y-26427D01*
X23300Y-26234D01*
X23300Y-26025D01*
X23380Y-25832D01*
X23488Y-25724D01*
X23324Y-25723D01*
X23067Y-25981D01*
X22961Y-26053D01*
X22834Y-26078D01*
X21023Y-26078D01*
X20897Y-26053D01*
X20861Y-26028D01*
X20789Y-25981D01*
X19914Y-25105D01*
X19670Y-25106D01*
X19555Y-25221D01*
X19362Y-25301D01*
X19153Y-25301D01*
X18960Y-25221D01*
X18813Y-25073D01*
X18733Y-24880D01*
X18733Y-24671D01*
X18813Y-24478D01*
X18961Y-24331D01*
X19154Y-24251D01*
X19363Y-24251D01*
X19556Y-24331D01*
X19670Y-24446D01*
X20051Y-24446D01*
X20178Y-24471D01*
X20284Y-24543D01*
X21159Y-25418D01*
X22697Y-25418D01*
X22954Y-25161D01*
X23025Y-25113D01*
X23062Y-25089D01*
X23188Y-25064D01*
X25236Y-25064D01*
X25363Y-25089D01*
X25469Y-25161D01*
X26309Y-26001D01*
X26380Y-25832D01*
X26528Y-25685D01*
X26721Y-25605D01*
X26930Y-25605D01*
X27123Y-25685D01*
X27270Y-25833D01*
X27350Y-26026D01*
X27350Y-26235D01*
X27270Y-26428D01*
X27122Y-26575D01*
X27064Y-26599D01*
X27895Y-26599D01*
X27895Y-26399D01*
X27984Y-26186D01*
X28147Y-26023D01*
X28166Y-26014D01*
X28146Y-26006D01*
X27983Y-25843D01*
X27895Y-25630D01*
X27895Y-25399D01*
X27984Y-25186D01*
X28147Y-25023D01*
X28360Y-24935D01*
X28591Y-24935D01*
X28804Y-25024D01*
X28967Y-25187D01*
X29055Y-25400D01*
X29055Y-25631D01*
X28966Y-25844D01*
X28803Y-26007D01*
X28783Y-26015D01*
X28804Y-26024D01*
X28967Y-26187D01*
X29055Y-26400D01*
X29055Y-26631D01*
X28966Y-26844D01*
X28803Y-27007D01*
X28590Y-27095D01*
X28361Y-27095D01*
X28294Y-27162D01*
X28188Y-27234D01*
X28061Y-27259D01*
X26771Y-27259D01*
X26771Y-27481D01*
X29745Y-27481D01*
M02*
