G04 (created by PCBNEW-RS274X (2010-12-18 BZR 2669)-stable) date 2011-01-01T22:16:00 CET*
G01*
G70*
G90*
%MOIN*%
G04 Gerber Fmt 3.4, Leading zero omitted, Abs format*
%FSLAX34Y34*%
G04 APERTURE LIST*
%ADD10C,0.006000*%
%ADD11C,0.012000*%
%ADD12C,0.015000*%
%ADD13R,0.070000X0.070000*%
%ADD14C,0.070000*%
%ADD15C,0.060000*%
%ADD16R,0.060000X0.060000*%
%ADD17R,0.075000X0.075000*%
%ADD18C,0.075000*%
%ADD19C,0.055000*%
%ADD20R,0.035000X0.055000*%
%ADD21R,0.055000X0.035000*%
%ADD22C,0.236200*%
%ADD23C,0.078700*%
%ADD24C,0.050000*%
%ADD25C,0.118100*%
%ADD26C,0.076000*%
%ADD27C,0.085900*%
%ADD28C,0.052000*%
%ADD29O,0.070500X0.141000*%
%ADD30R,0.100000X0.100000*%
%ADD31C,0.100000*%
%ADD32C,0.031500*%
%ADD33C,0.019700*%
%ADD34C,0.049200*%
%ADD35C,0.098400*%
%ADD36C,0.010000*%
%ADD37C,0.078700*%
G04 APERTURE END LIST*
G54D10*
G54D11*
X28980Y-25524D02*
X28980Y-24724D01*
X28723Y-25524D02*
X28723Y-25105D01*
X28752Y-25029D01*
X28809Y-24990D01*
X28894Y-24990D01*
X28952Y-25029D01*
X28980Y-25067D01*
X28523Y-24990D02*
X28294Y-24990D01*
X28437Y-24724D02*
X28437Y-25410D01*
X28409Y-25486D01*
X28351Y-25524D01*
X28294Y-25524D01*
X28180Y-24990D02*
X27951Y-24990D01*
X28094Y-24724D02*
X28094Y-25410D01*
X28066Y-25486D01*
X28008Y-25524D01*
X27951Y-25524D01*
X27751Y-24990D02*
X27751Y-25790D01*
X27751Y-25029D02*
X27694Y-24990D01*
X27580Y-24990D01*
X27523Y-25029D01*
X27494Y-25067D01*
X27465Y-25143D01*
X27465Y-25371D01*
X27494Y-25448D01*
X27523Y-25486D01*
X27580Y-25524D01*
X27694Y-25524D01*
X27751Y-25486D01*
X27208Y-25448D02*
X27180Y-25486D01*
X27208Y-25524D01*
X27237Y-25486D01*
X27208Y-25448D01*
X27208Y-25524D01*
X27208Y-25029D02*
X27180Y-25067D01*
X27208Y-25105D01*
X27237Y-25067D01*
X27208Y-25029D01*
X27208Y-25105D01*
X26494Y-24686D02*
X27008Y-25714D01*
X25865Y-24686D02*
X26379Y-25714D01*
X25407Y-25524D02*
X25407Y-24724D01*
X25407Y-25486D02*
X25464Y-25524D01*
X25578Y-25524D01*
X25636Y-25486D01*
X25664Y-25448D01*
X25693Y-25371D01*
X25693Y-25143D01*
X25664Y-25067D01*
X25636Y-25029D01*
X25578Y-24990D01*
X25464Y-24990D01*
X25407Y-25029D01*
X24864Y-25486D02*
X24921Y-25524D01*
X25035Y-25524D01*
X25093Y-25486D01*
X25121Y-25448D01*
X25150Y-25371D01*
X25150Y-25143D01*
X25121Y-25067D01*
X25093Y-25029D01*
X25035Y-24990D01*
X24921Y-24990D01*
X24864Y-25029D01*
X24607Y-25448D02*
X24579Y-25486D01*
X24607Y-25524D01*
X24636Y-25486D01*
X24607Y-25448D01*
X24607Y-25524D01*
X24235Y-25524D02*
X24293Y-25486D01*
X24321Y-25448D01*
X24350Y-25371D01*
X24350Y-25143D01*
X24321Y-25067D01*
X24293Y-25029D01*
X24235Y-24990D01*
X24150Y-24990D01*
X24093Y-25029D01*
X24064Y-25067D01*
X24035Y-25143D01*
X24035Y-25371D01*
X24064Y-25448D01*
X24093Y-25486D01*
X24150Y-25524D01*
X24235Y-25524D01*
X23807Y-25486D02*
X23750Y-25524D01*
X23635Y-25524D01*
X23578Y-25486D01*
X23550Y-25410D01*
X23550Y-25371D01*
X23578Y-25295D01*
X23635Y-25257D01*
X23721Y-25257D01*
X23778Y-25219D01*
X23807Y-25143D01*
X23807Y-25105D01*
X23778Y-25029D01*
X23721Y-24990D01*
X23635Y-24990D01*
X23578Y-25029D01*
X23035Y-25524D02*
X23035Y-25105D01*
X23064Y-25029D01*
X23121Y-24990D01*
X23235Y-24990D01*
X23292Y-25029D01*
X23035Y-25486D02*
X23092Y-25524D01*
X23235Y-25524D01*
X23292Y-25486D01*
X23321Y-25410D01*
X23321Y-25333D01*
X23292Y-25257D01*
X23235Y-25219D01*
X23092Y-25219D01*
X23035Y-25181D01*
X22492Y-25524D02*
X22492Y-25105D01*
X22521Y-25029D01*
X22578Y-24990D01*
X22692Y-24990D01*
X22749Y-25029D01*
X22492Y-25486D02*
X22549Y-25524D01*
X22692Y-25524D01*
X22749Y-25486D01*
X22778Y-25410D01*
X22778Y-25333D01*
X22749Y-25257D01*
X22692Y-25219D01*
X22549Y-25219D01*
X22492Y-25181D01*
X22206Y-25448D02*
X22178Y-25486D01*
X22206Y-25524D01*
X22235Y-25486D01*
X22206Y-25448D01*
X22206Y-25524D01*
X21663Y-25524D02*
X21663Y-24724D01*
X21663Y-25486D02*
X21720Y-25524D01*
X21834Y-25524D01*
X21892Y-25486D01*
X21920Y-25448D01*
X21949Y-25371D01*
X21949Y-25143D01*
X21920Y-25067D01*
X21892Y-25029D01*
X21834Y-24990D01*
X21720Y-24990D01*
X21663Y-25029D01*
X21377Y-25524D02*
X21377Y-24724D01*
X21320Y-25219D02*
X21149Y-25524D01*
X21149Y-24990D02*
X21377Y-25295D01*
X20463Y-24686D02*
X20977Y-25714D01*
X20291Y-24990D02*
X19862Y-24990D01*
X20119Y-24648D02*
X20291Y-25676D01*
X19919Y-25333D02*
X20348Y-25333D01*
X20091Y-25676D02*
X19919Y-24648D01*
X19719Y-24990D02*
X19576Y-25524D01*
X19434Y-24990D01*
X18948Y-24990D02*
X18948Y-25524D01*
X19091Y-24686D02*
X19234Y-25257D01*
X18862Y-25257D01*
G54D12*
X00850Y-39900D02*
X00850Y-02550D01*
X39000Y-41150D02*
X02300Y-41150D01*
X40200Y-02550D02*
X40200Y-39650D01*
X01600Y-01800D02*
X39450Y-01800D01*
X01600Y-01800D02*
X01535Y-01803D01*
X01470Y-01812D01*
X01406Y-01826D01*
X01344Y-01846D01*
X01284Y-01871D01*
X01226Y-01901D01*
X01170Y-01936D01*
X01118Y-01976D01*
X01070Y-02020D01*
X01026Y-02068D01*
X00986Y-02120D01*
X00951Y-02176D01*
X00921Y-02234D01*
X00896Y-02294D01*
X00876Y-02356D01*
X00862Y-02420D01*
X00853Y-02485D01*
X00850Y-02550D01*
X40200Y-02550D02*
X40197Y-02485D01*
X40188Y-02420D01*
X40174Y-02356D01*
X40154Y-02294D01*
X40129Y-02234D01*
X40099Y-02176D01*
X40064Y-02120D01*
X40024Y-02068D01*
X39980Y-02020D01*
X39932Y-01976D01*
X39880Y-01936D01*
X39825Y-01901D01*
X39766Y-01871D01*
X39706Y-01846D01*
X39644Y-01826D01*
X39580Y-01812D01*
X39515Y-01803D01*
X39450Y-01800D01*
X38999Y-41149D02*
X39116Y-41131D01*
X39231Y-41103D01*
X39343Y-41065D01*
X39451Y-41017D01*
X39555Y-40960D01*
X39653Y-40894D01*
X39746Y-40820D01*
X39831Y-40738D01*
X39909Y-40649D01*
X39979Y-40553D01*
X40041Y-40452D01*
X40093Y-40345D01*
X40136Y-40235D01*
X40169Y-40121D01*
X40192Y-40005D01*
X40205Y-39887D01*
X40207Y-39770D01*
X40199Y-39651D01*
X00851Y-39899D02*
X00865Y-40016D01*
X00889Y-40131D01*
X00923Y-40244D01*
X00966Y-40354D01*
X01019Y-40460D01*
X01081Y-40560D01*
X01152Y-40655D01*
X01231Y-40743D01*
X01316Y-40824D01*
X01409Y-40897D01*
X01508Y-40962D01*
X01612Y-41018D01*
X01720Y-41064D01*
X01832Y-41101D01*
X01947Y-41129D01*
X02064Y-41146D01*
X02182Y-41152D01*
X02299Y-41149D01*
G54D13*
X04700Y-38150D03*
G54D14*
X06700Y-38150D03*
G54D13*
X02950Y-22400D03*
G54D14*
X04950Y-22400D03*
G54D10*
G36*
X15385Y-17854D02*
X14961Y-18278D01*
X14537Y-17854D01*
X14961Y-17430D01*
X15385Y-17854D01*
X15385Y-17854D01*
G37*
G54D15*
X14254Y-18561D03*
X14254Y-17146D03*
X13546Y-17854D03*
X13546Y-16439D03*
X12839Y-17146D03*
G54D16*
X26550Y-23250D03*
G54D15*
X25550Y-23250D03*
X26550Y-22250D03*
X25550Y-22250D03*
X26550Y-21250D03*
X25550Y-21250D03*
X26550Y-20250D03*
X25550Y-20250D03*
X26550Y-19250D03*
X25550Y-19250D03*
G54D17*
X13100Y-38550D03*
G54D18*
X15100Y-38550D03*
G54D19*
X08850Y-36250D03*
X09850Y-36250D03*
G54D10*
G36*
X23617Y-14356D02*
X24006Y-13967D01*
X24253Y-14214D01*
X23864Y-14603D01*
X23617Y-14356D01*
X23617Y-14356D01*
G37*
G36*
X24147Y-14886D02*
X24536Y-14497D01*
X24783Y-14744D01*
X24394Y-15133D01*
X24147Y-14886D01*
X24147Y-14886D01*
G37*
G36*
X23733Y-12844D02*
X23344Y-13233D01*
X23097Y-12986D01*
X23486Y-12597D01*
X23733Y-12844D01*
X23733Y-12844D01*
G37*
G36*
X23203Y-12314D02*
X22814Y-12703D01*
X22567Y-12456D01*
X22956Y-12067D01*
X23203Y-12314D01*
X23203Y-12314D01*
G37*
G54D20*
X27625Y-17400D03*
X28375Y-17400D03*
G54D10*
G36*
X22694Y-13417D02*
X23083Y-13806D01*
X22836Y-14053D01*
X22447Y-13664D01*
X22694Y-13417D01*
X22694Y-13417D01*
G37*
G36*
X22164Y-13947D02*
X22553Y-14336D01*
X22306Y-14583D01*
X21917Y-14194D01*
X22164Y-13947D01*
X22164Y-13947D01*
G37*
G36*
X24106Y-13733D02*
X23717Y-13344D01*
X23964Y-13097D01*
X24353Y-13486D01*
X24106Y-13733D01*
X24106Y-13733D01*
G37*
G36*
X24636Y-13203D02*
X24247Y-12814D01*
X24494Y-12567D01*
X24883Y-12956D01*
X24636Y-13203D01*
X24636Y-13203D01*
G37*
G54D17*
X13050Y-32450D03*
G54D18*
X15050Y-32450D03*
G54D16*
X23150Y-23250D03*
G54D15*
X23150Y-22250D03*
X23150Y-21250D03*
X23150Y-20250D03*
X23150Y-19250D03*
X23150Y-18250D03*
G54D16*
X13450Y-10400D03*
G54D15*
X14450Y-10400D03*
G54D16*
X13450Y-09400D03*
G54D15*
X14450Y-09400D03*
G54D19*
X08650Y-23000D03*
X07650Y-23000D03*
G54D20*
X05925Y-13050D03*
X05175Y-13050D03*
X03275Y-13050D03*
X04025Y-13050D03*
G54D21*
X03800Y-17825D03*
X03800Y-18575D03*
X03800Y-16075D03*
X03800Y-16825D03*
X05600Y-17825D03*
X05600Y-18575D03*
X05600Y-16075D03*
X05600Y-16825D03*
X11300Y-22475D03*
X11300Y-21725D03*
G54D20*
X12475Y-24650D03*
X11725Y-24650D03*
G54D21*
X10400Y-22475D03*
X10400Y-21725D03*
X04600Y-12225D03*
X04600Y-11475D03*
G54D20*
X10125Y-26400D03*
X10875Y-26400D03*
G54D21*
X03800Y-15125D03*
X03800Y-14375D03*
X05600Y-15125D03*
X05600Y-14375D03*
G54D20*
X12775Y-26400D03*
X12025Y-26400D03*
X09725Y-24650D03*
X10475Y-24650D03*
G54D19*
X08850Y-30150D03*
X09850Y-30150D03*
G54D22*
X38800Y-08150D03*
X38850Y-39800D03*
X02200Y-39800D03*
X02200Y-08150D03*
G54D23*
X01400Y-04050D03*
G54D24*
X22300Y-03689D03*
X22700Y-04453D03*
X23100Y-03689D03*
X23500Y-04453D03*
X23900Y-03689D03*
X24300Y-04453D03*
X24700Y-03689D03*
X25100Y-04453D03*
X21000Y-06250D03*
X21900Y-06250D03*
X25500Y-06250D03*
X26400Y-06250D03*
G54D25*
X26200Y-02650D03*
X21200Y-02650D03*
G54D23*
X26900Y-04050D03*
G54D24*
X28700Y-03689D03*
X29100Y-04453D03*
X29500Y-03689D03*
X29900Y-04453D03*
X30300Y-03689D03*
X30700Y-04453D03*
X31100Y-03689D03*
X31500Y-04453D03*
X27400Y-06250D03*
X28300Y-06250D03*
X31900Y-06250D03*
X32800Y-06250D03*
G54D25*
X32600Y-02650D03*
X27600Y-02650D03*
G54D23*
X33300Y-04050D03*
G54D24*
X35100Y-03689D03*
X35500Y-04453D03*
X35900Y-03689D03*
X36300Y-04453D03*
X36700Y-03689D03*
X37100Y-04453D03*
X37500Y-03689D03*
X37900Y-04453D03*
X33800Y-06250D03*
X34700Y-06250D03*
X38300Y-06250D03*
X39200Y-06250D03*
G54D25*
X39000Y-02650D03*
X34000Y-02650D03*
G54D23*
X39700Y-04050D03*
G54D24*
X15900Y-03689D03*
X16300Y-04453D03*
X16700Y-03689D03*
X17100Y-04453D03*
X17500Y-03689D03*
X17900Y-04453D03*
X18300Y-03689D03*
X18700Y-04453D03*
X14600Y-06250D03*
X15500Y-06250D03*
X19100Y-06250D03*
X20000Y-06250D03*
G54D25*
X19800Y-02650D03*
X14800Y-02650D03*
G54D23*
X20500Y-04050D03*
G54D24*
X09500Y-03689D03*
X09900Y-04453D03*
X10300Y-03689D03*
X10700Y-04453D03*
X11100Y-03689D03*
X11500Y-04453D03*
X11900Y-03689D03*
X12300Y-04453D03*
X08200Y-06250D03*
X09100Y-06250D03*
X12700Y-06250D03*
X13600Y-06250D03*
G54D25*
X13400Y-02650D03*
X08400Y-02650D03*
G54D23*
X14100Y-04050D03*
G54D24*
X03100Y-03689D03*
X03500Y-04453D03*
X03900Y-03689D03*
X04300Y-04453D03*
X04700Y-03689D03*
X05100Y-04453D03*
X05500Y-03689D03*
X05900Y-04453D03*
X01800Y-06250D03*
X02700Y-06250D03*
X06300Y-06250D03*
X07200Y-06250D03*
G54D25*
X07000Y-02650D03*
X02000Y-02650D03*
G54D23*
X07700Y-04050D03*
G54D26*
X28700Y-29650D03*
G54D27*
X28700Y-33650D03*
X28700Y-36650D03*
X31700Y-35650D03*
G54D26*
X31700Y-29650D03*
X35200Y-29650D03*
G54D27*
X35200Y-33650D03*
X35200Y-36650D03*
X38200Y-35650D03*
G54D26*
X38200Y-29650D03*
G54D28*
X03700Y-28900D03*
X01700Y-28400D03*
X03700Y-27900D03*
X01700Y-27400D03*
X03700Y-26900D03*
X01700Y-26400D03*
X03700Y-25900D03*
G54D29*
X04000Y-32150D03*
X04000Y-35150D03*
G54D16*
X11850Y-13800D03*
G54D15*
X11850Y-12800D03*
X12850Y-13800D03*
X12850Y-12800D03*
X13850Y-13800D03*
X13850Y-12800D03*
X14850Y-13800D03*
X14850Y-12800D03*
X15850Y-13800D03*
X15850Y-12800D03*
G54D30*
X26294Y-39685D03*
G54D31*
X28263Y-39685D03*
X30232Y-39685D03*
G54D30*
X32200Y-39685D03*
G54D31*
X34169Y-39685D03*
X36138Y-39685D03*
G54D30*
X20200Y-39650D03*
G54D31*
X22200Y-39650D03*
G54D32*
X09700Y-40000D03*
X36300Y-05400D03*
X36200Y-06350D03*
X29900Y-05400D03*
X17100Y-05350D03*
X10700Y-05350D03*
X06550Y-05350D03*
X12900Y-24800D03*
X10500Y-19500D03*
X10900Y-21250D03*
X10850Y-22100D03*
X10500Y-22900D03*
X11050Y-22900D03*
X12400Y-24100D03*
X09450Y-23650D03*
X10550Y-09600D03*
X19100Y-12650D03*
X17750Y-11300D03*
X27100Y-17400D03*
X25200Y-18400D03*
X19900Y-09300D03*
X21050Y-10450D03*
X18000Y-24750D03*
X36450Y-19600D03*
X33950Y-10050D03*
X34750Y-10050D03*
X23850Y-13950D03*
X23050Y-13650D03*
X23600Y-13100D03*
X17600Y-18400D03*
X10100Y-25750D03*
X12750Y-25750D03*
X06300Y-19250D03*
X02850Y-18400D03*
X06300Y-18850D03*
X02900Y-16850D03*
X03550Y-05200D03*
X02850Y-13050D03*
X06350Y-16050D03*
X07150Y-24000D03*
X06300Y-16850D03*
X06850Y-23250D03*
X06300Y-18450D03*
X06250Y-11050D03*
X06250Y-12050D03*
X06350Y-13050D03*
X21100Y-11150D03*
X18450Y-09400D03*
X06000Y-31450D03*
X06000Y-31050D03*
X06000Y-29600D03*
X04400Y-20100D03*
X04400Y-18750D03*
X11550Y-24000D03*
X28050Y-16700D03*
X09850Y-09800D03*
X11700Y-07900D03*
X28350Y-22800D03*
X37350Y-18350D03*
X38400Y-18350D03*
X36400Y-10400D03*
X33950Y-10950D03*
X17150Y-34500D03*
X22550Y-12700D03*
X22650Y-14700D03*
X24900Y-14350D03*
X24800Y-12500D03*
X10800Y-36800D03*
X13550Y-35150D03*
X08250Y-21700D03*
X10800Y-31000D03*
X13567Y-29100D03*
X07800Y-20100D03*
X06350Y-20100D03*
X14100Y-22000D03*
X10400Y-21250D03*
X11500Y-22950D03*
X10550Y-24000D03*
X08550Y-29100D03*
X11750Y-29100D03*
X08550Y-35100D03*
X11650Y-35150D03*
X05350Y-27400D03*
X04950Y-10900D03*
X13750Y-24300D03*
X06700Y-09200D03*
X07150Y-09600D03*
X13450Y-24000D03*
X04000Y-31100D03*
X37050Y-16800D03*
X37050Y-20800D03*
X33300Y-06650D03*
X15650Y-04600D03*
X14800Y-04600D03*
X22100Y-13050D03*
X20100Y-11950D03*
X17050Y-12400D03*
X16400Y-18150D03*
X17100Y-18400D03*
X17250Y-14800D03*
X27400Y-16050D03*
X17400Y-15700D03*
X27750Y-15700D03*
X25650Y-13900D03*
X14150Y-08000D03*
X28050Y-10000D03*
X28050Y-08250D03*
X27250Y-12200D03*
X27950Y-12900D03*
X27600Y-13500D03*
X26550Y-12450D03*
X27400Y-10000D03*
X25850Y-08450D03*
X27100Y-11350D03*
X28400Y-12450D03*
X26400Y-11750D03*
X28350Y-12850D03*
X22150Y-16450D03*
X17100Y-11400D03*
X12450Y-08100D03*
X11700Y-11300D03*
X22200Y-16950D03*
X25150Y-17000D03*
X36250Y-09150D03*
X25150Y-16550D03*
X35300Y-09000D03*
X34100Y-08700D03*
X29400Y-12300D03*
X25150Y-16100D03*
X23600Y-15750D03*
X17200Y-10850D03*
G54D33*
X11850Y-13800D02*
X10650Y-13800D01*
X09400Y-12550D02*
X09400Y-07650D01*
X09400Y-07650D02*
X11300Y-05750D01*
X11300Y-05750D02*
X20750Y-05750D01*
X20750Y-05750D02*
X21100Y-05400D01*
X21100Y-05400D02*
X23500Y-05400D01*
X10650Y-13800D02*
X09400Y-12550D01*
X04000Y-34450D02*
X04000Y-35150D01*
G54D34*
X09700Y-40000D02*
X09700Y-40650D01*
X27550Y-30800D02*
X28700Y-29650D01*
X28700Y-29650D02*
X28700Y-29650D01*
X34050Y-28500D02*
X35200Y-29650D01*
X29850Y-28500D02*
X34050Y-28500D01*
X28700Y-29650D02*
X29850Y-28500D01*
X35200Y-29650D02*
X35200Y-29650D01*
X35200Y-29650D02*
X36250Y-28600D01*
X36250Y-28600D02*
X38700Y-28600D01*
X38700Y-28600D02*
X39700Y-27600D01*
X39700Y-27600D02*
X39700Y-11600D01*
X22200Y-39650D02*
X22200Y-36150D01*
X22200Y-36150D02*
X27550Y-30800D01*
X27550Y-30800D02*
X27500Y-30850D01*
G54D33*
X29900Y-05400D02*
X36300Y-05400D01*
G54D34*
X36200Y-06350D02*
X37000Y-07150D01*
X37000Y-07150D02*
X37000Y-08900D01*
X37000Y-08900D02*
X38100Y-10000D01*
X38100Y-10000D02*
X38100Y-10000D01*
X38100Y-10000D02*
X39700Y-11600D01*
G54D33*
X23500Y-05400D02*
X23500Y-04453D01*
X29900Y-05400D02*
X23500Y-05400D01*
G54D34*
X09700Y-40650D02*
X07200Y-40650D01*
X07200Y-40650D02*
X04700Y-38150D01*
X09700Y-40650D02*
X09700Y-40550D01*
X09700Y-40550D02*
X09700Y-40650D01*
X21200Y-40650D02*
X22200Y-39650D01*
X09700Y-40650D02*
X21200Y-40650D01*
G54D35*
X04700Y-38150D02*
X04700Y-35850D01*
X04700Y-35850D02*
X04000Y-35150D01*
G54D34*
X36700Y-03689D02*
X36300Y-04453D01*
X30300Y-03689D02*
X29900Y-04453D01*
X23900Y-03689D02*
X23500Y-04453D01*
X03700Y-28900D02*
X03698Y-28898D01*
G54D35*
X02594Y-22756D02*
X02594Y-28347D01*
X02594Y-28347D02*
X03145Y-28898D01*
X03145Y-28898D02*
X03420Y-28898D01*
X02594Y-22756D02*
X02950Y-22400D01*
G54D34*
X03698Y-28898D02*
X03420Y-28898D01*
X04700Y-03689D02*
X04300Y-04453D01*
G54D33*
X10700Y-05350D02*
X17100Y-05350D01*
X06550Y-05350D02*
X10700Y-05350D01*
G54D34*
X11100Y-03689D02*
X10700Y-04453D01*
X17500Y-03689D02*
X17100Y-04453D01*
G54D33*
X12475Y-24650D02*
X12750Y-24650D01*
X12750Y-24650D02*
X12900Y-24800D01*
X10500Y-19500D02*
X10900Y-19900D01*
X10900Y-19900D02*
X10900Y-21250D01*
G54D36*
X10850Y-22100D02*
X10400Y-22100D01*
X10400Y-22100D02*
X10400Y-22475D01*
X10850Y-22100D02*
X11300Y-22100D01*
X11300Y-22100D02*
X11300Y-22475D01*
X10400Y-22475D02*
X10400Y-22800D01*
X10400Y-22800D02*
X10500Y-22900D01*
X11050Y-22900D02*
X11300Y-22650D01*
X11300Y-22650D02*
X11300Y-22475D01*
G54D33*
X12475Y-24650D02*
X12500Y-24625D01*
X12500Y-24200D02*
X12400Y-24100D01*
X12500Y-24625D02*
X12500Y-24200D01*
X09725Y-24650D02*
X09450Y-24375D01*
X09450Y-24375D02*
X09450Y-23650D01*
X10550Y-09600D02*
X10550Y-12000D01*
X11350Y-12800D02*
X11850Y-12800D01*
X10550Y-12000D02*
X11350Y-12800D01*
X19100Y-12650D02*
X17750Y-11300D01*
X27625Y-17400D02*
X27100Y-17400D01*
X24750Y-21450D02*
X24750Y-18850D01*
X24750Y-21450D02*
X25550Y-22250D01*
X25200Y-18400D02*
X24750Y-18850D01*
X19900Y-09300D02*
X21050Y-10450D01*
X36450Y-19600D02*
X36450Y-21000D01*
X35250Y-22200D02*
X36450Y-21000D01*
X28300Y-22200D02*
X35250Y-22200D01*
X27850Y-22650D02*
X28300Y-22200D01*
X27850Y-23300D02*
X27850Y-22650D01*
X26850Y-24300D02*
X27850Y-23300D01*
X18450Y-24300D02*
X26850Y-24300D01*
X18450Y-24300D02*
X18000Y-24750D01*
X33550Y-10450D02*
X33950Y-10050D01*
X33550Y-17100D02*
X33550Y-10450D01*
X36000Y-19550D02*
X33550Y-17100D01*
X36400Y-19550D02*
X36000Y-19550D01*
X36450Y-19600D02*
X36400Y-19550D01*
X33950Y-10050D02*
X34750Y-10050D01*
X23935Y-14285D02*
X23935Y-14035D01*
X23935Y-14035D02*
X23850Y-13950D01*
X23415Y-12915D02*
X23600Y-13100D01*
X23415Y-12915D02*
X23535Y-12915D01*
X23535Y-12915D02*
X24035Y-13415D01*
X22765Y-13735D02*
X22965Y-13735D01*
X22965Y-13735D02*
X23050Y-13650D01*
X23850Y-13950D02*
X23300Y-13400D01*
X23300Y-13400D02*
X23050Y-13650D01*
X23600Y-13100D02*
X23300Y-13400D01*
G54D36*
X25550Y-21250D02*
X26050Y-21750D01*
X21950Y-22750D02*
X17600Y-18400D01*
X25800Y-22750D02*
X21950Y-22750D01*
X26050Y-22500D02*
X25800Y-22750D01*
X26050Y-21750D02*
X26050Y-22500D01*
X13546Y-16439D02*
X13561Y-16439D01*
X15100Y-15900D02*
X17600Y-18400D01*
X14100Y-15900D02*
X15100Y-15900D01*
X13561Y-16439D02*
X14100Y-15900D01*
G54D37*
X28700Y-36650D02*
X27600Y-36650D01*
X26294Y-37956D02*
X26294Y-39685D01*
X27600Y-36650D02*
X26294Y-37956D01*
X28700Y-36650D02*
X28600Y-36650D01*
X30200Y-37650D02*
X30200Y-39653D01*
X31700Y-35650D02*
X31700Y-36150D01*
X30200Y-37650D02*
X31700Y-36150D01*
X30200Y-39653D02*
X30232Y-39685D01*
X38200Y-35650D02*
X38200Y-36250D01*
X36138Y-38312D02*
X36138Y-39685D01*
X38200Y-36250D02*
X36138Y-38312D01*
X34200Y-38600D02*
X34200Y-39654D01*
X35200Y-33650D02*
X35200Y-34250D01*
X33400Y-37800D02*
X34200Y-38600D01*
X33400Y-36050D02*
X33400Y-37800D01*
X35200Y-34250D02*
X33400Y-36050D01*
X34200Y-39654D02*
X34169Y-39685D01*
G54D36*
X10125Y-26400D02*
X10125Y-25775D01*
X10125Y-25775D02*
X10100Y-25750D01*
X12775Y-26400D02*
X12775Y-25775D01*
X12775Y-25775D02*
X12750Y-25750D01*
X04475Y-19250D02*
X03450Y-19250D01*
X06300Y-19250D02*
X04475Y-19250D01*
X02850Y-18650D02*
X02850Y-18400D01*
X03450Y-19250D02*
X02850Y-18650D01*
X03025Y-18575D02*
X03800Y-18575D01*
X02850Y-18400D02*
X03025Y-18575D01*
X02500Y-17250D02*
X02900Y-16850D01*
X02500Y-18600D02*
X02500Y-17250D01*
X03350Y-19450D02*
X02500Y-18600D01*
X05950Y-19450D02*
X03350Y-19450D01*
X06100Y-19600D02*
X05950Y-19450D01*
X06400Y-19600D02*
X06100Y-19600D01*
X06600Y-19400D02*
X06400Y-19600D01*
X06600Y-19000D02*
X06600Y-19400D01*
X06450Y-18850D02*
X06600Y-19000D01*
X06300Y-18850D02*
X06450Y-18850D01*
X02925Y-16825D02*
X03800Y-16825D01*
X02900Y-16850D02*
X02925Y-16825D01*
X05097Y-04453D02*
X05100Y-04453D01*
X04350Y-05200D02*
X05097Y-04453D01*
X03550Y-05200D02*
X04350Y-05200D01*
X02850Y-13050D02*
X03275Y-13050D01*
X07650Y-23000D02*
X07650Y-23000D01*
X07331Y-22681D02*
X07331Y-17031D01*
X07650Y-23000D02*
X07331Y-22681D01*
X05600Y-16075D02*
X05225Y-16075D01*
X05175Y-17825D02*
X05600Y-17825D01*
X05000Y-17650D02*
X05175Y-17825D01*
X05000Y-16300D02*
X05000Y-17650D01*
X05225Y-16075D02*
X05000Y-16300D01*
X05600Y-16075D02*
X06325Y-16075D01*
X06325Y-16075D02*
X06350Y-16050D01*
X05600Y-15125D02*
X05600Y-16075D01*
X07331Y-17031D02*
X06350Y-16050D01*
X06500Y-16850D02*
X06300Y-16850D01*
X07150Y-17500D02*
X06500Y-16850D01*
X07150Y-24000D02*
X07150Y-17500D01*
X06275Y-16825D02*
X05600Y-16825D01*
X06300Y-16850D02*
X06275Y-16825D01*
X06550Y-18450D02*
X06300Y-18450D01*
X06850Y-18750D02*
X06550Y-18450D01*
X06850Y-23250D02*
X06850Y-18750D01*
X06175Y-18575D02*
X05600Y-18575D01*
X06300Y-18450D02*
X06175Y-18575D01*
X06000Y-11050D02*
X06250Y-11050D01*
X05050Y-10100D02*
X06000Y-11050D01*
X05050Y-06600D02*
X05050Y-10100D01*
X03950Y-05500D02*
X05050Y-06600D01*
X03400Y-05500D02*
X03950Y-05500D01*
X03200Y-05300D02*
X03400Y-05500D01*
X03200Y-05000D02*
X03200Y-05300D01*
X03500Y-04453D02*
X03500Y-04700D01*
X03500Y-04700D02*
X03200Y-05000D01*
X06250Y-11650D02*
X06250Y-12050D01*
X04850Y-10250D02*
X06250Y-11650D01*
X04850Y-06700D02*
X04850Y-10250D01*
X03849Y-05699D02*
X04850Y-06700D01*
X03299Y-05699D02*
X03849Y-05699D01*
X02950Y-05350D02*
X03299Y-05699D01*
X02950Y-03789D02*
X02950Y-05350D01*
X03100Y-03689D02*
X03100Y-03639D01*
X03100Y-03639D02*
X02950Y-03789D01*
X05925Y-13050D02*
X06350Y-13050D01*
G54D33*
X21100Y-11150D02*
X19350Y-09400D01*
X19350Y-09400D02*
X18450Y-09400D01*
G54D34*
X08550Y-29100D02*
X07850Y-29100D01*
X06100Y-24850D02*
X07400Y-24850D01*
X07400Y-24850D02*
X07850Y-25300D01*
X07850Y-25300D02*
X07850Y-29100D01*
X07850Y-34400D02*
X08550Y-35100D01*
X07850Y-29100D02*
X07850Y-34400D01*
X06150Y-31600D02*
X06350Y-31600D01*
X06000Y-31450D02*
X06150Y-31600D01*
X06100Y-31150D02*
X06100Y-31350D01*
X06000Y-31050D02*
X06100Y-31150D01*
X06000Y-29600D02*
X06100Y-29600D01*
X06100Y-29600D02*
X06250Y-29600D01*
X06250Y-29600D02*
X06100Y-29600D01*
G54D35*
X04950Y-22400D02*
X06100Y-23550D01*
X06700Y-31950D02*
X06700Y-38150D01*
X06350Y-31600D02*
X06700Y-31950D01*
X06100Y-31350D02*
X06350Y-31600D01*
X06100Y-23550D02*
X06100Y-24850D01*
X06100Y-24850D02*
X06100Y-29600D01*
X06100Y-29600D02*
X06100Y-31350D01*
G54D33*
X04650Y-14375D02*
X04650Y-18250D01*
X04400Y-20100D02*
X04550Y-20100D01*
X04650Y-18500D02*
X04400Y-18750D01*
X04650Y-18250D02*
X04650Y-18500D01*
X12839Y-17146D02*
X12350Y-16657D01*
X12350Y-16657D02*
X12350Y-13300D01*
X12350Y-13300D02*
X11000Y-13300D01*
X09850Y-12150D02*
X09850Y-09800D01*
X11000Y-13300D02*
X09850Y-12150D01*
X12850Y-12800D02*
X12350Y-13300D01*
X11725Y-24175D02*
X11725Y-24650D01*
X11550Y-24000D02*
X11725Y-24175D01*
X28375Y-17400D02*
X28375Y-17025D01*
X28375Y-17025D02*
X28050Y-16700D01*
X10950Y-23850D02*
X11050Y-23950D01*
X10950Y-23850D02*
X09850Y-22750D01*
X09850Y-21250D02*
X09850Y-22750D01*
X11050Y-23950D02*
X11050Y-24650D01*
X37900Y-04453D02*
X39297Y-04453D01*
X39297Y-04453D02*
X39700Y-04050D01*
X31500Y-04453D02*
X32897Y-04453D01*
X32897Y-04453D02*
X33300Y-04050D01*
X25100Y-04453D02*
X26497Y-04453D01*
X26497Y-04453D02*
X26900Y-04050D01*
X18700Y-04453D02*
X20097Y-04453D01*
X20097Y-04453D02*
X20500Y-04050D01*
X12300Y-04453D02*
X13697Y-04453D01*
X13697Y-04453D02*
X14100Y-04050D01*
X05900Y-04453D02*
X07297Y-04453D01*
X07297Y-04453D02*
X07700Y-04050D01*
X09850Y-09800D02*
X09850Y-09800D01*
X09850Y-09800D02*
X09850Y-08900D01*
X09850Y-08900D02*
X10850Y-07900D01*
X10850Y-07900D02*
X11700Y-07900D01*
X38400Y-22600D02*
X38400Y-18350D01*
X38200Y-22800D02*
X38400Y-22600D01*
X28350Y-22800D02*
X38200Y-22800D01*
X37350Y-18350D02*
X38400Y-18350D01*
X34500Y-10400D02*
X36400Y-10400D01*
X33950Y-10950D02*
X34500Y-10400D01*
X17150Y-34500D02*
X17075Y-34575D01*
X17075Y-34575D02*
X17150Y-34500D01*
X22885Y-12385D02*
X22865Y-12385D01*
X22865Y-12385D02*
X22550Y-12700D01*
X22235Y-14265D02*
X22235Y-14285D01*
X22235Y-14285D02*
X22650Y-14700D01*
X24465Y-14815D02*
X24465Y-14785D01*
X24465Y-14785D02*
X24900Y-14350D01*
X24565Y-12885D02*
X24565Y-12735D01*
X24565Y-12735D02*
X24800Y-12500D01*
X05500Y-03689D02*
X04961Y-03150D01*
X02350Y-05700D02*
X01800Y-06250D01*
X02350Y-03650D02*
X02350Y-05700D01*
X02850Y-03150D02*
X02350Y-03650D01*
X02900Y-03150D02*
X02850Y-03150D01*
X04961Y-03150D02*
X02900Y-03150D01*
X12300Y-05000D02*
X18500Y-05000D01*
X18700Y-04800D02*
X18700Y-04453D01*
X18500Y-05000D02*
X18700Y-04800D01*
X05900Y-04453D02*
X05900Y-05000D01*
X12300Y-05000D02*
X12300Y-04453D01*
X05900Y-05000D02*
X12300Y-05000D01*
X31500Y-05050D02*
X25100Y-05050D01*
X25100Y-05050D02*
X25100Y-04453D01*
X31500Y-04453D02*
X31500Y-05050D01*
X37900Y-05050D02*
X37900Y-04453D01*
X31500Y-05050D02*
X37900Y-05050D01*
X13550Y-35150D02*
X16500Y-35150D01*
X16500Y-35150D02*
X17150Y-34500D01*
X10850Y-35150D02*
X10850Y-36750D01*
X10850Y-36750D02*
X10800Y-36800D01*
X11600Y-35150D02*
X13550Y-35150D01*
X08200Y-21650D02*
X08200Y-21250D01*
X08250Y-21700D02*
X08200Y-21650D01*
X10750Y-29100D02*
X10750Y-30950D01*
X10750Y-30950D02*
X10800Y-31000D01*
X13567Y-29100D02*
X11750Y-29100D01*
X06350Y-20100D02*
X04550Y-20100D01*
X07650Y-19950D02*
X07800Y-20100D01*
X04550Y-20100D02*
X02350Y-20100D01*
X02350Y-20100D02*
X01750Y-19500D01*
X01750Y-19500D02*
X01750Y-15500D01*
X01750Y-15500D02*
X02875Y-14375D01*
X02875Y-14375D02*
X03800Y-14375D01*
X05600Y-14375D02*
X06125Y-14375D01*
X06125Y-14375D02*
X07650Y-15900D01*
X07650Y-15900D02*
X07650Y-19950D01*
X07650Y-19950D02*
X07650Y-20700D01*
X07650Y-20700D02*
X08200Y-21250D01*
X08200Y-21250D02*
X09850Y-21250D01*
X09850Y-21250D02*
X10400Y-21250D01*
X10475Y-24650D02*
X11050Y-24650D01*
X11050Y-24650D02*
X11250Y-24650D01*
X11250Y-24650D02*
X11550Y-24650D01*
X11550Y-24650D02*
X11725Y-24650D01*
X11750Y-29100D02*
X11700Y-29100D01*
X11700Y-29100D02*
X11550Y-28950D01*
X11550Y-28950D02*
X11550Y-26400D01*
G54D36*
X11300Y-21725D02*
X10400Y-21725D01*
X14100Y-22000D02*
X11750Y-22000D01*
X10400Y-21725D02*
X10400Y-21250D01*
X11500Y-22950D02*
X11750Y-22700D01*
X11750Y-22700D02*
X11750Y-22000D01*
X11675Y-21725D02*
X11300Y-21725D01*
X11750Y-22000D02*
X11750Y-21800D01*
X11750Y-21800D02*
X11675Y-21725D01*
X11725Y-24650D02*
X11550Y-24650D01*
X11550Y-24650D02*
X11500Y-24650D01*
X11500Y-24650D02*
X11550Y-24650D01*
G54D33*
X10475Y-24650D02*
X10550Y-24575D01*
X10550Y-24575D02*
X10550Y-24000D01*
X11550Y-26400D02*
X10875Y-26400D01*
X11550Y-26400D02*
X12025Y-26400D01*
G54D34*
X10750Y-29100D02*
X11750Y-29100D01*
X10850Y-35150D02*
X11600Y-35150D01*
X11600Y-35150D02*
X11650Y-35150D01*
G54D33*
X08550Y-29100D02*
X11750Y-29100D01*
X08550Y-35100D02*
X08600Y-35150D01*
X08600Y-35150D02*
X11650Y-35150D01*
X05600Y-14375D02*
X04650Y-14375D01*
X04650Y-14375D02*
X03800Y-14375D01*
X06150Y-38150D02*
X06700Y-38150D01*
X05350Y-27400D02*
X05350Y-27450D01*
X05350Y-27450D02*
X05350Y-31700D01*
X05350Y-31700D02*
X05950Y-32300D01*
X05950Y-32300D02*
X05950Y-37950D01*
X05950Y-37950D02*
X06150Y-38150D01*
X06300Y-06250D02*
X06300Y-06200D01*
X07600Y-05650D02*
X08200Y-06250D01*
X06850Y-05650D02*
X07600Y-05650D01*
X06300Y-06200D02*
X06850Y-05650D01*
G54D34*
X11900Y-03689D02*
X12300Y-04453D01*
X37500Y-03689D02*
X37900Y-04453D01*
X31100Y-03689D02*
X31500Y-04453D01*
X24700Y-03689D02*
X25100Y-04453D01*
X18300Y-03689D02*
X18700Y-04453D01*
X05500Y-03689D02*
X05900Y-04453D01*
G54D33*
X04600Y-11475D02*
X04600Y-11250D01*
X04600Y-11250D02*
X04950Y-10900D01*
G54D36*
X03800Y-16075D02*
X04125Y-16075D01*
X04125Y-17825D02*
X03800Y-17825D01*
X04300Y-17650D02*
X04125Y-17825D01*
X04300Y-16250D02*
X04300Y-17650D01*
X04125Y-16075D02*
X04300Y-16250D01*
X03800Y-15125D02*
X03800Y-16075D01*
X04600Y-12225D02*
X04600Y-13050D01*
X04025Y-13050D02*
X04600Y-13050D01*
X04600Y-13050D02*
X05175Y-13050D01*
X08000Y-13200D02*
X07500Y-12700D01*
X13750Y-24300D02*
X14800Y-24300D01*
X14800Y-24300D02*
X15150Y-23950D01*
X15150Y-23950D02*
X15150Y-20350D01*
X15150Y-20350D02*
X08000Y-13200D01*
X06750Y-09250D02*
X06700Y-09200D01*
X07300Y-09250D02*
X06750Y-09250D01*
X07500Y-09450D02*
X07300Y-09250D01*
X07500Y-12700D02*
X07500Y-09450D01*
X07150Y-12650D02*
X07150Y-09600D01*
X07150Y-12650D02*
X07725Y-13225D01*
X14950Y-20450D02*
X07725Y-13225D01*
X07725Y-13225D02*
X07700Y-13200D01*
X14950Y-23850D02*
X14950Y-20450D01*
X14800Y-24000D02*
X14950Y-23850D01*
X13450Y-24000D02*
X14800Y-24000D01*
G54D35*
X04600Y-30450D02*
X04600Y-26250D01*
X04250Y-25900D02*
X03700Y-25900D01*
X04600Y-26250D02*
X04250Y-25900D01*
G54D34*
X04000Y-31100D02*
X04000Y-30950D01*
G54D35*
X04600Y-30450D02*
X04500Y-30450D01*
X04500Y-30450D02*
X04000Y-30950D01*
X04000Y-30950D02*
X04000Y-31250D01*
X04000Y-31250D02*
X04000Y-32150D01*
X04600Y-30450D02*
X04600Y-30450D01*
G54D36*
X37050Y-20800D02*
X37050Y-16800D01*
X27400Y-06250D02*
X27900Y-06750D01*
X32300Y-06750D02*
X32800Y-06250D01*
X27900Y-06750D02*
X32300Y-06750D01*
X25500Y-06250D02*
X25500Y-06300D01*
X26950Y-06700D02*
X27400Y-06250D01*
X25900Y-06700D02*
X26950Y-06700D01*
X25500Y-06300D02*
X25900Y-06700D01*
X25500Y-06250D02*
X21900Y-06250D01*
X38300Y-06250D02*
X37950Y-05900D01*
X35050Y-05900D02*
X34700Y-06250D01*
X37950Y-05900D02*
X35050Y-05900D01*
X34700Y-06250D02*
X34300Y-06650D01*
X34300Y-06650D02*
X33300Y-06650D01*
X31900Y-06250D02*
X28300Y-06250D01*
X26400Y-06250D02*
X25900Y-05750D01*
X21500Y-05750D02*
X21000Y-06250D01*
X25900Y-05750D02*
X21500Y-05750D01*
X33800Y-06250D02*
X33300Y-05750D01*
X26900Y-05750D02*
X26400Y-06250D01*
X33300Y-05750D02*
X26900Y-05750D01*
X39200Y-06250D02*
X39200Y-05750D01*
X34350Y-05700D02*
X33800Y-06250D01*
X39150Y-05700D02*
X34350Y-05700D01*
X39200Y-05750D02*
X39150Y-05700D01*
X10300Y-03689D02*
X10300Y-03650D01*
X16211Y-03200D02*
X16700Y-03689D01*
X15750Y-03200D02*
X16211Y-03200D01*
X15500Y-03450D02*
X15750Y-03200D01*
X12400Y-03450D02*
X15500Y-03450D01*
X12150Y-03200D02*
X12400Y-03450D01*
X10750Y-03200D02*
X12150Y-03200D01*
X10300Y-03650D02*
X10750Y-03200D01*
X14800Y-04600D02*
X15650Y-04600D01*
X21200Y-13050D02*
X22100Y-13050D01*
X20100Y-11950D02*
X21200Y-13050D01*
X14850Y-12800D02*
X15350Y-12300D01*
X16950Y-12300D02*
X17050Y-12400D01*
X15350Y-12300D02*
X16950Y-12300D01*
X15300Y-17050D02*
X15050Y-17050D01*
X16400Y-18150D02*
X15300Y-17050D01*
X14246Y-17854D02*
X13546Y-17854D01*
X15050Y-17050D02*
X14246Y-17854D01*
X15050Y-17050D02*
X15050Y-17050D01*
X14750Y-16650D02*
X14254Y-17146D01*
X15350Y-16650D02*
X14750Y-16650D01*
X17100Y-18400D02*
X15350Y-16650D01*
X13850Y-13800D02*
X13850Y-14750D01*
X14200Y-15100D02*
X17250Y-15100D01*
X13850Y-14750D02*
X14200Y-15100D01*
X17250Y-14800D02*
X17250Y-15100D01*
X17600Y-15100D02*
X17250Y-15100D01*
X19850Y-17350D02*
X17600Y-15100D01*
X26100Y-17350D02*
X19850Y-17350D01*
X27400Y-16050D02*
X26100Y-17350D01*
X17600Y-15500D02*
X17600Y-15450D01*
X17625Y-15475D02*
X17600Y-15500D01*
X17400Y-15700D02*
X17625Y-15475D01*
X13850Y-12800D02*
X13350Y-13300D01*
X17550Y-15400D02*
X17550Y-15400D01*
X17550Y-15400D02*
X17600Y-15450D01*
X17600Y-15450D02*
X17600Y-15450D01*
X17600Y-15450D02*
X17750Y-15600D01*
X14100Y-15400D02*
X17550Y-15400D01*
X13350Y-14650D02*
X14100Y-15400D01*
X13350Y-13300D02*
X13350Y-14650D01*
X27750Y-16150D02*
X27750Y-15700D01*
X26300Y-17600D02*
X27750Y-16150D01*
X19750Y-17600D02*
X26300Y-17600D01*
X17750Y-15600D02*
X19750Y-17600D01*
X22800Y-15400D02*
X15400Y-08000D01*
X25650Y-14350D02*
X25650Y-13900D01*
X24600Y-15400D02*
X25650Y-14350D01*
X24000Y-15400D02*
X24600Y-15400D01*
X24000Y-15400D02*
X22800Y-15400D01*
X15400Y-08000D02*
X14150Y-08000D01*
X14150Y-08000D02*
X14150Y-08000D01*
X28050Y-08250D02*
X28050Y-10000D01*
X27950Y-12900D02*
X27250Y-12200D01*
X27600Y-13500D02*
X26550Y-12450D01*
X25850Y-08450D02*
X27400Y-10000D01*
X27200Y-11250D02*
X27100Y-11350D01*
X28400Y-12450D02*
X27200Y-11250D01*
X27250Y-11750D02*
X26400Y-11750D01*
X28350Y-12850D02*
X27250Y-11750D01*
X18700Y-13000D02*
X17100Y-11400D01*
X22150Y-16450D02*
X18700Y-13000D01*
X11700Y-11300D02*
X11700Y-08850D01*
X11700Y-08850D02*
X12450Y-08100D01*
X12300Y-11900D02*
X11700Y-11300D01*
X12300Y-11900D02*
X12450Y-11900D01*
X15200Y-11900D02*
X12450Y-11900D01*
X22200Y-16950D02*
X18450Y-13200D01*
X17150Y-11900D02*
X18450Y-13200D01*
X15200Y-11900D02*
X17150Y-11900D01*
X33350Y-09300D02*
X35600Y-09300D01*
X25666Y-16984D02*
X29300Y-13350D01*
X25166Y-16984D02*
X25666Y-16984D01*
X25150Y-17000D02*
X25166Y-16984D01*
X29300Y-13350D02*
X33350Y-09300D01*
X36100Y-09300D02*
X35600Y-09300D01*
X36250Y-09150D02*
X36100Y-09300D01*
X33100Y-09050D02*
X35000Y-09050D01*
X25613Y-16537D02*
X29100Y-13050D01*
X25163Y-16537D02*
X25613Y-16537D01*
X25150Y-16550D02*
X25163Y-16537D01*
X29100Y-13050D02*
X33100Y-09050D01*
X35250Y-09050D02*
X35000Y-09050D01*
X35300Y-09000D02*
X35250Y-09050D01*
X33000Y-08700D02*
X29550Y-12150D01*
X33000Y-08700D02*
X33050Y-08700D01*
X33100Y-08700D02*
X33000Y-08700D01*
X34100Y-08700D02*
X33100Y-08700D01*
X29400Y-12300D02*
X29550Y-12150D01*
X29550Y-12150D02*
X29000Y-12700D01*
X25610Y-16090D02*
X29000Y-12700D01*
X25160Y-16090D02*
X25610Y-16090D01*
X25150Y-16100D02*
X25160Y-16090D01*
X22350Y-15300D02*
X22800Y-15750D01*
X22800Y-15750D02*
X23600Y-15750D01*
X22200Y-15150D02*
X22350Y-15300D01*
X22350Y-15300D02*
X22400Y-15350D01*
X17200Y-10850D02*
X17400Y-10650D01*
X17400Y-10650D02*
X17700Y-10650D01*
X17700Y-10650D02*
X22200Y-15150D01*
G54D10*
G36*
X15650Y-33450D02*
X15592Y-33450D01*
X15592Y-32559D01*
X15592Y-32343D01*
X15510Y-32144D01*
X15358Y-31991D01*
X15159Y-31908D01*
X14943Y-31908D01*
X14744Y-31990D01*
X14591Y-32142D01*
X14508Y-32341D01*
X14508Y-32557D01*
X14590Y-32756D01*
X14742Y-32909D01*
X14941Y-32992D01*
X15157Y-32992D01*
X15356Y-32910D01*
X15509Y-32758D01*
X15592Y-32559D01*
X15592Y-33450D01*
X13593Y-33450D01*
X13593Y-32859D01*
X13593Y-32792D01*
X13593Y-32042D01*
X13568Y-31980D01*
X13520Y-31933D01*
X13459Y-31907D01*
X13392Y-31907D01*
X13225Y-31907D01*
X13225Y-24865D01*
X13225Y-24736D01*
X13176Y-24616D01*
X13085Y-24525D01*
X12965Y-24475D01*
X12951Y-24475D01*
X12938Y-24462D01*
X12852Y-24404D01*
X12818Y-24397D01*
X12818Y-24342D01*
X12793Y-24280D01*
X12766Y-24253D01*
X12766Y-24200D01*
X12746Y-24098D01*
X12725Y-24066D01*
X12725Y-24036D01*
X12676Y-23916D01*
X12585Y-23825D01*
X12465Y-23775D01*
X12336Y-23775D01*
X12216Y-23824D01*
X12125Y-23915D01*
X12075Y-24035D01*
X12075Y-24164D01*
X12098Y-24221D01*
X12041Y-24164D01*
X11949Y-24126D01*
X11837Y-24125D01*
X11825Y-24137D01*
X11825Y-21837D01*
X11825Y-21613D01*
X11824Y-21501D01*
X11786Y-21409D01*
X11716Y-21339D01*
X11625Y-21301D01*
X11526Y-21301D01*
X11412Y-21300D01*
X11350Y-21362D01*
X11350Y-21675D01*
X11763Y-21675D01*
X11825Y-21613D01*
X11825Y-21837D01*
X11763Y-21775D01*
X11400Y-21775D01*
X11350Y-21775D01*
X11250Y-21775D01*
X11250Y-21675D01*
X11250Y-21362D01*
X11218Y-21330D01*
X11225Y-21315D01*
X11225Y-21186D01*
X11176Y-21066D01*
X11166Y-21056D01*
X11166Y-19900D01*
X11146Y-19798D01*
X11088Y-19712D01*
X11088Y-19711D01*
X10825Y-19448D01*
X10825Y-19436D01*
X10776Y-19316D01*
X10685Y-19225D01*
X10565Y-19175D01*
X10436Y-19175D01*
X10316Y-19224D01*
X10225Y-19315D01*
X10175Y-19435D01*
X10175Y-19564D01*
X10224Y-19684D01*
X10315Y-19775D01*
X10435Y-19825D01*
X10448Y-19825D01*
X10634Y-20010D01*
X10634Y-21056D01*
X10625Y-21065D01*
X10575Y-21185D01*
X10575Y-21300D01*
X10512Y-21300D01*
X10450Y-21362D01*
X10450Y-21675D01*
X10837Y-21675D01*
X10863Y-21675D01*
X11250Y-21675D01*
X11250Y-21775D01*
X11200Y-21775D01*
X10915Y-21775D01*
X10863Y-21775D01*
X10837Y-21775D01*
X10786Y-21775D01*
X10500Y-21775D01*
X10450Y-21775D01*
X10350Y-21775D01*
X10350Y-21675D01*
X10350Y-21362D01*
X10288Y-21300D01*
X10174Y-21301D01*
X10075Y-21301D01*
X09984Y-21339D01*
X09914Y-21409D01*
X09876Y-21501D01*
X09875Y-21613D01*
X09937Y-21675D01*
X10350Y-21675D01*
X10350Y-21775D01*
X10300Y-21775D01*
X09937Y-21775D01*
X09875Y-21837D01*
X09876Y-21949D01*
X09914Y-22041D01*
X09984Y-22111D01*
X10062Y-22143D01*
X10030Y-22157D01*
X09983Y-22205D01*
X09957Y-22266D01*
X09957Y-22333D01*
X09957Y-22683D01*
X09982Y-22745D01*
X10030Y-22792D01*
X10091Y-22818D01*
X10158Y-22818D01*
X10182Y-22818D01*
X10175Y-22835D01*
X10175Y-22964D01*
X10224Y-23084D01*
X10315Y-23175D01*
X10435Y-23225D01*
X10564Y-23225D01*
X10684Y-23176D01*
X10775Y-23085D01*
X10865Y-23175D01*
X10985Y-23225D01*
X11114Y-23225D01*
X11234Y-23176D01*
X11325Y-23085D01*
X11375Y-22965D01*
X11375Y-22883D01*
X11440Y-22818D01*
X11608Y-22818D01*
X11670Y-22793D01*
X11717Y-22745D01*
X11743Y-22684D01*
X11743Y-22617D01*
X11743Y-22267D01*
X11718Y-22205D01*
X11670Y-22158D01*
X11637Y-22143D01*
X11716Y-22111D01*
X11786Y-22041D01*
X11824Y-21949D01*
X11825Y-21837D01*
X11825Y-24137D01*
X11775Y-24187D01*
X11775Y-24550D01*
X11775Y-24600D01*
X11775Y-24700D01*
X11775Y-24750D01*
X11775Y-25113D01*
X11837Y-25175D01*
X11949Y-25174D01*
X12041Y-25136D01*
X12111Y-25066D01*
X12143Y-24987D01*
X12157Y-25020D01*
X12205Y-25067D01*
X12266Y-25093D01*
X12333Y-25093D01*
X12683Y-25093D01*
X12721Y-25077D01*
X12835Y-25125D01*
X12964Y-25125D01*
X13084Y-25076D01*
X13175Y-24985D01*
X13225Y-24865D01*
X13225Y-31907D01*
X13118Y-31907D01*
X13118Y-26709D01*
X13118Y-26642D01*
X13118Y-26092D01*
X13093Y-26030D01*
X13045Y-25983D01*
X12997Y-25962D01*
X13025Y-25935D01*
X13075Y-25815D01*
X13075Y-25686D01*
X13026Y-25566D01*
X12935Y-25475D01*
X12815Y-25425D01*
X12686Y-25425D01*
X12566Y-25474D01*
X12475Y-25565D01*
X12425Y-25685D01*
X12425Y-25814D01*
X12474Y-25934D01*
X12517Y-25977D01*
X12505Y-25982D01*
X12458Y-26030D01*
X12443Y-26062D01*
X12411Y-25984D01*
X12341Y-25914D01*
X12249Y-25876D01*
X12137Y-25875D01*
X12075Y-25937D01*
X12075Y-26300D01*
X12075Y-26350D01*
X12075Y-26450D01*
X12075Y-26500D01*
X12075Y-26863D01*
X12137Y-26925D01*
X12249Y-26924D01*
X12341Y-26886D01*
X12411Y-26816D01*
X12443Y-26737D01*
X12457Y-26770D01*
X12505Y-26817D01*
X12566Y-26843D01*
X12633Y-26843D01*
X12983Y-26843D01*
X13045Y-26818D01*
X13092Y-26770D01*
X13118Y-26709D01*
X13118Y-31907D01*
X12642Y-31907D01*
X12580Y-31932D01*
X12533Y-31980D01*
X12507Y-32041D01*
X12507Y-32108D01*
X12507Y-32858D01*
X12532Y-32920D01*
X12580Y-32967D01*
X12641Y-32993D01*
X12708Y-32993D01*
X13458Y-32993D01*
X13520Y-32968D01*
X13567Y-32920D01*
X13593Y-32859D01*
X13593Y-33450D01*
X11975Y-33450D01*
X11975Y-26863D01*
X11975Y-26450D01*
X11975Y-26350D01*
X11975Y-25937D01*
X11913Y-25875D01*
X11801Y-25876D01*
X11709Y-25914D01*
X11675Y-25948D01*
X11675Y-25113D01*
X11675Y-24700D01*
X11675Y-24600D01*
X11675Y-24187D01*
X11613Y-24125D01*
X11501Y-24126D01*
X11409Y-24164D01*
X11339Y-24234D01*
X11301Y-24325D01*
X11301Y-24424D01*
X11300Y-24538D01*
X11362Y-24600D01*
X11675Y-24600D01*
X11675Y-24700D01*
X11362Y-24700D01*
X11300Y-24762D01*
X11301Y-24876D01*
X11301Y-24975D01*
X11339Y-25066D01*
X11409Y-25136D01*
X11501Y-25174D01*
X11613Y-25175D01*
X11675Y-25113D01*
X11675Y-25948D01*
X11639Y-25984D01*
X11601Y-26075D01*
X11601Y-26174D01*
X11600Y-26288D01*
X11662Y-26350D01*
X11975Y-26350D01*
X11975Y-26450D01*
X11662Y-26450D01*
X11600Y-26512D01*
X11601Y-26626D01*
X11601Y-26725D01*
X11639Y-26816D01*
X11709Y-26886D01*
X11801Y-26924D01*
X11913Y-26925D01*
X11975Y-26863D01*
X11975Y-33450D01*
X11300Y-33450D01*
X11300Y-26512D01*
X11300Y-26288D01*
X11299Y-26174D01*
X11299Y-26075D01*
X11261Y-25984D01*
X11191Y-25914D01*
X11099Y-25876D01*
X10987Y-25875D01*
X10925Y-25937D01*
X10925Y-26350D01*
X11238Y-26350D01*
X11300Y-26288D01*
X11300Y-26512D01*
X11238Y-26450D01*
X10925Y-26450D01*
X10925Y-26863D01*
X10987Y-26925D01*
X11099Y-26924D01*
X11191Y-26886D01*
X11261Y-26816D01*
X11299Y-26725D01*
X11299Y-26626D01*
X11300Y-26512D01*
X11300Y-33450D01*
X10900Y-33450D01*
X10900Y-24762D01*
X10900Y-24538D01*
X10899Y-24424D01*
X10899Y-24325D01*
X10861Y-24234D01*
X10791Y-24164D01*
X10699Y-24126D01*
X10587Y-24125D01*
X10525Y-24187D01*
X10525Y-24600D01*
X10838Y-24600D01*
X10900Y-24538D01*
X10900Y-24762D01*
X10838Y-24700D01*
X10525Y-24700D01*
X10525Y-25113D01*
X10587Y-25175D01*
X10699Y-25174D01*
X10791Y-25136D01*
X10861Y-25066D01*
X10899Y-24975D01*
X10899Y-24876D01*
X10900Y-24762D01*
X10900Y-33450D01*
X10825Y-33450D01*
X10825Y-26863D01*
X10825Y-26500D01*
X10825Y-26450D01*
X10825Y-26350D01*
X10825Y-26300D01*
X10825Y-25937D01*
X10763Y-25875D01*
X10651Y-25876D01*
X10559Y-25914D01*
X10489Y-25984D01*
X10456Y-26062D01*
X10443Y-26030D01*
X10395Y-25983D01*
X10347Y-25962D01*
X10375Y-25935D01*
X10425Y-25815D01*
X10425Y-25686D01*
X10425Y-25113D01*
X10425Y-24750D01*
X10425Y-24700D01*
X10425Y-24600D01*
X10425Y-24550D01*
X10425Y-24187D01*
X10363Y-24125D01*
X10251Y-24126D01*
X10159Y-24164D01*
X10089Y-24234D01*
X10056Y-24312D01*
X10043Y-24280D01*
X09995Y-24233D01*
X09934Y-24207D01*
X09867Y-24207D01*
X09716Y-24207D01*
X09716Y-23844D01*
X09725Y-23835D01*
X09775Y-23715D01*
X09775Y-23586D01*
X09726Y-23466D01*
X09635Y-23375D01*
X09515Y-23325D01*
X09386Y-23325D01*
X09266Y-23374D01*
X09175Y-23465D01*
X09125Y-23585D01*
X09125Y-23714D01*
X09174Y-23834D01*
X09184Y-23844D01*
X09184Y-24375D01*
X09204Y-24477D01*
X09262Y-24563D01*
X09382Y-24683D01*
X09382Y-24958D01*
X09407Y-25020D01*
X09455Y-25067D01*
X09516Y-25093D01*
X09583Y-25093D01*
X09933Y-25093D01*
X09995Y-25068D01*
X10042Y-25020D01*
X10056Y-24987D01*
X10089Y-25066D01*
X10159Y-25136D01*
X10251Y-25174D01*
X10363Y-25175D01*
X10425Y-25113D01*
X10425Y-25686D01*
X10376Y-25566D01*
X10285Y-25475D01*
X10165Y-25425D01*
X10036Y-25425D01*
X09916Y-25474D01*
X09825Y-25565D01*
X09775Y-25685D01*
X09775Y-25814D01*
X09824Y-25934D01*
X09867Y-25977D01*
X09855Y-25982D01*
X09808Y-26030D01*
X09782Y-26091D01*
X09782Y-26158D01*
X09782Y-26708D01*
X09807Y-26770D01*
X09855Y-26817D01*
X09916Y-26843D01*
X09983Y-26843D01*
X10333Y-26843D01*
X10395Y-26818D01*
X10442Y-26770D01*
X10456Y-26737D01*
X10489Y-26816D01*
X10559Y-26886D01*
X10651Y-26924D01*
X10763Y-26925D01*
X10825Y-26863D01*
X10825Y-33450D01*
X10292Y-33450D01*
X10292Y-30238D01*
X10292Y-30062D01*
X10225Y-29900D01*
X10100Y-29775D01*
X09938Y-29708D01*
X09762Y-29708D01*
X09600Y-29775D01*
X09475Y-29900D01*
X09408Y-30062D01*
X09408Y-30238D01*
X09475Y-30400D01*
X09600Y-30525D01*
X09762Y-30592D01*
X09938Y-30592D01*
X10100Y-30525D01*
X10225Y-30400D01*
X10292Y-30238D01*
X10292Y-33450D01*
X09292Y-33450D01*
X09292Y-30238D01*
X09292Y-30062D01*
X09225Y-29900D01*
X09100Y-29775D01*
X09092Y-29771D01*
X09092Y-23088D01*
X09092Y-22912D01*
X09025Y-22750D01*
X08900Y-22625D01*
X08738Y-22558D01*
X08562Y-22558D01*
X08400Y-22625D01*
X08275Y-22750D01*
X08208Y-22912D01*
X08208Y-23088D01*
X08275Y-23250D01*
X08400Y-23375D01*
X08562Y-23442D01*
X08738Y-23442D01*
X08900Y-23375D01*
X09025Y-23250D01*
X09092Y-23088D01*
X09092Y-29771D01*
X08938Y-29708D01*
X08762Y-29708D01*
X08600Y-29775D01*
X08475Y-29900D01*
X08408Y-30062D01*
X08408Y-30238D01*
X08475Y-30400D01*
X08600Y-30525D01*
X08762Y-30592D01*
X08938Y-30592D01*
X09100Y-30525D01*
X09225Y-30400D01*
X09292Y-30238D01*
X09292Y-33450D01*
X07600Y-33450D01*
X07600Y-23442D01*
X07738Y-23442D01*
X07900Y-23375D01*
X08025Y-23250D01*
X08092Y-23088D01*
X08092Y-22912D01*
X08025Y-22750D01*
X07900Y-22625D01*
X07738Y-22558D01*
X07600Y-22558D01*
X07600Y-21100D01*
X07549Y-21100D01*
X07549Y-17031D01*
X07532Y-16948D01*
X07532Y-16947D01*
X07485Y-16877D01*
X06675Y-16067D01*
X06675Y-15986D01*
X06626Y-15866D01*
X06535Y-15775D01*
X06415Y-15725D01*
X06286Y-15725D01*
X06166Y-15774D01*
X06083Y-15857D01*
X06038Y-15857D01*
X06018Y-15805D01*
X05970Y-15758D01*
X05909Y-15732D01*
X05842Y-15732D01*
X05818Y-15732D01*
X05818Y-15468D01*
X05908Y-15468D01*
X05970Y-15443D01*
X06017Y-15395D01*
X06043Y-15334D01*
X06043Y-15267D01*
X06043Y-14917D01*
X06018Y-14855D01*
X05970Y-14808D01*
X05937Y-14793D01*
X06016Y-14761D01*
X06086Y-14691D01*
X06124Y-14599D01*
X06125Y-14487D01*
X06125Y-14263D01*
X06124Y-14151D01*
X06086Y-14059D01*
X06016Y-13989D01*
X05925Y-13951D01*
X05826Y-13951D01*
X05712Y-13950D01*
X05650Y-14012D01*
X05650Y-14325D01*
X06063Y-14325D01*
X06125Y-14263D01*
X06125Y-14487D01*
X06063Y-14425D01*
X05700Y-14425D01*
X05650Y-14425D01*
X05550Y-14425D01*
X05550Y-14325D01*
X05550Y-14012D01*
X05488Y-13950D01*
X05374Y-13951D01*
X05275Y-13951D01*
X05184Y-13989D01*
X05114Y-14059D01*
X05076Y-14151D01*
X05075Y-14263D01*
X05137Y-14325D01*
X05550Y-14325D01*
X05550Y-14425D01*
X05500Y-14425D01*
X05137Y-14425D01*
X05075Y-14487D01*
X05076Y-14599D01*
X05114Y-14691D01*
X05184Y-14761D01*
X05262Y-14793D01*
X05230Y-14807D01*
X05183Y-14855D01*
X05157Y-14916D01*
X05157Y-14983D01*
X05157Y-15333D01*
X05182Y-15395D01*
X05230Y-15442D01*
X05291Y-15468D01*
X05358Y-15468D01*
X05382Y-15468D01*
X05382Y-15732D01*
X05292Y-15732D01*
X05230Y-15757D01*
X05183Y-15805D01*
X05157Y-15866D01*
X05157Y-15870D01*
X05141Y-15874D01*
X05071Y-15921D01*
X04846Y-16146D01*
X04799Y-16217D01*
X04782Y-16300D01*
X04782Y-17650D01*
X04799Y-17733D01*
X04846Y-17804D01*
X05021Y-17979D01*
X05091Y-18025D01*
X05092Y-18026D01*
X05159Y-18039D01*
X05182Y-18095D01*
X05230Y-18142D01*
X05291Y-18168D01*
X05358Y-18168D01*
X05908Y-18168D01*
X05970Y-18143D01*
X06017Y-18095D01*
X06043Y-18034D01*
X06043Y-17967D01*
X06043Y-17617D01*
X06018Y-17555D01*
X05970Y-17508D01*
X05909Y-17482D01*
X05842Y-17482D01*
X05292Y-17482D01*
X05230Y-17507D01*
X05218Y-17519D01*
X05218Y-17130D01*
X05230Y-17142D01*
X05291Y-17168D01*
X05358Y-17168D01*
X05908Y-17168D01*
X05970Y-17143D01*
X06017Y-17095D01*
X06037Y-17047D01*
X06115Y-17125D01*
X06235Y-17175D01*
X06364Y-17175D01*
X06472Y-17130D01*
X06932Y-17590D01*
X06932Y-18524D01*
X06704Y-18296D01*
X06633Y-18249D01*
X06550Y-18232D01*
X06542Y-18232D01*
X06485Y-18175D01*
X06365Y-18125D01*
X06236Y-18125D01*
X06116Y-18174D01*
X06025Y-18265D01*
X06011Y-18298D01*
X05970Y-18258D01*
X05909Y-18232D01*
X05842Y-18232D01*
X05292Y-18232D01*
X05230Y-18257D01*
X05183Y-18305D01*
X05157Y-18366D01*
X05157Y-18433D01*
X05157Y-18783D01*
X05182Y-18845D01*
X05230Y-18892D01*
X05291Y-18918D01*
X05358Y-18918D01*
X05908Y-18918D01*
X05970Y-18893D01*
X05975Y-18887D01*
X05975Y-18914D01*
X06023Y-19032D01*
X04475Y-19032D01*
X03540Y-19032D01*
X03301Y-18793D01*
X03361Y-18793D01*
X03382Y-18845D01*
X03430Y-18892D01*
X03491Y-18918D01*
X03558Y-18918D01*
X04108Y-18918D01*
X04170Y-18893D01*
X04217Y-18845D01*
X04243Y-18784D01*
X04243Y-18717D01*
X04243Y-18367D01*
X04218Y-18305D01*
X04170Y-18258D01*
X04109Y-18232D01*
X04042Y-18232D01*
X03492Y-18232D01*
X03430Y-18257D01*
X03383Y-18305D01*
X03360Y-18357D01*
X03175Y-18357D01*
X03175Y-18336D01*
X03126Y-18216D01*
X03035Y-18125D01*
X02915Y-18075D01*
X02786Y-18075D01*
X02718Y-18102D01*
X02718Y-17340D01*
X02883Y-17175D01*
X02964Y-17175D01*
X03084Y-17126D01*
X03167Y-17043D01*
X03361Y-17043D01*
X03382Y-17095D01*
X03430Y-17142D01*
X03491Y-17168D01*
X03558Y-17168D01*
X04082Y-17168D01*
X04082Y-17482D01*
X04042Y-17482D01*
X03492Y-17482D01*
X03430Y-17507D01*
X03383Y-17555D01*
X03357Y-17616D01*
X03357Y-17683D01*
X03357Y-18033D01*
X03382Y-18095D01*
X03430Y-18142D01*
X03491Y-18168D01*
X03558Y-18168D01*
X04108Y-18168D01*
X04170Y-18143D01*
X04217Y-18095D01*
X04243Y-18034D01*
X04243Y-18002D01*
X04279Y-17979D01*
X04454Y-17804D01*
X04500Y-17734D01*
X04501Y-17733D01*
X04517Y-17650D01*
X04518Y-17650D01*
X04518Y-16250D01*
X04501Y-16167D01*
X04500Y-16166D01*
X04454Y-16096D01*
X04279Y-15921D01*
X04243Y-15897D01*
X04243Y-15867D01*
X04218Y-15805D01*
X04170Y-15758D01*
X04109Y-15732D01*
X04042Y-15732D01*
X04018Y-15732D01*
X04018Y-15468D01*
X04108Y-15468D01*
X04170Y-15443D01*
X04217Y-15395D01*
X04243Y-15334D01*
X04243Y-15267D01*
X04243Y-14917D01*
X04218Y-14855D01*
X04170Y-14808D01*
X04137Y-14793D01*
X04216Y-14761D01*
X04286Y-14691D01*
X04324Y-14599D01*
X04325Y-14487D01*
X04325Y-14263D01*
X04324Y-14151D01*
X04286Y-14059D01*
X04216Y-13989D01*
X04125Y-13951D01*
X04026Y-13951D01*
X03912Y-13950D01*
X03850Y-14012D01*
X03850Y-14325D01*
X04263Y-14325D01*
X04325Y-14263D01*
X04325Y-14487D01*
X04263Y-14425D01*
X03900Y-14425D01*
X03850Y-14425D01*
X03750Y-14425D01*
X03750Y-14325D01*
X03750Y-14012D01*
X03688Y-13950D01*
X03574Y-13951D01*
X03475Y-13951D01*
X03384Y-13989D01*
X03314Y-14059D01*
X03276Y-14151D01*
X03275Y-14263D01*
X03337Y-14325D01*
X03750Y-14325D01*
X03750Y-14425D01*
X03700Y-14425D01*
X03337Y-14425D01*
X03275Y-14487D01*
X03276Y-14599D01*
X03314Y-14691D01*
X03384Y-14761D01*
X03462Y-14793D01*
X03430Y-14807D01*
X03383Y-14855D01*
X03357Y-14916D01*
X03357Y-14983D01*
X03357Y-15333D01*
X03382Y-15395D01*
X03430Y-15442D01*
X03491Y-15468D01*
X03558Y-15468D01*
X03582Y-15468D01*
X03582Y-15732D01*
X03492Y-15732D01*
X03430Y-15757D01*
X03383Y-15805D01*
X03357Y-15866D01*
X03357Y-15933D01*
X03357Y-16283D01*
X03382Y-16345D01*
X03430Y-16392D01*
X03491Y-16418D01*
X03558Y-16418D01*
X04082Y-16418D01*
X04082Y-16482D01*
X04042Y-16482D01*
X03492Y-16482D01*
X03430Y-16507D01*
X03383Y-16555D01*
X03360Y-16607D01*
X03117Y-16607D01*
X03085Y-16575D01*
X02965Y-16525D01*
X02836Y-16525D01*
X02716Y-16574D01*
X02625Y-16665D01*
X02575Y-16785D01*
X02575Y-16866D01*
X02346Y-17096D01*
X02299Y-17167D01*
X02282Y-17250D01*
X02282Y-18600D01*
X02299Y-18683D01*
X02346Y-18754D01*
X03196Y-19604D01*
X03267Y-19651D01*
X03350Y-19668D01*
X05860Y-19668D01*
X05946Y-19754D01*
X06016Y-19801D01*
X06017Y-19801D01*
X06100Y-19818D01*
X06400Y-19818D01*
X06483Y-19801D01*
X06554Y-19754D01*
X06632Y-19676D01*
X06632Y-21100D01*
X01100Y-21100D01*
X01100Y-13550D01*
X07729Y-13550D01*
X14732Y-20553D01*
X14732Y-23760D01*
X14710Y-23782D01*
X13692Y-23782D01*
X13635Y-23725D01*
X13515Y-23675D01*
X13386Y-23675D01*
X13266Y-23724D01*
X13175Y-23815D01*
X13125Y-23935D01*
X13125Y-24064D01*
X13174Y-24184D01*
X13265Y-24275D01*
X13385Y-24325D01*
X13425Y-24325D01*
X13425Y-24364D01*
X13474Y-24484D01*
X13565Y-24575D01*
X13685Y-24625D01*
X13814Y-24625D01*
X13934Y-24576D01*
X13992Y-24518D01*
X14800Y-24518D01*
X14883Y-24501D01*
X14954Y-24454D01*
X15303Y-24105D01*
X15303Y-24104D01*
X15304Y-24104D01*
X15350Y-24034D01*
X15351Y-24033D01*
X15367Y-23951D01*
X15368Y-23950D01*
X15368Y-21189D01*
X15650Y-21471D01*
X15650Y-33450D01*
X15650Y-33450D01*
G37*
G54D36*
X15650Y-33450D02*
X15592Y-33450D01*
X15592Y-32559D01*
X15592Y-32343D01*
X15510Y-32144D01*
X15358Y-31991D01*
X15159Y-31908D01*
X14943Y-31908D01*
X14744Y-31990D01*
X14591Y-32142D01*
X14508Y-32341D01*
X14508Y-32557D01*
X14590Y-32756D01*
X14742Y-32909D01*
X14941Y-32992D01*
X15157Y-32992D01*
X15356Y-32910D01*
X15509Y-32758D01*
X15592Y-32559D01*
X15592Y-33450D01*
X13593Y-33450D01*
X13593Y-32859D01*
X13593Y-32792D01*
X13593Y-32042D01*
X13568Y-31980D01*
X13520Y-31933D01*
X13459Y-31907D01*
X13392Y-31907D01*
X13225Y-31907D01*
X13225Y-24865D01*
X13225Y-24736D01*
X13176Y-24616D01*
X13085Y-24525D01*
X12965Y-24475D01*
X12951Y-24475D01*
X12938Y-24462D01*
X12852Y-24404D01*
X12818Y-24397D01*
X12818Y-24342D01*
X12793Y-24280D01*
X12766Y-24253D01*
X12766Y-24200D01*
X12746Y-24098D01*
X12725Y-24066D01*
X12725Y-24036D01*
X12676Y-23916D01*
X12585Y-23825D01*
X12465Y-23775D01*
X12336Y-23775D01*
X12216Y-23824D01*
X12125Y-23915D01*
X12075Y-24035D01*
X12075Y-24164D01*
X12098Y-24221D01*
X12041Y-24164D01*
X11949Y-24126D01*
X11837Y-24125D01*
X11825Y-24137D01*
X11825Y-21837D01*
X11825Y-21613D01*
X11824Y-21501D01*
X11786Y-21409D01*
X11716Y-21339D01*
X11625Y-21301D01*
X11526Y-21301D01*
X11412Y-21300D01*
X11350Y-21362D01*
X11350Y-21675D01*
X11763Y-21675D01*
X11825Y-21613D01*
X11825Y-21837D01*
X11763Y-21775D01*
X11400Y-21775D01*
X11350Y-21775D01*
X11250Y-21775D01*
X11250Y-21675D01*
X11250Y-21362D01*
X11218Y-21330D01*
X11225Y-21315D01*
X11225Y-21186D01*
X11176Y-21066D01*
X11166Y-21056D01*
X11166Y-19900D01*
X11146Y-19798D01*
X11088Y-19712D01*
X11088Y-19711D01*
X10825Y-19448D01*
X10825Y-19436D01*
X10776Y-19316D01*
X10685Y-19225D01*
X10565Y-19175D01*
X10436Y-19175D01*
X10316Y-19224D01*
X10225Y-19315D01*
X10175Y-19435D01*
X10175Y-19564D01*
X10224Y-19684D01*
X10315Y-19775D01*
X10435Y-19825D01*
X10448Y-19825D01*
X10634Y-20010D01*
X10634Y-21056D01*
X10625Y-21065D01*
X10575Y-21185D01*
X10575Y-21300D01*
X10512Y-21300D01*
X10450Y-21362D01*
X10450Y-21675D01*
X10837Y-21675D01*
X10863Y-21675D01*
X11250Y-21675D01*
X11250Y-21775D01*
X11200Y-21775D01*
X10915Y-21775D01*
X10863Y-21775D01*
X10837Y-21775D01*
X10786Y-21775D01*
X10500Y-21775D01*
X10450Y-21775D01*
X10350Y-21775D01*
X10350Y-21675D01*
X10350Y-21362D01*
X10288Y-21300D01*
X10174Y-21301D01*
X10075Y-21301D01*
X09984Y-21339D01*
X09914Y-21409D01*
X09876Y-21501D01*
X09875Y-21613D01*
X09937Y-21675D01*
X10350Y-21675D01*
X10350Y-21775D01*
X10300Y-21775D01*
X09937Y-21775D01*
X09875Y-21837D01*
X09876Y-21949D01*
X09914Y-22041D01*
X09984Y-22111D01*
X10062Y-22143D01*
X10030Y-22157D01*
X09983Y-22205D01*
X09957Y-22266D01*
X09957Y-22333D01*
X09957Y-22683D01*
X09982Y-22745D01*
X10030Y-22792D01*
X10091Y-22818D01*
X10158Y-22818D01*
X10182Y-22818D01*
X10175Y-22835D01*
X10175Y-22964D01*
X10224Y-23084D01*
X10315Y-23175D01*
X10435Y-23225D01*
X10564Y-23225D01*
X10684Y-23176D01*
X10775Y-23085D01*
X10865Y-23175D01*
X10985Y-23225D01*
X11114Y-23225D01*
X11234Y-23176D01*
X11325Y-23085D01*
X11375Y-22965D01*
X11375Y-22883D01*
X11440Y-22818D01*
X11608Y-22818D01*
X11670Y-22793D01*
X11717Y-22745D01*
X11743Y-22684D01*
X11743Y-22617D01*
X11743Y-22267D01*
X11718Y-22205D01*
X11670Y-22158D01*
X11637Y-22143D01*
X11716Y-22111D01*
X11786Y-22041D01*
X11824Y-21949D01*
X11825Y-21837D01*
X11825Y-24137D01*
X11775Y-24187D01*
X11775Y-24550D01*
X11775Y-24600D01*
X11775Y-24700D01*
X11775Y-24750D01*
X11775Y-25113D01*
X11837Y-25175D01*
X11949Y-25174D01*
X12041Y-25136D01*
X12111Y-25066D01*
X12143Y-24987D01*
X12157Y-25020D01*
X12205Y-25067D01*
X12266Y-25093D01*
X12333Y-25093D01*
X12683Y-25093D01*
X12721Y-25077D01*
X12835Y-25125D01*
X12964Y-25125D01*
X13084Y-25076D01*
X13175Y-24985D01*
X13225Y-24865D01*
X13225Y-31907D01*
X13118Y-31907D01*
X13118Y-26709D01*
X13118Y-26642D01*
X13118Y-26092D01*
X13093Y-26030D01*
X13045Y-25983D01*
X12997Y-25962D01*
X13025Y-25935D01*
X13075Y-25815D01*
X13075Y-25686D01*
X13026Y-25566D01*
X12935Y-25475D01*
X12815Y-25425D01*
X12686Y-25425D01*
X12566Y-25474D01*
X12475Y-25565D01*
X12425Y-25685D01*
X12425Y-25814D01*
X12474Y-25934D01*
X12517Y-25977D01*
X12505Y-25982D01*
X12458Y-26030D01*
X12443Y-26062D01*
X12411Y-25984D01*
X12341Y-25914D01*
X12249Y-25876D01*
X12137Y-25875D01*
X12075Y-25937D01*
X12075Y-26300D01*
X12075Y-26350D01*
X12075Y-26450D01*
X12075Y-26500D01*
X12075Y-26863D01*
X12137Y-26925D01*
X12249Y-26924D01*
X12341Y-26886D01*
X12411Y-26816D01*
X12443Y-26737D01*
X12457Y-26770D01*
X12505Y-26817D01*
X12566Y-26843D01*
X12633Y-26843D01*
X12983Y-26843D01*
X13045Y-26818D01*
X13092Y-26770D01*
X13118Y-26709D01*
X13118Y-31907D01*
X12642Y-31907D01*
X12580Y-31932D01*
X12533Y-31980D01*
X12507Y-32041D01*
X12507Y-32108D01*
X12507Y-32858D01*
X12532Y-32920D01*
X12580Y-32967D01*
X12641Y-32993D01*
X12708Y-32993D01*
X13458Y-32993D01*
X13520Y-32968D01*
X13567Y-32920D01*
X13593Y-32859D01*
X13593Y-33450D01*
X11975Y-33450D01*
X11975Y-26863D01*
X11975Y-26450D01*
X11975Y-26350D01*
X11975Y-25937D01*
X11913Y-25875D01*
X11801Y-25876D01*
X11709Y-25914D01*
X11675Y-25948D01*
X11675Y-25113D01*
X11675Y-24700D01*
X11675Y-24600D01*
X11675Y-24187D01*
X11613Y-24125D01*
X11501Y-24126D01*
X11409Y-24164D01*
X11339Y-24234D01*
X11301Y-24325D01*
X11301Y-24424D01*
X11300Y-24538D01*
X11362Y-24600D01*
X11675Y-24600D01*
X11675Y-24700D01*
X11362Y-24700D01*
X11300Y-24762D01*
X11301Y-24876D01*
X11301Y-24975D01*
X11339Y-25066D01*
X11409Y-25136D01*
X11501Y-25174D01*
X11613Y-25175D01*
X11675Y-25113D01*
X11675Y-25948D01*
X11639Y-25984D01*
X11601Y-26075D01*
X11601Y-26174D01*
X11600Y-26288D01*
X11662Y-26350D01*
X11975Y-26350D01*
X11975Y-26450D01*
X11662Y-26450D01*
X11600Y-26512D01*
X11601Y-26626D01*
X11601Y-26725D01*
X11639Y-26816D01*
X11709Y-26886D01*
X11801Y-26924D01*
X11913Y-26925D01*
X11975Y-26863D01*
X11975Y-33450D01*
X11300Y-33450D01*
X11300Y-26512D01*
X11300Y-26288D01*
X11299Y-26174D01*
X11299Y-26075D01*
X11261Y-25984D01*
X11191Y-25914D01*
X11099Y-25876D01*
X10987Y-25875D01*
X10925Y-25937D01*
X10925Y-26350D01*
X11238Y-26350D01*
X11300Y-26288D01*
X11300Y-26512D01*
X11238Y-26450D01*
X10925Y-26450D01*
X10925Y-26863D01*
X10987Y-26925D01*
X11099Y-26924D01*
X11191Y-26886D01*
X11261Y-26816D01*
X11299Y-26725D01*
X11299Y-26626D01*
X11300Y-26512D01*
X11300Y-33450D01*
X10900Y-33450D01*
X10900Y-24762D01*
X10900Y-24538D01*
X10899Y-24424D01*
X10899Y-24325D01*
X10861Y-24234D01*
X10791Y-24164D01*
X10699Y-24126D01*
X10587Y-24125D01*
X10525Y-24187D01*
X10525Y-24600D01*
X10838Y-24600D01*
X10900Y-24538D01*
X10900Y-24762D01*
X10838Y-24700D01*
X10525Y-24700D01*
X10525Y-25113D01*
X10587Y-25175D01*
X10699Y-25174D01*
X10791Y-25136D01*
X10861Y-25066D01*
X10899Y-24975D01*
X10899Y-24876D01*
X10900Y-24762D01*
X10900Y-33450D01*
X10825Y-33450D01*
X10825Y-26863D01*
X10825Y-26500D01*
X10825Y-26450D01*
X10825Y-26350D01*
X10825Y-26300D01*
X10825Y-25937D01*
X10763Y-25875D01*
X10651Y-25876D01*
X10559Y-25914D01*
X10489Y-25984D01*
X10456Y-26062D01*
X10443Y-26030D01*
X10395Y-25983D01*
X10347Y-25962D01*
X10375Y-25935D01*
X10425Y-25815D01*
X10425Y-25686D01*
X10425Y-25113D01*
X10425Y-24750D01*
X10425Y-24700D01*
X10425Y-24600D01*
X10425Y-24550D01*
X10425Y-24187D01*
X10363Y-24125D01*
X10251Y-24126D01*
X10159Y-24164D01*
X10089Y-24234D01*
X10056Y-24312D01*
X10043Y-24280D01*
X09995Y-24233D01*
X09934Y-24207D01*
X09867Y-24207D01*
X09716Y-24207D01*
X09716Y-23844D01*
X09725Y-23835D01*
X09775Y-23715D01*
X09775Y-23586D01*
X09726Y-23466D01*
X09635Y-23375D01*
X09515Y-23325D01*
X09386Y-23325D01*
X09266Y-23374D01*
X09175Y-23465D01*
X09125Y-23585D01*
X09125Y-23714D01*
X09174Y-23834D01*
X09184Y-23844D01*
X09184Y-24375D01*
X09204Y-24477D01*
X09262Y-24563D01*
X09382Y-24683D01*
X09382Y-24958D01*
X09407Y-25020D01*
X09455Y-25067D01*
X09516Y-25093D01*
X09583Y-25093D01*
X09933Y-25093D01*
X09995Y-25068D01*
X10042Y-25020D01*
X10056Y-24987D01*
X10089Y-25066D01*
X10159Y-25136D01*
X10251Y-25174D01*
X10363Y-25175D01*
X10425Y-25113D01*
X10425Y-25686D01*
X10376Y-25566D01*
X10285Y-25475D01*
X10165Y-25425D01*
X10036Y-25425D01*
X09916Y-25474D01*
X09825Y-25565D01*
X09775Y-25685D01*
X09775Y-25814D01*
X09824Y-25934D01*
X09867Y-25977D01*
X09855Y-25982D01*
X09808Y-26030D01*
X09782Y-26091D01*
X09782Y-26158D01*
X09782Y-26708D01*
X09807Y-26770D01*
X09855Y-26817D01*
X09916Y-26843D01*
X09983Y-26843D01*
X10333Y-26843D01*
X10395Y-26818D01*
X10442Y-26770D01*
X10456Y-26737D01*
X10489Y-26816D01*
X10559Y-26886D01*
X10651Y-26924D01*
X10763Y-26925D01*
X10825Y-26863D01*
X10825Y-33450D01*
X10292Y-33450D01*
X10292Y-30238D01*
X10292Y-30062D01*
X10225Y-29900D01*
X10100Y-29775D01*
X09938Y-29708D01*
X09762Y-29708D01*
X09600Y-29775D01*
X09475Y-29900D01*
X09408Y-30062D01*
X09408Y-30238D01*
X09475Y-30400D01*
X09600Y-30525D01*
X09762Y-30592D01*
X09938Y-30592D01*
X10100Y-30525D01*
X10225Y-30400D01*
X10292Y-30238D01*
X10292Y-33450D01*
X09292Y-33450D01*
X09292Y-30238D01*
X09292Y-30062D01*
X09225Y-29900D01*
X09100Y-29775D01*
X09092Y-29771D01*
X09092Y-23088D01*
X09092Y-22912D01*
X09025Y-22750D01*
X08900Y-22625D01*
X08738Y-22558D01*
X08562Y-22558D01*
X08400Y-22625D01*
X08275Y-22750D01*
X08208Y-22912D01*
X08208Y-23088D01*
X08275Y-23250D01*
X08400Y-23375D01*
X08562Y-23442D01*
X08738Y-23442D01*
X08900Y-23375D01*
X09025Y-23250D01*
X09092Y-23088D01*
X09092Y-29771D01*
X08938Y-29708D01*
X08762Y-29708D01*
X08600Y-29775D01*
X08475Y-29900D01*
X08408Y-30062D01*
X08408Y-30238D01*
X08475Y-30400D01*
X08600Y-30525D01*
X08762Y-30592D01*
X08938Y-30592D01*
X09100Y-30525D01*
X09225Y-30400D01*
X09292Y-30238D01*
X09292Y-33450D01*
X07600Y-33450D01*
X07600Y-23442D01*
X07738Y-23442D01*
X07900Y-23375D01*
X08025Y-23250D01*
X08092Y-23088D01*
X08092Y-22912D01*
X08025Y-22750D01*
X07900Y-22625D01*
X07738Y-22558D01*
X07600Y-22558D01*
X07600Y-21100D01*
X07549Y-21100D01*
X07549Y-17031D01*
X07532Y-16948D01*
X07532Y-16947D01*
X07485Y-16877D01*
X06675Y-16067D01*
X06675Y-15986D01*
X06626Y-15866D01*
X06535Y-15775D01*
X06415Y-15725D01*
X06286Y-15725D01*
X06166Y-15774D01*
X06083Y-15857D01*
X06038Y-15857D01*
X06018Y-15805D01*
X05970Y-15758D01*
X05909Y-15732D01*
X05842Y-15732D01*
X05818Y-15732D01*
X05818Y-15468D01*
X05908Y-15468D01*
X05970Y-15443D01*
X06017Y-15395D01*
X06043Y-15334D01*
X06043Y-15267D01*
X06043Y-14917D01*
X06018Y-14855D01*
X05970Y-14808D01*
X05937Y-14793D01*
X06016Y-14761D01*
X06086Y-14691D01*
X06124Y-14599D01*
X06125Y-14487D01*
X06125Y-14263D01*
X06124Y-14151D01*
X06086Y-14059D01*
X06016Y-13989D01*
X05925Y-13951D01*
X05826Y-13951D01*
X05712Y-13950D01*
X05650Y-14012D01*
X05650Y-14325D01*
X06063Y-14325D01*
X06125Y-14263D01*
X06125Y-14487D01*
X06063Y-14425D01*
X05700Y-14425D01*
X05650Y-14425D01*
X05550Y-14425D01*
X05550Y-14325D01*
X05550Y-14012D01*
X05488Y-13950D01*
X05374Y-13951D01*
X05275Y-13951D01*
X05184Y-13989D01*
X05114Y-14059D01*
X05076Y-14151D01*
X05075Y-14263D01*
X05137Y-14325D01*
X05550Y-14325D01*
X05550Y-14425D01*
X05500Y-14425D01*
X05137Y-14425D01*
X05075Y-14487D01*
X05076Y-14599D01*
X05114Y-14691D01*
X05184Y-14761D01*
X05262Y-14793D01*
X05230Y-14807D01*
X05183Y-14855D01*
X05157Y-14916D01*
X05157Y-14983D01*
X05157Y-15333D01*
X05182Y-15395D01*
X05230Y-15442D01*
X05291Y-15468D01*
X05358Y-15468D01*
X05382Y-15468D01*
X05382Y-15732D01*
X05292Y-15732D01*
X05230Y-15757D01*
X05183Y-15805D01*
X05157Y-15866D01*
X05157Y-15870D01*
X05141Y-15874D01*
X05071Y-15921D01*
X04846Y-16146D01*
X04799Y-16217D01*
X04782Y-16300D01*
X04782Y-17650D01*
X04799Y-17733D01*
X04846Y-17804D01*
X05021Y-17979D01*
X05091Y-18025D01*
X05092Y-18026D01*
X05159Y-18039D01*
X05182Y-18095D01*
X05230Y-18142D01*
X05291Y-18168D01*
X05358Y-18168D01*
X05908Y-18168D01*
X05970Y-18143D01*
X06017Y-18095D01*
X06043Y-18034D01*
X06043Y-17967D01*
X06043Y-17617D01*
X06018Y-17555D01*
X05970Y-17508D01*
X05909Y-17482D01*
X05842Y-17482D01*
X05292Y-17482D01*
X05230Y-17507D01*
X05218Y-17519D01*
X05218Y-17130D01*
X05230Y-17142D01*
X05291Y-17168D01*
X05358Y-17168D01*
X05908Y-17168D01*
X05970Y-17143D01*
X06017Y-17095D01*
X06037Y-17047D01*
X06115Y-17125D01*
X06235Y-17175D01*
X06364Y-17175D01*
X06472Y-17130D01*
X06932Y-17590D01*
X06932Y-18524D01*
X06704Y-18296D01*
X06633Y-18249D01*
X06550Y-18232D01*
X06542Y-18232D01*
X06485Y-18175D01*
X06365Y-18125D01*
X06236Y-18125D01*
X06116Y-18174D01*
X06025Y-18265D01*
X06011Y-18298D01*
X05970Y-18258D01*
X05909Y-18232D01*
X05842Y-18232D01*
X05292Y-18232D01*
X05230Y-18257D01*
X05183Y-18305D01*
X05157Y-18366D01*
X05157Y-18433D01*
X05157Y-18783D01*
X05182Y-18845D01*
X05230Y-18892D01*
X05291Y-18918D01*
X05358Y-18918D01*
X05908Y-18918D01*
X05970Y-18893D01*
X05975Y-18887D01*
X05975Y-18914D01*
X06023Y-19032D01*
X04475Y-19032D01*
X03540Y-19032D01*
X03301Y-18793D01*
X03361Y-18793D01*
X03382Y-18845D01*
X03430Y-18892D01*
X03491Y-18918D01*
X03558Y-18918D01*
X04108Y-18918D01*
X04170Y-18893D01*
X04217Y-18845D01*
X04243Y-18784D01*
X04243Y-18717D01*
X04243Y-18367D01*
X04218Y-18305D01*
X04170Y-18258D01*
X04109Y-18232D01*
X04042Y-18232D01*
X03492Y-18232D01*
X03430Y-18257D01*
X03383Y-18305D01*
X03360Y-18357D01*
X03175Y-18357D01*
X03175Y-18336D01*
X03126Y-18216D01*
X03035Y-18125D01*
X02915Y-18075D01*
X02786Y-18075D01*
X02718Y-18102D01*
X02718Y-17340D01*
X02883Y-17175D01*
X02964Y-17175D01*
X03084Y-17126D01*
X03167Y-17043D01*
X03361Y-17043D01*
X03382Y-17095D01*
X03430Y-17142D01*
X03491Y-17168D01*
X03558Y-17168D01*
X04082Y-17168D01*
X04082Y-17482D01*
X04042Y-17482D01*
X03492Y-17482D01*
X03430Y-17507D01*
X03383Y-17555D01*
X03357Y-17616D01*
X03357Y-17683D01*
X03357Y-18033D01*
X03382Y-18095D01*
X03430Y-18142D01*
X03491Y-18168D01*
X03558Y-18168D01*
X04108Y-18168D01*
X04170Y-18143D01*
X04217Y-18095D01*
X04243Y-18034D01*
X04243Y-18002D01*
X04279Y-17979D01*
X04454Y-17804D01*
X04500Y-17734D01*
X04501Y-17733D01*
X04517Y-17650D01*
X04518Y-17650D01*
X04518Y-16250D01*
X04501Y-16167D01*
X04500Y-16166D01*
X04454Y-16096D01*
X04279Y-15921D01*
X04243Y-15897D01*
X04243Y-15867D01*
X04218Y-15805D01*
X04170Y-15758D01*
X04109Y-15732D01*
X04042Y-15732D01*
X04018Y-15732D01*
X04018Y-15468D01*
X04108Y-15468D01*
X04170Y-15443D01*
X04217Y-15395D01*
X04243Y-15334D01*
X04243Y-15267D01*
X04243Y-14917D01*
X04218Y-14855D01*
X04170Y-14808D01*
X04137Y-14793D01*
X04216Y-14761D01*
X04286Y-14691D01*
X04324Y-14599D01*
X04325Y-14487D01*
X04325Y-14263D01*
X04324Y-14151D01*
X04286Y-14059D01*
X04216Y-13989D01*
X04125Y-13951D01*
X04026Y-13951D01*
X03912Y-13950D01*
X03850Y-14012D01*
X03850Y-14325D01*
X04263Y-14325D01*
X04325Y-14263D01*
X04325Y-14487D01*
X04263Y-14425D01*
X03900Y-14425D01*
X03850Y-14425D01*
X03750Y-14425D01*
X03750Y-14325D01*
X03750Y-14012D01*
X03688Y-13950D01*
X03574Y-13951D01*
X03475Y-13951D01*
X03384Y-13989D01*
X03314Y-14059D01*
X03276Y-14151D01*
X03275Y-14263D01*
X03337Y-14325D01*
X03750Y-14325D01*
X03750Y-14425D01*
X03700Y-14425D01*
X03337Y-14425D01*
X03275Y-14487D01*
X03276Y-14599D01*
X03314Y-14691D01*
X03384Y-14761D01*
X03462Y-14793D01*
X03430Y-14807D01*
X03383Y-14855D01*
X03357Y-14916D01*
X03357Y-14983D01*
X03357Y-15333D01*
X03382Y-15395D01*
X03430Y-15442D01*
X03491Y-15468D01*
X03558Y-15468D01*
X03582Y-15468D01*
X03582Y-15732D01*
X03492Y-15732D01*
X03430Y-15757D01*
X03383Y-15805D01*
X03357Y-15866D01*
X03357Y-15933D01*
X03357Y-16283D01*
X03382Y-16345D01*
X03430Y-16392D01*
X03491Y-16418D01*
X03558Y-16418D01*
X04082Y-16418D01*
X04082Y-16482D01*
X04042Y-16482D01*
X03492Y-16482D01*
X03430Y-16507D01*
X03383Y-16555D01*
X03360Y-16607D01*
X03117Y-16607D01*
X03085Y-16575D01*
X02965Y-16525D01*
X02836Y-16525D01*
X02716Y-16574D01*
X02625Y-16665D01*
X02575Y-16785D01*
X02575Y-16866D01*
X02346Y-17096D01*
X02299Y-17167D01*
X02282Y-17250D01*
X02282Y-18600D01*
X02299Y-18683D01*
X02346Y-18754D01*
X03196Y-19604D01*
X03267Y-19651D01*
X03350Y-19668D01*
X05860Y-19668D01*
X05946Y-19754D01*
X06016Y-19801D01*
X06017Y-19801D01*
X06100Y-19818D01*
X06400Y-19818D01*
X06483Y-19801D01*
X06554Y-19754D01*
X06632Y-19676D01*
X06632Y-21100D01*
X01100Y-21100D01*
X01100Y-13550D01*
X07729Y-13550D01*
X14732Y-20553D01*
X14732Y-23760D01*
X14710Y-23782D01*
X13692Y-23782D01*
X13635Y-23725D01*
X13515Y-23675D01*
X13386Y-23675D01*
X13266Y-23724D01*
X13175Y-23815D01*
X13125Y-23935D01*
X13125Y-24064D01*
X13174Y-24184D01*
X13265Y-24275D01*
X13385Y-24325D01*
X13425Y-24325D01*
X13425Y-24364D01*
X13474Y-24484D01*
X13565Y-24575D01*
X13685Y-24625D01*
X13814Y-24625D01*
X13934Y-24576D01*
X13992Y-24518D01*
X14800Y-24518D01*
X14883Y-24501D01*
X14954Y-24454D01*
X15303Y-24105D01*
X15303Y-24104D01*
X15304Y-24104D01*
X15350Y-24034D01*
X15351Y-24033D01*
X15367Y-23951D01*
X15368Y-23950D01*
X15368Y-21189D01*
X15650Y-21471D01*
X15650Y-33450D01*
G54D10*
G36*
X15650Y-40100D02*
X15642Y-40100D01*
X15642Y-38659D01*
X15642Y-38443D01*
X15560Y-38244D01*
X15408Y-38091D01*
X15209Y-38008D01*
X14993Y-38008D01*
X14794Y-38090D01*
X14641Y-38242D01*
X14558Y-38441D01*
X14558Y-38657D01*
X14640Y-38856D01*
X14792Y-39009D01*
X14991Y-39092D01*
X15207Y-39092D01*
X15406Y-39010D01*
X15559Y-38858D01*
X15642Y-38659D01*
X15642Y-40100D01*
X13643Y-40100D01*
X13643Y-38959D01*
X13643Y-38892D01*
X13643Y-38142D01*
X13618Y-38080D01*
X13570Y-38033D01*
X13509Y-38007D01*
X13442Y-38007D01*
X12692Y-38007D01*
X12630Y-38032D01*
X12583Y-38080D01*
X12557Y-38141D01*
X12557Y-38208D01*
X12557Y-38958D01*
X12582Y-39020D01*
X12630Y-39067D01*
X12691Y-39093D01*
X12758Y-39093D01*
X13508Y-39093D01*
X13570Y-39068D01*
X13617Y-39020D01*
X13643Y-38959D01*
X13643Y-40100D01*
X10292Y-40100D01*
X10292Y-36338D01*
X10292Y-36162D01*
X10225Y-36000D01*
X10100Y-35875D01*
X09938Y-35808D01*
X09762Y-35808D01*
X09600Y-35875D01*
X09475Y-36000D01*
X09408Y-36162D01*
X09408Y-36338D01*
X09475Y-36500D01*
X09600Y-36625D01*
X09762Y-36692D01*
X09938Y-36692D01*
X10100Y-36625D01*
X10225Y-36500D01*
X10292Y-36338D01*
X10292Y-40100D01*
X10114Y-40100D01*
X10114Y-40000D01*
X10082Y-39842D01*
X09993Y-39707D01*
X09858Y-39618D01*
X09700Y-39586D01*
X09542Y-39618D01*
X09407Y-39707D01*
X09318Y-39842D01*
X09292Y-39970D01*
X09292Y-36338D01*
X09292Y-36162D01*
X09225Y-36000D01*
X09100Y-35875D01*
X08938Y-35808D01*
X08762Y-35808D01*
X08600Y-35875D01*
X08475Y-36000D01*
X08408Y-36162D01*
X08408Y-36338D01*
X08475Y-36500D01*
X08600Y-36625D01*
X08762Y-36692D01*
X08938Y-36692D01*
X09100Y-36625D01*
X09225Y-36500D01*
X09292Y-36338D01*
X09292Y-39970D01*
X09286Y-40000D01*
X09286Y-40100D01*
X07600Y-40100D01*
X07600Y-33700D01*
X15650Y-33700D01*
X15650Y-40100D01*
X15650Y-40100D01*
G37*
G54D36*
X15650Y-40100D02*
X15642Y-40100D01*
X15642Y-38659D01*
X15642Y-38443D01*
X15560Y-38244D01*
X15408Y-38091D01*
X15209Y-38008D01*
X14993Y-38008D01*
X14794Y-38090D01*
X14641Y-38242D01*
X14558Y-38441D01*
X14558Y-38657D01*
X14640Y-38856D01*
X14792Y-39009D01*
X14991Y-39092D01*
X15207Y-39092D01*
X15406Y-39010D01*
X15559Y-38858D01*
X15642Y-38659D01*
X15642Y-40100D01*
X13643Y-40100D01*
X13643Y-38959D01*
X13643Y-38892D01*
X13643Y-38142D01*
X13618Y-38080D01*
X13570Y-38033D01*
X13509Y-38007D01*
X13442Y-38007D01*
X12692Y-38007D01*
X12630Y-38032D01*
X12583Y-38080D01*
X12557Y-38141D01*
X12557Y-38208D01*
X12557Y-38958D01*
X12582Y-39020D01*
X12630Y-39067D01*
X12691Y-39093D01*
X12758Y-39093D01*
X13508Y-39093D01*
X13570Y-39068D01*
X13617Y-39020D01*
X13643Y-38959D01*
X13643Y-40100D01*
X10292Y-40100D01*
X10292Y-36338D01*
X10292Y-36162D01*
X10225Y-36000D01*
X10100Y-35875D01*
X09938Y-35808D01*
X09762Y-35808D01*
X09600Y-35875D01*
X09475Y-36000D01*
X09408Y-36162D01*
X09408Y-36338D01*
X09475Y-36500D01*
X09600Y-36625D01*
X09762Y-36692D01*
X09938Y-36692D01*
X10100Y-36625D01*
X10225Y-36500D01*
X10292Y-36338D01*
X10292Y-40100D01*
X10114Y-40100D01*
X10114Y-40000D01*
X10082Y-39842D01*
X09993Y-39707D01*
X09858Y-39618D01*
X09700Y-39586D01*
X09542Y-39618D01*
X09407Y-39707D01*
X09318Y-39842D01*
X09292Y-39970D01*
X09292Y-36338D01*
X09292Y-36162D01*
X09225Y-36000D01*
X09100Y-35875D01*
X08938Y-35808D01*
X08762Y-35808D01*
X08600Y-35875D01*
X08475Y-36000D01*
X08408Y-36162D01*
X08408Y-36338D01*
X08475Y-36500D01*
X08600Y-36625D01*
X08762Y-36692D01*
X08938Y-36692D01*
X09100Y-36625D01*
X09225Y-36500D01*
X09292Y-36338D01*
X09292Y-39970D01*
X09286Y-40000D01*
X09286Y-40100D01*
X07600Y-40100D01*
X07600Y-33700D01*
X15650Y-33700D01*
X15650Y-40100D01*
G54D10*
G36*
X24106Y-13415D02*
X24035Y-13486D01*
X24000Y-13521D01*
X23964Y-13557D01*
X23814Y-13707D01*
X23814Y-13795D01*
X23819Y-13800D01*
X23795Y-13825D01*
X23714Y-13905D01*
X23714Y-13993D01*
X23900Y-14179D01*
X23829Y-14250D01*
X23643Y-14064D01*
X23555Y-14064D01*
X23475Y-14145D01*
X23420Y-14199D01*
X23231Y-14010D01*
X23294Y-13947D01*
X23332Y-13855D01*
X23332Y-13756D01*
X23295Y-13665D01*
X23225Y-13595D01*
X23145Y-13514D01*
X23057Y-13514D01*
X22896Y-13675D01*
X22825Y-13604D01*
X22986Y-13443D01*
X22986Y-13355D01*
X22975Y-13345D01*
X23445Y-12874D01*
X23486Y-12915D01*
X23415Y-12986D01*
X23380Y-13021D01*
X23123Y-13278D01*
X23123Y-13365D01*
X23203Y-13444D01*
X23295Y-13482D01*
X23394Y-13482D01*
X23485Y-13445D01*
X23487Y-13442D01*
X23505Y-13485D01*
X23575Y-13555D01*
X23655Y-13636D01*
X23743Y-13636D01*
X23929Y-13450D01*
X23964Y-13415D01*
X24035Y-13344D01*
X24106Y-13415D01*
X24106Y-13415D01*
G37*
G54D36*
X24106Y-13415D02*
X24035Y-13486D01*
X24000Y-13521D01*
X23964Y-13557D01*
X23814Y-13707D01*
X23814Y-13795D01*
X23819Y-13800D01*
X23795Y-13825D01*
X23714Y-13905D01*
X23714Y-13993D01*
X23900Y-14179D01*
X23829Y-14250D01*
X23643Y-14064D01*
X23555Y-14064D01*
X23475Y-14145D01*
X23420Y-14199D01*
X23231Y-14010D01*
X23294Y-13947D01*
X23332Y-13855D01*
X23332Y-13756D01*
X23295Y-13665D01*
X23225Y-13595D01*
X23145Y-13514D01*
X23057Y-13514D01*
X22896Y-13675D01*
X22825Y-13604D01*
X22986Y-13443D01*
X22986Y-13355D01*
X22975Y-13345D01*
X23445Y-12874D01*
X23486Y-12915D01*
X23415Y-12986D01*
X23380Y-13021D01*
X23123Y-13278D01*
X23123Y-13365D01*
X23203Y-13444D01*
X23295Y-13482D01*
X23394Y-13482D01*
X23485Y-13445D01*
X23487Y-13442D01*
X23505Y-13485D01*
X23575Y-13555D01*
X23655Y-13636D01*
X23743Y-13636D01*
X23929Y-13450D01*
X23964Y-13415D01*
X24035Y-13344D01*
X24106Y-13415D01*
M02*
