M48
;DRILL file {PCBnew (2010-12-18 BZR 2669)-stable} date 2011-01-01T22:16:14 CET
;FORMAT={-:-/ absolute / metric / decimal}
FMAT,2
METRIC,TZ
T1C0.351
T2C0.813
T3C0.899
T4C1.016
T5C1.194
T6C1.224
T7C1.298
T8C1.400
T9C3.000
%
G90
G05
M71
T1
X7.239Y-33.147
X7.239Y-46.736
X7.366Y-42.799
X9.017Y-13.208
X10.160Y-78.994
X11.176Y-47.625
X11.176Y-51.054
X12.573Y-27.686
X13.589Y-69.596
X15.240Y-75.184
X15.240Y-78.867
X15.240Y-79.883
X15.875Y-28.067
X15.875Y-30.607
X16.002Y-42.799
X16.002Y-46.863
X16.002Y-47.879
X16.002Y-48.895
X16.129Y-33.147
X16.129Y-40.767
X16.129Y-51.054
X16.637Y-13.589
X17.018Y-23.368
X17.399Y-59.055
X18.161Y-24.384
X18.161Y-60.960
X19.812Y-51.054
X20.955Y-55.118
X21.717Y-73.914
X21.717Y-89.154
X24.003Y-60.071
X24.638Y-101.600
X25.019Y-24.892
X25.654Y-65.405
X26.416Y-53.975
X26.670Y-49.530
X26.670Y-58.166
X26.797Y-24.384
X26.797Y-60.960
X27.178Y-13.589
X27.432Y-78.740
X27.432Y-93.472
X27.559Y-56.134
X27.686Y-53.975
X28.067Y-58.166
X29.210Y-58.293
X29.337Y-60.960
X29.591Y-89.281
X29.718Y-20.066
X29.718Y-28.702
X29.845Y-73.914
X31.496Y-61.214
X31.623Y-20.574
X32.385Y-65.405
X32.766Y-62.992
X34.163Y-60.960
X34.417Y-89.281
X34.460Y-73.914
X34.925Y-61.722
X35.814Y-55.880
X35.941Y-20.320
X37.592Y-11.684
X39.751Y-11.684
X41.656Y-46.101
X43.307Y-31.496
X43.434Y-13.589
X43.434Y-28.956
X43.434Y-46.736
X43.561Y-87.630
X43.688Y-27.559
X43.815Y-37.592
X44.196Y-39.878
X44.704Y-46.736
X45.085Y-28.702
X45.720Y-62.865
X46.863Y-23.876
X48.514Y-32.131
X50.546Y-23.622
X51.054Y-30.353
X53.467Y-26.543
X53.594Y-28.321
X56.134Y-33.147
X56.261Y-41.783
X56.388Y-43.053
X57.277Y-32.258
X57.531Y-37.338
X58.547Y-34.671
X59.944Y-33.274
X59.944Y-40.005
X60.579Y-35.433
X62.992Y-31.750
X63.246Y-36.449
X63.881Y-40.894
X63.881Y-42.037
X63.881Y-43.180
X64.008Y-46.736
X65.151Y-35.306
X65.659Y-21.463
X67.056Y-29.845
X67.437Y-31.623
X68.834Y-28.829
X68.834Y-44.196
X69.215Y-30.988
X69.596Y-25.400
X69.596Y-40.767
X70.104Y-34.290
X70.485Y-39.878
X70.993Y-32.766
X71.247Y-20.955
X71.247Y-25.400
X71.247Y-42.418
X72.009Y-32.639
X72.009Y-57.912
X72.136Y-31.623
X74.676Y-31.242
X75.946Y-13.716
X84.582Y-16.891
X86.233Y-25.527
X86.233Y-27.813
X86.614Y-22.098
X88.265Y-25.527
X89.662Y-22.860
X91.948Y-16.129
X92.075Y-23.241
X92.202Y-13.716
X92.456Y-26.416
X92.583Y-49.784
X94.107Y-42.672
X94.107Y-52.832
X94.869Y-46.609
X97.536Y-46.609
T2
X4.318Y-67.056
X4.318Y-69.596
X4.318Y-72.136
X9.398Y-65.786
X9.398Y-68.326
X9.398Y-70.866
X9.398Y-73.406
X19.431Y-58.420
X21.971Y-58.420
X22.479Y-76.581
X22.479Y-92.075
X25.019Y-76.581
X25.019Y-92.075
X33.147Y-82.423
X33.274Y-97.917
X38.227Y-82.423
X38.354Y-97.917
T3
X4.572Y-15.875
X6.858Y-15.875
X7.874Y-9.370
X8.890Y-11.311
X9.906Y-9.370
X10.922Y-11.311
X11.938Y-9.370
X12.954Y-11.311
X13.970Y-9.370
X14.986Y-11.311
X16.002Y-15.875
X18.288Y-15.875
X20.828Y-15.875
X23.114Y-15.875
X24.130Y-9.370
X25.146Y-11.311
X26.162Y-9.370
X27.178Y-11.311
X28.194Y-9.370
X29.210Y-11.311
X30.226Y-9.370
X31.242Y-11.311
X32.258Y-15.875
X34.544Y-15.875
X37.084Y-15.875
X39.370Y-15.875
X40.386Y-9.370
X41.402Y-11.311
X42.418Y-9.370
X43.434Y-11.311
X44.450Y-9.370
X45.466Y-11.311
X46.482Y-9.370
X47.498Y-11.311
X48.514Y-15.875
X50.800Y-15.875
X53.340Y-15.875
X55.626Y-15.875
X56.642Y-9.370
X57.658Y-11.311
X58.674Y-9.370
X59.690Y-11.311
X60.706Y-9.370
X61.722Y-11.311
X62.738Y-9.370
X63.754Y-11.311
X64.770Y-15.875
X67.056Y-15.875
X69.596Y-15.875
X71.882Y-15.875
X72.898Y-9.370
X73.914Y-11.311
X74.930Y-9.370
X75.946Y-11.311
X76.962Y-9.370
X77.978Y-11.311
X78.994Y-9.370
X80.010Y-11.311
X81.026Y-15.875
X83.312Y-15.875
X85.852Y-15.875
X88.138Y-15.875
X89.154Y-9.370
X90.170Y-11.311
X91.186Y-9.370
X92.202Y-11.311
X93.218Y-9.370
X94.234Y-11.311
X95.250Y-9.370
X96.266Y-11.311
X97.282Y-15.875
X99.568Y-15.875
T4
X7.493Y-56.896
X11.938Y-96.901
X12.573Y-56.896
X17.018Y-96.901
X30.099Y-32.512
X30.099Y-35.052
X32.611Y-43.551
X32.639Y-32.512
X32.639Y-35.052
X34.163Y-23.876
X34.163Y-26.416
X34.407Y-41.755
X34.407Y-45.349
X35.179Y-32.512
X35.179Y-35.052
X36.205Y-43.551
X36.205Y-47.145
X36.703Y-23.876
X36.703Y-26.416
X37.719Y-32.512
X37.719Y-35.052
X38.001Y-45.349
X40.259Y-32.512
X40.259Y-35.052
X58.801Y-46.355
X58.801Y-48.895
X58.801Y-51.435
X58.801Y-53.975
X58.801Y-56.515
X58.801Y-59.055
X64.897Y-48.895
X64.897Y-51.435
X64.897Y-53.975
X64.897Y-56.515
X64.897Y-59.055
X67.437Y-48.895
X67.437Y-51.435
X67.437Y-53.975
X67.437Y-56.515
X67.437Y-59.055
T5
X10.160Y-81.661
X10.160Y-89.281
T6
X51.308Y-100.711
X56.388Y-100.711
X66.787Y-100.800
X71.788Y-100.800
X76.789Y-100.800
X81.788Y-100.800
X86.789Y-100.800
X91.791Y-100.800
T7
X72.898Y-75.311
X72.898Y-85.471
X72.898Y-93.091
X80.518Y-75.311
X80.518Y-90.551
X89.408Y-75.311
X89.408Y-85.471
X89.408Y-93.091
X97.028Y-75.311
X97.028Y-90.551
T8
X3.556Y-10.287
X19.558Y-10.287
X35.814Y-10.287
X52.070Y-10.287
X68.326Y-10.287
X84.582Y-10.287
X100.838Y-10.287
T9
X5.080Y-6.731
X5.588Y-20.701
X5.588Y-101.092
X17.780Y-6.731
X21.336Y-6.731
X34.036Y-6.731
X37.592Y-6.731
X50.292Y-6.731
X53.848Y-6.731
X66.548Y-6.731
X70.104Y-6.731
X82.804Y-6.731
X86.360Y-6.731
X98.552Y-20.701
X98.679Y-101.092
X99.060Y-6.731
T0
M30
